G04 #@! TF.FileFunction,Copper,L2,Bot,Signal*
%FSLAX46Y46*%
G04 Gerber Fmt 4.6, Leading zero omitted, Abs format (unit mm)*
G04 Created by KiCad (PCBNEW 4.0.7) date 02/25/18 21:17:54*
%MOMM*%
%LPD*%
G01*
G04 APERTURE LIST*
%ADD10C,0.100000*%
%ADD11R,2.800000X2.800000*%
%ADD12C,2.800000*%
%ADD13C,1.600000*%
%ADD14R,1.600000X1.600000*%
%ADD15R,1.700000X1.700000*%
%ADD16O,1.700000X1.700000*%
%ADD17C,0.600000*%
%ADD18C,0.250000*%
%ADD19C,0.254000*%
G04 APERTURE END LIST*
D10*
D11*
X84074000Y-41529000D03*
D12*
X88274000Y-41529000D03*
X92474000Y-41529000D03*
X84074000Y-47029000D03*
X88274000Y-47029000D03*
X92474000Y-47029000D03*
D13*
X85979000Y-74930000D03*
X88519000Y-74930000D03*
X91059000Y-74930000D03*
X83439000Y-74930000D03*
X80899000Y-74930000D03*
X78359000Y-74930000D03*
X75819000Y-74930000D03*
X73279000Y-74930000D03*
X70739000Y-74930000D03*
X68199000Y-74930000D03*
D14*
X65659000Y-74930000D03*
D13*
X93599000Y-74930000D03*
X96139000Y-74930000D03*
X98679000Y-74930000D03*
X101219000Y-74930000D03*
X103759000Y-74930000D03*
X106299000Y-74930000D03*
X108839000Y-74930000D03*
X111379000Y-74930000D03*
X113919000Y-74930000D03*
X113919000Y-69850000D03*
X113919000Y-67310000D03*
X113919000Y-64770000D03*
X113919000Y-59690000D03*
X111379000Y-59690000D03*
X108839000Y-59690000D03*
X106299000Y-59690000D03*
X103759000Y-59690000D03*
X101219000Y-59690000D03*
X98679000Y-59690000D03*
X96139000Y-59690000D03*
X93599000Y-59690000D03*
X91059000Y-59690000D03*
X88519000Y-59690000D03*
X85979000Y-59690000D03*
X83439000Y-59690000D03*
X80899000Y-59690000D03*
X78359000Y-59690000D03*
X75819000Y-59690000D03*
X73279000Y-59690000D03*
X70739000Y-59690000D03*
X68199000Y-59690000D03*
X65659000Y-59690000D03*
X98679000Y-64770000D03*
X101219000Y-64770000D03*
X103759000Y-64770000D03*
X106299000Y-64770000D03*
X98679000Y-67310000D03*
X101219000Y-67310000D03*
X103759000Y-67310000D03*
X106299000Y-67310000D03*
X106299000Y-69850000D03*
D15*
X104394000Y-115316000D03*
D16*
X104394000Y-112776000D03*
X106934000Y-115316000D03*
X106934000Y-112776000D03*
X109474000Y-115316000D03*
X109474000Y-112776000D03*
X112014000Y-115316000D03*
X112014000Y-112776000D03*
X114554000Y-115316000D03*
X114554000Y-112776000D03*
D15*
X66802000Y-115443000D03*
D16*
X66802000Y-112903000D03*
X69342000Y-115443000D03*
X69342000Y-112903000D03*
X71882000Y-115443000D03*
X71882000Y-112903000D03*
X74422000Y-115443000D03*
X74422000Y-112903000D03*
X76962000Y-115443000D03*
X76962000Y-112903000D03*
D17*
X84709000Y-80391000D03*
D18*
X106934000Y-102616000D02*
X106934000Y-112776000D01*
X84709000Y-80391000D02*
X106934000Y-102616000D01*
X80899000Y-59690000D02*
X80899000Y-67691000D01*
X109474000Y-101981000D02*
X109474000Y-112776000D01*
X87249000Y-79756000D02*
X109474000Y-101981000D01*
X87249000Y-74041000D02*
X87249000Y-79756000D01*
X80899000Y-67691000D02*
X87249000Y-74041000D01*
X78359000Y-59690000D02*
X78359000Y-67564000D01*
X69342000Y-107950000D02*
X69342000Y-112903000D01*
X72009000Y-105283000D02*
X69342000Y-107950000D01*
X72009000Y-72390000D02*
X72009000Y-105283000D01*
X73025000Y-71374000D02*
X72009000Y-72390000D01*
X74549000Y-71374000D02*
X73025000Y-71374000D01*
X78359000Y-67564000D02*
X74549000Y-71374000D01*
D19*
G36*
X171196000Y-131572000D02*
X40004832Y-131572000D01*
X39979700Y-112546108D01*
X65360514Y-112546108D01*
X65481181Y-112776000D01*
X66675000Y-112776000D01*
X66675000Y-111582845D01*
X66445110Y-111461524D01*
X66035076Y-111631355D01*
X65606817Y-112021642D01*
X65360514Y-112546108D01*
X39979700Y-112546108D01*
X39930386Y-75215750D01*
X64224000Y-75215750D01*
X64224000Y-75856310D01*
X64320673Y-76089699D01*
X64499302Y-76268327D01*
X64732691Y-76365000D01*
X65373250Y-76365000D01*
X65532000Y-76206250D01*
X65532000Y-75057000D01*
X64382750Y-75057000D01*
X64224000Y-75215750D01*
X39930386Y-75215750D01*
X39928785Y-74003690D01*
X64224000Y-74003690D01*
X64224000Y-74644250D01*
X64382750Y-74803000D01*
X65532000Y-74803000D01*
X65532000Y-73653750D01*
X65373250Y-73495000D01*
X64732691Y-73495000D01*
X64499302Y-73591673D01*
X64320673Y-73770301D01*
X64224000Y-74003690D01*
X39928785Y-74003690D01*
X39910252Y-59974187D01*
X64223752Y-59974187D01*
X64441757Y-60501800D01*
X64845077Y-60905824D01*
X65372309Y-61124750D01*
X65943187Y-61125248D01*
X66470800Y-60907243D01*
X66874824Y-60503923D01*
X66928862Y-60373785D01*
X66981757Y-60501800D01*
X67385077Y-60905824D01*
X67912309Y-61124750D01*
X68483187Y-61125248D01*
X69010800Y-60907243D01*
X69414824Y-60503923D01*
X69468862Y-60373785D01*
X69521757Y-60501800D01*
X69925077Y-60905824D01*
X70452309Y-61124750D01*
X71023187Y-61125248D01*
X71550800Y-60907243D01*
X71954824Y-60503923D01*
X72008862Y-60373785D01*
X72061757Y-60501800D01*
X72465077Y-60905824D01*
X72992309Y-61124750D01*
X73563187Y-61125248D01*
X74090800Y-60907243D01*
X74494824Y-60503923D01*
X74548862Y-60373785D01*
X74601757Y-60501800D01*
X75005077Y-60905824D01*
X75532309Y-61124750D01*
X76103187Y-61125248D01*
X76630800Y-60907243D01*
X77034824Y-60503923D01*
X77088862Y-60373785D01*
X77141757Y-60501800D01*
X77545077Y-60905824D01*
X77599000Y-60928215D01*
X77599000Y-67249198D01*
X74234198Y-70614000D01*
X73025000Y-70614000D01*
X72734161Y-70671852D01*
X72487599Y-70836599D01*
X71471599Y-71852599D01*
X71306852Y-72099161D01*
X71249000Y-72390000D01*
X71249000Y-73587976D01*
X71025691Y-73495250D01*
X70454813Y-73494752D01*
X69927200Y-73712757D01*
X69523176Y-74116077D01*
X69469138Y-74246215D01*
X69416243Y-74118200D01*
X69012923Y-73714176D01*
X68485691Y-73495250D01*
X67914813Y-73494752D01*
X67387200Y-73712757D01*
X67094000Y-74005446D01*
X67094000Y-74003690D01*
X66997327Y-73770301D01*
X66818698Y-73591673D01*
X66585309Y-73495000D01*
X65944750Y-73495000D01*
X65786000Y-73653750D01*
X65786000Y-74803000D01*
X65806000Y-74803000D01*
X65806000Y-75057000D01*
X65786000Y-75057000D01*
X65786000Y-76206250D01*
X65944750Y-76365000D01*
X66585309Y-76365000D01*
X66818698Y-76268327D01*
X66997327Y-76089699D01*
X67094000Y-75856310D01*
X67094000Y-75854239D01*
X67385077Y-76145824D01*
X67912309Y-76364750D01*
X68483187Y-76365248D01*
X69010800Y-76147243D01*
X69414824Y-75743923D01*
X69468862Y-75613785D01*
X69521757Y-75741800D01*
X69925077Y-76145824D01*
X70452309Y-76364750D01*
X71023187Y-76365248D01*
X71249000Y-76271944D01*
X71249000Y-104968198D01*
X68804599Y-107412599D01*
X68639852Y-107659161D01*
X68582000Y-107950000D01*
X68582000Y-111630046D01*
X68291946Y-111823853D01*
X68064298Y-112164553D01*
X67997183Y-112021642D01*
X67568924Y-111631355D01*
X67158890Y-111461524D01*
X66929000Y-111582845D01*
X66929000Y-112776000D01*
X66949000Y-112776000D01*
X66949000Y-113030000D01*
X66929000Y-113030000D01*
X66929000Y-113050000D01*
X66675000Y-113050000D01*
X66675000Y-113030000D01*
X65481181Y-113030000D01*
X65360514Y-113259892D01*
X65606817Y-113784358D01*
X65812504Y-113971808D01*
X65716683Y-113989838D01*
X65500559Y-114128910D01*
X65355569Y-114341110D01*
X65304560Y-114593000D01*
X65304560Y-116293000D01*
X65348838Y-116528317D01*
X65487910Y-116744441D01*
X65700110Y-116889431D01*
X65952000Y-116940440D01*
X67652000Y-116940440D01*
X67887317Y-116896162D01*
X68103441Y-116757090D01*
X68248431Y-116544890D01*
X68262086Y-116477459D01*
X68291946Y-116522147D01*
X68773715Y-116844054D01*
X69342000Y-116957093D01*
X69910285Y-116844054D01*
X70392054Y-116522147D01*
X70612000Y-116192974D01*
X70831946Y-116522147D01*
X71313715Y-116844054D01*
X71882000Y-116957093D01*
X72450285Y-116844054D01*
X72932054Y-116522147D01*
X73152000Y-116192974D01*
X73371946Y-116522147D01*
X73853715Y-116844054D01*
X74422000Y-116957093D01*
X74990285Y-116844054D01*
X75472054Y-116522147D01*
X75692000Y-116192974D01*
X75911946Y-116522147D01*
X76393715Y-116844054D01*
X76962000Y-116957093D01*
X77530285Y-116844054D01*
X78012054Y-116522147D01*
X78333961Y-116040378D01*
X78447000Y-115472093D01*
X78447000Y-115413907D01*
X78333961Y-114845622D01*
X78012054Y-114363853D01*
X77726422Y-114173000D01*
X78012054Y-113982147D01*
X78333961Y-113500378D01*
X78447000Y-112932093D01*
X78447000Y-112873907D01*
X78356535Y-112419108D01*
X102952514Y-112419108D01*
X103073181Y-112649000D01*
X104267000Y-112649000D01*
X104267000Y-111455845D01*
X104037110Y-111334524D01*
X103627076Y-111504355D01*
X103198817Y-111894642D01*
X102952514Y-112419108D01*
X78356535Y-112419108D01*
X78333961Y-112305622D01*
X78012054Y-111823853D01*
X77530285Y-111501946D01*
X76962000Y-111388907D01*
X76393715Y-111501946D01*
X75911946Y-111823853D01*
X75692000Y-112153026D01*
X75472054Y-111823853D01*
X74990285Y-111501946D01*
X74422000Y-111388907D01*
X73853715Y-111501946D01*
X73371946Y-111823853D01*
X73152000Y-112153026D01*
X72932054Y-111823853D01*
X72450285Y-111501946D01*
X71882000Y-111388907D01*
X71313715Y-111501946D01*
X70831946Y-111823853D01*
X70612000Y-112153026D01*
X70392054Y-111823853D01*
X70102000Y-111630046D01*
X70102000Y-108264802D01*
X72546401Y-105820401D01*
X72711148Y-105573839D01*
X72769000Y-105283000D01*
X72769000Y-76272024D01*
X72992309Y-76364750D01*
X73563187Y-76365248D01*
X74090800Y-76147243D01*
X74494824Y-75743923D01*
X74548862Y-75613785D01*
X74601757Y-75741800D01*
X75005077Y-76145824D01*
X75532309Y-76364750D01*
X76103187Y-76365248D01*
X76630800Y-76147243D01*
X77034824Y-75743923D01*
X77088862Y-75613785D01*
X77141757Y-75741800D01*
X77545077Y-76145824D01*
X78072309Y-76364750D01*
X78643187Y-76365248D01*
X79170800Y-76147243D01*
X79574824Y-75743923D01*
X79628862Y-75613785D01*
X79681757Y-75741800D01*
X80085077Y-76145824D01*
X80612309Y-76364750D01*
X81183187Y-76365248D01*
X81710800Y-76147243D01*
X82114824Y-75743923D01*
X82168862Y-75613785D01*
X82221757Y-75741800D01*
X82625077Y-76145824D01*
X83152309Y-76364750D01*
X83723187Y-76365248D01*
X84250800Y-76147243D01*
X84654824Y-75743923D01*
X84708862Y-75613785D01*
X84761757Y-75741800D01*
X85165077Y-76145824D01*
X85692309Y-76364750D01*
X86263187Y-76365248D01*
X86489000Y-76271944D01*
X86489000Y-79756000D01*
X86546852Y-80046839D01*
X86711599Y-80293401D01*
X108714000Y-102295802D01*
X108714000Y-111503046D01*
X108423946Y-111696853D01*
X108204000Y-112026026D01*
X107984054Y-111696853D01*
X107694000Y-111503046D01*
X107694000Y-102616000D01*
X107636148Y-102325161D01*
X107636148Y-102325160D01*
X107471401Y-102078599D01*
X85644122Y-80251320D01*
X85644162Y-80205833D01*
X85502117Y-79862057D01*
X85239327Y-79598808D01*
X84895799Y-79456162D01*
X84523833Y-79455838D01*
X84180057Y-79597883D01*
X83916808Y-79860673D01*
X83774162Y-80204201D01*
X83773838Y-80576167D01*
X83915883Y-80919943D01*
X84178673Y-81183192D01*
X84522201Y-81325838D01*
X84569077Y-81325879D01*
X106174000Y-102930802D01*
X106174000Y-111503046D01*
X105883946Y-111696853D01*
X105656298Y-112037553D01*
X105589183Y-111894642D01*
X105160924Y-111504355D01*
X104750890Y-111334524D01*
X104521000Y-111455845D01*
X104521000Y-112649000D01*
X104541000Y-112649000D01*
X104541000Y-112903000D01*
X104521000Y-112903000D01*
X104521000Y-112923000D01*
X104267000Y-112923000D01*
X104267000Y-112903000D01*
X103073181Y-112903000D01*
X102952514Y-113132892D01*
X103198817Y-113657358D01*
X103404504Y-113844808D01*
X103308683Y-113862838D01*
X103092559Y-114001910D01*
X102947569Y-114214110D01*
X102896560Y-114466000D01*
X102896560Y-116166000D01*
X102940838Y-116401317D01*
X103079910Y-116617441D01*
X103292110Y-116762431D01*
X103544000Y-116813440D01*
X105244000Y-116813440D01*
X105479317Y-116769162D01*
X105695441Y-116630090D01*
X105840431Y-116417890D01*
X105854086Y-116350459D01*
X105883946Y-116395147D01*
X106365715Y-116717054D01*
X106934000Y-116830093D01*
X107502285Y-116717054D01*
X107984054Y-116395147D01*
X108204000Y-116065974D01*
X108423946Y-116395147D01*
X108905715Y-116717054D01*
X109474000Y-116830093D01*
X110042285Y-116717054D01*
X110524054Y-116395147D01*
X110744000Y-116065974D01*
X110963946Y-116395147D01*
X111445715Y-116717054D01*
X112014000Y-116830093D01*
X112582285Y-116717054D01*
X113064054Y-116395147D01*
X113284000Y-116065974D01*
X113503946Y-116395147D01*
X113985715Y-116717054D01*
X114554000Y-116830093D01*
X115122285Y-116717054D01*
X115604054Y-116395147D01*
X115925961Y-115913378D01*
X116039000Y-115345093D01*
X116039000Y-115286907D01*
X115925961Y-114718622D01*
X115604054Y-114236853D01*
X115318422Y-114046000D01*
X115604054Y-113855147D01*
X115925961Y-113373378D01*
X116039000Y-112805093D01*
X116039000Y-112746907D01*
X115925961Y-112178622D01*
X115604054Y-111696853D01*
X115122285Y-111374946D01*
X114554000Y-111261907D01*
X113985715Y-111374946D01*
X113503946Y-111696853D01*
X113284000Y-112026026D01*
X113064054Y-111696853D01*
X112582285Y-111374946D01*
X112014000Y-111261907D01*
X111445715Y-111374946D01*
X110963946Y-111696853D01*
X110744000Y-112026026D01*
X110524054Y-111696853D01*
X110234000Y-111503046D01*
X110234000Y-101981000D01*
X110176148Y-101690161D01*
X110176148Y-101690160D01*
X110011401Y-101443599D01*
X88009000Y-79441198D01*
X88009000Y-76272024D01*
X88232309Y-76364750D01*
X88803187Y-76365248D01*
X89330800Y-76147243D01*
X89734824Y-75743923D01*
X89788862Y-75613785D01*
X89841757Y-75741800D01*
X90245077Y-76145824D01*
X90772309Y-76364750D01*
X91343187Y-76365248D01*
X91870800Y-76147243D01*
X92274824Y-75743923D01*
X92328862Y-75613785D01*
X92381757Y-75741800D01*
X92785077Y-76145824D01*
X93312309Y-76364750D01*
X93883187Y-76365248D01*
X94410800Y-76147243D01*
X94814824Y-75743923D01*
X94868862Y-75613785D01*
X94921757Y-75741800D01*
X95325077Y-76145824D01*
X95852309Y-76364750D01*
X96423187Y-76365248D01*
X96950800Y-76147243D01*
X97354824Y-75743923D01*
X97408862Y-75613785D01*
X97461757Y-75741800D01*
X97865077Y-76145824D01*
X98392309Y-76364750D01*
X98963187Y-76365248D01*
X99490800Y-76147243D01*
X99894824Y-75743923D01*
X99948862Y-75613785D01*
X100001757Y-75741800D01*
X100405077Y-76145824D01*
X100932309Y-76364750D01*
X101503187Y-76365248D01*
X102030800Y-76147243D01*
X102434824Y-75743923D01*
X102488862Y-75613785D01*
X102541757Y-75741800D01*
X102945077Y-76145824D01*
X103472309Y-76364750D01*
X104043187Y-76365248D01*
X104570800Y-76147243D01*
X104974824Y-75743923D01*
X105028862Y-75613785D01*
X105081757Y-75741800D01*
X105485077Y-76145824D01*
X106012309Y-76364750D01*
X106583187Y-76365248D01*
X107110800Y-76147243D01*
X107514824Y-75743923D01*
X107568862Y-75613785D01*
X107621757Y-75741800D01*
X108025077Y-76145824D01*
X108552309Y-76364750D01*
X109123187Y-76365248D01*
X109650800Y-76147243D01*
X110054824Y-75743923D01*
X110108862Y-75613785D01*
X110161757Y-75741800D01*
X110565077Y-76145824D01*
X111092309Y-76364750D01*
X111663187Y-76365248D01*
X112190800Y-76147243D01*
X112594824Y-75743923D01*
X112648862Y-75613785D01*
X112701757Y-75741800D01*
X113105077Y-76145824D01*
X113632309Y-76364750D01*
X114203187Y-76365248D01*
X114730800Y-76147243D01*
X115134824Y-75743923D01*
X115353750Y-75216691D01*
X115354248Y-74645813D01*
X115136243Y-74118200D01*
X114732923Y-73714176D01*
X114205691Y-73495250D01*
X113634813Y-73494752D01*
X113107200Y-73712757D01*
X112703176Y-74116077D01*
X112649138Y-74246215D01*
X112596243Y-74118200D01*
X112192923Y-73714176D01*
X111665691Y-73495250D01*
X111094813Y-73494752D01*
X110567200Y-73712757D01*
X110163176Y-74116077D01*
X110109138Y-74246215D01*
X110056243Y-74118200D01*
X109652923Y-73714176D01*
X109125691Y-73495250D01*
X108554813Y-73494752D01*
X108027200Y-73712757D01*
X107623176Y-74116077D01*
X107569138Y-74246215D01*
X107516243Y-74118200D01*
X107112923Y-73714176D01*
X106585691Y-73495250D01*
X106014813Y-73494752D01*
X105487200Y-73712757D01*
X105083176Y-74116077D01*
X105029138Y-74246215D01*
X104976243Y-74118200D01*
X104572923Y-73714176D01*
X104045691Y-73495250D01*
X103474813Y-73494752D01*
X102947200Y-73712757D01*
X102543176Y-74116077D01*
X102489138Y-74246215D01*
X102436243Y-74118200D01*
X102032923Y-73714176D01*
X101505691Y-73495250D01*
X100934813Y-73494752D01*
X100407200Y-73712757D01*
X100003176Y-74116077D01*
X99949138Y-74246215D01*
X99896243Y-74118200D01*
X99492923Y-73714176D01*
X98965691Y-73495250D01*
X98394813Y-73494752D01*
X97867200Y-73712757D01*
X97463176Y-74116077D01*
X97409138Y-74246215D01*
X97356243Y-74118200D01*
X96952923Y-73714176D01*
X96425691Y-73495250D01*
X95854813Y-73494752D01*
X95327200Y-73712757D01*
X94923176Y-74116077D01*
X94869138Y-74246215D01*
X94816243Y-74118200D01*
X94412923Y-73714176D01*
X93885691Y-73495250D01*
X93314813Y-73494752D01*
X92787200Y-73712757D01*
X92383176Y-74116077D01*
X92329138Y-74246215D01*
X92276243Y-74118200D01*
X91872923Y-73714176D01*
X91345691Y-73495250D01*
X90774813Y-73494752D01*
X90247200Y-73712757D01*
X89843176Y-74116077D01*
X89789138Y-74246215D01*
X89736243Y-74118200D01*
X89332923Y-73714176D01*
X88805691Y-73495250D01*
X88234813Y-73494752D01*
X87878784Y-73641860D01*
X87786401Y-73503599D01*
X81659000Y-67376198D01*
X81659000Y-65054187D01*
X97243752Y-65054187D01*
X97461757Y-65581800D01*
X97865077Y-65985824D01*
X97995215Y-66039862D01*
X97867200Y-66092757D01*
X97463176Y-66496077D01*
X97244250Y-67023309D01*
X97243752Y-67594187D01*
X97461757Y-68121800D01*
X97865077Y-68525824D01*
X98392309Y-68744750D01*
X98963187Y-68745248D01*
X99490800Y-68527243D01*
X99894824Y-68123923D01*
X99948862Y-67993785D01*
X100001757Y-68121800D01*
X100405077Y-68525824D01*
X100932309Y-68744750D01*
X101503187Y-68745248D01*
X102030800Y-68527243D01*
X102434824Y-68123923D01*
X102488862Y-67993785D01*
X102541757Y-68121800D01*
X102945077Y-68525824D01*
X103472309Y-68744750D01*
X104043187Y-68745248D01*
X104570800Y-68527243D01*
X104974824Y-68123923D01*
X105028862Y-67993785D01*
X105081757Y-68121800D01*
X105485077Y-68525824D01*
X105615215Y-68579862D01*
X105487200Y-68632757D01*
X105083176Y-69036077D01*
X104864250Y-69563309D01*
X104863752Y-70134187D01*
X105081757Y-70661800D01*
X105485077Y-71065824D01*
X106012309Y-71284750D01*
X106583187Y-71285248D01*
X107110800Y-71067243D01*
X107514824Y-70663923D01*
X107733750Y-70136691D01*
X107733752Y-70134187D01*
X112483752Y-70134187D01*
X112701757Y-70661800D01*
X113105077Y-71065824D01*
X113632309Y-71284750D01*
X114203187Y-71285248D01*
X114730800Y-71067243D01*
X115134824Y-70663923D01*
X115353750Y-70136691D01*
X115354248Y-69565813D01*
X115136243Y-69038200D01*
X114732923Y-68634176D01*
X114618232Y-68586552D01*
X114673005Y-68563864D01*
X114747139Y-68317745D01*
X113919000Y-67489605D01*
X113090861Y-68317745D01*
X113164995Y-68563864D01*
X113223254Y-68584805D01*
X113107200Y-68632757D01*
X112703176Y-69036077D01*
X112484250Y-69563309D01*
X112483752Y-70134187D01*
X107733752Y-70134187D01*
X107734248Y-69565813D01*
X107516243Y-69038200D01*
X107112923Y-68634176D01*
X106982785Y-68580138D01*
X107110800Y-68527243D01*
X107514824Y-68123923D01*
X107733750Y-67596691D01*
X107734189Y-67093223D01*
X112472035Y-67093223D01*
X112499222Y-67663454D01*
X112665136Y-68064005D01*
X112911255Y-68138139D01*
X113739395Y-67310000D01*
X114098605Y-67310000D01*
X114926745Y-68138139D01*
X115172864Y-68064005D01*
X115365965Y-67526777D01*
X115338778Y-66956546D01*
X115172864Y-66555995D01*
X114926745Y-66481861D01*
X114098605Y-67310000D01*
X113739395Y-67310000D01*
X112911255Y-66481861D01*
X112665136Y-66555995D01*
X112472035Y-67093223D01*
X107734189Y-67093223D01*
X107734248Y-67025813D01*
X107516243Y-66498200D01*
X107112923Y-66094176D01*
X106982785Y-66040138D01*
X107110800Y-65987243D01*
X107514824Y-65583923D01*
X107733750Y-65056691D01*
X107733752Y-65054187D01*
X112483752Y-65054187D01*
X112701757Y-65581800D01*
X113105077Y-65985824D01*
X113219768Y-66033448D01*
X113164995Y-66056136D01*
X113090861Y-66302255D01*
X113919000Y-67130395D01*
X114747139Y-66302255D01*
X114673005Y-66056136D01*
X114614746Y-66035195D01*
X114730800Y-65987243D01*
X115134824Y-65583923D01*
X115353750Y-65056691D01*
X115354248Y-64485813D01*
X115136243Y-63958200D01*
X114732923Y-63554176D01*
X114205691Y-63335250D01*
X113634813Y-63334752D01*
X113107200Y-63552757D01*
X112703176Y-63956077D01*
X112484250Y-64483309D01*
X112483752Y-65054187D01*
X107733752Y-65054187D01*
X107734248Y-64485813D01*
X107516243Y-63958200D01*
X107112923Y-63554176D01*
X106585691Y-63335250D01*
X106014813Y-63334752D01*
X105487200Y-63552757D01*
X105083176Y-63956077D01*
X105029138Y-64086215D01*
X104976243Y-63958200D01*
X104572923Y-63554176D01*
X104045691Y-63335250D01*
X103474813Y-63334752D01*
X102947200Y-63552757D01*
X102543176Y-63956077D01*
X102489138Y-64086215D01*
X102436243Y-63958200D01*
X102032923Y-63554176D01*
X101505691Y-63335250D01*
X100934813Y-63334752D01*
X100407200Y-63552757D01*
X100003176Y-63956077D01*
X99949138Y-64086215D01*
X99896243Y-63958200D01*
X99492923Y-63554176D01*
X98965691Y-63335250D01*
X98394813Y-63334752D01*
X97867200Y-63552757D01*
X97463176Y-63956077D01*
X97244250Y-64483309D01*
X97243752Y-65054187D01*
X81659000Y-65054187D01*
X81659000Y-60928646D01*
X81710800Y-60907243D01*
X82114824Y-60503923D01*
X82168862Y-60373785D01*
X82221757Y-60501800D01*
X82625077Y-60905824D01*
X83152309Y-61124750D01*
X83723187Y-61125248D01*
X84250800Y-60907243D01*
X84654824Y-60503923D01*
X84708862Y-60373785D01*
X84761757Y-60501800D01*
X85165077Y-60905824D01*
X85692309Y-61124750D01*
X86263187Y-61125248D01*
X86790800Y-60907243D01*
X87194824Y-60503923D01*
X87248862Y-60373785D01*
X87301757Y-60501800D01*
X87705077Y-60905824D01*
X88232309Y-61124750D01*
X88803187Y-61125248D01*
X89330800Y-60907243D01*
X89734824Y-60503923D01*
X89788862Y-60373785D01*
X89841757Y-60501800D01*
X90245077Y-60905824D01*
X90772309Y-61124750D01*
X91343187Y-61125248D01*
X91870800Y-60907243D01*
X92274824Y-60503923D01*
X92328862Y-60373785D01*
X92381757Y-60501800D01*
X92785077Y-60905824D01*
X93312309Y-61124750D01*
X93883187Y-61125248D01*
X94410800Y-60907243D01*
X94814824Y-60503923D01*
X94868862Y-60373785D01*
X94921757Y-60501800D01*
X95325077Y-60905824D01*
X95852309Y-61124750D01*
X96423187Y-61125248D01*
X96950800Y-60907243D01*
X97354824Y-60503923D01*
X97408862Y-60373785D01*
X97461757Y-60501800D01*
X97865077Y-60905824D01*
X98392309Y-61124750D01*
X98963187Y-61125248D01*
X99490800Y-60907243D01*
X99894824Y-60503923D01*
X99948862Y-60373785D01*
X100001757Y-60501800D01*
X100405077Y-60905824D01*
X100932309Y-61124750D01*
X101503187Y-61125248D01*
X102030800Y-60907243D01*
X102434824Y-60503923D01*
X102488862Y-60373785D01*
X102541757Y-60501800D01*
X102945077Y-60905824D01*
X103472309Y-61124750D01*
X104043187Y-61125248D01*
X104570800Y-60907243D01*
X104974824Y-60503923D01*
X105028862Y-60373785D01*
X105081757Y-60501800D01*
X105485077Y-60905824D01*
X106012309Y-61124750D01*
X106583187Y-61125248D01*
X107110800Y-60907243D01*
X107514824Y-60503923D01*
X107568862Y-60373785D01*
X107621757Y-60501800D01*
X108025077Y-60905824D01*
X108552309Y-61124750D01*
X109123187Y-61125248D01*
X109650800Y-60907243D01*
X110054824Y-60503923D01*
X110108862Y-60373785D01*
X110161757Y-60501800D01*
X110565077Y-60905824D01*
X111092309Y-61124750D01*
X111663187Y-61125248D01*
X112190800Y-60907243D01*
X112594824Y-60503923D01*
X112648862Y-60373785D01*
X112701757Y-60501800D01*
X113105077Y-60905824D01*
X113632309Y-61124750D01*
X114203187Y-61125248D01*
X114730800Y-60907243D01*
X115134824Y-60503923D01*
X115353750Y-59976691D01*
X115354248Y-59405813D01*
X115136243Y-58878200D01*
X114732923Y-58474176D01*
X114205691Y-58255250D01*
X113634813Y-58254752D01*
X113107200Y-58472757D01*
X112703176Y-58876077D01*
X112649138Y-59006215D01*
X112596243Y-58878200D01*
X112192923Y-58474176D01*
X111665691Y-58255250D01*
X111094813Y-58254752D01*
X110567200Y-58472757D01*
X110163176Y-58876077D01*
X110109138Y-59006215D01*
X110056243Y-58878200D01*
X109652923Y-58474176D01*
X109125691Y-58255250D01*
X108554813Y-58254752D01*
X108027200Y-58472757D01*
X107623176Y-58876077D01*
X107569138Y-59006215D01*
X107516243Y-58878200D01*
X107112923Y-58474176D01*
X106585691Y-58255250D01*
X106014813Y-58254752D01*
X105487200Y-58472757D01*
X105083176Y-58876077D01*
X105029138Y-59006215D01*
X104976243Y-58878200D01*
X104572923Y-58474176D01*
X104045691Y-58255250D01*
X103474813Y-58254752D01*
X102947200Y-58472757D01*
X102543176Y-58876077D01*
X102489138Y-59006215D01*
X102436243Y-58878200D01*
X102032923Y-58474176D01*
X101505691Y-58255250D01*
X100934813Y-58254752D01*
X100407200Y-58472757D01*
X100003176Y-58876077D01*
X99949138Y-59006215D01*
X99896243Y-58878200D01*
X99492923Y-58474176D01*
X98965691Y-58255250D01*
X98394813Y-58254752D01*
X97867200Y-58472757D01*
X97463176Y-58876077D01*
X97409138Y-59006215D01*
X97356243Y-58878200D01*
X96952923Y-58474176D01*
X96425691Y-58255250D01*
X95854813Y-58254752D01*
X95327200Y-58472757D01*
X94923176Y-58876077D01*
X94869138Y-59006215D01*
X94816243Y-58878200D01*
X94412923Y-58474176D01*
X93885691Y-58255250D01*
X93314813Y-58254752D01*
X92787200Y-58472757D01*
X92383176Y-58876077D01*
X92329138Y-59006215D01*
X92276243Y-58878200D01*
X91872923Y-58474176D01*
X91345691Y-58255250D01*
X90774813Y-58254752D01*
X90247200Y-58472757D01*
X89843176Y-58876077D01*
X89789138Y-59006215D01*
X89736243Y-58878200D01*
X89332923Y-58474176D01*
X88805691Y-58255250D01*
X88234813Y-58254752D01*
X87707200Y-58472757D01*
X87303176Y-58876077D01*
X87249138Y-59006215D01*
X87196243Y-58878200D01*
X86792923Y-58474176D01*
X86265691Y-58255250D01*
X85694813Y-58254752D01*
X85167200Y-58472757D01*
X84763176Y-58876077D01*
X84709138Y-59006215D01*
X84656243Y-58878200D01*
X84252923Y-58474176D01*
X83725691Y-58255250D01*
X83154813Y-58254752D01*
X82627200Y-58472757D01*
X82223176Y-58876077D01*
X82169138Y-59006215D01*
X82116243Y-58878200D01*
X81712923Y-58474176D01*
X81185691Y-58255250D01*
X80614813Y-58254752D01*
X80087200Y-58472757D01*
X79683176Y-58876077D01*
X79629138Y-59006215D01*
X79576243Y-58878200D01*
X79172923Y-58474176D01*
X78645691Y-58255250D01*
X78074813Y-58254752D01*
X77547200Y-58472757D01*
X77143176Y-58876077D01*
X77089138Y-59006215D01*
X77036243Y-58878200D01*
X76632923Y-58474176D01*
X76105691Y-58255250D01*
X75534813Y-58254752D01*
X75007200Y-58472757D01*
X74603176Y-58876077D01*
X74549138Y-59006215D01*
X74496243Y-58878200D01*
X74092923Y-58474176D01*
X73565691Y-58255250D01*
X72994813Y-58254752D01*
X72467200Y-58472757D01*
X72063176Y-58876077D01*
X72009138Y-59006215D01*
X71956243Y-58878200D01*
X71552923Y-58474176D01*
X71025691Y-58255250D01*
X70454813Y-58254752D01*
X69927200Y-58472757D01*
X69523176Y-58876077D01*
X69469138Y-59006215D01*
X69416243Y-58878200D01*
X69012923Y-58474176D01*
X68485691Y-58255250D01*
X67914813Y-58254752D01*
X67387200Y-58472757D01*
X66983176Y-58876077D01*
X66929138Y-59006215D01*
X66876243Y-58878200D01*
X66472923Y-58474176D01*
X65945691Y-58255250D01*
X65374813Y-58254752D01*
X64847200Y-58472757D01*
X64443176Y-58876077D01*
X64224250Y-59403309D01*
X64223752Y-59974187D01*
X39910252Y-59974187D01*
X39893102Y-46991815D01*
X77238630Y-46991815D01*
X77562980Y-47776800D01*
X78163041Y-48377909D01*
X78947459Y-48703628D01*
X79796815Y-48704370D01*
X80581800Y-48380020D01*
X81182909Y-47779959D01*
X81327389Y-47432011D01*
X82038648Y-47432011D01*
X82347805Y-48180229D01*
X82919760Y-48753183D01*
X83667438Y-49063646D01*
X84477011Y-49064352D01*
X85225229Y-48755195D01*
X85798183Y-48183240D01*
X86108646Y-47435562D01*
X86108649Y-47432011D01*
X86238648Y-47432011D01*
X86547805Y-48180229D01*
X87119760Y-48753183D01*
X87867438Y-49063646D01*
X88677011Y-49064352D01*
X89425229Y-48755195D01*
X89998183Y-48183240D01*
X90308646Y-47435562D01*
X90308649Y-47432011D01*
X90438648Y-47432011D01*
X90747805Y-48180229D01*
X91319760Y-48753183D01*
X92067438Y-49063646D01*
X92877011Y-49064352D01*
X93625229Y-48755195D01*
X94198183Y-48183240D01*
X94508646Y-47435562D01*
X94509032Y-46991815D01*
X95038630Y-46991815D01*
X95362980Y-47776800D01*
X95963041Y-48377909D01*
X96747459Y-48703628D01*
X97596815Y-48704370D01*
X98381800Y-48380020D01*
X98982909Y-47779959D01*
X99308628Y-46995541D01*
X99309370Y-46146185D01*
X98985020Y-45361200D01*
X98384959Y-44760091D01*
X97600541Y-44434372D01*
X96751185Y-44433630D01*
X95966200Y-44757980D01*
X95365091Y-45358041D01*
X95039372Y-46142459D01*
X95038630Y-46991815D01*
X94509032Y-46991815D01*
X94509352Y-46625989D01*
X94200195Y-45877771D01*
X93628240Y-45304817D01*
X92880562Y-44994354D01*
X92070989Y-44993648D01*
X91322771Y-45302805D01*
X90749817Y-45874760D01*
X90439354Y-46622438D01*
X90438648Y-47432011D01*
X90308649Y-47432011D01*
X90309352Y-46625989D01*
X90000195Y-45877771D01*
X89428240Y-45304817D01*
X88680562Y-44994354D01*
X87870989Y-44993648D01*
X87122771Y-45302805D01*
X86549817Y-45874760D01*
X86239354Y-46622438D01*
X86238648Y-47432011D01*
X86108649Y-47432011D01*
X86109352Y-46625989D01*
X85800195Y-45877771D01*
X85228240Y-45304817D01*
X84480562Y-44994354D01*
X83670989Y-44993648D01*
X82922771Y-45302805D01*
X82349817Y-45874760D01*
X82039354Y-46622438D01*
X82038648Y-47432011D01*
X81327389Y-47432011D01*
X81508628Y-46995541D01*
X81509370Y-46146185D01*
X81185020Y-45361200D01*
X80584959Y-44760091D01*
X79800541Y-44434372D01*
X78951185Y-44433630D01*
X78166200Y-44757980D01*
X77565091Y-45358041D01*
X77239372Y-46142459D01*
X77238630Y-46991815D01*
X39893102Y-46991815D01*
X39884037Y-40129000D01*
X82026560Y-40129000D01*
X82026560Y-42929000D01*
X82070838Y-43164317D01*
X82209910Y-43380441D01*
X82422110Y-43525431D01*
X82674000Y-43576440D01*
X85474000Y-43576440D01*
X85709317Y-43532162D01*
X85925441Y-43393090D01*
X86070431Y-43180890D01*
X86121440Y-42929000D01*
X86121440Y-41932011D01*
X86238648Y-41932011D01*
X86547805Y-42680229D01*
X87119760Y-43253183D01*
X87867438Y-43563646D01*
X88677011Y-43564352D01*
X89425229Y-43255195D01*
X89998183Y-42683240D01*
X90308646Y-41935562D01*
X90308649Y-41932011D01*
X90438648Y-41932011D01*
X90747805Y-42680229D01*
X91319760Y-43253183D01*
X92067438Y-43563646D01*
X92877011Y-43564352D01*
X93625229Y-43255195D01*
X94198183Y-42683240D01*
X94508646Y-41935562D01*
X94509352Y-41125989D01*
X94200195Y-40377771D01*
X93628240Y-39804817D01*
X92880562Y-39494354D01*
X92070989Y-39493648D01*
X91322771Y-39802805D01*
X90749817Y-40374760D01*
X90439354Y-41122438D01*
X90438648Y-41932011D01*
X90308649Y-41932011D01*
X90309352Y-41125989D01*
X90000195Y-40377771D01*
X89428240Y-39804817D01*
X88680562Y-39494354D01*
X87870989Y-39493648D01*
X87122771Y-39802805D01*
X86549817Y-40374760D01*
X86239354Y-41122438D01*
X86238648Y-41932011D01*
X86121440Y-41932011D01*
X86121440Y-40129000D01*
X86077162Y-39893683D01*
X85938090Y-39677559D01*
X85725890Y-39532569D01*
X85474000Y-39481560D01*
X82674000Y-39481560D01*
X82438683Y-39525838D01*
X82222559Y-39664910D01*
X82077569Y-39877110D01*
X82026560Y-40129000D01*
X39884037Y-40129000D01*
X39878168Y-35687000D01*
X171196000Y-35687000D01*
X171196000Y-131572000D01*
X171196000Y-131572000D01*
G37*
X171196000Y-131572000D02*
X40004832Y-131572000D01*
X39979700Y-112546108D01*
X65360514Y-112546108D01*
X65481181Y-112776000D01*
X66675000Y-112776000D01*
X66675000Y-111582845D01*
X66445110Y-111461524D01*
X66035076Y-111631355D01*
X65606817Y-112021642D01*
X65360514Y-112546108D01*
X39979700Y-112546108D01*
X39930386Y-75215750D01*
X64224000Y-75215750D01*
X64224000Y-75856310D01*
X64320673Y-76089699D01*
X64499302Y-76268327D01*
X64732691Y-76365000D01*
X65373250Y-76365000D01*
X65532000Y-76206250D01*
X65532000Y-75057000D01*
X64382750Y-75057000D01*
X64224000Y-75215750D01*
X39930386Y-75215750D01*
X39928785Y-74003690D01*
X64224000Y-74003690D01*
X64224000Y-74644250D01*
X64382750Y-74803000D01*
X65532000Y-74803000D01*
X65532000Y-73653750D01*
X65373250Y-73495000D01*
X64732691Y-73495000D01*
X64499302Y-73591673D01*
X64320673Y-73770301D01*
X64224000Y-74003690D01*
X39928785Y-74003690D01*
X39910252Y-59974187D01*
X64223752Y-59974187D01*
X64441757Y-60501800D01*
X64845077Y-60905824D01*
X65372309Y-61124750D01*
X65943187Y-61125248D01*
X66470800Y-60907243D01*
X66874824Y-60503923D01*
X66928862Y-60373785D01*
X66981757Y-60501800D01*
X67385077Y-60905824D01*
X67912309Y-61124750D01*
X68483187Y-61125248D01*
X69010800Y-60907243D01*
X69414824Y-60503923D01*
X69468862Y-60373785D01*
X69521757Y-60501800D01*
X69925077Y-60905824D01*
X70452309Y-61124750D01*
X71023187Y-61125248D01*
X71550800Y-60907243D01*
X71954824Y-60503923D01*
X72008862Y-60373785D01*
X72061757Y-60501800D01*
X72465077Y-60905824D01*
X72992309Y-61124750D01*
X73563187Y-61125248D01*
X74090800Y-60907243D01*
X74494824Y-60503923D01*
X74548862Y-60373785D01*
X74601757Y-60501800D01*
X75005077Y-60905824D01*
X75532309Y-61124750D01*
X76103187Y-61125248D01*
X76630800Y-60907243D01*
X77034824Y-60503923D01*
X77088862Y-60373785D01*
X77141757Y-60501800D01*
X77545077Y-60905824D01*
X77599000Y-60928215D01*
X77599000Y-67249198D01*
X74234198Y-70614000D01*
X73025000Y-70614000D01*
X72734161Y-70671852D01*
X72487599Y-70836599D01*
X71471599Y-71852599D01*
X71306852Y-72099161D01*
X71249000Y-72390000D01*
X71249000Y-73587976D01*
X71025691Y-73495250D01*
X70454813Y-73494752D01*
X69927200Y-73712757D01*
X69523176Y-74116077D01*
X69469138Y-74246215D01*
X69416243Y-74118200D01*
X69012923Y-73714176D01*
X68485691Y-73495250D01*
X67914813Y-73494752D01*
X67387200Y-73712757D01*
X67094000Y-74005446D01*
X67094000Y-74003690D01*
X66997327Y-73770301D01*
X66818698Y-73591673D01*
X66585309Y-73495000D01*
X65944750Y-73495000D01*
X65786000Y-73653750D01*
X65786000Y-74803000D01*
X65806000Y-74803000D01*
X65806000Y-75057000D01*
X65786000Y-75057000D01*
X65786000Y-76206250D01*
X65944750Y-76365000D01*
X66585309Y-76365000D01*
X66818698Y-76268327D01*
X66997327Y-76089699D01*
X67094000Y-75856310D01*
X67094000Y-75854239D01*
X67385077Y-76145824D01*
X67912309Y-76364750D01*
X68483187Y-76365248D01*
X69010800Y-76147243D01*
X69414824Y-75743923D01*
X69468862Y-75613785D01*
X69521757Y-75741800D01*
X69925077Y-76145824D01*
X70452309Y-76364750D01*
X71023187Y-76365248D01*
X71249000Y-76271944D01*
X71249000Y-104968198D01*
X68804599Y-107412599D01*
X68639852Y-107659161D01*
X68582000Y-107950000D01*
X68582000Y-111630046D01*
X68291946Y-111823853D01*
X68064298Y-112164553D01*
X67997183Y-112021642D01*
X67568924Y-111631355D01*
X67158890Y-111461524D01*
X66929000Y-111582845D01*
X66929000Y-112776000D01*
X66949000Y-112776000D01*
X66949000Y-113030000D01*
X66929000Y-113030000D01*
X66929000Y-113050000D01*
X66675000Y-113050000D01*
X66675000Y-113030000D01*
X65481181Y-113030000D01*
X65360514Y-113259892D01*
X65606817Y-113784358D01*
X65812504Y-113971808D01*
X65716683Y-113989838D01*
X65500559Y-114128910D01*
X65355569Y-114341110D01*
X65304560Y-114593000D01*
X65304560Y-116293000D01*
X65348838Y-116528317D01*
X65487910Y-116744441D01*
X65700110Y-116889431D01*
X65952000Y-116940440D01*
X67652000Y-116940440D01*
X67887317Y-116896162D01*
X68103441Y-116757090D01*
X68248431Y-116544890D01*
X68262086Y-116477459D01*
X68291946Y-116522147D01*
X68773715Y-116844054D01*
X69342000Y-116957093D01*
X69910285Y-116844054D01*
X70392054Y-116522147D01*
X70612000Y-116192974D01*
X70831946Y-116522147D01*
X71313715Y-116844054D01*
X71882000Y-116957093D01*
X72450285Y-116844054D01*
X72932054Y-116522147D01*
X73152000Y-116192974D01*
X73371946Y-116522147D01*
X73853715Y-116844054D01*
X74422000Y-116957093D01*
X74990285Y-116844054D01*
X75472054Y-116522147D01*
X75692000Y-116192974D01*
X75911946Y-116522147D01*
X76393715Y-116844054D01*
X76962000Y-116957093D01*
X77530285Y-116844054D01*
X78012054Y-116522147D01*
X78333961Y-116040378D01*
X78447000Y-115472093D01*
X78447000Y-115413907D01*
X78333961Y-114845622D01*
X78012054Y-114363853D01*
X77726422Y-114173000D01*
X78012054Y-113982147D01*
X78333961Y-113500378D01*
X78447000Y-112932093D01*
X78447000Y-112873907D01*
X78356535Y-112419108D01*
X102952514Y-112419108D01*
X103073181Y-112649000D01*
X104267000Y-112649000D01*
X104267000Y-111455845D01*
X104037110Y-111334524D01*
X103627076Y-111504355D01*
X103198817Y-111894642D01*
X102952514Y-112419108D01*
X78356535Y-112419108D01*
X78333961Y-112305622D01*
X78012054Y-111823853D01*
X77530285Y-111501946D01*
X76962000Y-111388907D01*
X76393715Y-111501946D01*
X75911946Y-111823853D01*
X75692000Y-112153026D01*
X75472054Y-111823853D01*
X74990285Y-111501946D01*
X74422000Y-111388907D01*
X73853715Y-111501946D01*
X73371946Y-111823853D01*
X73152000Y-112153026D01*
X72932054Y-111823853D01*
X72450285Y-111501946D01*
X71882000Y-111388907D01*
X71313715Y-111501946D01*
X70831946Y-111823853D01*
X70612000Y-112153026D01*
X70392054Y-111823853D01*
X70102000Y-111630046D01*
X70102000Y-108264802D01*
X72546401Y-105820401D01*
X72711148Y-105573839D01*
X72769000Y-105283000D01*
X72769000Y-76272024D01*
X72992309Y-76364750D01*
X73563187Y-76365248D01*
X74090800Y-76147243D01*
X74494824Y-75743923D01*
X74548862Y-75613785D01*
X74601757Y-75741800D01*
X75005077Y-76145824D01*
X75532309Y-76364750D01*
X76103187Y-76365248D01*
X76630800Y-76147243D01*
X77034824Y-75743923D01*
X77088862Y-75613785D01*
X77141757Y-75741800D01*
X77545077Y-76145824D01*
X78072309Y-76364750D01*
X78643187Y-76365248D01*
X79170800Y-76147243D01*
X79574824Y-75743923D01*
X79628862Y-75613785D01*
X79681757Y-75741800D01*
X80085077Y-76145824D01*
X80612309Y-76364750D01*
X81183187Y-76365248D01*
X81710800Y-76147243D01*
X82114824Y-75743923D01*
X82168862Y-75613785D01*
X82221757Y-75741800D01*
X82625077Y-76145824D01*
X83152309Y-76364750D01*
X83723187Y-76365248D01*
X84250800Y-76147243D01*
X84654824Y-75743923D01*
X84708862Y-75613785D01*
X84761757Y-75741800D01*
X85165077Y-76145824D01*
X85692309Y-76364750D01*
X86263187Y-76365248D01*
X86489000Y-76271944D01*
X86489000Y-79756000D01*
X86546852Y-80046839D01*
X86711599Y-80293401D01*
X108714000Y-102295802D01*
X108714000Y-111503046D01*
X108423946Y-111696853D01*
X108204000Y-112026026D01*
X107984054Y-111696853D01*
X107694000Y-111503046D01*
X107694000Y-102616000D01*
X107636148Y-102325161D01*
X107636148Y-102325160D01*
X107471401Y-102078599D01*
X85644122Y-80251320D01*
X85644162Y-80205833D01*
X85502117Y-79862057D01*
X85239327Y-79598808D01*
X84895799Y-79456162D01*
X84523833Y-79455838D01*
X84180057Y-79597883D01*
X83916808Y-79860673D01*
X83774162Y-80204201D01*
X83773838Y-80576167D01*
X83915883Y-80919943D01*
X84178673Y-81183192D01*
X84522201Y-81325838D01*
X84569077Y-81325879D01*
X106174000Y-102930802D01*
X106174000Y-111503046D01*
X105883946Y-111696853D01*
X105656298Y-112037553D01*
X105589183Y-111894642D01*
X105160924Y-111504355D01*
X104750890Y-111334524D01*
X104521000Y-111455845D01*
X104521000Y-112649000D01*
X104541000Y-112649000D01*
X104541000Y-112903000D01*
X104521000Y-112903000D01*
X104521000Y-112923000D01*
X104267000Y-112923000D01*
X104267000Y-112903000D01*
X103073181Y-112903000D01*
X102952514Y-113132892D01*
X103198817Y-113657358D01*
X103404504Y-113844808D01*
X103308683Y-113862838D01*
X103092559Y-114001910D01*
X102947569Y-114214110D01*
X102896560Y-114466000D01*
X102896560Y-116166000D01*
X102940838Y-116401317D01*
X103079910Y-116617441D01*
X103292110Y-116762431D01*
X103544000Y-116813440D01*
X105244000Y-116813440D01*
X105479317Y-116769162D01*
X105695441Y-116630090D01*
X105840431Y-116417890D01*
X105854086Y-116350459D01*
X105883946Y-116395147D01*
X106365715Y-116717054D01*
X106934000Y-116830093D01*
X107502285Y-116717054D01*
X107984054Y-116395147D01*
X108204000Y-116065974D01*
X108423946Y-116395147D01*
X108905715Y-116717054D01*
X109474000Y-116830093D01*
X110042285Y-116717054D01*
X110524054Y-116395147D01*
X110744000Y-116065974D01*
X110963946Y-116395147D01*
X111445715Y-116717054D01*
X112014000Y-116830093D01*
X112582285Y-116717054D01*
X113064054Y-116395147D01*
X113284000Y-116065974D01*
X113503946Y-116395147D01*
X113985715Y-116717054D01*
X114554000Y-116830093D01*
X115122285Y-116717054D01*
X115604054Y-116395147D01*
X115925961Y-115913378D01*
X116039000Y-115345093D01*
X116039000Y-115286907D01*
X115925961Y-114718622D01*
X115604054Y-114236853D01*
X115318422Y-114046000D01*
X115604054Y-113855147D01*
X115925961Y-113373378D01*
X116039000Y-112805093D01*
X116039000Y-112746907D01*
X115925961Y-112178622D01*
X115604054Y-111696853D01*
X115122285Y-111374946D01*
X114554000Y-111261907D01*
X113985715Y-111374946D01*
X113503946Y-111696853D01*
X113284000Y-112026026D01*
X113064054Y-111696853D01*
X112582285Y-111374946D01*
X112014000Y-111261907D01*
X111445715Y-111374946D01*
X110963946Y-111696853D01*
X110744000Y-112026026D01*
X110524054Y-111696853D01*
X110234000Y-111503046D01*
X110234000Y-101981000D01*
X110176148Y-101690161D01*
X110176148Y-101690160D01*
X110011401Y-101443599D01*
X88009000Y-79441198D01*
X88009000Y-76272024D01*
X88232309Y-76364750D01*
X88803187Y-76365248D01*
X89330800Y-76147243D01*
X89734824Y-75743923D01*
X89788862Y-75613785D01*
X89841757Y-75741800D01*
X90245077Y-76145824D01*
X90772309Y-76364750D01*
X91343187Y-76365248D01*
X91870800Y-76147243D01*
X92274824Y-75743923D01*
X92328862Y-75613785D01*
X92381757Y-75741800D01*
X92785077Y-76145824D01*
X93312309Y-76364750D01*
X93883187Y-76365248D01*
X94410800Y-76147243D01*
X94814824Y-75743923D01*
X94868862Y-75613785D01*
X94921757Y-75741800D01*
X95325077Y-76145824D01*
X95852309Y-76364750D01*
X96423187Y-76365248D01*
X96950800Y-76147243D01*
X97354824Y-75743923D01*
X97408862Y-75613785D01*
X97461757Y-75741800D01*
X97865077Y-76145824D01*
X98392309Y-76364750D01*
X98963187Y-76365248D01*
X99490800Y-76147243D01*
X99894824Y-75743923D01*
X99948862Y-75613785D01*
X100001757Y-75741800D01*
X100405077Y-76145824D01*
X100932309Y-76364750D01*
X101503187Y-76365248D01*
X102030800Y-76147243D01*
X102434824Y-75743923D01*
X102488862Y-75613785D01*
X102541757Y-75741800D01*
X102945077Y-76145824D01*
X103472309Y-76364750D01*
X104043187Y-76365248D01*
X104570800Y-76147243D01*
X104974824Y-75743923D01*
X105028862Y-75613785D01*
X105081757Y-75741800D01*
X105485077Y-76145824D01*
X106012309Y-76364750D01*
X106583187Y-76365248D01*
X107110800Y-76147243D01*
X107514824Y-75743923D01*
X107568862Y-75613785D01*
X107621757Y-75741800D01*
X108025077Y-76145824D01*
X108552309Y-76364750D01*
X109123187Y-76365248D01*
X109650800Y-76147243D01*
X110054824Y-75743923D01*
X110108862Y-75613785D01*
X110161757Y-75741800D01*
X110565077Y-76145824D01*
X111092309Y-76364750D01*
X111663187Y-76365248D01*
X112190800Y-76147243D01*
X112594824Y-75743923D01*
X112648862Y-75613785D01*
X112701757Y-75741800D01*
X113105077Y-76145824D01*
X113632309Y-76364750D01*
X114203187Y-76365248D01*
X114730800Y-76147243D01*
X115134824Y-75743923D01*
X115353750Y-75216691D01*
X115354248Y-74645813D01*
X115136243Y-74118200D01*
X114732923Y-73714176D01*
X114205691Y-73495250D01*
X113634813Y-73494752D01*
X113107200Y-73712757D01*
X112703176Y-74116077D01*
X112649138Y-74246215D01*
X112596243Y-74118200D01*
X112192923Y-73714176D01*
X111665691Y-73495250D01*
X111094813Y-73494752D01*
X110567200Y-73712757D01*
X110163176Y-74116077D01*
X110109138Y-74246215D01*
X110056243Y-74118200D01*
X109652923Y-73714176D01*
X109125691Y-73495250D01*
X108554813Y-73494752D01*
X108027200Y-73712757D01*
X107623176Y-74116077D01*
X107569138Y-74246215D01*
X107516243Y-74118200D01*
X107112923Y-73714176D01*
X106585691Y-73495250D01*
X106014813Y-73494752D01*
X105487200Y-73712757D01*
X105083176Y-74116077D01*
X105029138Y-74246215D01*
X104976243Y-74118200D01*
X104572923Y-73714176D01*
X104045691Y-73495250D01*
X103474813Y-73494752D01*
X102947200Y-73712757D01*
X102543176Y-74116077D01*
X102489138Y-74246215D01*
X102436243Y-74118200D01*
X102032923Y-73714176D01*
X101505691Y-73495250D01*
X100934813Y-73494752D01*
X100407200Y-73712757D01*
X100003176Y-74116077D01*
X99949138Y-74246215D01*
X99896243Y-74118200D01*
X99492923Y-73714176D01*
X98965691Y-73495250D01*
X98394813Y-73494752D01*
X97867200Y-73712757D01*
X97463176Y-74116077D01*
X97409138Y-74246215D01*
X97356243Y-74118200D01*
X96952923Y-73714176D01*
X96425691Y-73495250D01*
X95854813Y-73494752D01*
X95327200Y-73712757D01*
X94923176Y-74116077D01*
X94869138Y-74246215D01*
X94816243Y-74118200D01*
X94412923Y-73714176D01*
X93885691Y-73495250D01*
X93314813Y-73494752D01*
X92787200Y-73712757D01*
X92383176Y-74116077D01*
X92329138Y-74246215D01*
X92276243Y-74118200D01*
X91872923Y-73714176D01*
X91345691Y-73495250D01*
X90774813Y-73494752D01*
X90247200Y-73712757D01*
X89843176Y-74116077D01*
X89789138Y-74246215D01*
X89736243Y-74118200D01*
X89332923Y-73714176D01*
X88805691Y-73495250D01*
X88234813Y-73494752D01*
X87878784Y-73641860D01*
X87786401Y-73503599D01*
X81659000Y-67376198D01*
X81659000Y-65054187D01*
X97243752Y-65054187D01*
X97461757Y-65581800D01*
X97865077Y-65985824D01*
X97995215Y-66039862D01*
X97867200Y-66092757D01*
X97463176Y-66496077D01*
X97244250Y-67023309D01*
X97243752Y-67594187D01*
X97461757Y-68121800D01*
X97865077Y-68525824D01*
X98392309Y-68744750D01*
X98963187Y-68745248D01*
X99490800Y-68527243D01*
X99894824Y-68123923D01*
X99948862Y-67993785D01*
X100001757Y-68121800D01*
X100405077Y-68525824D01*
X100932309Y-68744750D01*
X101503187Y-68745248D01*
X102030800Y-68527243D01*
X102434824Y-68123923D01*
X102488862Y-67993785D01*
X102541757Y-68121800D01*
X102945077Y-68525824D01*
X103472309Y-68744750D01*
X104043187Y-68745248D01*
X104570800Y-68527243D01*
X104974824Y-68123923D01*
X105028862Y-67993785D01*
X105081757Y-68121800D01*
X105485077Y-68525824D01*
X105615215Y-68579862D01*
X105487200Y-68632757D01*
X105083176Y-69036077D01*
X104864250Y-69563309D01*
X104863752Y-70134187D01*
X105081757Y-70661800D01*
X105485077Y-71065824D01*
X106012309Y-71284750D01*
X106583187Y-71285248D01*
X107110800Y-71067243D01*
X107514824Y-70663923D01*
X107733750Y-70136691D01*
X107733752Y-70134187D01*
X112483752Y-70134187D01*
X112701757Y-70661800D01*
X113105077Y-71065824D01*
X113632309Y-71284750D01*
X114203187Y-71285248D01*
X114730800Y-71067243D01*
X115134824Y-70663923D01*
X115353750Y-70136691D01*
X115354248Y-69565813D01*
X115136243Y-69038200D01*
X114732923Y-68634176D01*
X114618232Y-68586552D01*
X114673005Y-68563864D01*
X114747139Y-68317745D01*
X113919000Y-67489605D01*
X113090861Y-68317745D01*
X113164995Y-68563864D01*
X113223254Y-68584805D01*
X113107200Y-68632757D01*
X112703176Y-69036077D01*
X112484250Y-69563309D01*
X112483752Y-70134187D01*
X107733752Y-70134187D01*
X107734248Y-69565813D01*
X107516243Y-69038200D01*
X107112923Y-68634176D01*
X106982785Y-68580138D01*
X107110800Y-68527243D01*
X107514824Y-68123923D01*
X107733750Y-67596691D01*
X107734189Y-67093223D01*
X112472035Y-67093223D01*
X112499222Y-67663454D01*
X112665136Y-68064005D01*
X112911255Y-68138139D01*
X113739395Y-67310000D01*
X114098605Y-67310000D01*
X114926745Y-68138139D01*
X115172864Y-68064005D01*
X115365965Y-67526777D01*
X115338778Y-66956546D01*
X115172864Y-66555995D01*
X114926745Y-66481861D01*
X114098605Y-67310000D01*
X113739395Y-67310000D01*
X112911255Y-66481861D01*
X112665136Y-66555995D01*
X112472035Y-67093223D01*
X107734189Y-67093223D01*
X107734248Y-67025813D01*
X107516243Y-66498200D01*
X107112923Y-66094176D01*
X106982785Y-66040138D01*
X107110800Y-65987243D01*
X107514824Y-65583923D01*
X107733750Y-65056691D01*
X107733752Y-65054187D01*
X112483752Y-65054187D01*
X112701757Y-65581800D01*
X113105077Y-65985824D01*
X113219768Y-66033448D01*
X113164995Y-66056136D01*
X113090861Y-66302255D01*
X113919000Y-67130395D01*
X114747139Y-66302255D01*
X114673005Y-66056136D01*
X114614746Y-66035195D01*
X114730800Y-65987243D01*
X115134824Y-65583923D01*
X115353750Y-65056691D01*
X115354248Y-64485813D01*
X115136243Y-63958200D01*
X114732923Y-63554176D01*
X114205691Y-63335250D01*
X113634813Y-63334752D01*
X113107200Y-63552757D01*
X112703176Y-63956077D01*
X112484250Y-64483309D01*
X112483752Y-65054187D01*
X107733752Y-65054187D01*
X107734248Y-64485813D01*
X107516243Y-63958200D01*
X107112923Y-63554176D01*
X106585691Y-63335250D01*
X106014813Y-63334752D01*
X105487200Y-63552757D01*
X105083176Y-63956077D01*
X105029138Y-64086215D01*
X104976243Y-63958200D01*
X104572923Y-63554176D01*
X104045691Y-63335250D01*
X103474813Y-63334752D01*
X102947200Y-63552757D01*
X102543176Y-63956077D01*
X102489138Y-64086215D01*
X102436243Y-63958200D01*
X102032923Y-63554176D01*
X101505691Y-63335250D01*
X100934813Y-63334752D01*
X100407200Y-63552757D01*
X100003176Y-63956077D01*
X99949138Y-64086215D01*
X99896243Y-63958200D01*
X99492923Y-63554176D01*
X98965691Y-63335250D01*
X98394813Y-63334752D01*
X97867200Y-63552757D01*
X97463176Y-63956077D01*
X97244250Y-64483309D01*
X97243752Y-65054187D01*
X81659000Y-65054187D01*
X81659000Y-60928646D01*
X81710800Y-60907243D01*
X82114824Y-60503923D01*
X82168862Y-60373785D01*
X82221757Y-60501800D01*
X82625077Y-60905824D01*
X83152309Y-61124750D01*
X83723187Y-61125248D01*
X84250800Y-60907243D01*
X84654824Y-60503923D01*
X84708862Y-60373785D01*
X84761757Y-60501800D01*
X85165077Y-60905824D01*
X85692309Y-61124750D01*
X86263187Y-61125248D01*
X86790800Y-60907243D01*
X87194824Y-60503923D01*
X87248862Y-60373785D01*
X87301757Y-60501800D01*
X87705077Y-60905824D01*
X88232309Y-61124750D01*
X88803187Y-61125248D01*
X89330800Y-60907243D01*
X89734824Y-60503923D01*
X89788862Y-60373785D01*
X89841757Y-60501800D01*
X90245077Y-60905824D01*
X90772309Y-61124750D01*
X91343187Y-61125248D01*
X91870800Y-60907243D01*
X92274824Y-60503923D01*
X92328862Y-60373785D01*
X92381757Y-60501800D01*
X92785077Y-60905824D01*
X93312309Y-61124750D01*
X93883187Y-61125248D01*
X94410800Y-60907243D01*
X94814824Y-60503923D01*
X94868862Y-60373785D01*
X94921757Y-60501800D01*
X95325077Y-60905824D01*
X95852309Y-61124750D01*
X96423187Y-61125248D01*
X96950800Y-60907243D01*
X97354824Y-60503923D01*
X97408862Y-60373785D01*
X97461757Y-60501800D01*
X97865077Y-60905824D01*
X98392309Y-61124750D01*
X98963187Y-61125248D01*
X99490800Y-60907243D01*
X99894824Y-60503923D01*
X99948862Y-60373785D01*
X100001757Y-60501800D01*
X100405077Y-60905824D01*
X100932309Y-61124750D01*
X101503187Y-61125248D01*
X102030800Y-60907243D01*
X102434824Y-60503923D01*
X102488862Y-60373785D01*
X102541757Y-60501800D01*
X102945077Y-60905824D01*
X103472309Y-61124750D01*
X104043187Y-61125248D01*
X104570800Y-60907243D01*
X104974824Y-60503923D01*
X105028862Y-60373785D01*
X105081757Y-60501800D01*
X105485077Y-60905824D01*
X106012309Y-61124750D01*
X106583187Y-61125248D01*
X107110800Y-60907243D01*
X107514824Y-60503923D01*
X107568862Y-60373785D01*
X107621757Y-60501800D01*
X108025077Y-60905824D01*
X108552309Y-61124750D01*
X109123187Y-61125248D01*
X109650800Y-60907243D01*
X110054824Y-60503923D01*
X110108862Y-60373785D01*
X110161757Y-60501800D01*
X110565077Y-60905824D01*
X111092309Y-61124750D01*
X111663187Y-61125248D01*
X112190800Y-60907243D01*
X112594824Y-60503923D01*
X112648862Y-60373785D01*
X112701757Y-60501800D01*
X113105077Y-60905824D01*
X113632309Y-61124750D01*
X114203187Y-61125248D01*
X114730800Y-60907243D01*
X115134824Y-60503923D01*
X115353750Y-59976691D01*
X115354248Y-59405813D01*
X115136243Y-58878200D01*
X114732923Y-58474176D01*
X114205691Y-58255250D01*
X113634813Y-58254752D01*
X113107200Y-58472757D01*
X112703176Y-58876077D01*
X112649138Y-59006215D01*
X112596243Y-58878200D01*
X112192923Y-58474176D01*
X111665691Y-58255250D01*
X111094813Y-58254752D01*
X110567200Y-58472757D01*
X110163176Y-58876077D01*
X110109138Y-59006215D01*
X110056243Y-58878200D01*
X109652923Y-58474176D01*
X109125691Y-58255250D01*
X108554813Y-58254752D01*
X108027200Y-58472757D01*
X107623176Y-58876077D01*
X107569138Y-59006215D01*
X107516243Y-58878200D01*
X107112923Y-58474176D01*
X106585691Y-58255250D01*
X106014813Y-58254752D01*
X105487200Y-58472757D01*
X105083176Y-58876077D01*
X105029138Y-59006215D01*
X104976243Y-58878200D01*
X104572923Y-58474176D01*
X104045691Y-58255250D01*
X103474813Y-58254752D01*
X102947200Y-58472757D01*
X102543176Y-58876077D01*
X102489138Y-59006215D01*
X102436243Y-58878200D01*
X102032923Y-58474176D01*
X101505691Y-58255250D01*
X100934813Y-58254752D01*
X100407200Y-58472757D01*
X100003176Y-58876077D01*
X99949138Y-59006215D01*
X99896243Y-58878200D01*
X99492923Y-58474176D01*
X98965691Y-58255250D01*
X98394813Y-58254752D01*
X97867200Y-58472757D01*
X97463176Y-58876077D01*
X97409138Y-59006215D01*
X97356243Y-58878200D01*
X96952923Y-58474176D01*
X96425691Y-58255250D01*
X95854813Y-58254752D01*
X95327200Y-58472757D01*
X94923176Y-58876077D01*
X94869138Y-59006215D01*
X94816243Y-58878200D01*
X94412923Y-58474176D01*
X93885691Y-58255250D01*
X93314813Y-58254752D01*
X92787200Y-58472757D01*
X92383176Y-58876077D01*
X92329138Y-59006215D01*
X92276243Y-58878200D01*
X91872923Y-58474176D01*
X91345691Y-58255250D01*
X90774813Y-58254752D01*
X90247200Y-58472757D01*
X89843176Y-58876077D01*
X89789138Y-59006215D01*
X89736243Y-58878200D01*
X89332923Y-58474176D01*
X88805691Y-58255250D01*
X88234813Y-58254752D01*
X87707200Y-58472757D01*
X87303176Y-58876077D01*
X87249138Y-59006215D01*
X87196243Y-58878200D01*
X86792923Y-58474176D01*
X86265691Y-58255250D01*
X85694813Y-58254752D01*
X85167200Y-58472757D01*
X84763176Y-58876077D01*
X84709138Y-59006215D01*
X84656243Y-58878200D01*
X84252923Y-58474176D01*
X83725691Y-58255250D01*
X83154813Y-58254752D01*
X82627200Y-58472757D01*
X82223176Y-58876077D01*
X82169138Y-59006215D01*
X82116243Y-58878200D01*
X81712923Y-58474176D01*
X81185691Y-58255250D01*
X80614813Y-58254752D01*
X80087200Y-58472757D01*
X79683176Y-58876077D01*
X79629138Y-59006215D01*
X79576243Y-58878200D01*
X79172923Y-58474176D01*
X78645691Y-58255250D01*
X78074813Y-58254752D01*
X77547200Y-58472757D01*
X77143176Y-58876077D01*
X77089138Y-59006215D01*
X77036243Y-58878200D01*
X76632923Y-58474176D01*
X76105691Y-58255250D01*
X75534813Y-58254752D01*
X75007200Y-58472757D01*
X74603176Y-58876077D01*
X74549138Y-59006215D01*
X74496243Y-58878200D01*
X74092923Y-58474176D01*
X73565691Y-58255250D01*
X72994813Y-58254752D01*
X72467200Y-58472757D01*
X72063176Y-58876077D01*
X72009138Y-59006215D01*
X71956243Y-58878200D01*
X71552923Y-58474176D01*
X71025691Y-58255250D01*
X70454813Y-58254752D01*
X69927200Y-58472757D01*
X69523176Y-58876077D01*
X69469138Y-59006215D01*
X69416243Y-58878200D01*
X69012923Y-58474176D01*
X68485691Y-58255250D01*
X67914813Y-58254752D01*
X67387200Y-58472757D01*
X66983176Y-58876077D01*
X66929138Y-59006215D01*
X66876243Y-58878200D01*
X66472923Y-58474176D01*
X65945691Y-58255250D01*
X65374813Y-58254752D01*
X64847200Y-58472757D01*
X64443176Y-58876077D01*
X64224250Y-59403309D01*
X64223752Y-59974187D01*
X39910252Y-59974187D01*
X39893102Y-46991815D01*
X77238630Y-46991815D01*
X77562980Y-47776800D01*
X78163041Y-48377909D01*
X78947459Y-48703628D01*
X79796815Y-48704370D01*
X80581800Y-48380020D01*
X81182909Y-47779959D01*
X81327389Y-47432011D01*
X82038648Y-47432011D01*
X82347805Y-48180229D01*
X82919760Y-48753183D01*
X83667438Y-49063646D01*
X84477011Y-49064352D01*
X85225229Y-48755195D01*
X85798183Y-48183240D01*
X86108646Y-47435562D01*
X86108649Y-47432011D01*
X86238648Y-47432011D01*
X86547805Y-48180229D01*
X87119760Y-48753183D01*
X87867438Y-49063646D01*
X88677011Y-49064352D01*
X89425229Y-48755195D01*
X89998183Y-48183240D01*
X90308646Y-47435562D01*
X90308649Y-47432011D01*
X90438648Y-47432011D01*
X90747805Y-48180229D01*
X91319760Y-48753183D01*
X92067438Y-49063646D01*
X92877011Y-49064352D01*
X93625229Y-48755195D01*
X94198183Y-48183240D01*
X94508646Y-47435562D01*
X94509032Y-46991815D01*
X95038630Y-46991815D01*
X95362980Y-47776800D01*
X95963041Y-48377909D01*
X96747459Y-48703628D01*
X97596815Y-48704370D01*
X98381800Y-48380020D01*
X98982909Y-47779959D01*
X99308628Y-46995541D01*
X99309370Y-46146185D01*
X98985020Y-45361200D01*
X98384959Y-44760091D01*
X97600541Y-44434372D01*
X96751185Y-44433630D01*
X95966200Y-44757980D01*
X95365091Y-45358041D01*
X95039372Y-46142459D01*
X95038630Y-46991815D01*
X94509032Y-46991815D01*
X94509352Y-46625989D01*
X94200195Y-45877771D01*
X93628240Y-45304817D01*
X92880562Y-44994354D01*
X92070989Y-44993648D01*
X91322771Y-45302805D01*
X90749817Y-45874760D01*
X90439354Y-46622438D01*
X90438648Y-47432011D01*
X90308649Y-47432011D01*
X90309352Y-46625989D01*
X90000195Y-45877771D01*
X89428240Y-45304817D01*
X88680562Y-44994354D01*
X87870989Y-44993648D01*
X87122771Y-45302805D01*
X86549817Y-45874760D01*
X86239354Y-46622438D01*
X86238648Y-47432011D01*
X86108649Y-47432011D01*
X86109352Y-46625989D01*
X85800195Y-45877771D01*
X85228240Y-45304817D01*
X84480562Y-44994354D01*
X83670989Y-44993648D01*
X82922771Y-45302805D01*
X82349817Y-45874760D01*
X82039354Y-46622438D01*
X82038648Y-47432011D01*
X81327389Y-47432011D01*
X81508628Y-46995541D01*
X81509370Y-46146185D01*
X81185020Y-45361200D01*
X80584959Y-44760091D01*
X79800541Y-44434372D01*
X78951185Y-44433630D01*
X78166200Y-44757980D01*
X77565091Y-45358041D01*
X77239372Y-46142459D01*
X77238630Y-46991815D01*
X39893102Y-46991815D01*
X39884037Y-40129000D01*
X82026560Y-40129000D01*
X82026560Y-42929000D01*
X82070838Y-43164317D01*
X82209910Y-43380441D01*
X82422110Y-43525431D01*
X82674000Y-43576440D01*
X85474000Y-43576440D01*
X85709317Y-43532162D01*
X85925441Y-43393090D01*
X86070431Y-43180890D01*
X86121440Y-42929000D01*
X86121440Y-41932011D01*
X86238648Y-41932011D01*
X86547805Y-42680229D01*
X87119760Y-43253183D01*
X87867438Y-43563646D01*
X88677011Y-43564352D01*
X89425229Y-43255195D01*
X89998183Y-42683240D01*
X90308646Y-41935562D01*
X90308649Y-41932011D01*
X90438648Y-41932011D01*
X90747805Y-42680229D01*
X91319760Y-43253183D01*
X92067438Y-43563646D01*
X92877011Y-43564352D01*
X93625229Y-43255195D01*
X94198183Y-42683240D01*
X94508646Y-41935562D01*
X94509352Y-41125989D01*
X94200195Y-40377771D01*
X93628240Y-39804817D01*
X92880562Y-39494354D01*
X92070989Y-39493648D01*
X91322771Y-39802805D01*
X90749817Y-40374760D01*
X90439354Y-41122438D01*
X90438648Y-41932011D01*
X90308649Y-41932011D01*
X90309352Y-41125989D01*
X90000195Y-40377771D01*
X89428240Y-39804817D01*
X88680562Y-39494354D01*
X87870989Y-39493648D01*
X87122771Y-39802805D01*
X86549817Y-40374760D01*
X86239354Y-41122438D01*
X86238648Y-41932011D01*
X86121440Y-41932011D01*
X86121440Y-40129000D01*
X86077162Y-39893683D01*
X85938090Y-39677559D01*
X85725890Y-39532569D01*
X85474000Y-39481560D01*
X82674000Y-39481560D01*
X82438683Y-39525838D01*
X82222559Y-39664910D01*
X82077569Y-39877110D01*
X82026560Y-40129000D01*
X39884037Y-40129000D01*
X39878168Y-35687000D01*
X171196000Y-35687000D01*
X171196000Y-131572000D01*
M02*
