G04 #@! TF.FileFunction,Legend,Bot*
%FSLAX46Y46*%
G04 Gerber Fmt 4.6, Leading zero omitted, Abs format (unit mm)*
G04 Created by KiCad (PCBNEW 4.0.7) date 04/16/19 18:39:24*
%MOMM*%
%LPD*%
G01*
G04 APERTURE LIST*
%ADD10C,0.100000*%
%ADD11C,0.150000*%
%ADD12C,0.120000*%
G04 APERTURE END LIST*
D10*
D11*
X141280714Y-92637619D02*
X140947380Y-93113810D01*
X140709285Y-92637619D02*
X140709285Y-93637619D01*
X141090238Y-93637619D01*
X141185476Y-93590000D01*
X141233095Y-93542381D01*
X141280714Y-93447143D01*
X141280714Y-93304286D01*
X141233095Y-93209048D01*
X141185476Y-93161429D01*
X141090238Y-93113810D01*
X140709285Y-93113810D01*
X141852142Y-92637619D02*
X141756904Y-92685238D01*
X141709285Y-92732857D01*
X141661666Y-92828095D01*
X141661666Y-93113810D01*
X141709285Y-93209048D01*
X141756904Y-93256667D01*
X141852142Y-93304286D01*
X141995000Y-93304286D01*
X142090238Y-93256667D01*
X142137857Y-93209048D01*
X142185476Y-93113810D01*
X142185476Y-92828095D01*
X142137857Y-92732857D01*
X142090238Y-92685238D01*
X141995000Y-92637619D01*
X141852142Y-92637619D01*
X142614047Y-92637619D02*
X142614047Y-93637619D01*
X142614047Y-93256667D02*
X142709285Y-93304286D01*
X142899762Y-93304286D01*
X142995000Y-93256667D01*
X143042619Y-93209048D01*
X143090238Y-93113810D01*
X143090238Y-92828095D01*
X143042619Y-92732857D01*
X142995000Y-92685238D01*
X142899762Y-92637619D01*
X142709285Y-92637619D01*
X142614047Y-92685238D01*
X143661666Y-92637619D02*
X143566428Y-92685238D01*
X143518809Y-92732857D01*
X143471190Y-92828095D01*
X143471190Y-93113810D01*
X143518809Y-93209048D01*
X143566428Y-93256667D01*
X143661666Y-93304286D01*
X143804524Y-93304286D01*
X143899762Y-93256667D01*
X143947381Y-93209048D01*
X143995000Y-93113810D01*
X143995000Y-92828095D01*
X143947381Y-92732857D01*
X143899762Y-92685238D01*
X143804524Y-92637619D01*
X143661666Y-92637619D01*
X144756905Y-93161429D02*
X144423571Y-93161429D01*
X144423571Y-92637619D02*
X144423571Y-93637619D01*
X144899762Y-93637619D01*
X145280714Y-92637619D02*
X145280714Y-93304286D01*
X145280714Y-93113810D02*
X145328333Y-93209048D01*
X145375952Y-93256667D01*
X145471190Y-93304286D01*
X145566429Y-93304286D01*
X145899762Y-92637619D02*
X145899762Y-93304286D01*
X145899762Y-93637619D02*
X145852143Y-93590000D01*
X145899762Y-93542381D01*
X145947381Y-93590000D01*
X145899762Y-93637619D01*
X145899762Y-93542381D01*
X146756905Y-92685238D02*
X146661667Y-92637619D01*
X146471190Y-92637619D01*
X146375952Y-92685238D01*
X146328333Y-92780476D01*
X146328333Y-93161429D01*
X146375952Y-93256667D01*
X146471190Y-93304286D01*
X146661667Y-93304286D01*
X146756905Y-93256667D01*
X146804524Y-93161429D01*
X146804524Y-93066190D01*
X146328333Y-92970952D01*
X147233095Y-93304286D02*
X147233095Y-92637619D01*
X147233095Y-93209048D02*
X147280714Y-93256667D01*
X147375952Y-93304286D01*
X147518810Y-93304286D01*
X147614048Y-93256667D01*
X147661667Y-93161429D01*
X147661667Y-92637619D01*
X148566429Y-92637619D02*
X148566429Y-93637619D01*
X148566429Y-92685238D02*
X148471191Y-92637619D01*
X148280714Y-92637619D01*
X148185476Y-92685238D01*
X148137857Y-92732857D01*
X148090238Y-92828095D01*
X148090238Y-93113810D01*
X148137857Y-93209048D01*
X148185476Y-93256667D01*
X148280714Y-93304286D01*
X148471191Y-93304286D01*
X148566429Y-93256667D01*
X149804524Y-93018571D02*
X150566429Y-93018571D01*
X151804524Y-92637619D02*
X151804524Y-93637619D01*
X152185477Y-93637619D01*
X152280715Y-93590000D01*
X152328334Y-93542381D01*
X152375953Y-93447143D01*
X152375953Y-93304286D01*
X152328334Y-93209048D01*
X152280715Y-93161429D01*
X152185477Y-93113810D01*
X151804524Y-93113810D01*
X152947381Y-92637619D02*
X152852143Y-92685238D01*
X152804524Y-92732857D01*
X152756905Y-92828095D01*
X152756905Y-93113810D01*
X152804524Y-93209048D01*
X152852143Y-93256667D01*
X152947381Y-93304286D01*
X153090239Y-93304286D01*
X153185477Y-93256667D01*
X153233096Y-93209048D01*
X153280715Y-93113810D01*
X153280715Y-92828095D01*
X153233096Y-92732857D01*
X153185477Y-92685238D01*
X153090239Y-92637619D01*
X152947381Y-92637619D01*
X153614048Y-93304286D02*
X153804524Y-92637619D01*
X153995001Y-93113810D01*
X154185477Y-92637619D01*
X154375953Y-93304286D01*
X155137858Y-92685238D02*
X155042620Y-92637619D01*
X154852143Y-92637619D01*
X154756905Y-92685238D01*
X154709286Y-92780476D01*
X154709286Y-93161429D01*
X154756905Y-93256667D01*
X154852143Y-93304286D01*
X155042620Y-93304286D01*
X155137858Y-93256667D01*
X155185477Y-93161429D01*
X155185477Y-93066190D01*
X154709286Y-92970952D01*
X155614048Y-92637619D02*
X155614048Y-93304286D01*
X155614048Y-93113810D02*
X155661667Y-93209048D01*
X155709286Y-93256667D01*
X155804524Y-93304286D01*
X155899763Y-93304286D01*
X156995001Y-92637619D02*
X156995001Y-93637619D01*
X157375954Y-93637619D01*
X157471192Y-93590000D01*
X157518811Y-93542381D01*
X157566430Y-93447143D01*
X157566430Y-93304286D01*
X157518811Y-93209048D01*
X157471192Y-93161429D01*
X157375954Y-93113810D01*
X156995001Y-93113810D01*
X158566430Y-92732857D02*
X158518811Y-92685238D01*
X158375954Y-92637619D01*
X158280716Y-92637619D01*
X158137858Y-92685238D01*
X158042620Y-92780476D01*
X157995001Y-92875714D01*
X157947382Y-93066190D01*
X157947382Y-93209048D01*
X157995001Y-93399524D01*
X158042620Y-93494762D01*
X158137858Y-93590000D01*
X158280716Y-93637619D01*
X158375954Y-93637619D01*
X158518811Y-93590000D01*
X158566430Y-93542381D01*
X159328335Y-93161429D02*
X159471192Y-93113810D01*
X159518811Y-93066190D01*
X159566430Y-92970952D01*
X159566430Y-92828095D01*
X159518811Y-92732857D01*
X159471192Y-92685238D01*
X159375954Y-92637619D01*
X158995001Y-92637619D01*
X158995001Y-93637619D01*
X159328335Y-93637619D01*
X159423573Y-93590000D01*
X159471192Y-93542381D01*
X159518811Y-93447143D01*
X159518811Y-93351905D01*
X159471192Y-93256667D01*
X159423573Y-93209048D01*
X159328335Y-93161429D01*
X158995001Y-93161429D01*
X140209285Y-90987619D02*
X140209285Y-91987619D01*
X140447380Y-91987619D01*
X140590238Y-91940000D01*
X140685476Y-91844762D01*
X140733095Y-91749524D01*
X140780714Y-91559048D01*
X140780714Y-91416190D01*
X140733095Y-91225714D01*
X140685476Y-91130476D01*
X140590238Y-91035238D01*
X140447380Y-90987619D01*
X140209285Y-90987619D01*
X141590238Y-91035238D02*
X141495000Y-90987619D01*
X141304523Y-90987619D01*
X141209285Y-91035238D01*
X141161666Y-91130476D01*
X141161666Y-91511429D01*
X141209285Y-91606667D01*
X141304523Y-91654286D01*
X141495000Y-91654286D01*
X141590238Y-91606667D01*
X141637857Y-91511429D01*
X141637857Y-91416190D01*
X141161666Y-91320952D01*
X142018809Y-91035238D02*
X142114047Y-90987619D01*
X142304523Y-90987619D01*
X142399762Y-91035238D01*
X142447381Y-91130476D01*
X142447381Y-91178095D01*
X142399762Y-91273333D01*
X142304523Y-91320952D01*
X142161666Y-91320952D01*
X142066428Y-91368571D01*
X142018809Y-91463810D01*
X142018809Y-91511429D01*
X142066428Y-91606667D01*
X142161666Y-91654286D01*
X142304523Y-91654286D01*
X142399762Y-91606667D01*
X142875952Y-90987619D02*
X142875952Y-91654286D01*
X142875952Y-91987619D02*
X142828333Y-91940000D01*
X142875952Y-91892381D01*
X142923571Y-91940000D01*
X142875952Y-91987619D01*
X142875952Y-91892381D01*
X143780714Y-91654286D02*
X143780714Y-90844762D01*
X143733095Y-90749524D01*
X143685476Y-90701905D01*
X143590237Y-90654286D01*
X143447380Y-90654286D01*
X143352142Y-90701905D01*
X143780714Y-91035238D02*
X143685476Y-90987619D01*
X143494999Y-90987619D01*
X143399761Y-91035238D01*
X143352142Y-91082857D01*
X143304523Y-91178095D01*
X143304523Y-91463810D01*
X143352142Y-91559048D01*
X143399761Y-91606667D01*
X143494999Y-91654286D01*
X143685476Y-91654286D01*
X143780714Y-91606667D01*
X144256904Y-91654286D02*
X144256904Y-90987619D01*
X144256904Y-91559048D02*
X144304523Y-91606667D01*
X144399761Y-91654286D01*
X144542619Y-91654286D01*
X144637857Y-91606667D01*
X144685476Y-91511429D01*
X144685476Y-90987619D01*
X145542619Y-91035238D02*
X145447381Y-90987619D01*
X145256904Y-90987619D01*
X145161666Y-91035238D01*
X145114047Y-91130476D01*
X145114047Y-91511429D01*
X145161666Y-91606667D01*
X145256904Y-91654286D01*
X145447381Y-91654286D01*
X145542619Y-91606667D01*
X145590238Y-91511429D01*
X145590238Y-91416190D01*
X145114047Y-91320952D01*
X146447381Y-90987619D02*
X146447381Y-91987619D01*
X146447381Y-91035238D02*
X146352143Y-90987619D01*
X146161666Y-90987619D01*
X146066428Y-91035238D01*
X146018809Y-91082857D01*
X145971190Y-91178095D01*
X145971190Y-91463810D01*
X146018809Y-91559048D01*
X146066428Y-91606667D01*
X146161666Y-91654286D01*
X146352143Y-91654286D01*
X146447381Y-91606667D01*
X147685476Y-90987619D02*
X147685476Y-91987619D01*
X147685476Y-91606667D02*
X147780714Y-91654286D01*
X147971191Y-91654286D01*
X148066429Y-91606667D01*
X148114048Y-91559048D01*
X148161667Y-91463810D01*
X148161667Y-91178095D01*
X148114048Y-91082857D01*
X148066429Y-91035238D01*
X147971191Y-90987619D01*
X147780714Y-90987619D01*
X147685476Y-91035238D01*
X148495000Y-91654286D02*
X148733095Y-90987619D01*
X148971191Y-91654286D02*
X148733095Y-90987619D01*
X148637857Y-90749524D01*
X148590238Y-90701905D01*
X148495000Y-90654286D01*
X150114048Y-90987619D02*
X150114048Y-91987619D01*
X150447382Y-91273333D01*
X150780715Y-91987619D01*
X150780715Y-90987619D01*
X151685477Y-90987619D02*
X151685477Y-91511429D01*
X151637858Y-91606667D01*
X151542620Y-91654286D01*
X151352143Y-91654286D01*
X151256905Y-91606667D01*
X151685477Y-91035238D02*
X151590239Y-90987619D01*
X151352143Y-90987619D01*
X151256905Y-91035238D01*
X151209286Y-91130476D01*
X151209286Y-91225714D01*
X151256905Y-91320952D01*
X151352143Y-91368571D01*
X151590239Y-91368571D01*
X151685477Y-91416190D01*
X152161667Y-90987619D02*
X152161667Y-91654286D01*
X152161667Y-91463810D02*
X152209286Y-91559048D01*
X152256905Y-91606667D01*
X152352143Y-91654286D01*
X152447382Y-91654286D01*
X152637858Y-91654286D02*
X153018810Y-91654286D01*
X152780715Y-91987619D02*
X152780715Y-91130476D01*
X152828334Y-91035238D01*
X152923572Y-90987619D01*
X153018810Y-90987619D01*
X153352144Y-90987619D02*
X153352144Y-91654286D01*
X153352144Y-91987619D02*
X153304525Y-91940000D01*
X153352144Y-91892381D01*
X153399763Y-91940000D01*
X153352144Y-91987619D01*
X153352144Y-91892381D01*
X153828334Y-91654286D02*
X153828334Y-90987619D01*
X153828334Y-91559048D02*
X153875953Y-91606667D01*
X153971191Y-91654286D01*
X154114049Y-91654286D01*
X154209287Y-91606667D01*
X154256906Y-91511429D01*
X154256906Y-90987619D01*
X155399763Y-91987619D02*
X156066430Y-91987619D01*
X155399763Y-90987619D01*
X156066430Y-90987619D01*
X156875954Y-90987619D02*
X156875954Y-91511429D01*
X156828335Y-91606667D01*
X156733097Y-91654286D01*
X156542620Y-91654286D01*
X156447382Y-91606667D01*
X156875954Y-91035238D02*
X156780716Y-90987619D01*
X156542620Y-90987619D01*
X156447382Y-91035238D01*
X156399763Y-91130476D01*
X156399763Y-91225714D01*
X156447382Y-91320952D01*
X156542620Y-91368571D01*
X156780716Y-91368571D01*
X156875954Y-91416190D01*
X157352144Y-90987619D02*
X157352144Y-91987619D01*
X157780716Y-90987619D02*
X157780716Y-91511429D01*
X157733097Y-91606667D01*
X157637859Y-91654286D01*
X157495001Y-91654286D01*
X157399763Y-91606667D01*
X157352144Y-91559048D01*
X158637859Y-91035238D02*
X158542621Y-90987619D01*
X158352144Y-90987619D01*
X158256906Y-91035238D01*
X158209287Y-91130476D01*
X158209287Y-91511429D01*
X158256906Y-91606667D01*
X158352144Y-91654286D01*
X158542621Y-91654286D01*
X158637859Y-91606667D01*
X158685478Y-91511429D01*
X158685478Y-91416190D01*
X158209287Y-91320952D01*
X159542621Y-90987619D02*
X159542621Y-91987619D01*
X159542621Y-91035238D02*
X159447383Y-90987619D01*
X159256906Y-90987619D01*
X159161668Y-91035238D01*
X159114049Y-91082857D01*
X159066430Y-91178095D01*
X159066430Y-91463810D01*
X159114049Y-91559048D01*
X159161668Y-91606667D01*
X159256906Y-91654286D01*
X159447383Y-91654286D01*
X159542621Y-91606667D01*
X160018811Y-90987619D02*
X160018811Y-91654286D01*
X160018811Y-91987619D02*
X159971192Y-91940000D01*
X160018811Y-91892381D01*
X160066430Y-91940000D01*
X160018811Y-91987619D01*
X160018811Y-91892381D01*
X131852141Y-90337619D02*
X131852141Y-89528095D01*
X131899760Y-89432857D01*
X131947379Y-89385238D01*
X132042617Y-89337619D01*
X132233094Y-89337619D01*
X132328332Y-89385238D01*
X132375951Y-89432857D01*
X132423570Y-89528095D01*
X132423570Y-90337619D01*
X132899760Y-90004286D02*
X132899760Y-89337619D01*
X132899760Y-89909048D02*
X132947379Y-89956667D01*
X133042617Y-90004286D01*
X133185475Y-90004286D01*
X133280713Y-89956667D01*
X133328332Y-89861429D01*
X133328332Y-89337619D01*
X133804522Y-89337619D02*
X133804522Y-90004286D01*
X133804522Y-90337619D02*
X133756903Y-90290000D01*
X133804522Y-90242381D01*
X133852141Y-90290000D01*
X133804522Y-90337619D01*
X133804522Y-90242381D01*
X134185474Y-90004286D02*
X134423569Y-89337619D01*
X134661665Y-90004286D01*
X135423570Y-89385238D02*
X135328332Y-89337619D01*
X135137855Y-89337619D01*
X135042617Y-89385238D01*
X134994998Y-89480476D01*
X134994998Y-89861429D01*
X135042617Y-89956667D01*
X135137855Y-90004286D01*
X135328332Y-90004286D01*
X135423570Y-89956667D01*
X135471189Y-89861429D01*
X135471189Y-89766190D01*
X134994998Y-89670952D01*
X135899760Y-89337619D02*
X135899760Y-90004286D01*
X135899760Y-89813810D02*
X135947379Y-89909048D01*
X135994998Y-89956667D01*
X136090236Y-90004286D01*
X136185475Y-90004286D01*
X136471189Y-89385238D02*
X136566427Y-89337619D01*
X136756903Y-89337619D01*
X136852142Y-89385238D01*
X136899761Y-89480476D01*
X136899761Y-89528095D01*
X136852142Y-89623333D01*
X136756903Y-89670952D01*
X136614046Y-89670952D01*
X136518808Y-89718571D01*
X136471189Y-89813810D01*
X136471189Y-89861429D01*
X136518808Y-89956667D01*
X136614046Y-90004286D01*
X136756903Y-90004286D01*
X136852142Y-89956667D01*
X137328332Y-89337619D02*
X137328332Y-90004286D01*
X137328332Y-90337619D02*
X137280713Y-90290000D01*
X137328332Y-90242381D01*
X137375951Y-90290000D01*
X137328332Y-90337619D01*
X137328332Y-90242381D01*
X137661665Y-90004286D02*
X138042617Y-90004286D01*
X137804522Y-90337619D02*
X137804522Y-89480476D01*
X137852141Y-89385238D01*
X137947379Y-89337619D01*
X138042617Y-89337619D01*
X138280713Y-90004286D02*
X138518808Y-89337619D01*
X138756904Y-90004286D02*
X138518808Y-89337619D01*
X138423570Y-89099524D01*
X138375951Y-89051905D01*
X138280713Y-89004286D01*
X140042618Y-89337619D02*
X139947380Y-89385238D01*
X139899761Y-89432857D01*
X139852142Y-89528095D01*
X139852142Y-89813810D01*
X139899761Y-89909048D01*
X139947380Y-89956667D01*
X140042618Y-90004286D01*
X140185476Y-90004286D01*
X140280714Y-89956667D01*
X140328333Y-89909048D01*
X140375952Y-89813810D01*
X140375952Y-89528095D01*
X140328333Y-89432857D01*
X140280714Y-89385238D01*
X140185476Y-89337619D01*
X140042618Y-89337619D01*
X140661666Y-90004286D02*
X141042618Y-90004286D01*
X140804523Y-89337619D02*
X140804523Y-90194762D01*
X140852142Y-90290000D01*
X140947380Y-90337619D01*
X141042618Y-90337619D01*
X142090238Y-89623333D02*
X142566429Y-89623333D01*
X141995000Y-89337619D02*
X142328333Y-90337619D01*
X142661667Y-89337619D01*
X142995000Y-90004286D02*
X142995000Y-89004286D01*
X142995000Y-89956667D02*
X143090238Y-90004286D01*
X143280715Y-90004286D01*
X143375953Y-89956667D01*
X143423572Y-89909048D01*
X143471191Y-89813810D01*
X143471191Y-89528095D01*
X143423572Y-89432857D01*
X143375953Y-89385238D01*
X143280715Y-89337619D01*
X143090238Y-89337619D01*
X142995000Y-89385238D01*
X143899762Y-90004286D02*
X143899762Y-89004286D01*
X143899762Y-89956667D02*
X143995000Y-90004286D01*
X144185477Y-90004286D01*
X144280715Y-89956667D01*
X144328334Y-89909048D01*
X144375953Y-89813810D01*
X144375953Y-89528095D01*
X144328334Y-89432857D01*
X144280715Y-89385238D01*
X144185477Y-89337619D01*
X143995000Y-89337619D01*
X143899762Y-89385238D01*
X144947381Y-89337619D02*
X144852143Y-89385238D01*
X144804524Y-89480476D01*
X144804524Y-90337619D01*
X145328334Y-89337619D02*
X145328334Y-90004286D01*
X145328334Y-90337619D02*
X145280715Y-90290000D01*
X145328334Y-90242381D01*
X145375953Y-90290000D01*
X145328334Y-90337619D01*
X145328334Y-90242381D01*
X146185477Y-89385238D02*
X146090239Y-89337619D01*
X145899762Y-89337619D01*
X145804524Y-89385238D01*
X145756905Y-89480476D01*
X145756905Y-89861429D01*
X145804524Y-89956667D01*
X145899762Y-90004286D01*
X146090239Y-90004286D01*
X146185477Y-89956667D01*
X146233096Y-89861429D01*
X146233096Y-89766190D01*
X145756905Y-89670952D01*
X147090239Y-89337619D02*
X147090239Y-90337619D01*
X147090239Y-89385238D02*
X146995001Y-89337619D01*
X146804524Y-89337619D01*
X146709286Y-89385238D01*
X146661667Y-89432857D01*
X146614048Y-89528095D01*
X146614048Y-89813810D01*
X146661667Y-89909048D01*
X146709286Y-89956667D01*
X146804524Y-90004286D01*
X146995001Y-90004286D01*
X147090239Y-89956667D01*
X148280715Y-89385238D02*
X148423572Y-89337619D01*
X148661668Y-89337619D01*
X148756906Y-89385238D01*
X148804525Y-89432857D01*
X148852144Y-89528095D01*
X148852144Y-89623333D01*
X148804525Y-89718571D01*
X148756906Y-89766190D01*
X148661668Y-89813810D01*
X148471191Y-89861429D01*
X148375953Y-89909048D01*
X148328334Y-89956667D01*
X148280715Y-90051905D01*
X148280715Y-90147143D01*
X148328334Y-90242381D01*
X148375953Y-90290000D01*
X148471191Y-90337619D01*
X148709287Y-90337619D01*
X148852144Y-90290000D01*
X149709287Y-89385238D02*
X149614049Y-89337619D01*
X149423572Y-89337619D01*
X149328334Y-89385238D01*
X149280715Y-89432857D01*
X149233096Y-89528095D01*
X149233096Y-89813810D01*
X149280715Y-89909048D01*
X149328334Y-89956667D01*
X149423572Y-90004286D01*
X149614049Y-90004286D01*
X149709287Y-89956667D01*
X150137858Y-89337619D02*
X150137858Y-90004286D01*
X150137858Y-90337619D02*
X150090239Y-90290000D01*
X150137858Y-90242381D01*
X150185477Y-90290000D01*
X150137858Y-90337619D01*
X150137858Y-90242381D01*
X150995001Y-89385238D02*
X150899763Y-89337619D01*
X150709286Y-89337619D01*
X150614048Y-89385238D01*
X150566429Y-89480476D01*
X150566429Y-89861429D01*
X150614048Y-89956667D01*
X150709286Y-90004286D01*
X150899763Y-90004286D01*
X150995001Y-89956667D01*
X151042620Y-89861429D01*
X151042620Y-89766190D01*
X150566429Y-89670952D01*
X151471191Y-90004286D02*
X151471191Y-89337619D01*
X151471191Y-89909048D02*
X151518810Y-89956667D01*
X151614048Y-90004286D01*
X151756906Y-90004286D01*
X151852144Y-89956667D01*
X151899763Y-89861429D01*
X151899763Y-89337619D01*
X152804525Y-89385238D02*
X152709287Y-89337619D01*
X152518810Y-89337619D01*
X152423572Y-89385238D01*
X152375953Y-89432857D01*
X152328334Y-89528095D01*
X152328334Y-89813810D01*
X152375953Y-89909048D01*
X152423572Y-89956667D01*
X152518810Y-90004286D01*
X152709287Y-90004286D01*
X152804525Y-89956667D01*
X153614049Y-89385238D02*
X153518811Y-89337619D01*
X153328334Y-89337619D01*
X153233096Y-89385238D01*
X153185477Y-89480476D01*
X153185477Y-89861429D01*
X153233096Y-89956667D01*
X153328334Y-90004286D01*
X153518811Y-90004286D01*
X153614049Y-89956667D01*
X153661668Y-89861429D01*
X153661668Y-89766190D01*
X153185477Y-89670952D01*
X154042620Y-89385238D02*
X154137858Y-89337619D01*
X154328334Y-89337619D01*
X154423573Y-89385238D01*
X154471192Y-89480476D01*
X154471192Y-89528095D01*
X154423573Y-89623333D01*
X154328334Y-89670952D01*
X154185477Y-89670952D01*
X154090239Y-89718571D01*
X154042620Y-89813810D01*
X154042620Y-89861429D01*
X154090239Y-89956667D01*
X154185477Y-90004286D01*
X154328334Y-90004286D01*
X154423573Y-89956667D01*
X155661668Y-89718571D02*
X156423573Y-89718571D01*
X157518811Y-90337619D02*
X158090240Y-90337619D01*
X157804525Y-89337619D02*
X157804525Y-90337619D01*
X158804526Y-89385238D02*
X158709288Y-89337619D01*
X158518811Y-89337619D01*
X158423573Y-89385238D01*
X158375954Y-89480476D01*
X158375954Y-89861429D01*
X158423573Y-89956667D01*
X158518811Y-90004286D01*
X158709288Y-90004286D01*
X158804526Y-89956667D01*
X158852145Y-89861429D01*
X158852145Y-89766190D01*
X158375954Y-89670952D01*
X159709288Y-89385238D02*
X159614050Y-89337619D01*
X159423573Y-89337619D01*
X159328335Y-89385238D01*
X159280716Y-89432857D01*
X159233097Y-89528095D01*
X159233097Y-89813810D01*
X159280716Y-89909048D01*
X159328335Y-89956667D01*
X159423573Y-90004286D01*
X159614050Y-90004286D01*
X159709288Y-89956667D01*
X160137859Y-89337619D02*
X160137859Y-90337619D01*
X160566431Y-89337619D02*
X160566431Y-89861429D01*
X160518812Y-89956667D01*
X160423574Y-90004286D01*
X160280716Y-90004286D01*
X160185478Y-89956667D01*
X160137859Y-89909048D01*
X161042621Y-90004286D02*
X161042621Y-89337619D01*
X161042621Y-89909048D02*
X161090240Y-89956667D01*
X161185478Y-90004286D01*
X161328336Y-90004286D01*
X161423574Y-89956667D01*
X161471193Y-89861429D01*
X161471193Y-89337619D01*
X161947383Y-89337619D02*
X161947383Y-90004286D01*
X161947383Y-90337619D02*
X161899764Y-90290000D01*
X161947383Y-90242381D01*
X161995002Y-90290000D01*
X161947383Y-90337619D01*
X161947383Y-90242381D01*
X162423573Y-89337619D02*
X162423573Y-90337619D01*
X162518811Y-89718571D02*
X162804526Y-89337619D01*
X162804526Y-90004286D02*
X162423573Y-89623333D01*
X163661669Y-90004286D02*
X163661669Y-89337619D01*
X163233097Y-90004286D02*
X163233097Y-89480476D01*
X163280716Y-89385238D01*
X163375954Y-89337619D01*
X163518812Y-89337619D01*
X163614050Y-89385238D01*
X163661669Y-89432857D01*
X164137859Y-89337619D02*
X164137859Y-90004286D01*
X164137859Y-89909048D02*
X164185478Y-89956667D01*
X164280716Y-90004286D01*
X164423574Y-90004286D01*
X164518812Y-89956667D01*
X164566431Y-89861429D01*
X164566431Y-89337619D01*
X164566431Y-89861429D02*
X164614050Y-89956667D01*
X164709288Y-90004286D01*
X164852145Y-90004286D01*
X164947383Y-89956667D01*
X164995002Y-89861429D01*
X164995002Y-89337619D01*
X166137859Y-90337619D02*
X166375954Y-89337619D01*
X166566431Y-90051905D01*
X166756907Y-89337619D01*
X166995002Y-90337619D01*
X167375954Y-89337619D02*
X167375954Y-90004286D01*
X167375954Y-90337619D02*
X167328335Y-90290000D01*
X167375954Y-90242381D01*
X167423573Y-90290000D01*
X167375954Y-90337619D01*
X167375954Y-90242381D01*
X168233097Y-89385238D02*
X168137859Y-89337619D01*
X167947382Y-89337619D01*
X167852144Y-89385238D01*
X167804525Y-89480476D01*
X167804525Y-89861429D01*
X167852144Y-89956667D01*
X167947382Y-90004286D01*
X168137859Y-90004286D01*
X168233097Y-89956667D01*
X168280716Y-89861429D01*
X168280716Y-89766190D01*
X167804525Y-89670952D01*
X168709287Y-90004286D02*
X168709287Y-89337619D01*
X168709287Y-89909048D02*
X168756906Y-89956667D01*
X168852144Y-90004286D01*
X168995002Y-90004286D01*
X169090240Y-89956667D01*
X169137859Y-89861429D01*
X169137859Y-89337619D01*
X153635000Y-74125000D02*
X153685000Y-74125000D01*
X153635000Y-78275000D02*
X153780000Y-78275000D01*
X158785000Y-78275000D02*
X158640000Y-78275000D01*
X158785000Y-74125000D02*
X158640000Y-74125000D01*
X153635000Y-74125000D02*
X153635000Y-78275000D01*
X158785000Y-74125000D02*
X158785000Y-78275000D01*
X153685000Y-74125000D02*
X153685000Y-72725000D01*
D12*
X114716000Y-91217000D02*
X114716000Y-91917000D01*
X115916000Y-91917000D02*
X115916000Y-91217000D01*
X114716000Y-94392000D02*
X114716000Y-95092000D01*
X115916000Y-95092000D02*
X115916000Y-94392000D01*
X145460000Y-112260000D02*
X145460000Y-111260000D01*
X144100000Y-111260000D02*
X144100000Y-112260000D01*
X132760000Y-112260000D02*
X132760000Y-111260000D01*
X131400000Y-111260000D02*
X131400000Y-112260000D01*
X139110000Y-112260000D02*
X139110000Y-111260000D01*
X137750000Y-111260000D02*
X137750000Y-112260000D01*
X126410000Y-112260000D02*
X126410000Y-111260000D01*
X125050000Y-111260000D02*
X125050000Y-112260000D01*
X144180000Y-107943000D02*
X145380000Y-107943000D01*
X144180000Y-109793000D02*
X144180000Y-107943000D01*
X145380000Y-109793000D02*
X145380000Y-107943000D01*
X144180000Y-113277000D02*
X145380000Y-113277000D01*
X144180000Y-115127000D02*
X144180000Y-113277000D01*
X145380000Y-115127000D02*
X145380000Y-113277000D01*
X131480000Y-107943000D02*
X132680000Y-107943000D01*
X131480000Y-109793000D02*
X131480000Y-107943000D01*
X132680000Y-109793000D02*
X132680000Y-107943000D01*
X137830000Y-107943000D02*
X139030000Y-107943000D01*
X137830000Y-109793000D02*
X137830000Y-107943000D01*
X139030000Y-109793000D02*
X139030000Y-107943000D01*
X137830000Y-113277000D02*
X139030000Y-113277000D01*
X137830000Y-115127000D02*
X137830000Y-113277000D01*
X139030000Y-115127000D02*
X139030000Y-113277000D01*
X125130000Y-107943000D02*
X126330000Y-107943000D01*
X125130000Y-109793000D02*
X125130000Y-107943000D01*
X126330000Y-109793000D02*
X126330000Y-107943000D01*
X125130000Y-113277000D02*
X126330000Y-113277000D01*
X125130000Y-115127000D02*
X125130000Y-113277000D01*
X126330000Y-115127000D02*
X126330000Y-113277000D01*
X131480000Y-113277000D02*
X132680000Y-113277000D01*
X131480000Y-115127000D02*
X131480000Y-113277000D01*
X132680000Y-115127000D02*
X132680000Y-113277000D01*
X155313000Y-70440000D02*
X154313000Y-70440000D01*
X154313000Y-71800000D02*
X155313000Y-71800000D01*
X157107000Y-71800000D02*
X158107000Y-71800000D01*
X158107000Y-70440000D02*
X157107000Y-70440000D01*
X146476000Y-104005000D02*
X146476000Y-103005000D01*
X145116000Y-103005000D02*
X145116000Y-104005000D01*
X150874000Y-101925000D02*
X150874000Y-102855000D01*
X150874000Y-105085000D02*
X150874000Y-104155000D01*
X150874000Y-105085000D02*
X148714000Y-105085000D01*
X150874000Y-101925000D02*
X149414000Y-101925000D01*
X110780000Y-132445000D02*
X110780000Y-130445000D01*
X110780000Y-130445000D02*
X114680000Y-130445000D01*
X110780000Y-132445000D02*
X114680000Y-132445000D01*
X104410000Y-134910000D02*
X106410000Y-134910000D01*
X106410000Y-134910000D02*
X106410000Y-138810000D01*
X104410000Y-134910000D02*
X104410000Y-138810000D01*
X157261000Y-120768000D02*
X158461000Y-120768000D01*
X158461000Y-119008000D02*
X157261000Y-119008000D01*
X162017000Y-121167000D02*
X160817000Y-121167000D01*
X160817000Y-122927000D02*
X162017000Y-122927000D01*
X158175000Y-135340000D02*
X152975000Y-135340000D01*
X152975000Y-138980000D02*
X158175000Y-138980000D01*
X102370000Y-116498000D02*
X103370000Y-116498000D01*
X103370000Y-118198000D02*
X102370000Y-118198000D01*
X141072500Y-124007500D02*
X141072500Y-123007500D01*
X142772500Y-123007500D02*
X142772500Y-124007500D01*
X142977500Y-124007500D02*
X142977500Y-123007500D01*
X144677500Y-123007500D02*
X144677500Y-124007500D01*
X139167500Y-124007500D02*
X139167500Y-123007500D01*
X140867500Y-123007500D02*
X140867500Y-124007500D01*
X137262500Y-124007500D02*
X137262500Y-123007500D01*
X138962500Y-123007500D02*
X138962500Y-124007500D01*
X147990000Y-133722000D02*
X149190000Y-133722000D01*
X149190000Y-131962000D02*
X147990000Y-131962000D01*
X149190000Y-135264000D02*
X147990000Y-135264000D01*
X147990000Y-137024000D02*
X149190000Y-137024000D01*
X149190000Y-137296000D02*
X147990000Y-137296000D01*
X147990000Y-139056000D02*
X149190000Y-139056000D01*
X117510000Y-107943000D02*
X118710000Y-107943000D01*
X117510000Y-109793000D02*
X117510000Y-107943000D01*
X118710000Y-109793000D02*
X118710000Y-107943000D01*
X117510000Y-113277000D02*
X118710000Y-113277000D01*
X117510000Y-115127000D02*
X117510000Y-113277000D01*
X118710000Y-115127000D02*
X118710000Y-113277000D01*
X118790000Y-112260000D02*
X118790000Y-111260000D01*
X117430000Y-111260000D02*
X117430000Y-112260000D01*
X149190000Y-128152000D02*
X147990000Y-128152000D01*
X147990000Y-129912000D02*
X149190000Y-129912000D01*
X149190000Y-130057000D02*
X147990000Y-130057000D01*
X147990000Y-131817000D02*
X149190000Y-131817000D01*
X155313000Y-80600000D02*
X154313000Y-80600000D01*
X154313000Y-81960000D02*
X155313000Y-81960000D01*
X157107000Y-81960000D02*
X158107000Y-81960000D01*
X158107000Y-80600000D02*
X157107000Y-80600000D01*
X142486000Y-134835000D02*
X141486000Y-134835000D01*
X141486000Y-133135000D02*
X142486000Y-133135000D01*
X144311000Y-137533000D02*
X144311000Y-136533000D01*
X146011000Y-136533000D02*
X146011000Y-137533000D01*
X141486000Y-139231000D02*
X142486000Y-139231000D01*
X142486000Y-140931000D02*
X141486000Y-140931000D01*
X138088000Y-137660000D02*
X138088000Y-136660000D01*
X139788000Y-136660000D02*
X139788000Y-137660000D01*
X141136000Y-131437000D02*
X141136000Y-130437000D01*
X142836000Y-130437000D02*
X142836000Y-131437000D01*
X160310000Y-138160000D02*
X160310000Y-136160000D01*
X160310000Y-136160000D02*
X164210000Y-136160000D01*
X160310000Y-138160000D02*
X164210000Y-138160000D01*
X107315000Y-130555000D02*
X109855000Y-130555000D01*
X109855000Y-132335000D02*
X107315000Y-132335000D01*
X109855000Y-132335000D02*
X109855000Y-130555000D01*
X107315000Y-130555000D02*
X107315000Y-132335000D01*
X136145000Y-122301000D02*
X136145000Y-124841000D01*
X134365000Y-124841000D02*
X134365000Y-122301000D01*
X134365000Y-124841000D02*
X136145000Y-124841000D01*
X136145000Y-122301000D02*
X134365000Y-122301000D01*
X109185000Y-132851000D02*
X107985000Y-132851000D01*
X107985000Y-134611000D02*
X109185000Y-134611000D01*
X111668000Y-134611000D02*
X112868000Y-134611000D01*
X112868000Y-132851000D02*
X111668000Y-132851000D01*
X109185000Y-134883000D02*
X107985000Y-134883000D01*
X107985000Y-136643000D02*
X109185000Y-136643000D01*
X107985000Y-140707000D02*
X109185000Y-140707000D01*
X109185000Y-138947000D02*
X107985000Y-138947000D01*
X109185000Y-136915000D02*
X107985000Y-136915000D01*
X107985000Y-138675000D02*
X109185000Y-138675000D01*
X157261000Y-122927000D02*
X158461000Y-122927000D01*
X158461000Y-121167000D02*
X157261000Y-121167000D01*
X162017000Y-119008000D02*
X160817000Y-119008000D01*
X160817000Y-120768000D02*
X162017000Y-120768000D01*
X110912000Y-140600000D02*
X110912000Y-138800000D01*
X114132000Y-138800000D02*
X114132000Y-141250000D01*
X143596000Y-136133000D02*
X143596000Y-137933000D01*
X140376000Y-137933000D02*
X140376000Y-135483000D01*
X138038000Y-129327000D02*
X139838000Y-129327000D01*
X139838000Y-132547000D02*
X137388000Y-132547000D01*
X156361000Y-118579000D02*
X156361000Y-116879000D01*
X156361000Y-116879000D02*
X158911000Y-116879000D01*
X156361000Y-118579000D02*
X158911000Y-118579000D01*
X159917000Y-118579000D02*
X159917000Y-116879000D01*
X159917000Y-116879000D02*
X162467000Y-116879000D01*
X159917000Y-118579000D02*
X162467000Y-118579000D01*
X114022000Y-135675000D02*
X114022000Y-137375000D01*
X114022000Y-137375000D02*
X111472000Y-137375000D01*
X114022000Y-135675000D02*
X111472000Y-135675000D01*
X151800000Y-74580000D02*
X151800000Y-75280000D01*
X153000000Y-75280000D02*
X153000000Y-74580000D01*
X151800000Y-77755000D02*
X151800000Y-78455000D01*
X153000000Y-78455000D02*
X153000000Y-77755000D01*
X142590000Y-70520000D02*
X141890000Y-70520000D01*
X141890000Y-71720000D02*
X142590000Y-71720000D01*
X145380000Y-74010000D02*
X145380000Y-73310000D01*
X144180000Y-73310000D02*
X144180000Y-74010000D01*
X142590000Y-75600000D02*
X141890000Y-75600000D01*
X141890000Y-76800000D02*
X142590000Y-76800000D01*
X145380000Y-79090000D02*
X145380000Y-78390000D01*
X144180000Y-78390000D02*
X144180000Y-79090000D01*
X141540000Y-72500000D02*
X143440000Y-72500000D01*
X142940000Y-74820000D02*
X141540000Y-74820000D01*
X141540000Y-77580000D02*
X143440000Y-77580000D01*
X142940000Y-79900000D02*
X141540000Y-79900000D01*
X146767000Y-103005000D02*
X146767000Y-104005000D01*
X148127000Y-104005000D02*
X148127000Y-103005000D01*
X110085000Y-141136000D02*
X110085000Y-142836000D01*
X110085000Y-142836000D02*
X107535000Y-142836000D01*
X110085000Y-141136000D02*
X107535000Y-141136000D01*
X140970000Y-148970000D02*
X143510000Y-148970000D01*
X143510000Y-150750000D02*
X140970000Y-150750000D01*
X143510000Y-150750000D02*
X143510000Y-148970000D01*
X140970000Y-148970000D02*
X140970000Y-150750000D01*
X104015000Y-143185000D02*
X104015000Y-142255000D01*
X104015000Y-140025000D02*
X104015000Y-140955000D01*
X104015000Y-140025000D02*
X106175000Y-140025000D01*
X104015000Y-143185000D02*
X105475000Y-143185000D01*
X145667000Y-129357000D02*
X145667000Y-130287000D01*
X145667000Y-132517000D02*
X145667000Y-131587000D01*
X145667000Y-132517000D02*
X143507000Y-132517000D01*
X145667000Y-129357000D02*
X144207000Y-129357000D01*
X102962000Y-136280000D02*
X101762000Y-136280000D01*
X101762000Y-138040000D02*
X102962000Y-138040000D01*
X138338000Y-128896000D02*
X139538000Y-128896000D01*
X139538000Y-127136000D02*
X138338000Y-127136000D01*
D11*
X114403143Y-91400334D02*
X114450762Y-91352715D01*
X114498381Y-91209858D01*
X114498381Y-91114620D01*
X114450762Y-90971762D01*
X114355524Y-90876524D01*
X114260286Y-90828905D01*
X114069810Y-90781286D01*
X113926952Y-90781286D01*
X113736476Y-90828905D01*
X113641238Y-90876524D01*
X113546000Y-90971762D01*
X113498381Y-91114620D01*
X113498381Y-91209858D01*
X113546000Y-91352715D01*
X113593619Y-91400334D01*
X114498381Y-92352715D02*
X114498381Y-91781286D01*
X114498381Y-92067000D02*
X113498381Y-92067000D01*
X113641238Y-91971762D01*
X113736476Y-91876524D01*
X113784095Y-91781286D01*
X114403143Y-94575334D02*
X114450762Y-94527715D01*
X114498381Y-94384858D01*
X114498381Y-94289620D01*
X114450762Y-94146762D01*
X114355524Y-94051524D01*
X114260286Y-94003905D01*
X114069810Y-93956286D01*
X113926952Y-93956286D01*
X113736476Y-94003905D01*
X113641238Y-94051524D01*
X113546000Y-94146762D01*
X113498381Y-94289620D01*
X113498381Y-94384858D01*
X113546000Y-94527715D01*
X113593619Y-94575334D01*
X113593619Y-94956286D02*
X113546000Y-95003905D01*
X113498381Y-95099143D01*
X113498381Y-95337239D01*
X113546000Y-95432477D01*
X113593619Y-95480096D01*
X113688857Y-95527715D01*
X113784095Y-95527715D01*
X113926952Y-95480096D01*
X114498381Y-94908667D01*
X114498381Y-95527715D01*
X146756381Y-111117143D02*
X146280190Y-110783809D01*
X146756381Y-110545714D02*
X145756381Y-110545714D01*
X145756381Y-110926667D01*
X145804000Y-111021905D01*
X145851619Y-111069524D01*
X145946857Y-111117143D01*
X146089714Y-111117143D01*
X146184952Y-111069524D01*
X146232571Y-111021905D01*
X146280190Y-110926667D01*
X146280190Y-110545714D01*
X145851619Y-111498095D02*
X145804000Y-111545714D01*
X145756381Y-111640952D01*
X145756381Y-111879048D01*
X145804000Y-111974286D01*
X145851619Y-112021905D01*
X145946857Y-112069524D01*
X146042095Y-112069524D01*
X146184952Y-112021905D01*
X146756381Y-111450476D01*
X146756381Y-112069524D01*
X145756381Y-112402857D02*
X145756381Y-113021905D01*
X146137333Y-112688571D01*
X146137333Y-112831429D01*
X146184952Y-112926667D01*
X146232571Y-112974286D01*
X146327810Y-113021905D01*
X146565905Y-113021905D01*
X146661143Y-112974286D01*
X146708762Y-112926667D01*
X146756381Y-112831429D01*
X146756381Y-112545714D01*
X146708762Y-112450476D01*
X146661143Y-112402857D01*
X134056381Y-111117143D02*
X133580190Y-110783809D01*
X134056381Y-110545714D02*
X133056381Y-110545714D01*
X133056381Y-110926667D01*
X133104000Y-111021905D01*
X133151619Y-111069524D01*
X133246857Y-111117143D01*
X133389714Y-111117143D01*
X133484952Y-111069524D01*
X133532571Y-111021905D01*
X133580190Y-110926667D01*
X133580190Y-110545714D01*
X133056381Y-111450476D02*
X133056381Y-112069524D01*
X133437333Y-111736190D01*
X133437333Y-111879048D01*
X133484952Y-111974286D01*
X133532571Y-112021905D01*
X133627810Y-112069524D01*
X133865905Y-112069524D01*
X133961143Y-112021905D01*
X134008762Y-111974286D01*
X134056381Y-111879048D01*
X134056381Y-111593333D01*
X134008762Y-111498095D01*
X133961143Y-111450476D01*
X133056381Y-112688571D02*
X133056381Y-112783810D01*
X133104000Y-112879048D01*
X133151619Y-112926667D01*
X133246857Y-112974286D01*
X133437333Y-113021905D01*
X133675429Y-113021905D01*
X133865905Y-112974286D01*
X133961143Y-112926667D01*
X134008762Y-112879048D01*
X134056381Y-112783810D01*
X134056381Y-112688571D01*
X134008762Y-112593333D01*
X133961143Y-112545714D01*
X133865905Y-112498095D01*
X133675429Y-112450476D01*
X133437333Y-112450476D01*
X133246857Y-112498095D01*
X133151619Y-112545714D01*
X133104000Y-112593333D01*
X133056381Y-112688571D01*
X140406381Y-111117143D02*
X139930190Y-110783809D01*
X140406381Y-110545714D02*
X139406381Y-110545714D01*
X139406381Y-110926667D01*
X139454000Y-111021905D01*
X139501619Y-111069524D01*
X139596857Y-111117143D01*
X139739714Y-111117143D01*
X139834952Y-111069524D01*
X139882571Y-111021905D01*
X139930190Y-110926667D01*
X139930190Y-110545714D01*
X139501619Y-111498095D02*
X139454000Y-111545714D01*
X139406381Y-111640952D01*
X139406381Y-111879048D01*
X139454000Y-111974286D01*
X139501619Y-112021905D01*
X139596857Y-112069524D01*
X139692095Y-112069524D01*
X139834952Y-112021905D01*
X140406381Y-111450476D01*
X140406381Y-112069524D01*
X139406381Y-112402857D02*
X139406381Y-113069524D01*
X140406381Y-112640952D01*
X127706381Y-111117143D02*
X127230190Y-110783809D01*
X127706381Y-110545714D02*
X126706381Y-110545714D01*
X126706381Y-110926667D01*
X126754000Y-111021905D01*
X126801619Y-111069524D01*
X126896857Y-111117143D01*
X127039714Y-111117143D01*
X127134952Y-111069524D01*
X127182571Y-111021905D01*
X127230190Y-110926667D01*
X127230190Y-110545714D01*
X126801619Y-111498095D02*
X126754000Y-111545714D01*
X126706381Y-111640952D01*
X126706381Y-111879048D01*
X126754000Y-111974286D01*
X126801619Y-112021905D01*
X126896857Y-112069524D01*
X126992095Y-112069524D01*
X127134952Y-112021905D01*
X127706381Y-111450476D01*
X127706381Y-112069524D01*
X126706381Y-112926667D02*
X126706381Y-112736190D01*
X126754000Y-112640952D01*
X126801619Y-112593333D01*
X126944476Y-112498095D01*
X127134952Y-112450476D01*
X127515905Y-112450476D01*
X127611143Y-112498095D01*
X127658762Y-112545714D01*
X127706381Y-112640952D01*
X127706381Y-112831429D01*
X127658762Y-112926667D01*
X127611143Y-112974286D01*
X127515905Y-113021905D01*
X127277810Y-113021905D01*
X127182571Y-112974286D01*
X127134952Y-112926667D01*
X127087333Y-112831429D01*
X127087333Y-112640952D01*
X127134952Y-112545714D01*
X127182571Y-112498095D01*
X127277810Y-112450476D01*
X146756381Y-107878714D02*
X145756381Y-107878714D01*
X145756381Y-108116809D01*
X145804000Y-108259667D01*
X145899238Y-108354905D01*
X145994476Y-108402524D01*
X146184952Y-108450143D01*
X146327810Y-108450143D01*
X146518286Y-108402524D01*
X146613524Y-108354905D01*
X146708762Y-108259667D01*
X146756381Y-108116809D01*
X146756381Y-107878714D01*
X146756381Y-109402524D02*
X146756381Y-108831095D01*
X146756381Y-109116809D02*
X145756381Y-109116809D01*
X145899238Y-109021571D01*
X145994476Y-108926333D01*
X146042095Y-108831095D01*
X145756381Y-110021571D02*
X145756381Y-110116810D01*
X145804000Y-110212048D01*
X145851619Y-110259667D01*
X145946857Y-110307286D01*
X146137333Y-110354905D01*
X146375429Y-110354905D01*
X146565905Y-110307286D01*
X146661143Y-110259667D01*
X146708762Y-110212048D01*
X146756381Y-110116810D01*
X146756381Y-110021571D01*
X146708762Y-109926333D01*
X146661143Y-109878714D01*
X146565905Y-109831095D01*
X146375429Y-109783476D01*
X146137333Y-109783476D01*
X145946857Y-109831095D01*
X145851619Y-109878714D01*
X145804000Y-109926333D01*
X145756381Y-110021571D01*
X146756381Y-113847714D02*
X145756381Y-113847714D01*
X145756381Y-114085809D01*
X145804000Y-114228667D01*
X145899238Y-114323905D01*
X145994476Y-114371524D01*
X146184952Y-114419143D01*
X146327810Y-114419143D01*
X146518286Y-114371524D01*
X146613524Y-114323905D01*
X146708762Y-114228667D01*
X146756381Y-114085809D01*
X146756381Y-113847714D01*
X146756381Y-115371524D02*
X146756381Y-114800095D01*
X146756381Y-115085809D02*
X145756381Y-115085809D01*
X145899238Y-114990571D01*
X145994476Y-114895333D01*
X146042095Y-114800095D01*
X146756381Y-116323905D02*
X146756381Y-115752476D01*
X146756381Y-116038190D02*
X145756381Y-116038190D01*
X145899238Y-115942952D01*
X145994476Y-115847714D01*
X146042095Y-115752476D01*
X134056381Y-107243714D02*
X133056381Y-107243714D01*
X133056381Y-107481809D01*
X133104000Y-107624667D01*
X133199238Y-107719905D01*
X133294476Y-107767524D01*
X133484952Y-107815143D01*
X133627810Y-107815143D01*
X133818286Y-107767524D01*
X133913524Y-107719905D01*
X134008762Y-107624667D01*
X134056381Y-107481809D01*
X134056381Y-107243714D01*
X134056381Y-108767524D02*
X134056381Y-108196095D01*
X134056381Y-108481809D02*
X133056381Y-108481809D01*
X133199238Y-108386571D01*
X133294476Y-108291333D01*
X133342095Y-108196095D01*
X133484952Y-109338952D02*
X133437333Y-109243714D01*
X133389714Y-109196095D01*
X133294476Y-109148476D01*
X133246857Y-109148476D01*
X133151619Y-109196095D01*
X133104000Y-109243714D01*
X133056381Y-109338952D01*
X133056381Y-109529429D01*
X133104000Y-109624667D01*
X133151619Y-109672286D01*
X133246857Y-109719905D01*
X133294476Y-109719905D01*
X133389714Y-109672286D01*
X133437333Y-109624667D01*
X133484952Y-109529429D01*
X133484952Y-109338952D01*
X133532571Y-109243714D01*
X133580190Y-109196095D01*
X133675429Y-109148476D01*
X133865905Y-109148476D01*
X133961143Y-109196095D01*
X134008762Y-109243714D01*
X134056381Y-109338952D01*
X134056381Y-109529429D01*
X134008762Y-109624667D01*
X133961143Y-109672286D01*
X133865905Y-109719905D01*
X133675429Y-109719905D01*
X133580190Y-109672286D01*
X133532571Y-109624667D01*
X133484952Y-109529429D01*
X140406381Y-107243714D02*
X139406381Y-107243714D01*
X139406381Y-107481809D01*
X139454000Y-107624667D01*
X139549238Y-107719905D01*
X139644476Y-107767524D01*
X139834952Y-107815143D01*
X139977810Y-107815143D01*
X140168286Y-107767524D01*
X140263524Y-107719905D01*
X140358762Y-107624667D01*
X140406381Y-107481809D01*
X140406381Y-107243714D01*
X140406381Y-108767524D02*
X140406381Y-108196095D01*
X140406381Y-108481809D02*
X139406381Y-108481809D01*
X139549238Y-108386571D01*
X139644476Y-108291333D01*
X139692095Y-108196095D01*
X139739714Y-109624667D02*
X140406381Y-109624667D01*
X139358762Y-109386571D02*
X140073048Y-109148476D01*
X140073048Y-109767524D01*
X140406381Y-113847714D02*
X139406381Y-113847714D01*
X139406381Y-114085809D01*
X139454000Y-114228667D01*
X139549238Y-114323905D01*
X139644476Y-114371524D01*
X139834952Y-114419143D01*
X139977810Y-114419143D01*
X140168286Y-114371524D01*
X140263524Y-114323905D01*
X140358762Y-114228667D01*
X140406381Y-114085809D01*
X140406381Y-113847714D01*
X140406381Y-115371524D02*
X140406381Y-114800095D01*
X140406381Y-115085809D02*
X139406381Y-115085809D01*
X139549238Y-114990571D01*
X139644476Y-114895333D01*
X139692095Y-114800095D01*
X139406381Y-116276286D02*
X139406381Y-115800095D01*
X139882571Y-115752476D01*
X139834952Y-115800095D01*
X139787333Y-115895333D01*
X139787333Y-116133429D01*
X139834952Y-116228667D01*
X139882571Y-116276286D01*
X139977810Y-116323905D01*
X140215905Y-116323905D01*
X140311143Y-116276286D01*
X140358762Y-116228667D01*
X140406381Y-116133429D01*
X140406381Y-115895333D01*
X140358762Y-115800095D01*
X140311143Y-115752476D01*
X127706381Y-107243714D02*
X126706381Y-107243714D01*
X126706381Y-107481809D01*
X126754000Y-107624667D01*
X126849238Y-107719905D01*
X126944476Y-107767524D01*
X127134952Y-107815143D01*
X127277810Y-107815143D01*
X127468286Y-107767524D01*
X127563524Y-107719905D01*
X127658762Y-107624667D01*
X127706381Y-107481809D01*
X127706381Y-107243714D01*
X127706381Y-108767524D02*
X127706381Y-108196095D01*
X127706381Y-108481809D02*
X126706381Y-108481809D01*
X126849238Y-108386571D01*
X126944476Y-108291333D01*
X126992095Y-108196095D01*
X126801619Y-109148476D02*
X126754000Y-109196095D01*
X126706381Y-109291333D01*
X126706381Y-109529429D01*
X126754000Y-109624667D01*
X126801619Y-109672286D01*
X126896857Y-109719905D01*
X126992095Y-109719905D01*
X127134952Y-109672286D01*
X127706381Y-109100857D01*
X127706381Y-109719905D01*
X127706381Y-113847714D02*
X126706381Y-113847714D01*
X126706381Y-114085809D01*
X126754000Y-114228667D01*
X126849238Y-114323905D01*
X126944476Y-114371524D01*
X127134952Y-114419143D01*
X127277810Y-114419143D01*
X127468286Y-114371524D01*
X127563524Y-114323905D01*
X127658762Y-114228667D01*
X127706381Y-114085809D01*
X127706381Y-113847714D01*
X127706381Y-115371524D02*
X127706381Y-114800095D01*
X127706381Y-115085809D02*
X126706381Y-115085809D01*
X126849238Y-114990571D01*
X126944476Y-114895333D01*
X126992095Y-114800095D01*
X126706381Y-115704857D02*
X126706381Y-116323905D01*
X127087333Y-115990571D01*
X127087333Y-116133429D01*
X127134952Y-116228667D01*
X127182571Y-116276286D01*
X127277810Y-116323905D01*
X127515905Y-116323905D01*
X127611143Y-116276286D01*
X127658762Y-116228667D01*
X127706381Y-116133429D01*
X127706381Y-115847714D01*
X127658762Y-115752476D01*
X127611143Y-115704857D01*
X134056381Y-113847714D02*
X133056381Y-113847714D01*
X133056381Y-114085809D01*
X133104000Y-114228667D01*
X133199238Y-114323905D01*
X133294476Y-114371524D01*
X133484952Y-114419143D01*
X133627810Y-114419143D01*
X133818286Y-114371524D01*
X133913524Y-114323905D01*
X134008762Y-114228667D01*
X134056381Y-114085809D01*
X134056381Y-113847714D01*
X134056381Y-115371524D02*
X134056381Y-114800095D01*
X134056381Y-115085809D02*
X133056381Y-115085809D01*
X133199238Y-114990571D01*
X133294476Y-114895333D01*
X133342095Y-114800095D01*
X134056381Y-115847714D02*
X134056381Y-116038190D01*
X134008762Y-116133429D01*
X133961143Y-116181048D01*
X133818286Y-116276286D01*
X133627810Y-116323905D01*
X133246857Y-116323905D01*
X133151619Y-116276286D01*
X133104000Y-116228667D01*
X133056381Y-116133429D01*
X133056381Y-115942952D01*
X133104000Y-115847714D01*
X133151619Y-115800095D01*
X133246857Y-115752476D01*
X133484952Y-115752476D01*
X133580190Y-115800095D01*
X133627810Y-115847714D01*
X133675429Y-115942952D01*
X133675429Y-116133429D01*
X133627810Y-116228667D01*
X133580190Y-116276286D01*
X133484952Y-116323905D01*
X154947857Y-70302381D02*
X155281191Y-69826190D01*
X155519286Y-70302381D02*
X155519286Y-69302381D01*
X155138333Y-69302381D01*
X155043095Y-69350000D01*
X154995476Y-69397619D01*
X154947857Y-69492857D01*
X154947857Y-69635714D01*
X154995476Y-69730952D01*
X155043095Y-69778571D01*
X155138333Y-69826190D01*
X155519286Y-69826190D01*
X153995476Y-70302381D02*
X154566905Y-70302381D01*
X154281191Y-70302381D02*
X154281191Y-69302381D01*
X154376429Y-69445238D01*
X154471667Y-69540476D01*
X154566905Y-69588095D01*
X153043095Y-70302381D02*
X153614524Y-70302381D01*
X153328810Y-70302381D02*
X153328810Y-69302381D01*
X153424048Y-69445238D01*
X153519286Y-69540476D01*
X153614524Y-69588095D01*
X158884857Y-70302381D02*
X159218191Y-69826190D01*
X159456286Y-70302381D02*
X159456286Y-69302381D01*
X159075333Y-69302381D01*
X158980095Y-69350000D01*
X158932476Y-69397619D01*
X158884857Y-69492857D01*
X158884857Y-69635714D01*
X158932476Y-69730952D01*
X158980095Y-69778571D01*
X159075333Y-69826190D01*
X159456286Y-69826190D01*
X157932476Y-70302381D02*
X158503905Y-70302381D01*
X158218191Y-70302381D02*
X158218191Y-69302381D01*
X158313429Y-69445238D01*
X158408667Y-69540476D01*
X158503905Y-69588095D01*
X157599143Y-69302381D02*
X156980095Y-69302381D01*
X157313429Y-69683333D01*
X157170571Y-69683333D01*
X157075333Y-69730952D01*
X157027714Y-69778571D01*
X156980095Y-69873810D01*
X156980095Y-70111905D01*
X157027714Y-70207143D01*
X157075333Y-70254762D01*
X157170571Y-70302381D01*
X157456286Y-70302381D01*
X157551524Y-70254762D01*
X157599143Y-70207143D01*
X146248381Y-105402143D02*
X145772190Y-105068809D01*
X146248381Y-104830714D02*
X145248381Y-104830714D01*
X145248381Y-105211667D01*
X145296000Y-105306905D01*
X145343619Y-105354524D01*
X145438857Y-105402143D01*
X145581714Y-105402143D01*
X145676952Y-105354524D01*
X145724571Y-105306905D01*
X145772190Y-105211667D01*
X145772190Y-104830714D01*
X145343619Y-105783095D02*
X145296000Y-105830714D01*
X145248381Y-105925952D01*
X145248381Y-106164048D01*
X145296000Y-106259286D01*
X145343619Y-106306905D01*
X145438857Y-106354524D01*
X145534095Y-106354524D01*
X145676952Y-106306905D01*
X146248381Y-105735476D01*
X146248381Y-106354524D01*
X145248381Y-107259286D02*
X145248381Y-106783095D01*
X145724571Y-106735476D01*
X145676952Y-106783095D01*
X145629333Y-106878333D01*
X145629333Y-107116429D01*
X145676952Y-107211667D01*
X145724571Y-107259286D01*
X145819810Y-107306905D01*
X146057905Y-107306905D01*
X146153143Y-107259286D01*
X146200762Y-107211667D01*
X146248381Y-107116429D01*
X146248381Y-106878333D01*
X146200762Y-106783095D01*
X146153143Y-106735476D01*
X153415905Y-102957381D02*
X153415905Y-103766905D01*
X153368286Y-103862143D01*
X153320667Y-103909762D01*
X153225429Y-103957381D01*
X153034952Y-103957381D01*
X152939714Y-103909762D01*
X152892095Y-103862143D01*
X152844476Y-103766905D01*
X152844476Y-102957381D01*
X152225429Y-103385952D02*
X152320667Y-103338333D01*
X152368286Y-103290714D01*
X152415905Y-103195476D01*
X152415905Y-103147857D01*
X152368286Y-103052619D01*
X152320667Y-103005000D01*
X152225429Y-102957381D01*
X152034952Y-102957381D01*
X151939714Y-103005000D01*
X151892095Y-103052619D01*
X151844476Y-103147857D01*
X151844476Y-103195476D01*
X151892095Y-103290714D01*
X151939714Y-103338333D01*
X152034952Y-103385952D01*
X152225429Y-103385952D01*
X152320667Y-103433571D01*
X152368286Y-103481190D01*
X152415905Y-103576429D01*
X152415905Y-103766905D01*
X152368286Y-103862143D01*
X152320667Y-103909762D01*
X152225429Y-103957381D01*
X152034952Y-103957381D01*
X151939714Y-103909762D01*
X151892095Y-103862143D01*
X151844476Y-103766905D01*
X151844476Y-103576429D01*
X151892095Y-103481190D01*
X151939714Y-103433571D01*
X152034952Y-103385952D01*
X113768095Y-129992381D02*
X113768095Y-128992381D01*
X113530000Y-128992381D01*
X113387142Y-129040000D01*
X113291904Y-129135238D01*
X113244285Y-129230476D01*
X113196666Y-129420952D01*
X113196666Y-129563810D01*
X113244285Y-129754286D01*
X113291904Y-129849524D01*
X113387142Y-129944762D01*
X113530000Y-129992381D01*
X113768095Y-129992381D01*
X112244285Y-129992381D02*
X112815714Y-129992381D01*
X112530000Y-129992381D02*
X112530000Y-128992381D01*
X112625238Y-129135238D01*
X112720476Y-129230476D01*
X112815714Y-129278095D01*
X105862381Y-136421905D02*
X104862381Y-136421905D01*
X104862381Y-136660000D01*
X104910000Y-136802858D01*
X105005238Y-136898096D01*
X105100476Y-136945715D01*
X105290952Y-136993334D01*
X105433810Y-136993334D01*
X105624286Y-136945715D01*
X105719524Y-136898096D01*
X105814762Y-136802858D01*
X105862381Y-136660000D01*
X105862381Y-136421905D01*
X104862381Y-137326667D02*
X104862381Y-137945715D01*
X105243333Y-137612381D01*
X105243333Y-137755239D01*
X105290952Y-137850477D01*
X105338571Y-137898096D01*
X105433810Y-137945715D01*
X105671905Y-137945715D01*
X105767143Y-137898096D01*
X105814762Y-137850477D01*
X105862381Y-137755239D01*
X105862381Y-137469524D01*
X105814762Y-137374286D01*
X105767143Y-137326667D01*
X154852666Y-120340381D02*
X155186000Y-119864190D01*
X155424095Y-120340381D02*
X155424095Y-119340381D01*
X155043142Y-119340381D01*
X154947904Y-119388000D01*
X154900285Y-119435619D01*
X154852666Y-119530857D01*
X154852666Y-119673714D01*
X154900285Y-119768952D01*
X154947904Y-119816571D01*
X155043142Y-119864190D01*
X155424095Y-119864190D01*
X154376476Y-120340381D02*
X154186000Y-120340381D01*
X154090761Y-120292762D01*
X154043142Y-120245143D01*
X153947904Y-120102286D01*
X153900285Y-119911810D01*
X153900285Y-119530857D01*
X153947904Y-119435619D01*
X153995523Y-119388000D01*
X154090761Y-119340381D01*
X154281238Y-119340381D01*
X154376476Y-119388000D01*
X154424095Y-119435619D01*
X154471714Y-119530857D01*
X154471714Y-119768952D01*
X154424095Y-119864190D01*
X154376476Y-119911810D01*
X154281238Y-119959429D01*
X154090761Y-119959429D01*
X153995523Y-119911810D01*
X153947904Y-119864190D01*
X153900285Y-119768952D01*
X165234857Y-122499381D02*
X165568191Y-122023190D01*
X165806286Y-122499381D02*
X165806286Y-121499381D01*
X165425333Y-121499381D01*
X165330095Y-121547000D01*
X165282476Y-121594619D01*
X165234857Y-121689857D01*
X165234857Y-121832714D01*
X165282476Y-121927952D01*
X165330095Y-121975571D01*
X165425333Y-122023190D01*
X165806286Y-122023190D01*
X164282476Y-122499381D02*
X164853905Y-122499381D01*
X164568191Y-122499381D02*
X164568191Y-121499381D01*
X164663429Y-121642238D01*
X164758667Y-121737476D01*
X164853905Y-121785095D01*
X163663429Y-121499381D02*
X163568190Y-121499381D01*
X163472952Y-121547000D01*
X163425333Y-121594619D01*
X163377714Y-121689857D01*
X163330095Y-121880333D01*
X163330095Y-122118429D01*
X163377714Y-122308905D01*
X163425333Y-122404143D01*
X163472952Y-122451762D01*
X163568190Y-122499381D01*
X163663429Y-122499381D01*
X163758667Y-122451762D01*
X163806286Y-122404143D01*
X163853905Y-122308905D01*
X163901524Y-122118429D01*
X163901524Y-121880333D01*
X163853905Y-121689857D01*
X163806286Y-121594619D01*
X163758667Y-121547000D01*
X163663429Y-121499381D01*
X156344857Y-135072381D02*
X156678191Y-134596190D01*
X156916286Y-135072381D02*
X156916286Y-134072381D01*
X156535333Y-134072381D01*
X156440095Y-134120000D01*
X156392476Y-134167619D01*
X156344857Y-134262857D01*
X156344857Y-134405714D01*
X156392476Y-134500952D01*
X156440095Y-134548571D01*
X156535333Y-134596190D01*
X156916286Y-134596190D01*
X155963905Y-134167619D02*
X155916286Y-134120000D01*
X155821048Y-134072381D01*
X155582952Y-134072381D01*
X155487714Y-134120000D01*
X155440095Y-134167619D01*
X155392476Y-134262857D01*
X155392476Y-134358095D01*
X155440095Y-134500952D01*
X156011524Y-135072381D01*
X155392476Y-135072381D01*
X154773429Y-134072381D02*
X154678190Y-134072381D01*
X154582952Y-134120000D01*
X154535333Y-134167619D01*
X154487714Y-134262857D01*
X154440095Y-134453333D01*
X154440095Y-134691429D01*
X154487714Y-134881905D01*
X154535333Y-134977143D01*
X154582952Y-135024762D01*
X154678190Y-135072381D01*
X154773429Y-135072381D01*
X154868667Y-135024762D01*
X154916286Y-134977143D01*
X154963905Y-134881905D01*
X155011524Y-134691429D01*
X155011524Y-134453333D01*
X154963905Y-134262857D01*
X154916286Y-134167619D01*
X154868667Y-134120000D01*
X154773429Y-134072381D01*
X103512857Y-119610143D02*
X103560476Y-119657762D01*
X103703333Y-119705381D01*
X103798571Y-119705381D01*
X103941429Y-119657762D01*
X104036667Y-119562524D01*
X104084286Y-119467286D01*
X104131905Y-119276810D01*
X104131905Y-119133952D01*
X104084286Y-118943476D01*
X104036667Y-118848238D01*
X103941429Y-118753000D01*
X103798571Y-118705381D01*
X103703333Y-118705381D01*
X103560476Y-118753000D01*
X103512857Y-118800619D01*
X102560476Y-119705381D02*
X103131905Y-119705381D01*
X102846191Y-119705381D02*
X102846191Y-118705381D01*
X102941429Y-118848238D01*
X103036667Y-118943476D01*
X103131905Y-118991095D01*
X101608095Y-119705381D02*
X102179524Y-119705381D01*
X101893810Y-119705381D02*
X101893810Y-118705381D01*
X101989048Y-118848238D01*
X102084286Y-118943476D01*
X102179524Y-118991095D01*
X142279643Y-119689643D02*
X142327262Y-119642024D01*
X142374881Y-119499167D01*
X142374881Y-119403929D01*
X142327262Y-119261071D01*
X142232024Y-119165833D01*
X142136786Y-119118214D01*
X141946310Y-119070595D01*
X141803452Y-119070595D01*
X141612976Y-119118214D01*
X141517738Y-119165833D01*
X141422500Y-119261071D01*
X141374881Y-119403929D01*
X141374881Y-119499167D01*
X141422500Y-119642024D01*
X141470119Y-119689643D01*
X142374881Y-120642024D02*
X142374881Y-120070595D01*
X142374881Y-120356309D02*
X141374881Y-120356309D01*
X141517738Y-120261071D01*
X141612976Y-120165833D01*
X141660595Y-120070595D01*
X141470119Y-121022976D02*
X141422500Y-121070595D01*
X141374881Y-121165833D01*
X141374881Y-121403929D01*
X141422500Y-121499167D01*
X141470119Y-121546786D01*
X141565357Y-121594405D01*
X141660595Y-121594405D01*
X141803452Y-121546786D01*
X142374881Y-120975357D01*
X142374881Y-121594405D01*
X144184643Y-119689643D02*
X144232262Y-119642024D01*
X144279881Y-119499167D01*
X144279881Y-119403929D01*
X144232262Y-119261071D01*
X144137024Y-119165833D01*
X144041786Y-119118214D01*
X143851310Y-119070595D01*
X143708452Y-119070595D01*
X143517976Y-119118214D01*
X143422738Y-119165833D01*
X143327500Y-119261071D01*
X143279881Y-119403929D01*
X143279881Y-119499167D01*
X143327500Y-119642024D01*
X143375119Y-119689643D01*
X144279881Y-120642024D02*
X144279881Y-120070595D01*
X144279881Y-120356309D02*
X143279881Y-120356309D01*
X143422738Y-120261071D01*
X143517976Y-120165833D01*
X143565595Y-120070595D01*
X143279881Y-120975357D02*
X143279881Y-121594405D01*
X143660833Y-121261071D01*
X143660833Y-121403929D01*
X143708452Y-121499167D01*
X143756071Y-121546786D01*
X143851310Y-121594405D01*
X144089405Y-121594405D01*
X144184643Y-121546786D01*
X144232262Y-121499167D01*
X144279881Y-121403929D01*
X144279881Y-121118214D01*
X144232262Y-121022976D01*
X144184643Y-120975357D01*
X140374643Y-119689643D02*
X140422262Y-119642024D01*
X140469881Y-119499167D01*
X140469881Y-119403929D01*
X140422262Y-119261071D01*
X140327024Y-119165833D01*
X140231786Y-119118214D01*
X140041310Y-119070595D01*
X139898452Y-119070595D01*
X139707976Y-119118214D01*
X139612738Y-119165833D01*
X139517500Y-119261071D01*
X139469881Y-119403929D01*
X139469881Y-119499167D01*
X139517500Y-119642024D01*
X139565119Y-119689643D01*
X140469881Y-120642024D02*
X140469881Y-120070595D01*
X140469881Y-120356309D02*
X139469881Y-120356309D01*
X139612738Y-120261071D01*
X139707976Y-120165833D01*
X139755595Y-120070595D01*
X139803214Y-121499167D02*
X140469881Y-121499167D01*
X139422262Y-121261071D02*
X140136548Y-121022976D01*
X140136548Y-121642024D01*
X138469643Y-119689643D02*
X138517262Y-119642024D01*
X138564881Y-119499167D01*
X138564881Y-119403929D01*
X138517262Y-119261071D01*
X138422024Y-119165833D01*
X138326786Y-119118214D01*
X138136310Y-119070595D01*
X137993452Y-119070595D01*
X137802976Y-119118214D01*
X137707738Y-119165833D01*
X137612500Y-119261071D01*
X137564881Y-119403929D01*
X137564881Y-119499167D01*
X137612500Y-119642024D01*
X137660119Y-119689643D01*
X138564881Y-120642024D02*
X138564881Y-120070595D01*
X138564881Y-120356309D02*
X137564881Y-120356309D01*
X137707738Y-120261071D01*
X137802976Y-120165833D01*
X137850595Y-120070595D01*
X137564881Y-121499167D02*
X137564881Y-121308690D01*
X137612500Y-121213452D01*
X137660119Y-121165833D01*
X137802976Y-121070595D01*
X137993452Y-121022976D01*
X138374405Y-121022976D01*
X138469643Y-121070595D01*
X138517262Y-121118214D01*
X138564881Y-121213452D01*
X138564881Y-121403929D01*
X138517262Y-121499167D01*
X138469643Y-121546786D01*
X138374405Y-121594405D01*
X138136310Y-121594405D01*
X138041071Y-121546786D01*
X137993452Y-121499167D01*
X137945833Y-121403929D01*
X137945833Y-121213452D01*
X137993452Y-121118214D01*
X138041071Y-121070595D01*
X138136310Y-121022976D01*
X152280857Y-133294381D02*
X152614191Y-132818190D01*
X152852286Y-133294381D02*
X152852286Y-132294381D01*
X152471333Y-132294381D01*
X152376095Y-132342000D01*
X152328476Y-132389619D01*
X152280857Y-132484857D01*
X152280857Y-132627714D01*
X152328476Y-132722952D01*
X152376095Y-132770571D01*
X152471333Y-132818190D01*
X152852286Y-132818190D01*
X151328476Y-133294381D02*
X151899905Y-133294381D01*
X151614191Y-133294381D02*
X151614191Y-132294381D01*
X151709429Y-132437238D01*
X151804667Y-132532476D01*
X151899905Y-132580095D01*
X150757048Y-132722952D02*
X150852286Y-132675333D01*
X150899905Y-132627714D01*
X150947524Y-132532476D01*
X150947524Y-132484857D01*
X150899905Y-132389619D01*
X150852286Y-132342000D01*
X150757048Y-132294381D01*
X150566571Y-132294381D01*
X150471333Y-132342000D01*
X150423714Y-132389619D01*
X150376095Y-132484857D01*
X150376095Y-132532476D01*
X150423714Y-132627714D01*
X150471333Y-132675333D01*
X150566571Y-132722952D01*
X150757048Y-132722952D01*
X150852286Y-132770571D01*
X150899905Y-132818190D01*
X150947524Y-132913429D01*
X150947524Y-133103905D01*
X150899905Y-133199143D01*
X150852286Y-133246762D01*
X150757048Y-133294381D01*
X150566571Y-133294381D01*
X150471333Y-133246762D01*
X150423714Y-133199143D01*
X150376095Y-133103905D01*
X150376095Y-132913429D01*
X150423714Y-132818190D01*
X150471333Y-132770571D01*
X150566571Y-132722952D01*
X149232857Y-135072381D02*
X149566191Y-134596190D01*
X149804286Y-135072381D02*
X149804286Y-134072381D01*
X149423333Y-134072381D01*
X149328095Y-134120000D01*
X149280476Y-134167619D01*
X149232857Y-134262857D01*
X149232857Y-134405714D01*
X149280476Y-134500952D01*
X149328095Y-134548571D01*
X149423333Y-134596190D01*
X149804286Y-134596190D01*
X148851905Y-134167619D02*
X148804286Y-134120000D01*
X148709048Y-134072381D01*
X148470952Y-134072381D01*
X148375714Y-134120000D01*
X148328095Y-134167619D01*
X148280476Y-134262857D01*
X148280476Y-134358095D01*
X148328095Y-134500952D01*
X148899524Y-135072381D01*
X148280476Y-135072381D01*
X147328095Y-135072381D02*
X147899524Y-135072381D01*
X147613810Y-135072381D02*
X147613810Y-134072381D01*
X147709048Y-134215238D01*
X147804286Y-134310476D01*
X147899524Y-134358095D01*
X149105857Y-140279381D02*
X149439191Y-139803190D01*
X149677286Y-140279381D02*
X149677286Y-139279381D01*
X149296333Y-139279381D01*
X149201095Y-139327000D01*
X149153476Y-139374619D01*
X149105857Y-139469857D01*
X149105857Y-139612714D01*
X149153476Y-139707952D01*
X149201095Y-139755571D01*
X149296333Y-139803190D01*
X149677286Y-139803190D01*
X148724905Y-139374619D02*
X148677286Y-139327000D01*
X148582048Y-139279381D01*
X148343952Y-139279381D01*
X148248714Y-139327000D01*
X148201095Y-139374619D01*
X148153476Y-139469857D01*
X148153476Y-139565095D01*
X148201095Y-139707952D01*
X148772524Y-140279381D01*
X148153476Y-140279381D01*
X147772524Y-139374619D02*
X147724905Y-139327000D01*
X147629667Y-139279381D01*
X147391571Y-139279381D01*
X147296333Y-139327000D01*
X147248714Y-139374619D01*
X147201095Y-139469857D01*
X147201095Y-139565095D01*
X147248714Y-139707952D01*
X147820143Y-140279381D01*
X147201095Y-140279381D01*
X117165381Y-107243714D02*
X116165381Y-107243714D01*
X116165381Y-107481809D01*
X116213000Y-107624667D01*
X116308238Y-107719905D01*
X116403476Y-107767524D01*
X116593952Y-107815143D01*
X116736810Y-107815143D01*
X116927286Y-107767524D01*
X117022524Y-107719905D01*
X117117762Y-107624667D01*
X117165381Y-107481809D01*
X117165381Y-107243714D01*
X117165381Y-108767524D02*
X117165381Y-108196095D01*
X117165381Y-108481809D02*
X116165381Y-108481809D01*
X116308238Y-108386571D01*
X116403476Y-108291333D01*
X116451095Y-108196095D01*
X116165381Y-109624667D02*
X116165381Y-109434190D01*
X116213000Y-109338952D01*
X116260619Y-109291333D01*
X116403476Y-109196095D01*
X116593952Y-109148476D01*
X116974905Y-109148476D01*
X117070143Y-109196095D01*
X117117762Y-109243714D01*
X117165381Y-109338952D01*
X117165381Y-109529429D01*
X117117762Y-109624667D01*
X117070143Y-109672286D01*
X116974905Y-109719905D01*
X116736810Y-109719905D01*
X116641571Y-109672286D01*
X116593952Y-109624667D01*
X116546333Y-109529429D01*
X116546333Y-109338952D01*
X116593952Y-109243714D01*
X116641571Y-109196095D01*
X116736810Y-109148476D01*
X117165381Y-113847714D02*
X116165381Y-113847714D01*
X116165381Y-114085809D01*
X116213000Y-114228667D01*
X116308238Y-114323905D01*
X116403476Y-114371524D01*
X116593952Y-114419143D01*
X116736810Y-114419143D01*
X116927286Y-114371524D01*
X117022524Y-114323905D01*
X117117762Y-114228667D01*
X117165381Y-114085809D01*
X117165381Y-113847714D01*
X117165381Y-115371524D02*
X117165381Y-114800095D01*
X117165381Y-115085809D02*
X116165381Y-115085809D01*
X116308238Y-114990571D01*
X116403476Y-114895333D01*
X116451095Y-114800095D01*
X116165381Y-115704857D02*
X116165381Y-116371524D01*
X117165381Y-115942952D01*
X117165381Y-111117143D02*
X116689190Y-110783809D01*
X117165381Y-110545714D02*
X116165381Y-110545714D01*
X116165381Y-110926667D01*
X116213000Y-111021905D01*
X116260619Y-111069524D01*
X116355857Y-111117143D01*
X116498714Y-111117143D01*
X116593952Y-111069524D01*
X116641571Y-111021905D01*
X116689190Y-110926667D01*
X116689190Y-110545714D01*
X116260619Y-111498095D02*
X116213000Y-111545714D01*
X116165381Y-111640952D01*
X116165381Y-111879048D01*
X116213000Y-111974286D01*
X116260619Y-112021905D01*
X116355857Y-112069524D01*
X116451095Y-112069524D01*
X116593952Y-112021905D01*
X117165381Y-111450476D01*
X117165381Y-112069524D01*
X116593952Y-112640952D02*
X116546333Y-112545714D01*
X116498714Y-112498095D01*
X116403476Y-112450476D01*
X116355857Y-112450476D01*
X116260619Y-112498095D01*
X116213000Y-112545714D01*
X116165381Y-112640952D01*
X116165381Y-112831429D01*
X116213000Y-112926667D01*
X116260619Y-112974286D01*
X116355857Y-113021905D01*
X116403476Y-113021905D01*
X116498714Y-112974286D01*
X116546333Y-112926667D01*
X116593952Y-112831429D01*
X116593952Y-112640952D01*
X116641571Y-112545714D01*
X116689190Y-112498095D01*
X116784429Y-112450476D01*
X116974905Y-112450476D01*
X117070143Y-112498095D01*
X117117762Y-112545714D01*
X117165381Y-112640952D01*
X117165381Y-112831429D01*
X117117762Y-112926667D01*
X117070143Y-112974286D01*
X116974905Y-113021905D01*
X116784429Y-113021905D01*
X116689190Y-112974286D01*
X116641571Y-112926667D01*
X116593952Y-112831429D01*
X152407857Y-129484381D02*
X152741191Y-129008190D01*
X152979286Y-129484381D02*
X152979286Y-128484381D01*
X152598333Y-128484381D01*
X152503095Y-128532000D01*
X152455476Y-128579619D01*
X152407857Y-128674857D01*
X152407857Y-128817714D01*
X152455476Y-128912952D01*
X152503095Y-128960571D01*
X152598333Y-129008190D01*
X152979286Y-129008190D01*
X151455476Y-129484381D02*
X152026905Y-129484381D01*
X151741191Y-129484381D02*
X151741191Y-128484381D01*
X151836429Y-128627238D01*
X151931667Y-128722476D01*
X152026905Y-128770095D01*
X150598333Y-128484381D02*
X150788810Y-128484381D01*
X150884048Y-128532000D01*
X150931667Y-128579619D01*
X151026905Y-128722476D01*
X151074524Y-128912952D01*
X151074524Y-129293905D01*
X151026905Y-129389143D01*
X150979286Y-129436762D01*
X150884048Y-129484381D01*
X150693571Y-129484381D01*
X150598333Y-129436762D01*
X150550714Y-129389143D01*
X150503095Y-129293905D01*
X150503095Y-129055810D01*
X150550714Y-128960571D01*
X150598333Y-128912952D01*
X150693571Y-128865333D01*
X150884048Y-128865333D01*
X150979286Y-128912952D01*
X151026905Y-128960571D01*
X151074524Y-129055810D01*
X152280857Y-131389381D02*
X152614191Y-130913190D01*
X152852286Y-131389381D02*
X152852286Y-130389381D01*
X152471333Y-130389381D01*
X152376095Y-130437000D01*
X152328476Y-130484619D01*
X152280857Y-130579857D01*
X152280857Y-130722714D01*
X152328476Y-130817952D01*
X152376095Y-130865571D01*
X152471333Y-130913190D01*
X152852286Y-130913190D01*
X151328476Y-131389381D02*
X151899905Y-131389381D01*
X151614191Y-131389381D02*
X151614191Y-130389381D01*
X151709429Y-130532238D01*
X151804667Y-130627476D01*
X151899905Y-130675095D01*
X150995143Y-130389381D02*
X150328476Y-130389381D01*
X150757048Y-131389381D01*
X152915857Y-81732381D02*
X153249191Y-81256190D01*
X153487286Y-81732381D02*
X153487286Y-80732381D01*
X153106333Y-80732381D01*
X153011095Y-80780000D01*
X152963476Y-80827619D01*
X152915857Y-80922857D01*
X152915857Y-81065714D01*
X152963476Y-81160952D01*
X153011095Y-81208571D01*
X153106333Y-81256190D01*
X153487286Y-81256190D01*
X151963476Y-81732381D02*
X152534905Y-81732381D01*
X152249191Y-81732381D02*
X152249191Y-80732381D01*
X152344429Y-80875238D01*
X152439667Y-80970476D01*
X152534905Y-81018095D01*
X151106333Y-81065714D02*
X151106333Y-81732381D01*
X151344429Y-80684762D02*
X151582524Y-81399048D01*
X150963476Y-81399048D01*
X160789857Y-81732381D02*
X161123191Y-81256190D01*
X161361286Y-81732381D02*
X161361286Y-80732381D01*
X160980333Y-80732381D01*
X160885095Y-80780000D01*
X160837476Y-80827619D01*
X160789857Y-80922857D01*
X160789857Y-81065714D01*
X160837476Y-81160952D01*
X160885095Y-81208571D01*
X160980333Y-81256190D01*
X161361286Y-81256190D01*
X159837476Y-81732381D02*
X160408905Y-81732381D01*
X160123191Y-81732381D02*
X160123191Y-80732381D01*
X160218429Y-80875238D01*
X160313667Y-80970476D01*
X160408905Y-81018095D01*
X158932714Y-80732381D02*
X159408905Y-80732381D01*
X159456524Y-81208571D01*
X159408905Y-81160952D01*
X159313667Y-81113333D01*
X159075571Y-81113333D01*
X158980333Y-81160952D01*
X158932714Y-81208571D01*
X158885095Y-81303810D01*
X158885095Y-81541905D01*
X158932714Y-81637143D01*
X158980333Y-81684762D01*
X159075571Y-81732381D01*
X159313667Y-81732381D01*
X159408905Y-81684762D01*
X159456524Y-81637143D01*
X139453857Y-134342143D02*
X139501476Y-134389762D01*
X139644333Y-134437381D01*
X139739571Y-134437381D01*
X139882429Y-134389762D01*
X139977667Y-134294524D01*
X140025286Y-134199286D01*
X140072905Y-134008810D01*
X140072905Y-133865952D01*
X140025286Y-133675476D01*
X139977667Y-133580238D01*
X139882429Y-133485000D01*
X139739571Y-133437381D01*
X139644333Y-133437381D01*
X139501476Y-133485000D01*
X139453857Y-133532619D01*
X138501476Y-134437381D02*
X139072905Y-134437381D01*
X138787191Y-134437381D02*
X138787191Y-133437381D01*
X138882429Y-133580238D01*
X138977667Y-133675476D01*
X139072905Y-133723095D01*
X138025286Y-134437381D02*
X137834810Y-134437381D01*
X137739571Y-134389762D01*
X137691952Y-134342143D01*
X137596714Y-134199286D01*
X137549095Y-134008810D01*
X137549095Y-133627857D01*
X137596714Y-133532619D01*
X137644333Y-133485000D01*
X137739571Y-133437381D01*
X137930048Y-133437381D01*
X138025286Y-133485000D01*
X138072905Y-133532619D01*
X138120524Y-133627857D01*
X138120524Y-133865952D01*
X138072905Y-133961190D01*
X138025286Y-134008810D01*
X137930048Y-134056429D01*
X137739571Y-134056429D01*
X137644333Y-134008810D01*
X137596714Y-133961190D01*
X137549095Y-133865952D01*
X145518143Y-139565143D02*
X145565762Y-139517524D01*
X145613381Y-139374667D01*
X145613381Y-139279429D01*
X145565762Y-139136571D01*
X145470524Y-139041333D01*
X145375286Y-138993714D01*
X145184810Y-138946095D01*
X145041952Y-138946095D01*
X144851476Y-138993714D01*
X144756238Y-139041333D01*
X144661000Y-139136571D01*
X144613381Y-139279429D01*
X144613381Y-139374667D01*
X144661000Y-139517524D01*
X144708619Y-139565143D01*
X144708619Y-139946095D02*
X144661000Y-139993714D01*
X144613381Y-140088952D01*
X144613381Y-140327048D01*
X144661000Y-140422286D01*
X144708619Y-140469905D01*
X144803857Y-140517524D01*
X144899095Y-140517524D01*
X145041952Y-140469905D01*
X145613381Y-139898476D01*
X145613381Y-140517524D01*
X144613381Y-141136571D02*
X144613381Y-141231810D01*
X144661000Y-141327048D01*
X144708619Y-141374667D01*
X144803857Y-141422286D01*
X144994333Y-141469905D01*
X145232429Y-141469905D01*
X145422905Y-141422286D01*
X145518143Y-141374667D01*
X145565762Y-141327048D01*
X145613381Y-141231810D01*
X145613381Y-141136571D01*
X145565762Y-141041333D01*
X145518143Y-140993714D01*
X145422905Y-140946095D01*
X145232429Y-140898476D01*
X144994333Y-140898476D01*
X144803857Y-140946095D01*
X144708619Y-140993714D01*
X144661000Y-141041333D01*
X144613381Y-141136571D01*
X142628857Y-142089143D02*
X142676476Y-142136762D01*
X142819333Y-142184381D01*
X142914571Y-142184381D01*
X143057429Y-142136762D01*
X143152667Y-142041524D01*
X143200286Y-141946286D01*
X143247905Y-141755810D01*
X143247905Y-141612952D01*
X143200286Y-141422476D01*
X143152667Y-141327238D01*
X143057429Y-141232000D01*
X142914571Y-141184381D01*
X142819333Y-141184381D01*
X142676476Y-141232000D01*
X142628857Y-141279619D01*
X142247905Y-141279619D02*
X142200286Y-141232000D01*
X142105048Y-141184381D01*
X141866952Y-141184381D01*
X141771714Y-141232000D01*
X141724095Y-141279619D01*
X141676476Y-141374857D01*
X141676476Y-141470095D01*
X141724095Y-141612952D01*
X142295524Y-142184381D01*
X141676476Y-142184381D01*
X140724095Y-142184381D02*
X141295524Y-142184381D01*
X141009810Y-142184381D02*
X141009810Y-141184381D01*
X141105048Y-141327238D01*
X141200286Y-141422476D01*
X141295524Y-141470095D01*
X139295143Y-139819143D02*
X139342762Y-139771524D01*
X139390381Y-139628667D01*
X139390381Y-139533429D01*
X139342762Y-139390571D01*
X139247524Y-139295333D01*
X139152286Y-139247714D01*
X138961810Y-139200095D01*
X138818952Y-139200095D01*
X138628476Y-139247714D01*
X138533238Y-139295333D01*
X138438000Y-139390571D01*
X138390381Y-139533429D01*
X138390381Y-139628667D01*
X138438000Y-139771524D01*
X138485619Y-139819143D01*
X138485619Y-140200095D02*
X138438000Y-140247714D01*
X138390381Y-140342952D01*
X138390381Y-140581048D01*
X138438000Y-140676286D01*
X138485619Y-140723905D01*
X138580857Y-140771524D01*
X138676095Y-140771524D01*
X138818952Y-140723905D01*
X139390381Y-140152476D01*
X139390381Y-140771524D01*
X138485619Y-141152476D02*
X138438000Y-141200095D01*
X138390381Y-141295333D01*
X138390381Y-141533429D01*
X138438000Y-141628667D01*
X138485619Y-141676286D01*
X138580857Y-141723905D01*
X138676095Y-141723905D01*
X138818952Y-141676286D01*
X139390381Y-141104857D01*
X139390381Y-141723905D01*
X142755857Y-128881143D02*
X142803476Y-128928762D01*
X142946333Y-128976381D01*
X143041571Y-128976381D01*
X143184429Y-128928762D01*
X143279667Y-128833524D01*
X143327286Y-128738286D01*
X143374905Y-128547810D01*
X143374905Y-128404952D01*
X143327286Y-128214476D01*
X143279667Y-128119238D01*
X143184429Y-128024000D01*
X143041571Y-127976381D01*
X142946333Y-127976381D01*
X142803476Y-128024000D01*
X142755857Y-128071619D01*
X142374905Y-128071619D02*
X142327286Y-128024000D01*
X142232048Y-127976381D01*
X141993952Y-127976381D01*
X141898714Y-128024000D01*
X141851095Y-128071619D01*
X141803476Y-128166857D01*
X141803476Y-128262095D01*
X141851095Y-128404952D01*
X142422524Y-128976381D01*
X141803476Y-128976381D01*
X141470143Y-127976381D02*
X140851095Y-127976381D01*
X141184429Y-128357333D01*
X141041571Y-128357333D01*
X140946333Y-128404952D01*
X140898714Y-128452571D01*
X140851095Y-128547810D01*
X140851095Y-128785905D01*
X140898714Y-128881143D01*
X140946333Y-128928762D01*
X141041571Y-128976381D01*
X141327286Y-128976381D01*
X141422524Y-128928762D01*
X141470143Y-128881143D01*
X163298095Y-139612381D02*
X163298095Y-138612381D01*
X163060000Y-138612381D01*
X162917142Y-138660000D01*
X162821904Y-138755238D01*
X162774285Y-138850476D01*
X162726666Y-139040952D01*
X162726666Y-139183810D01*
X162774285Y-139374286D01*
X162821904Y-139469524D01*
X162917142Y-139564762D01*
X163060000Y-139612381D01*
X163298095Y-139612381D01*
X162250476Y-139612381D02*
X162060000Y-139612381D01*
X161964761Y-139564762D01*
X161917142Y-139517143D01*
X161821904Y-139374286D01*
X161774285Y-139183810D01*
X161774285Y-138802857D01*
X161821904Y-138707619D01*
X161869523Y-138660000D01*
X161964761Y-138612381D01*
X162155238Y-138612381D01*
X162250476Y-138660000D01*
X162298095Y-138707619D01*
X162345714Y-138802857D01*
X162345714Y-139040952D01*
X162298095Y-139136190D01*
X162250476Y-139183810D01*
X162155238Y-139231429D01*
X161964761Y-139231429D01*
X161869523Y-139183810D01*
X161821904Y-139136190D01*
X161774285Y-139040952D01*
X108918333Y-128992381D02*
X108918333Y-129706667D01*
X108965953Y-129849524D01*
X109061191Y-129944762D01*
X109204048Y-129992381D01*
X109299286Y-129992381D01*
X108013571Y-129325714D02*
X108013571Y-129992381D01*
X108251667Y-128944762D02*
X108489762Y-129659048D01*
X107870714Y-129659048D01*
X134580381Y-119586477D02*
X135294667Y-119586477D01*
X135437524Y-119538857D01*
X135532762Y-119443619D01*
X135580381Y-119300762D01*
X135580381Y-119205524D01*
X134580381Y-119967429D02*
X134580381Y-120586477D01*
X134961333Y-120253143D01*
X134961333Y-120396001D01*
X135008952Y-120491239D01*
X135056571Y-120538858D01*
X135151810Y-120586477D01*
X135389905Y-120586477D01*
X135485143Y-120538858D01*
X135532762Y-120491239D01*
X135580381Y-120396001D01*
X135580381Y-120110286D01*
X135532762Y-120015048D01*
X135485143Y-119967429D01*
X134913714Y-121443620D02*
X135580381Y-121443620D01*
X134532762Y-121205524D02*
X135247048Y-120967429D01*
X135247048Y-121586477D01*
X106211666Y-134183381D02*
X106545000Y-133707190D01*
X106783095Y-134183381D02*
X106783095Y-133183381D01*
X106402142Y-133183381D01*
X106306904Y-133231000D01*
X106259285Y-133278619D01*
X106211666Y-133373857D01*
X106211666Y-133516714D01*
X106259285Y-133611952D01*
X106306904Y-133659571D01*
X106402142Y-133707190D01*
X106783095Y-133707190D01*
X105259285Y-134183381D02*
X105830714Y-134183381D01*
X105545000Y-134183381D02*
X105545000Y-133183381D01*
X105640238Y-133326238D01*
X105735476Y-133421476D01*
X105830714Y-133469095D01*
X115609666Y-134183381D02*
X115943000Y-133707190D01*
X116181095Y-134183381D02*
X116181095Y-133183381D01*
X115800142Y-133183381D01*
X115704904Y-133231000D01*
X115657285Y-133278619D01*
X115609666Y-133373857D01*
X115609666Y-133516714D01*
X115657285Y-133611952D01*
X115704904Y-133659571D01*
X115800142Y-133707190D01*
X116181095Y-133707190D01*
X115228714Y-133278619D02*
X115181095Y-133231000D01*
X115085857Y-133183381D01*
X114847761Y-133183381D01*
X114752523Y-133231000D01*
X114704904Y-133278619D01*
X114657285Y-133373857D01*
X114657285Y-133469095D01*
X114704904Y-133611952D01*
X115276333Y-134183381D01*
X114657285Y-134183381D01*
X108751666Y-136215381D02*
X109085000Y-135739190D01*
X109323095Y-136215381D02*
X109323095Y-135215381D01*
X108942142Y-135215381D01*
X108846904Y-135263000D01*
X108799285Y-135310619D01*
X108751666Y-135405857D01*
X108751666Y-135548714D01*
X108799285Y-135643952D01*
X108846904Y-135691571D01*
X108942142Y-135739190D01*
X109323095Y-135739190D01*
X108418333Y-135215381D02*
X107799285Y-135215381D01*
X108132619Y-135596333D01*
X107989761Y-135596333D01*
X107894523Y-135643952D01*
X107846904Y-135691571D01*
X107799285Y-135786810D01*
X107799285Y-136024905D01*
X107846904Y-136120143D01*
X107894523Y-136167762D01*
X107989761Y-136215381D01*
X108275476Y-136215381D01*
X108370714Y-136167762D01*
X108418333Y-136120143D01*
X108751666Y-140279381D02*
X109085000Y-139803190D01*
X109323095Y-140279381D02*
X109323095Y-139279381D01*
X108942142Y-139279381D01*
X108846904Y-139327000D01*
X108799285Y-139374619D01*
X108751666Y-139469857D01*
X108751666Y-139612714D01*
X108799285Y-139707952D01*
X108846904Y-139755571D01*
X108942142Y-139803190D01*
X109323095Y-139803190D01*
X107894523Y-139612714D02*
X107894523Y-140279381D01*
X108132619Y-139231762D02*
X108370714Y-139946048D01*
X107751666Y-139946048D01*
X108751666Y-138247381D02*
X109085000Y-137771190D01*
X109323095Y-138247381D02*
X109323095Y-137247381D01*
X108942142Y-137247381D01*
X108846904Y-137295000D01*
X108799285Y-137342619D01*
X108751666Y-137437857D01*
X108751666Y-137580714D01*
X108799285Y-137675952D01*
X108846904Y-137723571D01*
X108942142Y-137771190D01*
X109323095Y-137771190D01*
X107846904Y-137247381D02*
X108323095Y-137247381D01*
X108370714Y-137723571D01*
X108323095Y-137675952D01*
X108227857Y-137628333D01*
X107989761Y-137628333D01*
X107894523Y-137675952D01*
X107846904Y-137723571D01*
X107799285Y-137818810D01*
X107799285Y-138056905D01*
X107846904Y-138152143D01*
X107894523Y-138199762D01*
X107989761Y-138247381D01*
X108227857Y-138247381D01*
X108323095Y-138199762D01*
X108370714Y-138152143D01*
X154852666Y-122499381D02*
X155186000Y-122023190D01*
X155424095Y-122499381D02*
X155424095Y-121499381D01*
X155043142Y-121499381D01*
X154947904Y-121547000D01*
X154900285Y-121594619D01*
X154852666Y-121689857D01*
X154852666Y-121832714D01*
X154900285Y-121927952D01*
X154947904Y-121975571D01*
X155043142Y-122023190D01*
X155424095Y-122023190D01*
X154281238Y-121927952D02*
X154376476Y-121880333D01*
X154424095Y-121832714D01*
X154471714Y-121737476D01*
X154471714Y-121689857D01*
X154424095Y-121594619D01*
X154376476Y-121547000D01*
X154281238Y-121499381D01*
X154090761Y-121499381D01*
X153995523Y-121547000D01*
X153947904Y-121594619D01*
X153900285Y-121689857D01*
X153900285Y-121737476D01*
X153947904Y-121832714D01*
X153995523Y-121880333D01*
X154090761Y-121927952D01*
X154281238Y-121927952D01*
X154376476Y-121975571D01*
X154424095Y-122023190D01*
X154471714Y-122118429D01*
X154471714Y-122308905D01*
X154424095Y-122404143D01*
X154376476Y-122451762D01*
X154281238Y-122499381D01*
X154090761Y-122499381D01*
X153995523Y-122451762D01*
X153947904Y-122404143D01*
X153900285Y-122308905D01*
X153900285Y-122118429D01*
X153947904Y-122023190D01*
X153995523Y-121975571D01*
X154090761Y-121927952D01*
X165234857Y-120340381D02*
X165568191Y-119864190D01*
X165806286Y-120340381D02*
X165806286Y-119340381D01*
X165425333Y-119340381D01*
X165330095Y-119388000D01*
X165282476Y-119435619D01*
X165234857Y-119530857D01*
X165234857Y-119673714D01*
X165282476Y-119768952D01*
X165330095Y-119816571D01*
X165425333Y-119864190D01*
X165806286Y-119864190D01*
X164282476Y-120340381D02*
X164853905Y-120340381D01*
X164568191Y-120340381D02*
X164568191Y-119340381D01*
X164663429Y-119483238D01*
X164758667Y-119578476D01*
X164853905Y-119626095D01*
X163901524Y-119435619D02*
X163853905Y-119388000D01*
X163758667Y-119340381D01*
X163520571Y-119340381D01*
X163425333Y-119388000D01*
X163377714Y-119435619D01*
X163330095Y-119530857D01*
X163330095Y-119626095D01*
X163377714Y-119768952D01*
X163949143Y-120340381D01*
X163330095Y-120340381D01*
X116204905Y-139152381D02*
X116204905Y-139961905D01*
X116157286Y-140057143D01*
X116109667Y-140104762D01*
X116014429Y-140152381D01*
X115823952Y-140152381D01*
X115728714Y-140104762D01*
X115681095Y-140057143D01*
X115633476Y-139961905D01*
X115633476Y-139152381D01*
X115252524Y-139152381D02*
X114633476Y-139152381D01*
X114966810Y-139533333D01*
X114823952Y-139533333D01*
X114728714Y-139580952D01*
X114681095Y-139628571D01*
X114633476Y-139723810D01*
X114633476Y-139961905D01*
X114681095Y-140057143D01*
X114728714Y-140104762D01*
X114823952Y-140152381D01*
X115109667Y-140152381D01*
X115204905Y-140104762D01*
X115252524Y-140057143D01*
X141438381Y-136271095D02*
X142247905Y-136271095D01*
X142343143Y-136318714D01*
X142390762Y-136366333D01*
X142438381Y-136461571D01*
X142438381Y-136652048D01*
X142390762Y-136747286D01*
X142343143Y-136794905D01*
X142247905Y-136842524D01*
X141438381Y-136842524D01*
X141438381Y-137223476D02*
X141438381Y-137890143D01*
X142438381Y-137461571D01*
X136651905Y-130262381D02*
X136651905Y-131071905D01*
X136604286Y-131167143D01*
X136556667Y-131214762D01*
X136461429Y-131262381D01*
X136270952Y-131262381D01*
X136175714Y-131214762D01*
X136128095Y-131167143D01*
X136080476Y-131071905D01*
X136080476Y-130262381D01*
X135556667Y-131262381D02*
X135366191Y-131262381D01*
X135270952Y-131214762D01*
X135223333Y-131167143D01*
X135128095Y-131024286D01*
X135080476Y-130833810D01*
X135080476Y-130452857D01*
X135128095Y-130357619D01*
X135175714Y-130310000D01*
X135270952Y-130262381D01*
X135461429Y-130262381D01*
X135556667Y-130310000D01*
X135604286Y-130357619D01*
X135651905Y-130452857D01*
X135651905Y-130690952D01*
X135604286Y-130786190D01*
X135556667Y-130833810D01*
X135461429Y-130881429D01*
X135270952Y-130881429D01*
X135175714Y-130833810D01*
X135128095Y-130786190D01*
X135080476Y-130690952D01*
X155424095Y-118181381D02*
X155424095Y-117181381D01*
X155186000Y-117181381D01*
X155043142Y-117229000D01*
X154947904Y-117324238D01*
X154900285Y-117419476D01*
X154852666Y-117609952D01*
X154852666Y-117752810D01*
X154900285Y-117943286D01*
X154947904Y-118038524D01*
X155043142Y-118133762D01*
X155186000Y-118181381D01*
X155424095Y-118181381D01*
X153995523Y-117181381D02*
X154186000Y-117181381D01*
X154281238Y-117229000D01*
X154328857Y-117276619D01*
X154424095Y-117419476D01*
X154471714Y-117609952D01*
X154471714Y-117990905D01*
X154424095Y-118086143D01*
X154376476Y-118133762D01*
X154281238Y-118181381D01*
X154090761Y-118181381D01*
X153995523Y-118133762D01*
X153947904Y-118086143D01*
X153900285Y-117990905D01*
X153900285Y-117752810D01*
X153947904Y-117657571D01*
X153995523Y-117609952D01*
X154090761Y-117562333D01*
X154281238Y-117562333D01*
X154376476Y-117609952D01*
X154424095Y-117657571D01*
X154471714Y-117752810D01*
X165330095Y-118181381D02*
X165330095Y-117181381D01*
X165092000Y-117181381D01*
X164949142Y-117229000D01*
X164853904Y-117324238D01*
X164806285Y-117419476D01*
X164758666Y-117609952D01*
X164758666Y-117752810D01*
X164806285Y-117943286D01*
X164853904Y-118038524D01*
X164949142Y-118133762D01*
X165092000Y-118181381D01*
X165330095Y-118181381D01*
X164425333Y-117181381D02*
X163758666Y-117181381D01*
X164187238Y-118181381D01*
X116181095Y-136977381D02*
X116181095Y-135977381D01*
X115943000Y-135977381D01*
X115800142Y-136025000D01*
X115704904Y-136120238D01*
X115657285Y-136215476D01*
X115609666Y-136405952D01*
X115609666Y-136548810D01*
X115657285Y-136739286D01*
X115704904Y-136834524D01*
X115800142Y-136929762D01*
X115943000Y-136977381D01*
X116181095Y-136977381D01*
X115228714Y-136072619D02*
X115181095Y-136025000D01*
X115085857Y-135977381D01*
X114847761Y-135977381D01*
X114752523Y-136025000D01*
X114704904Y-136072619D01*
X114657285Y-136167857D01*
X114657285Y-136263095D01*
X114704904Y-136405952D01*
X115276333Y-136977381D01*
X114657285Y-136977381D01*
X151487143Y-74763334D02*
X151534762Y-74715715D01*
X151582381Y-74572858D01*
X151582381Y-74477620D01*
X151534762Y-74334762D01*
X151439524Y-74239524D01*
X151344286Y-74191905D01*
X151153810Y-74144286D01*
X151010952Y-74144286D01*
X150820476Y-74191905D01*
X150725238Y-74239524D01*
X150630000Y-74334762D01*
X150582381Y-74477620D01*
X150582381Y-74572858D01*
X150630000Y-74715715D01*
X150677619Y-74763334D01*
X151582381Y-75239524D02*
X151582381Y-75430000D01*
X151534762Y-75525239D01*
X151487143Y-75572858D01*
X151344286Y-75668096D01*
X151153810Y-75715715D01*
X150772857Y-75715715D01*
X150677619Y-75668096D01*
X150630000Y-75620477D01*
X150582381Y-75525239D01*
X150582381Y-75334762D01*
X150630000Y-75239524D01*
X150677619Y-75191905D01*
X150772857Y-75144286D01*
X151010952Y-75144286D01*
X151106190Y-75191905D01*
X151153810Y-75239524D01*
X151201429Y-75334762D01*
X151201429Y-75525239D01*
X151153810Y-75620477D01*
X151106190Y-75668096D01*
X151010952Y-75715715D01*
X151487143Y-77462143D02*
X151534762Y-77414524D01*
X151582381Y-77271667D01*
X151582381Y-77176429D01*
X151534762Y-77033571D01*
X151439524Y-76938333D01*
X151344286Y-76890714D01*
X151153810Y-76843095D01*
X151010952Y-76843095D01*
X150820476Y-76890714D01*
X150725238Y-76938333D01*
X150630000Y-77033571D01*
X150582381Y-77176429D01*
X150582381Y-77271667D01*
X150630000Y-77414524D01*
X150677619Y-77462143D01*
X151582381Y-78414524D02*
X151582381Y-77843095D01*
X151582381Y-78128809D02*
X150582381Y-78128809D01*
X150725238Y-78033571D01*
X150820476Y-77938333D01*
X150868095Y-77843095D01*
X150582381Y-79033571D02*
X150582381Y-79128810D01*
X150630000Y-79224048D01*
X150677619Y-79271667D01*
X150772857Y-79319286D01*
X150963333Y-79366905D01*
X151201429Y-79366905D01*
X151391905Y-79319286D01*
X151487143Y-79271667D01*
X151534762Y-79224048D01*
X151582381Y-79128810D01*
X151582381Y-79033571D01*
X151534762Y-78938333D01*
X151487143Y-78890714D01*
X151391905Y-78843095D01*
X151201429Y-78795476D01*
X150963333Y-78795476D01*
X150772857Y-78843095D01*
X150677619Y-78890714D01*
X150630000Y-78938333D01*
X150582381Y-79033571D01*
X144946666Y-71477143D02*
X144994285Y-71524762D01*
X145137142Y-71572381D01*
X145232380Y-71572381D01*
X145375238Y-71524762D01*
X145470476Y-71429524D01*
X145518095Y-71334286D01*
X145565714Y-71143810D01*
X145565714Y-71000952D01*
X145518095Y-70810476D01*
X145470476Y-70715238D01*
X145375238Y-70620000D01*
X145232380Y-70572381D01*
X145137142Y-70572381D01*
X144994285Y-70620000D01*
X144946666Y-70667619D01*
X144613333Y-70572381D02*
X143994285Y-70572381D01*
X144327619Y-70953333D01*
X144184761Y-70953333D01*
X144089523Y-71000952D01*
X144041904Y-71048571D01*
X143994285Y-71143810D01*
X143994285Y-71381905D01*
X144041904Y-71477143D01*
X144089523Y-71524762D01*
X144184761Y-71572381D01*
X144470476Y-71572381D01*
X144565714Y-71524762D01*
X144613333Y-71477143D01*
X146407143Y-73493334D02*
X146454762Y-73445715D01*
X146502381Y-73302858D01*
X146502381Y-73207620D01*
X146454762Y-73064762D01*
X146359524Y-72969524D01*
X146264286Y-72921905D01*
X146073810Y-72874286D01*
X145930952Y-72874286D01*
X145740476Y-72921905D01*
X145645238Y-72969524D01*
X145550000Y-73064762D01*
X145502381Y-73207620D01*
X145502381Y-73302858D01*
X145550000Y-73445715D01*
X145597619Y-73493334D01*
X145835714Y-74350477D02*
X146502381Y-74350477D01*
X145454762Y-74112381D02*
X146169048Y-73874286D01*
X146169048Y-74493334D01*
X144946666Y-76557143D02*
X144994285Y-76604762D01*
X145137142Y-76652381D01*
X145232380Y-76652381D01*
X145375238Y-76604762D01*
X145470476Y-76509524D01*
X145518095Y-76414286D01*
X145565714Y-76223810D01*
X145565714Y-76080952D01*
X145518095Y-75890476D01*
X145470476Y-75795238D01*
X145375238Y-75700000D01*
X145232380Y-75652381D01*
X145137142Y-75652381D01*
X144994285Y-75700000D01*
X144946666Y-75747619D01*
X144089523Y-75652381D02*
X144280000Y-75652381D01*
X144375238Y-75700000D01*
X144422857Y-75747619D01*
X144518095Y-75890476D01*
X144565714Y-76080952D01*
X144565714Y-76461905D01*
X144518095Y-76557143D01*
X144470476Y-76604762D01*
X144375238Y-76652381D01*
X144184761Y-76652381D01*
X144089523Y-76604762D01*
X144041904Y-76557143D01*
X143994285Y-76461905D01*
X143994285Y-76223810D01*
X144041904Y-76128571D01*
X144089523Y-76080952D01*
X144184761Y-76033333D01*
X144375238Y-76033333D01*
X144470476Y-76080952D01*
X144518095Y-76128571D01*
X144565714Y-76223810D01*
X146407143Y-78573334D02*
X146454762Y-78525715D01*
X146502381Y-78382858D01*
X146502381Y-78287620D01*
X146454762Y-78144762D01*
X146359524Y-78049524D01*
X146264286Y-78001905D01*
X146073810Y-77954286D01*
X145930952Y-77954286D01*
X145740476Y-78001905D01*
X145645238Y-78049524D01*
X145550000Y-78144762D01*
X145502381Y-78287620D01*
X145502381Y-78382858D01*
X145550000Y-78525715D01*
X145597619Y-78573334D01*
X145930952Y-79144762D02*
X145883333Y-79049524D01*
X145835714Y-79001905D01*
X145740476Y-78954286D01*
X145692857Y-78954286D01*
X145597619Y-79001905D01*
X145550000Y-79049524D01*
X145502381Y-79144762D01*
X145502381Y-79335239D01*
X145550000Y-79430477D01*
X145597619Y-79478096D01*
X145692857Y-79525715D01*
X145740476Y-79525715D01*
X145835714Y-79478096D01*
X145883333Y-79430477D01*
X145930952Y-79335239D01*
X145930952Y-79144762D01*
X145978571Y-79049524D01*
X146026190Y-79001905D01*
X146121429Y-78954286D01*
X146311905Y-78954286D01*
X146407143Y-79001905D01*
X146454762Y-79049524D01*
X146502381Y-79144762D01*
X146502381Y-79335239D01*
X146454762Y-79430477D01*
X146407143Y-79478096D01*
X146311905Y-79525715D01*
X146121429Y-79525715D01*
X146026190Y-79478096D01*
X145978571Y-79430477D01*
X145930952Y-79335239D01*
X143001905Y-73112381D02*
X143001905Y-73921905D01*
X142954286Y-74017143D01*
X142906667Y-74064762D01*
X142811429Y-74112381D01*
X142620952Y-74112381D01*
X142525714Y-74064762D01*
X142478095Y-74017143D01*
X142430476Y-73921905D01*
X142430476Y-73112381D01*
X141430476Y-74112381D02*
X142001905Y-74112381D01*
X141716191Y-74112381D02*
X141716191Y-73112381D01*
X141811429Y-73255238D01*
X141906667Y-73350476D01*
X142001905Y-73398095D01*
X143001905Y-78192381D02*
X143001905Y-79001905D01*
X142954286Y-79097143D01*
X142906667Y-79144762D01*
X142811429Y-79192381D01*
X142620952Y-79192381D01*
X142525714Y-79144762D01*
X142478095Y-79097143D01*
X142430476Y-79001905D01*
X142430476Y-78192381D01*
X141525714Y-78525714D02*
X141525714Y-79192381D01*
X141763810Y-78144762D02*
X142001905Y-78859048D01*
X141382857Y-78859048D01*
X147899381Y-105402143D02*
X147423190Y-105068809D01*
X147899381Y-104830714D02*
X146899381Y-104830714D01*
X146899381Y-105211667D01*
X146947000Y-105306905D01*
X146994619Y-105354524D01*
X147089857Y-105402143D01*
X147232714Y-105402143D01*
X147327952Y-105354524D01*
X147375571Y-105306905D01*
X147423190Y-105211667D01*
X147423190Y-104830714D01*
X146994619Y-105783095D02*
X146947000Y-105830714D01*
X146899381Y-105925952D01*
X146899381Y-106164048D01*
X146947000Y-106259286D01*
X146994619Y-106306905D01*
X147089857Y-106354524D01*
X147185095Y-106354524D01*
X147327952Y-106306905D01*
X147899381Y-105735476D01*
X147899381Y-106354524D01*
X147232714Y-107211667D02*
X147899381Y-107211667D01*
X146851762Y-106973571D02*
X147566048Y-106735476D01*
X147566048Y-107354524D01*
X109323095Y-144343381D02*
X109323095Y-143343381D01*
X109085000Y-143343381D01*
X108942142Y-143391000D01*
X108846904Y-143486238D01*
X108799285Y-143581476D01*
X108751666Y-143771952D01*
X108751666Y-143914810D01*
X108799285Y-144105286D01*
X108846904Y-144200524D01*
X108942142Y-144295762D01*
X109085000Y-144343381D01*
X109323095Y-144343381D01*
X107894523Y-143676714D02*
X107894523Y-144343381D01*
X108132619Y-143295762D02*
X108370714Y-144010048D01*
X107751666Y-144010048D01*
X143049523Y-147407381D02*
X143049523Y-148121667D01*
X143097143Y-148264524D01*
X143192381Y-148359762D01*
X143335238Y-148407381D01*
X143430476Y-148407381D01*
X142049523Y-148407381D02*
X142620952Y-148407381D01*
X142335238Y-148407381D02*
X142335238Y-147407381D01*
X142430476Y-147550238D01*
X142525714Y-147645476D01*
X142620952Y-147693095D01*
X141192380Y-147407381D02*
X141382857Y-147407381D01*
X141478095Y-147455000D01*
X141525714Y-147502619D01*
X141620952Y-147645476D01*
X141668571Y-147835952D01*
X141668571Y-148216905D01*
X141620952Y-148312143D01*
X141573333Y-148359762D01*
X141478095Y-148407381D01*
X141287618Y-148407381D01*
X141192380Y-148359762D01*
X141144761Y-148312143D01*
X141097142Y-148216905D01*
X141097142Y-147978810D01*
X141144761Y-147883571D01*
X141192380Y-147835952D01*
X141287618Y-147788333D01*
X141478095Y-147788333D01*
X141573333Y-147835952D01*
X141620952Y-147883571D01*
X141668571Y-147978810D01*
X104870238Y-144692619D02*
X104965476Y-144645000D01*
X105060714Y-144549762D01*
X105203571Y-144406905D01*
X105298810Y-144359286D01*
X105394048Y-144359286D01*
X105346429Y-144597381D02*
X105441667Y-144549762D01*
X105536905Y-144454524D01*
X105584524Y-144264048D01*
X105584524Y-143930714D01*
X105536905Y-143740238D01*
X105441667Y-143645000D01*
X105346429Y-143597381D01*
X105155952Y-143597381D01*
X105060714Y-143645000D01*
X104965476Y-143740238D01*
X104917857Y-143930714D01*
X104917857Y-144264048D01*
X104965476Y-144454524D01*
X105060714Y-144549762D01*
X105155952Y-144597381D01*
X105346429Y-144597381D01*
X103965476Y-144597381D02*
X104536905Y-144597381D01*
X104251191Y-144597381D02*
X104251191Y-143597381D01*
X104346429Y-143740238D01*
X104441667Y-143835476D01*
X104536905Y-143883095D01*
X145002238Y-133984619D02*
X145097476Y-133937000D01*
X145192714Y-133841762D01*
X145335571Y-133698905D01*
X145430810Y-133651286D01*
X145526048Y-133651286D01*
X145478429Y-133889381D02*
X145573667Y-133841762D01*
X145668905Y-133746524D01*
X145716524Y-133556048D01*
X145716524Y-133222714D01*
X145668905Y-133032238D01*
X145573667Y-132937000D01*
X145478429Y-132889381D01*
X145287952Y-132889381D01*
X145192714Y-132937000D01*
X145097476Y-133032238D01*
X145049857Y-133222714D01*
X145049857Y-133556048D01*
X145097476Y-133746524D01*
X145192714Y-133841762D01*
X145287952Y-133889381D01*
X145478429Y-133889381D01*
X144668905Y-132984619D02*
X144621286Y-132937000D01*
X144526048Y-132889381D01*
X144287952Y-132889381D01*
X144192714Y-132937000D01*
X144145095Y-132984619D01*
X144097476Y-133079857D01*
X144097476Y-133175095D01*
X144145095Y-133317952D01*
X144716524Y-133889381D01*
X144097476Y-133889381D01*
X102782666Y-136088381D02*
X103116000Y-135612190D01*
X103354095Y-136088381D02*
X103354095Y-135088381D01*
X102973142Y-135088381D01*
X102877904Y-135136000D01*
X102830285Y-135183619D01*
X102782666Y-135278857D01*
X102782666Y-135421714D01*
X102830285Y-135516952D01*
X102877904Y-135564571D01*
X102973142Y-135612190D01*
X103354095Y-135612190D01*
X101925523Y-135088381D02*
X102116000Y-135088381D01*
X102211238Y-135136000D01*
X102258857Y-135183619D01*
X102354095Y-135326476D01*
X102401714Y-135516952D01*
X102401714Y-135897905D01*
X102354095Y-135993143D01*
X102306476Y-136040762D01*
X102211238Y-136088381D01*
X102020761Y-136088381D01*
X101925523Y-136040762D01*
X101877904Y-135993143D01*
X101830285Y-135897905D01*
X101830285Y-135659810D01*
X101877904Y-135564571D01*
X101925523Y-135516952D01*
X102020761Y-135469333D01*
X102211238Y-135469333D01*
X102306476Y-135516952D01*
X102354095Y-135564571D01*
X102401714Y-135659810D01*
X139580857Y-126818381D02*
X139914191Y-126342190D01*
X140152286Y-126818381D02*
X140152286Y-125818381D01*
X139771333Y-125818381D01*
X139676095Y-125866000D01*
X139628476Y-125913619D01*
X139580857Y-126008857D01*
X139580857Y-126151714D01*
X139628476Y-126246952D01*
X139676095Y-126294571D01*
X139771333Y-126342190D01*
X140152286Y-126342190D01*
X139199905Y-125913619D02*
X139152286Y-125866000D01*
X139057048Y-125818381D01*
X138818952Y-125818381D01*
X138723714Y-125866000D01*
X138676095Y-125913619D01*
X138628476Y-126008857D01*
X138628476Y-126104095D01*
X138676095Y-126246952D01*
X139247524Y-126818381D01*
X138628476Y-126818381D01*
X138152286Y-126818381D02*
X137961810Y-126818381D01*
X137866571Y-126770762D01*
X137818952Y-126723143D01*
X137723714Y-126580286D01*
X137676095Y-126389810D01*
X137676095Y-126008857D01*
X137723714Y-125913619D01*
X137771333Y-125866000D01*
X137866571Y-125818381D01*
X138057048Y-125818381D01*
X138152286Y-125866000D01*
X138199905Y-125913619D01*
X138247524Y-126008857D01*
X138247524Y-126246952D01*
X138199905Y-126342190D01*
X138152286Y-126389810D01*
X138057048Y-126437429D01*
X137866571Y-126437429D01*
X137771333Y-126389810D01*
X137723714Y-126342190D01*
X137676095Y-126246952D01*
M02*
