M48
;DRILL file {KiCad 4.0.7} date 04/16/19 18:39:57
;FORMAT={-:-/ absolute / inch / decimal}
FMAT,2
INCH,TZ
T1C0.016
T2C0.031
T3C0.038
T4C0.039
T5C0.043
T6C0.051
T7C0.055
%
G90
G05
M72
T1
X3.3Y-4.8
X3.3Y-5.225
X3.3Y-5.4
X3.3Y-5.575
X3.38Y-3.57
X3.38Y-4.195
X3.51Y-4.195
X3.545Y-3.51
X3.6Y-6.2
X3.64Y-3.21
X3.675Y-4.2
X3.68Y-4.06
X3.735Y-3.9
X3.775Y-3.895
X3.81Y-3.895
X3.82Y-3.725
X3.82Y-4.35
X3.84Y-3.795
X3.88Y-3.79
X3.915Y-3.79
X3.915Y-4.82
X3.95Y-4.58
X4.145Y-3.49
X4.145Y-4.6
X4.15Y-6.2
X4.175Y-5.275
X4.215Y-3.415
X4.225Y-4.075
X4.275Y-5.465
X4.325Y-5.
X4.355Y-5.465
X4.36Y-4.28
X4.37Y-5.32
X4.375Y-4.075
X4.51Y-4.84
X4.515Y-5.265
X4.575Y-5.175
X4.575Y-6.2
X4.685Y-4.235
X4.685Y-4.33
X4.75Y-5.1
X4.75Y-6.2
X4.85Y-4.575
X4.925Y-6.2
X4.95Y-4.6
X4.9825Y-4.225
X5.1Y-4.575
X5.12Y-2.8
X5.14Y-3.05
X5.14Y-3.15
X5.16Y-4.225
X5.16Y-4.315
X5.195Y-2.955
X5.195Y-3.15
X5.2Y-5.3
X5.24Y-3.05
X5.24Y-3.15
X5.325Y-6.225
X5.34Y-5.15
X5.35Y-4.575
X5.365Y-5.23
X5.38Y-5.16
X5.41Y-4.225
X5.41Y-4.315
X5.41Y-5.36
X5.425Y-5.27
X5.52Y-2.8
X5.52Y-2.89
X5.52Y-2.98
X5.52Y-3.035
X5.52Y-3.115
X5.6Y-4.575
X5.625Y-4.875
X5.63Y-5.155
X5.635Y-3.055
X5.65Y-4.775
X5.66Y-4.225
X5.66Y-4.315
X5.68Y-2.98
X5.685Y-2.8
X5.725Y-2.97
X5.775Y-4.075
X5.875Y-6.225
X5.935Y-4.29
X5.935Y-5.155
X5.96Y-5.6
X5.975Y-4.175
X6.Y-2.875
X6.003Y-5.4
X6.0274Y-5.5
X6.05Y-3.025
X6.05Y-4.175
X6.07Y-5.3
X6.15Y-4.175
X6.19Y-4.42
X6.19Y-4.545
X6.335Y-5.4
X6.345Y-4.165
X6.39Y-4.865
X6.45Y-5.325
X6.625Y-5.4
X6.65Y-2.725
X6.65Y-3.28
X6.65Y-4.175
X6.65Y-5.075
X6.65Y-5.725
T2
X4.725Y-4.925
X4.825Y-4.925
X4.925Y-4.925
X5.325Y-5.3
X5.325Y-5.4
X5.325Y-5.5
T3
X3.7118Y-2.9332
X3.7118Y-3.0317
X3.7118Y-3.1104
X3.7118Y-3.2088
T4
X3.325Y-3.625
X3.325Y-3.725
X3.325Y-4.25
X3.325Y-4.35
X3.425Y-3.625
X3.425Y-3.725
X3.425Y-4.25
X3.425Y-4.35
X3.525Y-3.625
X3.525Y-3.725
X3.525Y-4.25
X3.525Y-4.35
X3.625Y-3.625
X3.625Y-3.725
X3.625Y-4.25
X3.625Y-4.35
X3.725Y-3.625
X3.725Y-3.725
X3.725Y-4.25
X3.725Y-4.35
X4.Y-2.8
X4.Y-2.9
X4.1Y-2.8
X4.1Y-2.9
X4.2Y-2.8
X4.2Y-2.9
X4.3Y-2.8
X4.3Y-2.9
X4.6275Y-3.6175
X4.6275Y-3.7175
X4.75Y-2.8
X4.75Y-2.9
X4.75Y-3.
X4.75Y-3.1
X4.75Y-4.3
X4.75Y-4.4
X4.75Y-4.5
X4.85Y-2.8
X4.85Y-2.9
X4.85Y-3.
X4.85Y-3.1
X4.85Y-4.3
X4.85Y-4.4
X4.85Y-4.5
X4.95Y-2.8
X4.95Y-2.9
X4.95Y-3.
X4.95Y-3.1
X5.05Y-2.8
X5.05Y-2.9
X5.05Y-3.
X5.05Y-3.1
X5.1Y-4.3
X5.1Y-4.4
X5.1Y-4.5
X5.35Y-2.85
X5.35Y-2.95
X5.35Y-3.05
X5.35Y-4.3
X5.35Y-4.4
X5.35Y-4.5
X5.45Y-2.8
X5.45Y-2.9
X5.45Y-3.
X5.45Y-3.1
X5.55Y-4.075
X5.6Y-4.3
X5.6Y-4.4
X5.6Y-4.5
X5.65Y-4.075
X5.85Y-2.85
X5.85Y-2.95
X5.85Y-3.05
X5.85Y-4.3
X5.85Y-4.4
X5.85Y-4.5
X6.25Y-4.25
X6.25Y-4.35
X6.35Y-2.8
X6.35Y-2.9
X6.35Y-3.
X6.35Y-3.1
X6.35Y-4.25
X6.35Y-4.35
X6.45Y-2.8
X6.45Y-2.9
X6.45Y-3.
X6.45Y-3.1
X6.45Y-4.25
X6.45Y-4.35
X6.55Y-2.8
X6.55Y-2.9
X6.55Y-3.
X6.55Y-3.1
X6.55Y-4.25
X6.55Y-4.35
X6.65Y-2.8
X6.65Y-2.9
X6.65Y-3.
X6.65Y-3.1
X6.65Y-4.25
X6.65Y-4.35
T5
X4.75Y-3.35
X4.75Y-3.55
X4.75Y-3.65
X4.75Y-3.75
X4.75Y-3.95
X4.85Y-3.35
X4.85Y-3.95
X4.95Y-3.35
X4.95Y-3.95
X5.05Y-3.35
X5.05Y-3.55
X5.05Y-3.65
X5.05Y-3.75
X5.05Y-3.95
X5.15Y-3.35
X5.15Y-3.65
X5.15Y-3.75
X5.15Y-3.95
X5.25Y-3.35
X5.25Y-3.65
X5.25Y-3.75
X5.25Y-3.95
X5.35Y-3.35
X5.35Y-3.65
X5.35Y-3.75
X5.35Y-3.95
X5.45Y-3.35
X5.45Y-3.95
X5.55Y-3.35
X5.55Y-3.95
X5.65Y-3.35
X5.65Y-3.95
X5.75Y-3.35
X5.75Y-3.95
X5.85Y-3.35
X5.85Y-3.95
X5.95Y-3.35
X5.95Y-3.95
X6.05Y-3.35
X6.05Y-3.95
X6.15Y-3.35
X6.15Y-3.95
X6.25Y-3.35
X6.25Y-3.95
X6.35Y-3.35
X6.35Y-3.95
X6.45Y-3.35
X6.45Y-3.95
X6.55Y-3.35
X6.55Y-3.95
X6.65Y-3.35
X6.65Y-3.95
T6
X3.9675Y-5.2524
X3.9675Y-5.5484
X4.7746Y-5.2524
X4.7746Y-5.5484
X4.973Y-5.2524
X4.973Y-5.5484
T7
X3.4085Y-4.625
X3.4085Y-4.7904
X3.4085Y-4.9557
X3.4085Y-5.225
X3.4085Y-5.3904
X3.4085Y-5.5557
X3.6Y-5.9
X3.6Y-6.1165
X3.625Y-4.625
X3.625Y-4.7904
X3.625Y-4.9557
X3.625Y-5.225
X3.625Y-5.3904
X3.625Y-5.5557
X4.15Y-5.9
X4.15Y-6.1165
X4.575Y-5.9
X4.575Y-6.1165
X4.7404Y-5.9
X4.7404Y-6.1165
X4.9057Y-5.9
X4.9057Y-6.1165
X5.325Y-5.9
X5.325Y-6.1165
X5.875Y-5.9
X5.875Y-6.1165
X6.35Y-5.075
X6.35Y-5.725
X6.5665Y-5.075
X6.5665Y-5.725
T0
M30
