G04 #@! TF.FileFunction,Legend,Bot*
%FSLAX46Y46*%
G04 Gerber Fmt 4.6, Leading zero omitted, Abs format (unit mm)*
G04 Created by KiCad (PCBNEW 4.0.7) date 08/13/18 20:17:20*
%MOMM*%
%LPD*%
G01*
G04 APERTURE LIST*
%ADD10C,0.100000*%
%ADD11C,0.150000*%
%ADD12C,0.120000*%
G04 APERTURE END LIST*
D10*
D11*
X141280714Y-92637619D02*
X140947380Y-93113810D01*
X140709285Y-92637619D02*
X140709285Y-93637619D01*
X141090238Y-93637619D01*
X141185476Y-93590000D01*
X141233095Y-93542381D01*
X141280714Y-93447143D01*
X141280714Y-93304286D01*
X141233095Y-93209048D01*
X141185476Y-93161429D01*
X141090238Y-93113810D01*
X140709285Y-93113810D01*
X141852142Y-92637619D02*
X141756904Y-92685238D01*
X141709285Y-92732857D01*
X141661666Y-92828095D01*
X141661666Y-93113810D01*
X141709285Y-93209048D01*
X141756904Y-93256667D01*
X141852142Y-93304286D01*
X141995000Y-93304286D01*
X142090238Y-93256667D01*
X142137857Y-93209048D01*
X142185476Y-93113810D01*
X142185476Y-92828095D01*
X142137857Y-92732857D01*
X142090238Y-92685238D01*
X141995000Y-92637619D01*
X141852142Y-92637619D01*
X142614047Y-92637619D02*
X142614047Y-93637619D01*
X142614047Y-93256667D02*
X142709285Y-93304286D01*
X142899762Y-93304286D01*
X142995000Y-93256667D01*
X143042619Y-93209048D01*
X143090238Y-93113810D01*
X143090238Y-92828095D01*
X143042619Y-92732857D01*
X142995000Y-92685238D01*
X142899762Y-92637619D01*
X142709285Y-92637619D01*
X142614047Y-92685238D01*
X143661666Y-92637619D02*
X143566428Y-92685238D01*
X143518809Y-92732857D01*
X143471190Y-92828095D01*
X143471190Y-93113810D01*
X143518809Y-93209048D01*
X143566428Y-93256667D01*
X143661666Y-93304286D01*
X143804524Y-93304286D01*
X143899762Y-93256667D01*
X143947381Y-93209048D01*
X143995000Y-93113810D01*
X143995000Y-92828095D01*
X143947381Y-92732857D01*
X143899762Y-92685238D01*
X143804524Y-92637619D01*
X143661666Y-92637619D01*
X144756905Y-93161429D02*
X144423571Y-93161429D01*
X144423571Y-92637619D02*
X144423571Y-93637619D01*
X144899762Y-93637619D01*
X145280714Y-92637619D02*
X145280714Y-93304286D01*
X145280714Y-93113810D02*
X145328333Y-93209048D01*
X145375952Y-93256667D01*
X145471190Y-93304286D01*
X145566429Y-93304286D01*
X145899762Y-92637619D02*
X145899762Y-93304286D01*
X145899762Y-93637619D02*
X145852143Y-93590000D01*
X145899762Y-93542381D01*
X145947381Y-93590000D01*
X145899762Y-93637619D01*
X145899762Y-93542381D01*
X146756905Y-92685238D02*
X146661667Y-92637619D01*
X146471190Y-92637619D01*
X146375952Y-92685238D01*
X146328333Y-92780476D01*
X146328333Y-93161429D01*
X146375952Y-93256667D01*
X146471190Y-93304286D01*
X146661667Y-93304286D01*
X146756905Y-93256667D01*
X146804524Y-93161429D01*
X146804524Y-93066190D01*
X146328333Y-92970952D01*
X147233095Y-93304286D02*
X147233095Y-92637619D01*
X147233095Y-93209048D02*
X147280714Y-93256667D01*
X147375952Y-93304286D01*
X147518810Y-93304286D01*
X147614048Y-93256667D01*
X147661667Y-93161429D01*
X147661667Y-92637619D01*
X148566429Y-92637619D02*
X148566429Y-93637619D01*
X148566429Y-92685238D02*
X148471191Y-92637619D01*
X148280714Y-92637619D01*
X148185476Y-92685238D01*
X148137857Y-92732857D01*
X148090238Y-92828095D01*
X148090238Y-93113810D01*
X148137857Y-93209048D01*
X148185476Y-93256667D01*
X148280714Y-93304286D01*
X148471191Y-93304286D01*
X148566429Y-93256667D01*
X149804524Y-93018571D02*
X150566429Y-93018571D01*
X151804524Y-92637619D02*
X151804524Y-93637619D01*
X152185477Y-93637619D01*
X152280715Y-93590000D01*
X152328334Y-93542381D01*
X152375953Y-93447143D01*
X152375953Y-93304286D01*
X152328334Y-93209048D01*
X152280715Y-93161429D01*
X152185477Y-93113810D01*
X151804524Y-93113810D01*
X152947381Y-92637619D02*
X152852143Y-92685238D01*
X152804524Y-92732857D01*
X152756905Y-92828095D01*
X152756905Y-93113810D01*
X152804524Y-93209048D01*
X152852143Y-93256667D01*
X152947381Y-93304286D01*
X153090239Y-93304286D01*
X153185477Y-93256667D01*
X153233096Y-93209048D01*
X153280715Y-93113810D01*
X153280715Y-92828095D01*
X153233096Y-92732857D01*
X153185477Y-92685238D01*
X153090239Y-92637619D01*
X152947381Y-92637619D01*
X153614048Y-93304286D02*
X153804524Y-92637619D01*
X153995001Y-93113810D01*
X154185477Y-92637619D01*
X154375953Y-93304286D01*
X155137858Y-92685238D02*
X155042620Y-92637619D01*
X154852143Y-92637619D01*
X154756905Y-92685238D01*
X154709286Y-92780476D01*
X154709286Y-93161429D01*
X154756905Y-93256667D01*
X154852143Y-93304286D01*
X155042620Y-93304286D01*
X155137858Y-93256667D01*
X155185477Y-93161429D01*
X155185477Y-93066190D01*
X154709286Y-92970952D01*
X155614048Y-92637619D02*
X155614048Y-93304286D01*
X155614048Y-93113810D02*
X155661667Y-93209048D01*
X155709286Y-93256667D01*
X155804524Y-93304286D01*
X155899763Y-93304286D01*
X156995001Y-92637619D02*
X156995001Y-93637619D01*
X157375954Y-93637619D01*
X157471192Y-93590000D01*
X157518811Y-93542381D01*
X157566430Y-93447143D01*
X157566430Y-93304286D01*
X157518811Y-93209048D01*
X157471192Y-93161429D01*
X157375954Y-93113810D01*
X156995001Y-93113810D01*
X158566430Y-92732857D02*
X158518811Y-92685238D01*
X158375954Y-92637619D01*
X158280716Y-92637619D01*
X158137858Y-92685238D01*
X158042620Y-92780476D01*
X157995001Y-92875714D01*
X157947382Y-93066190D01*
X157947382Y-93209048D01*
X157995001Y-93399524D01*
X158042620Y-93494762D01*
X158137858Y-93590000D01*
X158280716Y-93637619D01*
X158375954Y-93637619D01*
X158518811Y-93590000D01*
X158566430Y-93542381D01*
X159328335Y-93161429D02*
X159471192Y-93113810D01*
X159518811Y-93066190D01*
X159566430Y-92970952D01*
X159566430Y-92828095D01*
X159518811Y-92732857D01*
X159471192Y-92685238D01*
X159375954Y-92637619D01*
X158995001Y-92637619D01*
X158995001Y-93637619D01*
X159328335Y-93637619D01*
X159423573Y-93590000D01*
X159471192Y-93542381D01*
X159518811Y-93447143D01*
X159518811Y-93351905D01*
X159471192Y-93256667D01*
X159423573Y-93209048D01*
X159328335Y-93161429D01*
X158995001Y-93161429D01*
X140209285Y-90987619D02*
X140209285Y-91987619D01*
X140447380Y-91987619D01*
X140590238Y-91940000D01*
X140685476Y-91844762D01*
X140733095Y-91749524D01*
X140780714Y-91559048D01*
X140780714Y-91416190D01*
X140733095Y-91225714D01*
X140685476Y-91130476D01*
X140590238Y-91035238D01*
X140447380Y-90987619D01*
X140209285Y-90987619D01*
X141590238Y-91035238D02*
X141495000Y-90987619D01*
X141304523Y-90987619D01*
X141209285Y-91035238D01*
X141161666Y-91130476D01*
X141161666Y-91511429D01*
X141209285Y-91606667D01*
X141304523Y-91654286D01*
X141495000Y-91654286D01*
X141590238Y-91606667D01*
X141637857Y-91511429D01*
X141637857Y-91416190D01*
X141161666Y-91320952D01*
X142018809Y-91035238D02*
X142114047Y-90987619D01*
X142304523Y-90987619D01*
X142399762Y-91035238D01*
X142447381Y-91130476D01*
X142447381Y-91178095D01*
X142399762Y-91273333D01*
X142304523Y-91320952D01*
X142161666Y-91320952D01*
X142066428Y-91368571D01*
X142018809Y-91463810D01*
X142018809Y-91511429D01*
X142066428Y-91606667D01*
X142161666Y-91654286D01*
X142304523Y-91654286D01*
X142399762Y-91606667D01*
X142875952Y-90987619D02*
X142875952Y-91654286D01*
X142875952Y-91987619D02*
X142828333Y-91940000D01*
X142875952Y-91892381D01*
X142923571Y-91940000D01*
X142875952Y-91987619D01*
X142875952Y-91892381D01*
X143780714Y-91654286D02*
X143780714Y-90844762D01*
X143733095Y-90749524D01*
X143685476Y-90701905D01*
X143590237Y-90654286D01*
X143447380Y-90654286D01*
X143352142Y-90701905D01*
X143780714Y-91035238D02*
X143685476Y-90987619D01*
X143494999Y-90987619D01*
X143399761Y-91035238D01*
X143352142Y-91082857D01*
X143304523Y-91178095D01*
X143304523Y-91463810D01*
X143352142Y-91559048D01*
X143399761Y-91606667D01*
X143494999Y-91654286D01*
X143685476Y-91654286D01*
X143780714Y-91606667D01*
X144256904Y-91654286D02*
X144256904Y-90987619D01*
X144256904Y-91559048D02*
X144304523Y-91606667D01*
X144399761Y-91654286D01*
X144542619Y-91654286D01*
X144637857Y-91606667D01*
X144685476Y-91511429D01*
X144685476Y-90987619D01*
X145542619Y-91035238D02*
X145447381Y-90987619D01*
X145256904Y-90987619D01*
X145161666Y-91035238D01*
X145114047Y-91130476D01*
X145114047Y-91511429D01*
X145161666Y-91606667D01*
X145256904Y-91654286D01*
X145447381Y-91654286D01*
X145542619Y-91606667D01*
X145590238Y-91511429D01*
X145590238Y-91416190D01*
X145114047Y-91320952D01*
X146447381Y-90987619D02*
X146447381Y-91987619D01*
X146447381Y-91035238D02*
X146352143Y-90987619D01*
X146161666Y-90987619D01*
X146066428Y-91035238D01*
X146018809Y-91082857D01*
X145971190Y-91178095D01*
X145971190Y-91463810D01*
X146018809Y-91559048D01*
X146066428Y-91606667D01*
X146161666Y-91654286D01*
X146352143Y-91654286D01*
X146447381Y-91606667D01*
X147685476Y-90987619D02*
X147685476Y-91987619D01*
X147685476Y-91606667D02*
X147780714Y-91654286D01*
X147971191Y-91654286D01*
X148066429Y-91606667D01*
X148114048Y-91559048D01*
X148161667Y-91463810D01*
X148161667Y-91178095D01*
X148114048Y-91082857D01*
X148066429Y-91035238D01*
X147971191Y-90987619D01*
X147780714Y-90987619D01*
X147685476Y-91035238D01*
X148495000Y-91654286D02*
X148733095Y-90987619D01*
X148971191Y-91654286D02*
X148733095Y-90987619D01*
X148637857Y-90749524D01*
X148590238Y-90701905D01*
X148495000Y-90654286D01*
X150114048Y-90987619D02*
X150114048Y-91987619D01*
X150447382Y-91273333D01*
X150780715Y-91987619D01*
X150780715Y-90987619D01*
X151685477Y-90987619D02*
X151685477Y-91511429D01*
X151637858Y-91606667D01*
X151542620Y-91654286D01*
X151352143Y-91654286D01*
X151256905Y-91606667D01*
X151685477Y-91035238D02*
X151590239Y-90987619D01*
X151352143Y-90987619D01*
X151256905Y-91035238D01*
X151209286Y-91130476D01*
X151209286Y-91225714D01*
X151256905Y-91320952D01*
X151352143Y-91368571D01*
X151590239Y-91368571D01*
X151685477Y-91416190D01*
X152161667Y-90987619D02*
X152161667Y-91654286D01*
X152161667Y-91463810D02*
X152209286Y-91559048D01*
X152256905Y-91606667D01*
X152352143Y-91654286D01*
X152447382Y-91654286D01*
X152637858Y-91654286D02*
X153018810Y-91654286D01*
X152780715Y-91987619D02*
X152780715Y-91130476D01*
X152828334Y-91035238D01*
X152923572Y-90987619D01*
X153018810Y-90987619D01*
X153352144Y-90987619D02*
X153352144Y-91654286D01*
X153352144Y-91987619D02*
X153304525Y-91940000D01*
X153352144Y-91892381D01*
X153399763Y-91940000D01*
X153352144Y-91987619D01*
X153352144Y-91892381D01*
X153828334Y-91654286D02*
X153828334Y-90987619D01*
X153828334Y-91559048D02*
X153875953Y-91606667D01*
X153971191Y-91654286D01*
X154114049Y-91654286D01*
X154209287Y-91606667D01*
X154256906Y-91511429D01*
X154256906Y-90987619D01*
X155399763Y-91987619D02*
X156066430Y-91987619D01*
X155399763Y-90987619D01*
X156066430Y-90987619D01*
X156875954Y-90987619D02*
X156875954Y-91511429D01*
X156828335Y-91606667D01*
X156733097Y-91654286D01*
X156542620Y-91654286D01*
X156447382Y-91606667D01*
X156875954Y-91035238D02*
X156780716Y-90987619D01*
X156542620Y-90987619D01*
X156447382Y-91035238D01*
X156399763Y-91130476D01*
X156399763Y-91225714D01*
X156447382Y-91320952D01*
X156542620Y-91368571D01*
X156780716Y-91368571D01*
X156875954Y-91416190D01*
X157352144Y-90987619D02*
X157352144Y-91987619D01*
X157780716Y-90987619D02*
X157780716Y-91511429D01*
X157733097Y-91606667D01*
X157637859Y-91654286D01*
X157495001Y-91654286D01*
X157399763Y-91606667D01*
X157352144Y-91559048D01*
X158637859Y-91035238D02*
X158542621Y-90987619D01*
X158352144Y-90987619D01*
X158256906Y-91035238D01*
X158209287Y-91130476D01*
X158209287Y-91511429D01*
X158256906Y-91606667D01*
X158352144Y-91654286D01*
X158542621Y-91654286D01*
X158637859Y-91606667D01*
X158685478Y-91511429D01*
X158685478Y-91416190D01*
X158209287Y-91320952D01*
X159542621Y-90987619D02*
X159542621Y-91987619D01*
X159542621Y-91035238D02*
X159447383Y-90987619D01*
X159256906Y-90987619D01*
X159161668Y-91035238D01*
X159114049Y-91082857D01*
X159066430Y-91178095D01*
X159066430Y-91463810D01*
X159114049Y-91559048D01*
X159161668Y-91606667D01*
X159256906Y-91654286D01*
X159447383Y-91654286D01*
X159542621Y-91606667D01*
X160018811Y-90987619D02*
X160018811Y-91654286D01*
X160018811Y-91987619D02*
X159971192Y-91940000D01*
X160018811Y-91892381D01*
X160066430Y-91940000D01*
X160018811Y-91987619D01*
X160018811Y-91892381D01*
X131852141Y-90337619D02*
X131852141Y-89528095D01*
X131899760Y-89432857D01*
X131947379Y-89385238D01*
X132042617Y-89337619D01*
X132233094Y-89337619D01*
X132328332Y-89385238D01*
X132375951Y-89432857D01*
X132423570Y-89528095D01*
X132423570Y-90337619D01*
X132899760Y-90004286D02*
X132899760Y-89337619D01*
X132899760Y-89909048D02*
X132947379Y-89956667D01*
X133042617Y-90004286D01*
X133185475Y-90004286D01*
X133280713Y-89956667D01*
X133328332Y-89861429D01*
X133328332Y-89337619D01*
X133804522Y-89337619D02*
X133804522Y-90004286D01*
X133804522Y-90337619D02*
X133756903Y-90290000D01*
X133804522Y-90242381D01*
X133852141Y-90290000D01*
X133804522Y-90337619D01*
X133804522Y-90242381D01*
X134185474Y-90004286D02*
X134423569Y-89337619D01*
X134661665Y-90004286D01*
X135423570Y-89385238D02*
X135328332Y-89337619D01*
X135137855Y-89337619D01*
X135042617Y-89385238D01*
X134994998Y-89480476D01*
X134994998Y-89861429D01*
X135042617Y-89956667D01*
X135137855Y-90004286D01*
X135328332Y-90004286D01*
X135423570Y-89956667D01*
X135471189Y-89861429D01*
X135471189Y-89766190D01*
X134994998Y-89670952D01*
X135899760Y-89337619D02*
X135899760Y-90004286D01*
X135899760Y-89813810D02*
X135947379Y-89909048D01*
X135994998Y-89956667D01*
X136090236Y-90004286D01*
X136185475Y-90004286D01*
X136471189Y-89385238D02*
X136566427Y-89337619D01*
X136756903Y-89337619D01*
X136852142Y-89385238D01*
X136899761Y-89480476D01*
X136899761Y-89528095D01*
X136852142Y-89623333D01*
X136756903Y-89670952D01*
X136614046Y-89670952D01*
X136518808Y-89718571D01*
X136471189Y-89813810D01*
X136471189Y-89861429D01*
X136518808Y-89956667D01*
X136614046Y-90004286D01*
X136756903Y-90004286D01*
X136852142Y-89956667D01*
X137328332Y-89337619D02*
X137328332Y-90004286D01*
X137328332Y-90337619D02*
X137280713Y-90290000D01*
X137328332Y-90242381D01*
X137375951Y-90290000D01*
X137328332Y-90337619D01*
X137328332Y-90242381D01*
X137661665Y-90004286D02*
X138042617Y-90004286D01*
X137804522Y-90337619D02*
X137804522Y-89480476D01*
X137852141Y-89385238D01*
X137947379Y-89337619D01*
X138042617Y-89337619D01*
X138280713Y-90004286D02*
X138518808Y-89337619D01*
X138756904Y-90004286D02*
X138518808Y-89337619D01*
X138423570Y-89099524D01*
X138375951Y-89051905D01*
X138280713Y-89004286D01*
X140042618Y-89337619D02*
X139947380Y-89385238D01*
X139899761Y-89432857D01*
X139852142Y-89528095D01*
X139852142Y-89813810D01*
X139899761Y-89909048D01*
X139947380Y-89956667D01*
X140042618Y-90004286D01*
X140185476Y-90004286D01*
X140280714Y-89956667D01*
X140328333Y-89909048D01*
X140375952Y-89813810D01*
X140375952Y-89528095D01*
X140328333Y-89432857D01*
X140280714Y-89385238D01*
X140185476Y-89337619D01*
X140042618Y-89337619D01*
X140661666Y-90004286D02*
X141042618Y-90004286D01*
X140804523Y-89337619D02*
X140804523Y-90194762D01*
X140852142Y-90290000D01*
X140947380Y-90337619D01*
X141042618Y-90337619D01*
X142090238Y-89623333D02*
X142566429Y-89623333D01*
X141995000Y-89337619D02*
X142328333Y-90337619D01*
X142661667Y-89337619D01*
X142995000Y-90004286D02*
X142995000Y-89004286D01*
X142995000Y-89956667D02*
X143090238Y-90004286D01*
X143280715Y-90004286D01*
X143375953Y-89956667D01*
X143423572Y-89909048D01*
X143471191Y-89813810D01*
X143471191Y-89528095D01*
X143423572Y-89432857D01*
X143375953Y-89385238D01*
X143280715Y-89337619D01*
X143090238Y-89337619D01*
X142995000Y-89385238D01*
X143899762Y-90004286D02*
X143899762Y-89004286D01*
X143899762Y-89956667D02*
X143995000Y-90004286D01*
X144185477Y-90004286D01*
X144280715Y-89956667D01*
X144328334Y-89909048D01*
X144375953Y-89813810D01*
X144375953Y-89528095D01*
X144328334Y-89432857D01*
X144280715Y-89385238D01*
X144185477Y-89337619D01*
X143995000Y-89337619D01*
X143899762Y-89385238D01*
X144947381Y-89337619D02*
X144852143Y-89385238D01*
X144804524Y-89480476D01*
X144804524Y-90337619D01*
X145328334Y-89337619D02*
X145328334Y-90004286D01*
X145328334Y-90337619D02*
X145280715Y-90290000D01*
X145328334Y-90242381D01*
X145375953Y-90290000D01*
X145328334Y-90337619D01*
X145328334Y-90242381D01*
X146185477Y-89385238D02*
X146090239Y-89337619D01*
X145899762Y-89337619D01*
X145804524Y-89385238D01*
X145756905Y-89480476D01*
X145756905Y-89861429D01*
X145804524Y-89956667D01*
X145899762Y-90004286D01*
X146090239Y-90004286D01*
X146185477Y-89956667D01*
X146233096Y-89861429D01*
X146233096Y-89766190D01*
X145756905Y-89670952D01*
X147090239Y-89337619D02*
X147090239Y-90337619D01*
X147090239Y-89385238D02*
X146995001Y-89337619D01*
X146804524Y-89337619D01*
X146709286Y-89385238D01*
X146661667Y-89432857D01*
X146614048Y-89528095D01*
X146614048Y-89813810D01*
X146661667Y-89909048D01*
X146709286Y-89956667D01*
X146804524Y-90004286D01*
X146995001Y-90004286D01*
X147090239Y-89956667D01*
X148280715Y-89385238D02*
X148423572Y-89337619D01*
X148661668Y-89337619D01*
X148756906Y-89385238D01*
X148804525Y-89432857D01*
X148852144Y-89528095D01*
X148852144Y-89623333D01*
X148804525Y-89718571D01*
X148756906Y-89766190D01*
X148661668Y-89813810D01*
X148471191Y-89861429D01*
X148375953Y-89909048D01*
X148328334Y-89956667D01*
X148280715Y-90051905D01*
X148280715Y-90147143D01*
X148328334Y-90242381D01*
X148375953Y-90290000D01*
X148471191Y-90337619D01*
X148709287Y-90337619D01*
X148852144Y-90290000D01*
X149709287Y-89385238D02*
X149614049Y-89337619D01*
X149423572Y-89337619D01*
X149328334Y-89385238D01*
X149280715Y-89432857D01*
X149233096Y-89528095D01*
X149233096Y-89813810D01*
X149280715Y-89909048D01*
X149328334Y-89956667D01*
X149423572Y-90004286D01*
X149614049Y-90004286D01*
X149709287Y-89956667D01*
X150137858Y-89337619D02*
X150137858Y-90004286D01*
X150137858Y-90337619D02*
X150090239Y-90290000D01*
X150137858Y-90242381D01*
X150185477Y-90290000D01*
X150137858Y-90337619D01*
X150137858Y-90242381D01*
X150995001Y-89385238D02*
X150899763Y-89337619D01*
X150709286Y-89337619D01*
X150614048Y-89385238D01*
X150566429Y-89480476D01*
X150566429Y-89861429D01*
X150614048Y-89956667D01*
X150709286Y-90004286D01*
X150899763Y-90004286D01*
X150995001Y-89956667D01*
X151042620Y-89861429D01*
X151042620Y-89766190D01*
X150566429Y-89670952D01*
X151471191Y-90004286D02*
X151471191Y-89337619D01*
X151471191Y-89909048D02*
X151518810Y-89956667D01*
X151614048Y-90004286D01*
X151756906Y-90004286D01*
X151852144Y-89956667D01*
X151899763Y-89861429D01*
X151899763Y-89337619D01*
X152804525Y-89385238D02*
X152709287Y-89337619D01*
X152518810Y-89337619D01*
X152423572Y-89385238D01*
X152375953Y-89432857D01*
X152328334Y-89528095D01*
X152328334Y-89813810D01*
X152375953Y-89909048D01*
X152423572Y-89956667D01*
X152518810Y-90004286D01*
X152709287Y-90004286D01*
X152804525Y-89956667D01*
X153614049Y-89385238D02*
X153518811Y-89337619D01*
X153328334Y-89337619D01*
X153233096Y-89385238D01*
X153185477Y-89480476D01*
X153185477Y-89861429D01*
X153233096Y-89956667D01*
X153328334Y-90004286D01*
X153518811Y-90004286D01*
X153614049Y-89956667D01*
X153661668Y-89861429D01*
X153661668Y-89766190D01*
X153185477Y-89670952D01*
X154042620Y-89385238D02*
X154137858Y-89337619D01*
X154328334Y-89337619D01*
X154423573Y-89385238D01*
X154471192Y-89480476D01*
X154471192Y-89528095D01*
X154423573Y-89623333D01*
X154328334Y-89670952D01*
X154185477Y-89670952D01*
X154090239Y-89718571D01*
X154042620Y-89813810D01*
X154042620Y-89861429D01*
X154090239Y-89956667D01*
X154185477Y-90004286D01*
X154328334Y-90004286D01*
X154423573Y-89956667D01*
X155661668Y-89718571D02*
X156423573Y-89718571D01*
X157518811Y-90337619D02*
X158090240Y-90337619D01*
X157804525Y-89337619D02*
X157804525Y-90337619D01*
X158804526Y-89385238D02*
X158709288Y-89337619D01*
X158518811Y-89337619D01*
X158423573Y-89385238D01*
X158375954Y-89480476D01*
X158375954Y-89861429D01*
X158423573Y-89956667D01*
X158518811Y-90004286D01*
X158709288Y-90004286D01*
X158804526Y-89956667D01*
X158852145Y-89861429D01*
X158852145Y-89766190D01*
X158375954Y-89670952D01*
X159709288Y-89385238D02*
X159614050Y-89337619D01*
X159423573Y-89337619D01*
X159328335Y-89385238D01*
X159280716Y-89432857D01*
X159233097Y-89528095D01*
X159233097Y-89813810D01*
X159280716Y-89909048D01*
X159328335Y-89956667D01*
X159423573Y-90004286D01*
X159614050Y-90004286D01*
X159709288Y-89956667D01*
X160137859Y-89337619D02*
X160137859Y-90337619D01*
X160566431Y-89337619D02*
X160566431Y-89861429D01*
X160518812Y-89956667D01*
X160423574Y-90004286D01*
X160280716Y-90004286D01*
X160185478Y-89956667D01*
X160137859Y-89909048D01*
X161042621Y-90004286D02*
X161042621Y-89337619D01*
X161042621Y-89909048D02*
X161090240Y-89956667D01*
X161185478Y-90004286D01*
X161328336Y-90004286D01*
X161423574Y-89956667D01*
X161471193Y-89861429D01*
X161471193Y-89337619D01*
X161947383Y-89337619D02*
X161947383Y-90004286D01*
X161947383Y-90337619D02*
X161899764Y-90290000D01*
X161947383Y-90242381D01*
X161995002Y-90290000D01*
X161947383Y-90337619D01*
X161947383Y-90242381D01*
X162423573Y-89337619D02*
X162423573Y-90337619D01*
X162518811Y-89718571D02*
X162804526Y-89337619D01*
X162804526Y-90004286D02*
X162423573Y-89623333D01*
X163661669Y-90004286D02*
X163661669Y-89337619D01*
X163233097Y-90004286D02*
X163233097Y-89480476D01*
X163280716Y-89385238D01*
X163375954Y-89337619D01*
X163518812Y-89337619D01*
X163614050Y-89385238D01*
X163661669Y-89432857D01*
X164137859Y-89337619D02*
X164137859Y-90004286D01*
X164137859Y-89909048D02*
X164185478Y-89956667D01*
X164280716Y-90004286D01*
X164423574Y-90004286D01*
X164518812Y-89956667D01*
X164566431Y-89861429D01*
X164566431Y-89337619D01*
X164566431Y-89861429D02*
X164614050Y-89956667D01*
X164709288Y-90004286D01*
X164852145Y-90004286D01*
X164947383Y-89956667D01*
X164995002Y-89861429D01*
X164995002Y-89337619D01*
X166137859Y-90337619D02*
X166375954Y-89337619D01*
X166566431Y-90051905D01*
X166756907Y-89337619D01*
X166995002Y-90337619D01*
X167375954Y-89337619D02*
X167375954Y-90004286D01*
X167375954Y-90337619D02*
X167328335Y-90290000D01*
X167375954Y-90242381D01*
X167423573Y-90290000D01*
X167375954Y-90337619D01*
X167375954Y-90242381D01*
X168233097Y-89385238D02*
X168137859Y-89337619D01*
X167947382Y-89337619D01*
X167852144Y-89385238D01*
X167804525Y-89480476D01*
X167804525Y-89861429D01*
X167852144Y-89956667D01*
X167947382Y-90004286D01*
X168137859Y-90004286D01*
X168233097Y-89956667D01*
X168280716Y-89861429D01*
X168280716Y-89766190D01*
X167804525Y-89670952D01*
X168709287Y-90004286D02*
X168709287Y-89337619D01*
X168709287Y-89909048D02*
X168756906Y-89956667D01*
X168852144Y-90004286D01*
X168995002Y-90004286D01*
X169090240Y-89956667D01*
X169137859Y-89861429D01*
X169137859Y-89337619D01*
X153635000Y-74125000D02*
X153685000Y-74125000D01*
X153635000Y-78275000D02*
X153780000Y-78275000D01*
X158785000Y-78275000D02*
X158640000Y-78275000D01*
X158785000Y-74125000D02*
X158640000Y-74125000D01*
X153635000Y-74125000D02*
X153635000Y-78275000D01*
X158785000Y-74125000D02*
X158785000Y-78275000D01*
X153685000Y-74125000D02*
X153685000Y-72725000D01*
D12*
X114716000Y-91217000D02*
X114716000Y-91917000D01*
X115916000Y-91917000D02*
X115916000Y-91217000D01*
X114716000Y-94392000D02*
X114716000Y-95092000D01*
X115916000Y-95092000D02*
X115916000Y-94392000D01*
X145460000Y-112260000D02*
X145460000Y-111260000D01*
X144100000Y-111260000D02*
X144100000Y-112260000D01*
X132760000Y-112260000D02*
X132760000Y-111260000D01*
X131400000Y-111260000D02*
X131400000Y-112260000D01*
X139110000Y-112260000D02*
X139110000Y-111260000D01*
X137750000Y-111260000D02*
X137750000Y-112260000D01*
X126410000Y-112260000D02*
X126410000Y-111260000D01*
X125050000Y-111260000D02*
X125050000Y-112260000D01*
X144180000Y-108070000D02*
X145380000Y-108070000D01*
X144180000Y-109920000D02*
X144180000Y-108070000D01*
X145380000Y-109920000D02*
X145380000Y-108070000D01*
X144180000Y-113150000D02*
X145380000Y-113150000D01*
X144180000Y-115000000D02*
X144180000Y-113150000D01*
X145380000Y-115000000D02*
X145380000Y-113150000D01*
X131480000Y-108070000D02*
X132680000Y-108070000D01*
X131480000Y-109920000D02*
X131480000Y-108070000D01*
X132680000Y-109920000D02*
X132680000Y-108070000D01*
X137830000Y-108070000D02*
X139030000Y-108070000D01*
X137830000Y-109920000D02*
X137830000Y-108070000D01*
X139030000Y-109920000D02*
X139030000Y-108070000D01*
X137830000Y-113150000D02*
X139030000Y-113150000D01*
X137830000Y-115000000D02*
X137830000Y-113150000D01*
X139030000Y-115000000D02*
X139030000Y-113150000D01*
X125130000Y-108070000D02*
X126330000Y-108070000D01*
X125130000Y-109920000D02*
X125130000Y-108070000D01*
X126330000Y-109920000D02*
X126330000Y-108070000D01*
X125130000Y-113150000D02*
X126330000Y-113150000D01*
X125130000Y-115000000D02*
X125130000Y-113150000D01*
X126330000Y-115000000D02*
X126330000Y-113150000D01*
X131480000Y-113150000D02*
X132680000Y-113150000D01*
X131480000Y-115000000D02*
X131480000Y-113150000D01*
X132680000Y-115000000D02*
X132680000Y-113150000D01*
X155440000Y-70440000D02*
X154440000Y-70440000D01*
X154440000Y-71800000D02*
X155440000Y-71800000D01*
X156980000Y-71800000D02*
X157980000Y-71800000D01*
X157980000Y-70440000D02*
X156980000Y-70440000D01*
X146730000Y-104005000D02*
X146730000Y-103005000D01*
X145370000Y-103005000D02*
X145370000Y-104005000D01*
X150620000Y-101925000D02*
X150620000Y-102855000D01*
X150620000Y-105085000D02*
X150620000Y-104155000D01*
X150620000Y-105085000D02*
X148460000Y-105085000D01*
X150620000Y-101925000D02*
X149160000Y-101925000D01*
X110780000Y-132445000D02*
X110780000Y-130445000D01*
X110780000Y-130445000D02*
X114680000Y-130445000D01*
X110780000Y-132445000D02*
X114680000Y-132445000D01*
X104410000Y-134910000D02*
X106410000Y-134910000D01*
X106410000Y-134910000D02*
X106410000Y-138810000D01*
X104410000Y-134910000D02*
X104410000Y-138810000D01*
X144020000Y-133025000D02*
X144020000Y-132095000D01*
X144020000Y-129865000D02*
X144020000Y-130795000D01*
X144020000Y-129865000D02*
X146180000Y-129865000D01*
X144020000Y-133025000D02*
X145480000Y-133025000D01*
X158531000Y-115815000D02*
X159731000Y-115815000D01*
X159731000Y-114055000D02*
X158531000Y-114055000D01*
X163541000Y-115960000D02*
X162341000Y-115960000D01*
X162341000Y-117720000D02*
X163541000Y-117720000D01*
X158175000Y-135340000D02*
X152975000Y-135340000D01*
X152975000Y-138980000D02*
X158175000Y-138980000D01*
X103370000Y-112991000D02*
X102370000Y-112991000D01*
X102370000Y-111291000D02*
X103370000Y-111291000D01*
X141072500Y-124007500D02*
X141072500Y-123007500D01*
X142772500Y-123007500D02*
X142772500Y-124007500D01*
X142977500Y-124007500D02*
X142977500Y-123007500D01*
X144677500Y-123007500D02*
X144677500Y-124007500D01*
X139167500Y-124007500D02*
X139167500Y-123007500D01*
X140867500Y-123007500D02*
X140867500Y-124007500D01*
X137262500Y-124007500D02*
X137262500Y-123007500D01*
X138962500Y-123007500D02*
X138962500Y-124007500D01*
X147990000Y-132960000D02*
X149190000Y-132960000D01*
X149190000Y-131200000D02*
X147990000Y-131200000D01*
X148555000Y-135010000D02*
X147355000Y-135010000D01*
X147355000Y-136770000D02*
X148555000Y-136770000D01*
X148555000Y-137550000D02*
X147355000Y-137550000D01*
X147355000Y-139310000D02*
X148555000Y-139310000D01*
X117510000Y-108070000D02*
X118710000Y-108070000D01*
X117510000Y-109920000D02*
X117510000Y-108070000D01*
X118710000Y-109920000D02*
X118710000Y-108070000D01*
X117510000Y-113150000D02*
X118710000Y-113150000D01*
X117510000Y-115000000D02*
X117510000Y-113150000D01*
X118710000Y-115000000D02*
X118710000Y-113150000D01*
X118790000Y-112260000D02*
X118790000Y-111260000D01*
X117430000Y-111260000D02*
X117430000Y-112260000D01*
X147075000Y-128940000D02*
X147075000Y-130140000D01*
X148835000Y-130140000D02*
X148835000Y-128940000D01*
X144180000Y-129785000D02*
X145380000Y-129785000D01*
X145380000Y-128025000D02*
X144180000Y-128025000D01*
X155440000Y-80600000D02*
X154440000Y-80600000D01*
X154440000Y-81960000D02*
X155440000Y-81960000D01*
X156980000Y-81960000D02*
X157980000Y-81960000D01*
X157980000Y-80600000D02*
X156980000Y-80600000D01*
X143375000Y-134835000D02*
X142375000Y-134835000D01*
X142375000Y-133135000D02*
X143375000Y-133135000D01*
X144565000Y-137660000D02*
X144565000Y-136660000D01*
X146265000Y-136660000D02*
X146265000Y-137660000D01*
X142375000Y-139485000D02*
X143375000Y-139485000D01*
X143375000Y-141185000D02*
X142375000Y-141185000D01*
X138850000Y-137660000D02*
X138850000Y-136660000D01*
X140550000Y-136660000D02*
X140550000Y-137660000D01*
X138565000Y-128055000D02*
X139565000Y-128055000D01*
X139565000Y-129755000D02*
X138565000Y-129755000D01*
X160310000Y-138160000D02*
X160310000Y-136160000D01*
X160310000Y-136160000D02*
X164210000Y-136160000D01*
X160310000Y-138160000D02*
X164210000Y-138160000D01*
X107315000Y-130555000D02*
X109855000Y-130555000D01*
X109855000Y-132335000D02*
X107315000Y-132335000D01*
X109855000Y-132335000D02*
X109855000Y-130555000D01*
X107315000Y-130555000D02*
X107315000Y-132335000D01*
X137795000Y-133095000D02*
X140335000Y-133095000D01*
X140335000Y-134875000D02*
X137795000Y-134875000D01*
X140335000Y-134875000D02*
X140335000Y-133095000D01*
X137795000Y-133095000D02*
X137795000Y-134875000D01*
X106355000Y-142365000D02*
X105425000Y-142365000D01*
X103195000Y-142365000D02*
X104125000Y-142365000D01*
X103195000Y-142365000D02*
X103195000Y-140205000D01*
X106355000Y-142365000D02*
X106355000Y-140905000D01*
X109185000Y-133105000D02*
X107985000Y-133105000D01*
X107985000Y-134865000D02*
X109185000Y-134865000D01*
X111795000Y-134865000D02*
X112995000Y-134865000D01*
X112995000Y-133105000D02*
X111795000Y-133105000D01*
X109185000Y-135010000D02*
X107985000Y-135010000D01*
X107985000Y-136770000D02*
X109185000Y-136770000D01*
X107985000Y-140580000D02*
X109185000Y-140580000D01*
X109185000Y-138820000D02*
X107985000Y-138820000D01*
X109185000Y-136915000D02*
X107985000Y-136915000D01*
X107985000Y-138675000D02*
X109185000Y-138675000D01*
X158531000Y-117720000D02*
X159731000Y-117720000D01*
X159731000Y-115960000D02*
X158531000Y-115960000D01*
X163541000Y-114055000D02*
X162341000Y-114055000D01*
X162341000Y-115815000D02*
X163541000Y-115815000D01*
X110785000Y-140600000D02*
X110785000Y-138800000D01*
X114005000Y-138800000D02*
X114005000Y-141250000D01*
X162646000Y-121020000D02*
X162646000Y-122820000D01*
X159426000Y-122820000D02*
X159426000Y-120370000D01*
X144485000Y-136260000D02*
X144485000Y-138060000D01*
X141265000Y-138060000D02*
X141265000Y-135610000D01*
X139965000Y-133055000D02*
X138165000Y-133055000D01*
X138165000Y-129835000D02*
X140615000Y-129835000D01*
X157631000Y-119595000D02*
X157631000Y-117895000D01*
X157631000Y-117895000D02*
X160181000Y-117895000D01*
X157631000Y-119595000D02*
X160181000Y-119595000D01*
X161441000Y-119595000D02*
X161441000Y-117895000D01*
X161441000Y-117895000D02*
X163991000Y-117895000D01*
X161441000Y-119595000D02*
X163991000Y-119595000D01*
X113895000Y-135675000D02*
X113895000Y-137375000D01*
X113895000Y-137375000D02*
X111345000Y-137375000D01*
X113895000Y-135675000D02*
X111345000Y-135675000D01*
X151800000Y-74580000D02*
X151800000Y-75280000D01*
X153000000Y-75280000D02*
X153000000Y-74580000D01*
X151800000Y-77755000D02*
X151800000Y-78455000D01*
X153000000Y-78455000D02*
X153000000Y-77755000D01*
X142590000Y-70520000D02*
X141890000Y-70520000D01*
X141890000Y-71720000D02*
X142590000Y-71720000D01*
X145380000Y-74010000D02*
X145380000Y-73310000D01*
X144180000Y-73310000D02*
X144180000Y-74010000D01*
X142590000Y-75600000D02*
X141890000Y-75600000D01*
X141890000Y-76800000D02*
X142590000Y-76800000D01*
X145380000Y-79090000D02*
X145380000Y-78390000D01*
X144180000Y-78390000D02*
X144180000Y-79090000D01*
X141540000Y-72500000D02*
X143440000Y-72500000D01*
X142940000Y-74820000D02*
X141540000Y-74820000D01*
X141540000Y-77580000D02*
X143440000Y-77580000D01*
X142940000Y-79900000D02*
X141540000Y-79900000D01*
X146640000Y-103005000D02*
X146640000Y-104005000D01*
X148000000Y-104005000D02*
X148000000Y-103005000D01*
X110085000Y-140755000D02*
X110085000Y-142455000D01*
X110085000Y-142455000D02*
X107535000Y-142455000D01*
X110085000Y-140755000D02*
X107535000Y-140755000D01*
D11*
X114403143Y-91400334D02*
X114450762Y-91352715D01*
X114498381Y-91209858D01*
X114498381Y-91114620D01*
X114450762Y-90971762D01*
X114355524Y-90876524D01*
X114260286Y-90828905D01*
X114069810Y-90781286D01*
X113926952Y-90781286D01*
X113736476Y-90828905D01*
X113641238Y-90876524D01*
X113546000Y-90971762D01*
X113498381Y-91114620D01*
X113498381Y-91209858D01*
X113546000Y-91352715D01*
X113593619Y-91400334D01*
X114498381Y-92352715D02*
X114498381Y-91781286D01*
X114498381Y-92067000D02*
X113498381Y-92067000D01*
X113641238Y-91971762D01*
X113736476Y-91876524D01*
X113784095Y-91781286D01*
X114403143Y-94575334D02*
X114450762Y-94527715D01*
X114498381Y-94384858D01*
X114498381Y-94289620D01*
X114450762Y-94146762D01*
X114355524Y-94051524D01*
X114260286Y-94003905D01*
X114069810Y-93956286D01*
X113926952Y-93956286D01*
X113736476Y-94003905D01*
X113641238Y-94051524D01*
X113546000Y-94146762D01*
X113498381Y-94289620D01*
X113498381Y-94384858D01*
X113546000Y-94527715D01*
X113593619Y-94575334D01*
X113593619Y-94956286D02*
X113546000Y-95003905D01*
X113498381Y-95099143D01*
X113498381Y-95337239D01*
X113546000Y-95432477D01*
X113593619Y-95480096D01*
X113688857Y-95527715D01*
X113784095Y-95527715D01*
X113926952Y-95480096D01*
X114498381Y-94908667D01*
X114498381Y-95527715D01*
X146502381Y-111117143D02*
X146026190Y-110783809D01*
X146502381Y-110545714D02*
X145502381Y-110545714D01*
X145502381Y-110926667D01*
X145550000Y-111021905D01*
X145597619Y-111069524D01*
X145692857Y-111117143D01*
X145835714Y-111117143D01*
X145930952Y-111069524D01*
X145978571Y-111021905D01*
X146026190Y-110926667D01*
X146026190Y-110545714D01*
X145597619Y-111498095D02*
X145550000Y-111545714D01*
X145502381Y-111640952D01*
X145502381Y-111879048D01*
X145550000Y-111974286D01*
X145597619Y-112021905D01*
X145692857Y-112069524D01*
X145788095Y-112069524D01*
X145930952Y-112021905D01*
X146502381Y-111450476D01*
X146502381Y-112069524D01*
X145597619Y-112450476D02*
X145550000Y-112498095D01*
X145502381Y-112593333D01*
X145502381Y-112831429D01*
X145550000Y-112926667D01*
X145597619Y-112974286D01*
X145692857Y-113021905D01*
X145788095Y-113021905D01*
X145930952Y-112974286D01*
X146502381Y-112402857D01*
X146502381Y-113021905D01*
X133802381Y-111117143D02*
X133326190Y-110783809D01*
X133802381Y-110545714D02*
X132802381Y-110545714D01*
X132802381Y-110926667D01*
X132850000Y-111021905D01*
X132897619Y-111069524D01*
X132992857Y-111117143D01*
X133135714Y-111117143D01*
X133230952Y-111069524D01*
X133278571Y-111021905D01*
X133326190Y-110926667D01*
X133326190Y-110545714D01*
X132897619Y-111498095D02*
X132850000Y-111545714D01*
X132802381Y-111640952D01*
X132802381Y-111879048D01*
X132850000Y-111974286D01*
X132897619Y-112021905D01*
X132992857Y-112069524D01*
X133088095Y-112069524D01*
X133230952Y-112021905D01*
X133802381Y-111450476D01*
X133802381Y-112069524D01*
X132802381Y-112402857D02*
X132802381Y-113069524D01*
X133802381Y-112640952D01*
X140152381Y-111117143D02*
X139676190Y-110783809D01*
X140152381Y-110545714D02*
X139152381Y-110545714D01*
X139152381Y-110926667D01*
X139200000Y-111021905D01*
X139247619Y-111069524D01*
X139342857Y-111117143D01*
X139485714Y-111117143D01*
X139580952Y-111069524D01*
X139628571Y-111021905D01*
X139676190Y-110926667D01*
X139676190Y-110545714D01*
X139247619Y-111498095D02*
X139200000Y-111545714D01*
X139152381Y-111640952D01*
X139152381Y-111879048D01*
X139200000Y-111974286D01*
X139247619Y-112021905D01*
X139342857Y-112069524D01*
X139438095Y-112069524D01*
X139580952Y-112021905D01*
X140152381Y-111450476D01*
X140152381Y-112069524D01*
X139152381Y-112974286D02*
X139152381Y-112498095D01*
X139628571Y-112450476D01*
X139580952Y-112498095D01*
X139533333Y-112593333D01*
X139533333Y-112831429D01*
X139580952Y-112926667D01*
X139628571Y-112974286D01*
X139723810Y-113021905D01*
X139961905Y-113021905D01*
X140057143Y-112974286D01*
X140104762Y-112926667D01*
X140152381Y-112831429D01*
X140152381Y-112593333D01*
X140104762Y-112498095D01*
X140057143Y-112450476D01*
X127452381Y-111117143D02*
X126976190Y-110783809D01*
X127452381Y-110545714D02*
X126452381Y-110545714D01*
X126452381Y-110926667D01*
X126500000Y-111021905D01*
X126547619Y-111069524D01*
X126642857Y-111117143D01*
X126785714Y-111117143D01*
X126880952Y-111069524D01*
X126928571Y-111021905D01*
X126976190Y-110926667D01*
X126976190Y-110545714D01*
X126547619Y-111498095D02*
X126500000Y-111545714D01*
X126452381Y-111640952D01*
X126452381Y-111879048D01*
X126500000Y-111974286D01*
X126547619Y-112021905D01*
X126642857Y-112069524D01*
X126738095Y-112069524D01*
X126880952Y-112021905D01*
X127452381Y-111450476D01*
X127452381Y-112069524D01*
X126785714Y-112926667D02*
X127452381Y-112926667D01*
X126404762Y-112688571D02*
X127119048Y-112450476D01*
X127119048Y-113069524D01*
X146502381Y-108481905D02*
X145502381Y-108481905D01*
X145502381Y-108720000D01*
X145550000Y-108862858D01*
X145645238Y-108958096D01*
X145740476Y-109005715D01*
X145930952Y-109053334D01*
X146073810Y-109053334D01*
X146264286Y-109005715D01*
X146359524Y-108958096D01*
X146454762Y-108862858D01*
X146502381Y-108720000D01*
X146502381Y-108481905D01*
X146502381Y-109529524D02*
X146502381Y-109720000D01*
X146454762Y-109815239D01*
X146407143Y-109862858D01*
X146264286Y-109958096D01*
X146073810Y-110005715D01*
X145692857Y-110005715D01*
X145597619Y-109958096D01*
X145550000Y-109910477D01*
X145502381Y-109815239D01*
X145502381Y-109624762D01*
X145550000Y-109529524D01*
X145597619Y-109481905D01*
X145692857Y-109434286D01*
X145930952Y-109434286D01*
X146026190Y-109481905D01*
X146073810Y-109529524D01*
X146121429Y-109624762D01*
X146121429Y-109815239D01*
X146073810Y-109910477D01*
X146026190Y-109958096D01*
X145930952Y-110005715D01*
X146502381Y-113720714D02*
X145502381Y-113720714D01*
X145502381Y-113958809D01*
X145550000Y-114101667D01*
X145645238Y-114196905D01*
X145740476Y-114244524D01*
X145930952Y-114292143D01*
X146073810Y-114292143D01*
X146264286Y-114244524D01*
X146359524Y-114196905D01*
X146454762Y-114101667D01*
X146502381Y-113958809D01*
X146502381Y-113720714D01*
X146502381Y-115244524D02*
X146502381Y-114673095D01*
X146502381Y-114958809D02*
X145502381Y-114958809D01*
X145645238Y-114863571D01*
X145740476Y-114768333D01*
X145788095Y-114673095D01*
X145502381Y-115863571D02*
X145502381Y-115958810D01*
X145550000Y-116054048D01*
X145597619Y-116101667D01*
X145692857Y-116149286D01*
X145883333Y-116196905D01*
X146121429Y-116196905D01*
X146311905Y-116149286D01*
X146407143Y-116101667D01*
X146454762Y-116054048D01*
X146502381Y-115958810D01*
X146502381Y-115863571D01*
X146454762Y-115768333D01*
X146407143Y-115720714D01*
X146311905Y-115673095D01*
X146121429Y-115625476D01*
X145883333Y-115625476D01*
X145692857Y-115673095D01*
X145597619Y-115720714D01*
X145550000Y-115768333D01*
X145502381Y-115863571D01*
X133802381Y-107370714D02*
X132802381Y-107370714D01*
X132802381Y-107608809D01*
X132850000Y-107751667D01*
X132945238Y-107846905D01*
X133040476Y-107894524D01*
X133230952Y-107942143D01*
X133373810Y-107942143D01*
X133564286Y-107894524D01*
X133659524Y-107846905D01*
X133754762Y-107751667D01*
X133802381Y-107608809D01*
X133802381Y-107370714D01*
X133802381Y-108894524D02*
X133802381Y-108323095D01*
X133802381Y-108608809D02*
X132802381Y-108608809D01*
X132945238Y-108513571D01*
X133040476Y-108418333D01*
X133088095Y-108323095D01*
X132802381Y-109227857D02*
X132802381Y-109894524D01*
X133802381Y-109465952D01*
X140152381Y-107370714D02*
X139152381Y-107370714D01*
X139152381Y-107608809D01*
X139200000Y-107751667D01*
X139295238Y-107846905D01*
X139390476Y-107894524D01*
X139580952Y-107942143D01*
X139723810Y-107942143D01*
X139914286Y-107894524D01*
X140009524Y-107846905D01*
X140104762Y-107751667D01*
X140152381Y-107608809D01*
X140152381Y-107370714D01*
X140152381Y-108894524D02*
X140152381Y-108323095D01*
X140152381Y-108608809D02*
X139152381Y-108608809D01*
X139295238Y-108513571D01*
X139390476Y-108418333D01*
X139438095Y-108323095D01*
X139152381Y-109227857D02*
X139152381Y-109846905D01*
X139533333Y-109513571D01*
X139533333Y-109656429D01*
X139580952Y-109751667D01*
X139628571Y-109799286D01*
X139723810Y-109846905D01*
X139961905Y-109846905D01*
X140057143Y-109799286D01*
X140104762Y-109751667D01*
X140152381Y-109656429D01*
X140152381Y-109370714D01*
X140104762Y-109275476D01*
X140057143Y-109227857D01*
X140152381Y-113720714D02*
X139152381Y-113720714D01*
X139152381Y-113958809D01*
X139200000Y-114101667D01*
X139295238Y-114196905D01*
X139390476Y-114244524D01*
X139580952Y-114292143D01*
X139723810Y-114292143D01*
X139914286Y-114244524D01*
X140009524Y-114196905D01*
X140104762Y-114101667D01*
X140152381Y-113958809D01*
X140152381Y-113720714D01*
X140152381Y-115244524D02*
X140152381Y-114673095D01*
X140152381Y-114958809D02*
X139152381Y-114958809D01*
X139295238Y-114863571D01*
X139390476Y-114768333D01*
X139438095Y-114673095D01*
X139485714Y-116101667D02*
X140152381Y-116101667D01*
X139104762Y-115863571D02*
X139819048Y-115625476D01*
X139819048Y-116244524D01*
X127452381Y-107370714D02*
X126452381Y-107370714D01*
X126452381Y-107608809D01*
X126500000Y-107751667D01*
X126595238Y-107846905D01*
X126690476Y-107894524D01*
X126880952Y-107942143D01*
X127023810Y-107942143D01*
X127214286Y-107894524D01*
X127309524Y-107846905D01*
X127404762Y-107751667D01*
X127452381Y-107608809D01*
X127452381Y-107370714D01*
X127452381Y-108894524D02*
X127452381Y-108323095D01*
X127452381Y-108608809D02*
X126452381Y-108608809D01*
X126595238Y-108513571D01*
X126690476Y-108418333D01*
X126738095Y-108323095D01*
X127452381Y-109846905D02*
X127452381Y-109275476D01*
X127452381Y-109561190D02*
X126452381Y-109561190D01*
X126595238Y-109465952D01*
X126690476Y-109370714D01*
X126738095Y-109275476D01*
X127452381Y-113720714D02*
X126452381Y-113720714D01*
X126452381Y-113958809D01*
X126500000Y-114101667D01*
X126595238Y-114196905D01*
X126690476Y-114244524D01*
X126880952Y-114292143D01*
X127023810Y-114292143D01*
X127214286Y-114244524D01*
X127309524Y-114196905D01*
X127404762Y-114101667D01*
X127452381Y-113958809D01*
X127452381Y-113720714D01*
X127452381Y-115244524D02*
X127452381Y-114673095D01*
X127452381Y-114958809D02*
X126452381Y-114958809D01*
X126595238Y-114863571D01*
X126690476Y-114768333D01*
X126738095Y-114673095D01*
X126547619Y-115625476D02*
X126500000Y-115673095D01*
X126452381Y-115768333D01*
X126452381Y-116006429D01*
X126500000Y-116101667D01*
X126547619Y-116149286D01*
X126642857Y-116196905D01*
X126738095Y-116196905D01*
X126880952Y-116149286D01*
X127452381Y-115577857D01*
X127452381Y-116196905D01*
X133802381Y-113720714D02*
X132802381Y-113720714D01*
X132802381Y-113958809D01*
X132850000Y-114101667D01*
X132945238Y-114196905D01*
X133040476Y-114244524D01*
X133230952Y-114292143D01*
X133373810Y-114292143D01*
X133564286Y-114244524D01*
X133659524Y-114196905D01*
X133754762Y-114101667D01*
X133802381Y-113958809D01*
X133802381Y-113720714D01*
X133802381Y-115244524D02*
X133802381Y-114673095D01*
X133802381Y-114958809D02*
X132802381Y-114958809D01*
X132945238Y-114863571D01*
X133040476Y-114768333D01*
X133088095Y-114673095D01*
X133230952Y-115815952D02*
X133183333Y-115720714D01*
X133135714Y-115673095D01*
X133040476Y-115625476D01*
X132992857Y-115625476D01*
X132897619Y-115673095D01*
X132850000Y-115720714D01*
X132802381Y-115815952D01*
X132802381Y-116006429D01*
X132850000Y-116101667D01*
X132897619Y-116149286D01*
X132992857Y-116196905D01*
X133040476Y-116196905D01*
X133135714Y-116149286D01*
X133183333Y-116101667D01*
X133230952Y-116006429D01*
X133230952Y-115815952D01*
X133278571Y-115720714D01*
X133326190Y-115673095D01*
X133421429Y-115625476D01*
X133611905Y-115625476D01*
X133707143Y-115673095D01*
X133754762Y-115720714D01*
X133802381Y-115815952D01*
X133802381Y-116006429D01*
X133754762Y-116101667D01*
X133707143Y-116149286D01*
X133611905Y-116196905D01*
X133421429Y-116196905D01*
X133326190Y-116149286D01*
X133278571Y-116101667D01*
X133230952Y-116006429D01*
X155074857Y-70302381D02*
X155408191Y-69826190D01*
X155646286Y-70302381D02*
X155646286Y-69302381D01*
X155265333Y-69302381D01*
X155170095Y-69350000D01*
X155122476Y-69397619D01*
X155074857Y-69492857D01*
X155074857Y-69635714D01*
X155122476Y-69730952D01*
X155170095Y-69778571D01*
X155265333Y-69826190D01*
X155646286Y-69826190D01*
X154122476Y-70302381D02*
X154693905Y-70302381D01*
X154408191Y-70302381D02*
X154408191Y-69302381D01*
X154503429Y-69445238D01*
X154598667Y-69540476D01*
X154693905Y-69588095D01*
X153503429Y-69302381D02*
X153408190Y-69302381D01*
X153312952Y-69350000D01*
X153265333Y-69397619D01*
X153217714Y-69492857D01*
X153170095Y-69683333D01*
X153170095Y-69921429D01*
X153217714Y-70111905D01*
X153265333Y-70207143D01*
X153312952Y-70254762D01*
X153408190Y-70302381D01*
X153503429Y-70302381D01*
X153598667Y-70254762D01*
X153646286Y-70207143D01*
X153693905Y-70111905D01*
X153741524Y-69921429D01*
X153741524Y-69683333D01*
X153693905Y-69492857D01*
X153646286Y-69397619D01*
X153598667Y-69350000D01*
X153503429Y-69302381D01*
X158757857Y-70302381D02*
X159091191Y-69826190D01*
X159329286Y-70302381D02*
X159329286Y-69302381D01*
X158948333Y-69302381D01*
X158853095Y-69350000D01*
X158805476Y-69397619D01*
X158757857Y-69492857D01*
X158757857Y-69635714D01*
X158805476Y-69730952D01*
X158853095Y-69778571D01*
X158948333Y-69826190D01*
X159329286Y-69826190D01*
X157805476Y-70302381D02*
X158376905Y-70302381D01*
X158091191Y-70302381D02*
X158091191Y-69302381D01*
X158186429Y-69445238D01*
X158281667Y-69540476D01*
X158376905Y-69588095D01*
X157424524Y-69397619D02*
X157376905Y-69350000D01*
X157281667Y-69302381D01*
X157043571Y-69302381D01*
X156948333Y-69350000D01*
X156900714Y-69397619D01*
X156853095Y-69492857D01*
X156853095Y-69588095D01*
X156900714Y-69730952D01*
X157472143Y-70302381D01*
X156853095Y-70302381D01*
X146502381Y-105402143D02*
X146026190Y-105068809D01*
X146502381Y-104830714D02*
X145502381Y-104830714D01*
X145502381Y-105211667D01*
X145550000Y-105306905D01*
X145597619Y-105354524D01*
X145692857Y-105402143D01*
X145835714Y-105402143D01*
X145930952Y-105354524D01*
X145978571Y-105306905D01*
X146026190Y-105211667D01*
X146026190Y-104830714D01*
X145597619Y-105783095D02*
X145550000Y-105830714D01*
X145502381Y-105925952D01*
X145502381Y-106164048D01*
X145550000Y-106259286D01*
X145597619Y-106306905D01*
X145692857Y-106354524D01*
X145788095Y-106354524D01*
X145930952Y-106306905D01*
X146502381Y-105735476D01*
X146502381Y-106354524D01*
X145502381Y-106687857D02*
X145502381Y-107306905D01*
X145883333Y-106973571D01*
X145883333Y-107116429D01*
X145930952Y-107211667D01*
X145978571Y-107259286D01*
X146073810Y-107306905D01*
X146311905Y-107306905D01*
X146407143Y-107259286D01*
X146454762Y-107211667D01*
X146502381Y-107116429D01*
X146502381Y-106830714D01*
X146454762Y-106735476D01*
X146407143Y-106687857D01*
X153161905Y-102957381D02*
X153161905Y-103766905D01*
X153114286Y-103862143D01*
X153066667Y-103909762D01*
X152971429Y-103957381D01*
X152780952Y-103957381D01*
X152685714Y-103909762D01*
X152638095Y-103862143D01*
X152590476Y-103766905D01*
X152590476Y-102957381D01*
X151971429Y-103385952D02*
X152066667Y-103338333D01*
X152114286Y-103290714D01*
X152161905Y-103195476D01*
X152161905Y-103147857D01*
X152114286Y-103052619D01*
X152066667Y-103005000D01*
X151971429Y-102957381D01*
X151780952Y-102957381D01*
X151685714Y-103005000D01*
X151638095Y-103052619D01*
X151590476Y-103147857D01*
X151590476Y-103195476D01*
X151638095Y-103290714D01*
X151685714Y-103338333D01*
X151780952Y-103385952D01*
X151971429Y-103385952D01*
X152066667Y-103433571D01*
X152114286Y-103481190D01*
X152161905Y-103576429D01*
X152161905Y-103766905D01*
X152114286Y-103862143D01*
X152066667Y-103909762D01*
X151971429Y-103957381D01*
X151780952Y-103957381D01*
X151685714Y-103909762D01*
X151638095Y-103862143D01*
X151590476Y-103766905D01*
X151590476Y-103576429D01*
X151638095Y-103481190D01*
X151685714Y-103433571D01*
X151780952Y-103385952D01*
X113768095Y-129992381D02*
X113768095Y-128992381D01*
X113530000Y-128992381D01*
X113387142Y-129040000D01*
X113291904Y-129135238D01*
X113244285Y-129230476D01*
X113196666Y-129420952D01*
X113196666Y-129563810D01*
X113244285Y-129754286D01*
X113291904Y-129849524D01*
X113387142Y-129944762D01*
X113530000Y-129992381D01*
X113768095Y-129992381D01*
X112244285Y-129992381D02*
X112815714Y-129992381D01*
X112530000Y-129992381D02*
X112530000Y-128992381D01*
X112625238Y-129135238D01*
X112720476Y-129230476D01*
X112815714Y-129278095D01*
X103957381Y-136421905D02*
X102957381Y-136421905D01*
X102957381Y-136660000D01*
X103005000Y-136802858D01*
X103100238Y-136898096D01*
X103195476Y-136945715D01*
X103385952Y-136993334D01*
X103528810Y-136993334D01*
X103719286Y-136945715D01*
X103814524Y-136898096D01*
X103909762Y-136802858D01*
X103957381Y-136660000D01*
X103957381Y-136421905D01*
X102957381Y-137326667D02*
X102957381Y-137945715D01*
X103338333Y-137612381D01*
X103338333Y-137755239D01*
X103385952Y-137850477D01*
X103433571Y-137898096D01*
X103528810Y-137945715D01*
X103766905Y-137945715D01*
X103862143Y-137898096D01*
X103909762Y-137850477D01*
X103957381Y-137755239D01*
X103957381Y-137469524D01*
X103909762Y-137374286D01*
X103862143Y-137326667D01*
X144875238Y-131992619D02*
X144970476Y-131945000D01*
X145065714Y-131849762D01*
X145208571Y-131706905D01*
X145303810Y-131659286D01*
X145399048Y-131659286D01*
X145351429Y-131897381D02*
X145446667Y-131849762D01*
X145541905Y-131754524D01*
X145589524Y-131564048D01*
X145589524Y-131230714D01*
X145541905Y-131040238D01*
X145446667Y-130945000D01*
X145351429Y-130897381D01*
X145160952Y-130897381D01*
X145065714Y-130945000D01*
X144970476Y-131040238D01*
X144922857Y-131230714D01*
X144922857Y-131564048D01*
X144970476Y-131754524D01*
X145065714Y-131849762D01*
X145160952Y-131897381D01*
X145351429Y-131897381D01*
X144541905Y-130992619D02*
X144494286Y-130945000D01*
X144399048Y-130897381D01*
X144160952Y-130897381D01*
X144065714Y-130945000D01*
X144018095Y-130992619D01*
X143970476Y-131087857D01*
X143970476Y-131183095D01*
X144018095Y-131325952D01*
X144589524Y-131897381D01*
X143970476Y-131897381D01*
X156122666Y-115387381D02*
X156456000Y-114911190D01*
X156694095Y-115387381D02*
X156694095Y-114387381D01*
X156313142Y-114387381D01*
X156217904Y-114435000D01*
X156170285Y-114482619D01*
X156122666Y-114577857D01*
X156122666Y-114720714D01*
X156170285Y-114815952D01*
X156217904Y-114863571D01*
X156313142Y-114911190D01*
X156694095Y-114911190D01*
X155551238Y-114815952D02*
X155646476Y-114768333D01*
X155694095Y-114720714D01*
X155741714Y-114625476D01*
X155741714Y-114577857D01*
X155694095Y-114482619D01*
X155646476Y-114435000D01*
X155551238Y-114387381D01*
X155360761Y-114387381D01*
X155265523Y-114435000D01*
X155217904Y-114482619D01*
X155170285Y-114577857D01*
X155170285Y-114625476D01*
X155217904Y-114720714D01*
X155265523Y-114768333D01*
X155360761Y-114815952D01*
X155551238Y-114815952D01*
X155646476Y-114863571D01*
X155694095Y-114911190D01*
X155741714Y-115006429D01*
X155741714Y-115196905D01*
X155694095Y-115292143D01*
X155646476Y-115339762D01*
X155551238Y-115387381D01*
X155360761Y-115387381D01*
X155265523Y-115339762D01*
X155217904Y-115292143D01*
X155170285Y-115196905D01*
X155170285Y-115006429D01*
X155217904Y-114911190D01*
X155265523Y-114863571D01*
X155360761Y-114815952D01*
X166282666Y-117292381D02*
X166616000Y-116816190D01*
X166854095Y-117292381D02*
X166854095Y-116292381D01*
X166473142Y-116292381D01*
X166377904Y-116340000D01*
X166330285Y-116387619D01*
X166282666Y-116482857D01*
X166282666Y-116625714D01*
X166330285Y-116720952D01*
X166377904Y-116768571D01*
X166473142Y-116816190D01*
X166854095Y-116816190D01*
X165806476Y-117292381D02*
X165616000Y-117292381D01*
X165520761Y-117244762D01*
X165473142Y-117197143D01*
X165377904Y-117054286D01*
X165330285Y-116863810D01*
X165330285Y-116482857D01*
X165377904Y-116387619D01*
X165425523Y-116340000D01*
X165520761Y-116292381D01*
X165711238Y-116292381D01*
X165806476Y-116340000D01*
X165854095Y-116387619D01*
X165901714Y-116482857D01*
X165901714Y-116720952D01*
X165854095Y-116816190D01*
X165806476Y-116863810D01*
X165711238Y-116911429D01*
X165520761Y-116911429D01*
X165425523Y-116863810D01*
X165377904Y-116816190D01*
X165330285Y-116720952D01*
X156217857Y-137612381D02*
X156551191Y-137136190D01*
X156789286Y-137612381D02*
X156789286Y-136612381D01*
X156408333Y-136612381D01*
X156313095Y-136660000D01*
X156265476Y-136707619D01*
X156217857Y-136802857D01*
X156217857Y-136945714D01*
X156265476Y-137040952D01*
X156313095Y-137088571D01*
X156408333Y-137136190D01*
X156789286Y-137136190D01*
X155265476Y-137612381D02*
X155836905Y-137612381D01*
X155551191Y-137612381D02*
X155551191Y-136612381D01*
X155646429Y-136755238D01*
X155741667Y-136850476D01*
X155836905Y-136898095D01*
X154789286Y-137612381D02*
X154598810Y-137612381D01*
X154503571Y-137564762D01*
X154455952Y-137517143D01*
X154360714Y-137374286D01*
X154313095Y-137183810D01*
X154313095Y-136802857D01*
X154360714Y-136707619D01*
X154408333Y-136660000D01*
X154503571Y-136612381D01*
X154694048Y-136612381D01*
X154789286Y-136660000D01*
X154836905Y-136707619D01*
X154884524Y-136802857D01*
X154884524Y-137040952D01*
X154836905Y-137136190D01*
X154789286Y-137183810D01*
X154694048Y-137231429D01*
X154503571Y-137231429D01*
X154408333Y-137183810D01*
X154360714Y-137136190D01*
X154313095Y-137040952D01*
X103512857Y-110593143D02*
X103560476Y-110640762D01*
X103703333Y-110688381D01*
X103798571Y-110688381D01*
X103941429Y-110640762D01*
X104036667Y-110545524D01*
X104084286Y-110450286D01*
X104131905Y-110259810D01*
X104131905Y-110116952D01*
X104084286Y-109926476D01*
X104036667Y-109831238D01*
X103941429Y-109736000D01*
X103798571Y-109688381D01*
X103703333Y-109688381D01*
X103560476Y-109736000D01*
X103512857Y-109783619D01*
X102560476Y-110688381D02*
X103131905Y-110688381D01*
X102846191Y-110688381D02*
X102846191Y-109688381D01*
X102941429Y-109831238D01*
X103036667Y-109926476D01*
X103131905Y-109974095D01*
X101608095Y-110688381D02*
X102179524Y-110688381D01*
X101893810Y-110688381D02*
X101893810Y-109688381D01*
X101989048Y-109831238D01*
X102084286Y-109926476D01*
X102179524Y-109974095D01*
X142279643Y-119689643D02*
X142327262Y-119642024D01*
X142374881Y-119499167D01*
X142374881Y-119403929D01*
X142327262Y-119261071D01*
X142232024Y-119165833D01*
X142136786Y-119118214D01*
X141946310Y-119070595D01*
X141803452Y-119070595D01*
X141612976Y-119118214D01*
X141517738Y-119165833D01*
X141422500Y-119261071D01*
X141374881Y-119403929D01*
X141374881Y-119499167D01*
X141422500Y-119642024D01*
X141470119Y-119689643D01*
X142374881Y-120642024D02*
X142374881Y-120070595D01*
X142374881Y-120356309D02*
X141374881Y-120356309D01*
X141517738Y-120261071D01*
X141612976Y-120165833D01*
X141660595Y-120070595D01*
X141470119Y-121022976D02*
X141422500Y-121070595D01*
X141374881Y-121165833D01*
X141374881Y-121403929D01*
X141422500Y-121499167D01*
X141470119Y-121546786D01*
X141565357Y-121594405D01*
X141660595Y-121594405D01*
X141803452Y-121546786D01*
X142374881Y-120975357D01*
X142374881Y-121594405D01*
X144184643Y-119689643D02*
X144232262Y-119642024D01*
X144279881Y-119499167D01*
X144279881Y-119403929D01*
X144232262Y-119261071D01*
X144137024Y-119165833D01*
X144041786Y-119118214D01*
X143851310Y-119070595D01*
X143708452Y-119070595D01*
X143517976Y-119118214D01*
X143422738Y-119165833D01*
X143327500Y-119261071D01*
X143279881Y-119403929D01*
X143279881Y-119499167D01*
X143327500Y-119642024D01*
X143375119Y-119689643D01*
X144279881Y-120642024D02*
X144279881Y-120070595D01*
X144279881Y-120356309D02*
X143279881Y-120356309D01*
X143422738Y-120261071D01*
X143517976Y-120165833D01*
X143565595Y-120070595D01*
X143279881Y-120975357D02*
X143279881Y-121594405D01*
X143660833Y-121261071D01*
X143660833Y-121403929D01*
X143708452Y-121499167D01*
X143756071Y-121546786D01*
X143851310Y-121594405D01*
X144089405Y-121594405D01*
X144184643Y-121546786D01*
X144232262Y-121499167D01*
X144279881Y-121403929D01*
X144279881Y-121118214D01*
X144232262Y-121022976D01*
X144184643Y-120975357D01*
X140374643Y-119689643D02*
X140422262Y-119642024D01*
X140469881Y-119499167D01*
X140469881Y-119403929D01*
X140422262Y-119261071D01*
X140327024Y-119165833D01*
X140231786Y-119118214D01*
X140041310Y-119070595D01*
X139898452Y-119070595D01*
X139707976Y-119118214D01*
X139612738Y-119165833D01*
X139517500Y-119261071D01*
X139469881Y-119403929D01*
X139469881Y-119499167D01*
X139517500Y-119642024D01*
X139565119Y-119689643D01*
X140469881Y-120642024D02*
X140469881Y-120070595D01*
X140469881Y-120356309D02*
X139469881Y-120356309D01*
X139612738Y-120261071D01*
X139707976Y-120165833D01*
X139755595Y-120070595D01*
X139803214Y-121499167D02*
X140469881Y-121499167D01*
X139422262Y-121261071D02*
X140136548Y-121022976D01*
X140136548Y-121642024D01*
X138469643Y-119689643D02*
X138517262Y-119642024D01*
X138564881Y-119499167D01*
X138564881Y-119403929D01*
X138517262Y-119261071D01*
X138422024Y-119165833D01*
X138326786Y-119118214D01*
X138136310Y-119070595D01*
X137993452Y-119070595D01*
X137802976Y-119118214D01*
X137707738Y-119165833D01*
X137612500Y-119261071D01*
X137564881Y-119403929D01*
X137564881Y-119499167D01*
X137612500Y-119642024D01*
X137660119Y-119689643D01*
X138564881Y-120642024D02*
X138564881Y-120070595D01*
X138564881Y-120356309D02*
X137564881Y-120356309D01*
X137707738Y-120261071D01*
X137802976Y-120165833D01*
X137850595Y-120070595D01*
X137564881Y-121499167D02*
X137564881Y-121308690D01*
X137612500Y-121213452D01*
X137660119Y-121165833D01*
X137802976Y-121070595D01*
X137993452Y-121022976D01*
X138374405Y-121022976D01*
X138469643Y-121070595D01*
X138517262Y-121118214D01*
X138564881Y-121213452D01*
X138564881Y-121403929D01*
X138517262Y-121499167D01*
X138469643Y-121546786D01*
X138374405Y-121594405D01*
X138136310Y-121594405D01*
X138041071Y-121546786D01*
X137993452Y-121499167D01*
X137945833Y-121403929D01*
X137945833Y-121213452D01*
X137993452Y-121118214D01*
X138041071Y-121070595D01*
X138136310Y-121022976D01*
X152407857Y-132532381D02*
X152741191Y-132056190D01*
X152979286Y-132532381D02*
X152979286Y-131532381D01*
X152598333Y-131532381D01*
X152503095Y-131580000D01*
X152455476Y-131627619D01*
X152407857Y-131722857D01*
X152407857Y-131865714D01*
X152455476Y-131960952D01*
X152503095Y-132008571D01*
X152598333Y-132056190D01*
X152979286Y-132056190D01*
X151455476Y-132532381D02*
X152026905Y-132532381D01*
X151741191Y-132532381D02*
X151741191Y-131532381D01*
X151836429Y-131675238D01*
X151931667Y-131770476D01*
X152026905Y-131818095D01*
X151122143Y-131532381D02*
X150455476Y-131532381D01*
X150884048Y-132532381D01*
X148597857Y-140152381D02*
X148931191Y-139676190D01*
X149169286Y-140152381D02*
X149169286Y-139152381D01*
X148788333Y-139152381D01*
X148693095Y-139200000D01*
X148645476Y-139247619D01*
X148597857Y-139342857D01*
X148597857Y-139485714D01*
X148645476Y-139580952D01*
X148693095Y-139628571D01*
X148788333Y-139676190D01*
X149169286Y-139676190D01*
X148216905Y-139247619D02*
X148169286Y-139200000D01*
X148074048Y-139152381D01*
X147835952Y-139152381D01*
X147740714Y-139200000D01*
X147693095Y-139247619D01*
X147645476Y-139342857D01*
X147645476Y-139438095D01*
X147693095Y-139580952D01*
X148264524Y-140152381D01*
X147645476Y-140152381D01*
X147026429Y-139152381D02*
X146931190Y-139152381D01*
X146835952Y-139200000D01*
X146788333Y-139247619D01*
X146740714Y-139342857D01*
X146693095Y-139533333D01*
X146693095Y-139771429D01*
X146740714Y-139961905D01*
X146788333Y-140057143D01*
X146835952Y-140104762D01*
X146931190Y-140152381D01*
X147026429Y-140152381D01*
X147121667Y-140104762D01*
X147169286Y-140057143D01*
X147216905Y-139961905D01*
X147264524Y-139771429D01*
X147264524Y-139533333D01*
X147216905Y-139342857D01*
X147169286Y-139247619D01*
X147121667Y-139200000D01*
X147026429Y-139152381D01*
X148597857Y-135072381D02*
X148931191Y-134596190D01*
X149169286Y-135072381D02*
X149169286Y-134072381D01*
X148788333Y-134072381D01*
X148693095Y-134120000D01*
X148645476Y-134167619D01*
X148597857Y-134262857D01*
X148597857Y-134405714D01*
X148645476Y-134500952D01*
X148693095Y-134548571D01*
X148788333Y-134596190D01*
X149169286Y-134596190D01*
X148216905Y-134167619D02*
X148169286Y-134120000D01*
X148074048Y-134072381D01*
X147835952Y-134072381D01*
X147740714Y-134120000D01*
X147693095Y-134167619D01*
X147645476Y-134262857D01*
X147645476Y-134358095D01*
X147693095Y-134500952D01*
X148264524Y-135072381D01*
X147645476Y-135072381D01*
X146693095Y-135072381D02*
X147264524Y-135072381D01*
X146978810Y-135072381D02*
X146978810Y-134072381D01*
X147074048Y-134215238D01*
X147169286Y-134310476D01*
X147264524Y-134358095D01*
X117292381Y-107370714D02*
X116292381Y-107370714D01*
X116292381Y-107608809D01*
X116340000Y-107751667D01*
X116435238Y-107846905D01*
X116530476Y-107894524D01*
X116720952Y-107942143D01*
X116863810Y-107942143D01*
X117054286Y-107894524D01*
X117149524Y-107846905D01*
X117244762Y-107751667D01*
X117292381Y-107608809D01*
X117292381Y-107370714D01*
X117292381Y-108894524D02*
X117292381Y-108323095D01*
X117292381Y-108608809D02*
X116292381Y-108608809D01*
X116435238Y-108513571D01*
X116530476Y-108418333D01*
X116578095Y-108323095D01*
X116292381Y-109799286D02*
X116292381Y-109323095D01*
X116768571Y-109275476D01*
X116720952Y-109323095D01*
X116673333Y-109418333D01*
X116673333Y-109656429D01*
X116720952Y-109751667D01*
X116768571Y-109799286D01*
X116863810Y-109846905D01*
X117101905Y-109846905D01*
X117197143Y-109799286D01*
X117244762Y-109751667D01*
X117292381Y-109656429D01*
X117292381Y-109418333D01*
X117244762Y-109323095D01*
X117197143Y-109275476D01*
X117292381Y-113720714D02*
X116292381Y-113720714D01*
X116292381Y-113958809D01*
X116340000Y-114101667D01*
X116435238Y-114196905D01*
X116530476Y-114244524D01*
X116720952Y-114292143D01*
X116863810Y-114292143D01*
X117054286Y-114244524D01*
X117149524Y-114196905D01*
X117244762Y-114101667D01*
X117292381Y-113958809D01*
X117292381Y-113720714D01*
X117292381Y-115244524D02*
X117292381Y-114673095D01*
X117292381Y-114958809D02*
X116292381Y-114958809D01*
X116435238Y-114863571D01*
X116530476Y-114768333D01*
X116578095Y-114673095D01*
X116292381Y-116101667D02*
X116292381Y-115911190D01*
X116340000Y-115815952D01*
X116387619Y-115768333D01*
X116530476Y-115673095D01*
X116720952Y-115625476D01*
X117101905Y-115625476D01*
X117197143Y-115673095D01*
X117244762Y-115720714D01*
X117292381Y-115815952D01*
X117292381Y-116006429D01*
X117244762Y-116101667D01*
X117197143Y-116149286D01*
X117101905Y-116196905D01*
X116863810Y-116196905D01*
X116768571Y-116149286D01*
X116720952Y-116101667D01*
X116673333Y-116006429D01*
X116673333Y-115815952D01*
X116720952Y-115720714D01*
X116768571Y-115673095D01*
X116863810Y-115625476D01*
X117292381Y-111117143D02*
X116816190Y-110783809D01*
X117292381Y-110545714D02*
X116292381Y-110545714D01*
X116292381Y-110926667D01*
X116340000Y-111021905D01*
X116387619Y-111069524D01*
X116482857Y-111117143D01*
X116625714Y-111117143D01*
X116720952Y-111069524D01*
X116768571Y-111021905D01*
X116816190Y-110926667D01*
X116816190Y-110545714D01*
X116387619Y-111498095D02*
X116340000Y-111545714D01*
X116292381Y-111640952D01*
X116292381Y-111879048D01*
X116340000Y-111974286D01*
X116387619Y-112021905D01*
X116482857Y-112069524D01*
X116578095Y-112069524D01*
X116720952Y-112021905D01*
X117292381Y-111450476D01*
X117292381Y-112069524D01*
X116292381Y-112926667D02*
X116292381Y-112736190D01*
X116340000Y-112640952D01*
X116387619Y-112593333D01*
X116530476Y-112498095D01*
X116720952Y-112450476D01*
X117101905Y-112450476D01*
X117197143Y-112498095D01*
X117244762Y-112545714D01*
X117292381Y-112640952D01*
X117292381Y-112831429D01*
X117244762Y-112926667D01*
X117197143Y-112974286D01*
X117101905Y-113021905D01*
X116863810Y-113021905D01*
X116768571Y-112974286D01*
X116720952Y-112926667D01*
X116673333Y-112831429D01*
X116673333Y-112640952D01*
X116720952Y-112545714D01*
X116768571Y-112498095D01*
X116863810Y-112450476D01*
X150312381Y-128897143D02*
X149836190Y-128563809D01*
X150312381Y-128325714D02*
X149312381Y-128325714D01*
X149312381Y-128706667D01*
X149360000Y-128801905D01*
X149407619Y-128849524D01*
X149502857Y-128897143D01*
X149645714Y-128897143D01*
X149740952Y-128849524D01*
X149788571Y-128801905D01*
X149836190Y-128706667D01*
X149836190Y-128325714D01*
X150312381Y-129849524D02*
X150312381Y-129278095D01*
X150312381Y-129563809D02*
X149312381Y-129563809D01*
X149455238Y-129468571D01*
X149550476Y-129373333D01*
X149598095Y-129278095D01*
X149312381Y-130754286D02*
X149312381Y-130278095D01*
X149788571Y-130230476D01*
X149740952Y-130278095D01*
X149693333Y-130373333D01*
X149693333Y-130611429D01*
X149740952Y-130706667D01*
X149788571Y-130754286D01*
X149883810Y-130801905D01*
X150121905Y-130801905D01*
X150217143Y-130754286D01*
X150264762Y-130706667D01*
X150312381Y-130611429D01*
X150312381Y-130373333D01*
X150264762Y-130278095D01*
X150217143Y-130230476D01*
X145422857Y-127833381D02*
X145756191Y-127357190D01*
X145994286Y-127833381D02*
X145994286Y-126833381D01*
X145613333Y-126833381D01*
X145518095Y-126881000D01*
X145470476Y-126928619D01*
X145422857Y-127023857D01*
X145422857Y-127166714D01*
X145470476Y-127261952D01*
X145518095Y-127309571D01*
X145613333Y-127357190D01*
X145994286Y-127357190D01*
X144470476Y-127833381D02*
X145041905Y-127833381D01*
X144756191Y-127833381D02*
X144756191Y-126833381D01*
X144851429Y-126976238D01*
X144946667Y-127071476D01*
X145041905Y-127119095D01*
X143613333Y-126833381D02*
X143803810Y-126833381D01*
X143899048Y-126881000D01*
X143946667Y-126928619D01*
X144041905Y-127071476D01*
X144089524Y-127261952D01*
X144089524Y-127642905D01*
X144041905Y-127738143D01*
X143994286Y-127785762D01*
X143899048Y-127833381D01*
X143708571Y-127833381D01*
X143613333Y-127785762D01*
X143565714Y-127738143D01*
X143518095Y-127642905D01*
X143518095Y-127404810D01*
X143565714Y-127309571D01*
X143613333Y-127261952D01*
X143708571Y-127214333D01*
X143899048Y-127214333D01*
X143994286Y-127261952D01*
X144041905Y-127309571D01*
X144089524Y-127404810D01*
X153042857Y-81732381D02*
X153376191Y-81256190D01*
X153614286Y-81732381D02*
X153614286Y-80732381D01*
X153233333Y-80732381D01*
X153138095Y-80780000D01*
X153090476Y-80827619D01*
X153042857Y-80922857D01*
X153042857Y-81065714D01*
X153090476Y-81160952D01*
X153138095Y-81208571D01*
X153233333Y-81256190D01*
X153614286Y-81256190D01*
X152090476Y-81732381D02*
X152661905Y-81732381D01*
X152376191Y-81732381D02*
X152376191Y-80732381D01*
X152471429Y-80875238D01*
X152566667Y-80970476D01*
X152661905Y-81018095D01*
X151757143Y-80732381D02*
X151138095Y-80732381D01*
X151471429Y-81113333D01*
X151328571Y-81113333D01*
X151233333Y-81160952D01*
X151185714Y-81208571D01*
X151138095Y-81303810D01*
X151138095Y-81541905D01*
X151185714Y-81637143D01*
X151233333Y-81684762D01*
X151328571Y-81732381D01*
X151614286Y-81732381D01*
X151709524Y-81684762D01*
X151757143Y-81637143D01*
X160662857Y-81732381D02*
X160996191Y-81256190D01*
X161234286Y-81732381D02*
X161234286Y-80732381D01*
X160853333Y-80732381D01*
X160758095Y-80780000D01*
X160710476Y-80827619D01*
X160662857Y-80922857D01*
X160662857Y-81065714D01*
X160710476Y-81160952D01*
X160758095Y-81208571D01*
X160853333Y-81256190D01*
X161234286Y-81256190D01*
X159710476Y-81732381D02*
X160281905Y-81732381D01*
X159996191Y-81732381D02*
X159996191Y-80732381D01*
X160091429Y-80875238D01*
X160186667Y-80970476D01*
X160281905Y-81018095D01*
X158853333Y-81065714D02*
X158853333Y-81732381D01*
X159091429Y-80684762D02*
X159329524Y-81399048D01*
X158710476Y-81399048D01*
X143517857Y-134342143D02*
X143565476Y-134389762D01*
X143708333Y-134437381D01*
X143803571Y-134437381D01*
X143946429Y-134389762D01*
X144041667Y-134294524D01*
X144089286Y-134199286D01*
X144136905Y-134008810D01*
X144136905Y-133865952D01*
X144089286Y-133675476D01*
X144041667Y-133580238D01*
X143946429Y-133485000D01*
X143803571Y-133437381D01*
X143708333Y-133437381D01*
X143565476Y-133485000D01*
X143517857Y-133532619D01*
X142565476Y-134437381D02*
X143136905Y-134437381D01*
X142851191Y-134437381D02*
X142851191Y-133437381D01*
X142946429Y-133580238D01*
X143041667Y-133675476D01*
X143136905Y-133723095D01*
X142089286Y-134437381D02*
X141898810Y-134437381D01*
X141803571Y-134389762D01*
X141755952Y-134342143D01*
X141660714Y-134199286D01*
X141613095Y-134008810D01*
X141613095Y-133627857D01*
X141660714Y-133532619D01*
X141708333Y-133485000D01*
X141803571Y-133437381D01*
X141994048Y-133437381D01*
X142089286Y-133485000D01*
X142136905Y-133532619D01*
X142184524Y-133627857D01*
X142184524Y-133865952D01*
X142136905Y-133961190D01*
X142089286Y-134008810D01*
X141994048Y-134056429D01*
X141803571Y-134056429D01*
X141708333Y-134008810D01*
X141660714Y-133961190D01*
X141613095Y-133865952D01*
X145772143Y-139692143D02*
X145819762Y-139644524D01*
X145867381Y-139501667D01*
X145867381Y-139406429D01*
X145819762Y-139263571D01*
X145724524Y-139168333D01*
X145629286Y-139120714D01*
X145438810Y-139073095D01*
X145295952Y-139073095D01*
X145105476Y-139120714D01*
X145010238Y-139168333D01*
X144915000Y-139263571D01*
X144867381Y-139406429D01*
X144867381Y-139501667D01*
X144915000Y-139644524D01*
X144962619Y-139692143D01*
X144962619Y-140073095D02*
X144915000Y-140120714D01*
X144867381Y-140215952D01*
X144867381Y-140454048D01*
X144915000Y-140549286D01*
X144962619Y-140596905D01*
X145057857Y-140644524D01*
X145153095Y-140644524D01*
X145295952Y-140596905D01*
X145867381Y-140025476D01*
X145867381Y-140644524D01*
X144867381Y-141263571D02*
X144867381Y-141358810D01*
X144915000Y-141454048D01*
X144962619Y-141501667D01*
X145057857Y-141549286D01*
X145248333Y-141596905D01*
X145486429Y-141596905D01*
X145676905Y-141549286D01*
X145772143Y-141501667D01*
X145819762Y-141454048D01*
X145867381Y-141358810D01*
X145867381Y-141263571D01*
X145819762Y-141168333D01*
X145772143Y-141120714D01*
X145676905Y-141073095D01*
X145486429Y-141025476D01*
X145248333Y-141025476D01*
X145057857Y-141073095D01*
X144962619Y-141120714D01*
X144915000Y-141168333D01*
X144867381Y-141263571D01*
X143517857Y-141962143D02*
X143565476Y-142009762D01*
X143708333Y-142057381D01*
X143803571Y-142057381D01*
X143946429Y-142009762D01*
X144041667Y-141914524D01*
X144089286Y-141819286D01*
X144136905Y-141628810D01*
X144136905Y-141485952D01*
X144089286Y-141295476D01*
X144041667Y-141200238D01*
X143946429Y-141105000D01*
X143803571Y-141057381D01*
X143708333Y-141057381D01*
X143565476Y-141105000D01*
X143517857Y-141152619D01*
X143136905Y-141152619D02*
X143089286Y-141105000D01*
X142994048Y-141057381D01*
X142755952Y-141057381D01*
X142660714Y-141105000D01*
X142613095Y-141152619D01*
X142565476Y-141247857D01*
X142565476Y-141343095D01*
X142613095Y-141485952D01*
X143184524Y-142057381D01*
X142565476Y-142057381D01*
X141613095Y-142057381D02*
X142184524Y-142057381D01*
X141898810Y-142057381D02*
X141898810Y-141057381D01*
X141994048Y-141200238D01*
X142089286Y-141295476D01*
X142184524Y-141343095D01*
X138787143Y-136517143D02*
X138834762Y-136469524D01*
X138882381Y-136326667D01*
X138882381Y-136231429D01*
X138834762Y-136088571D01*
X138739524Y-135993333D01*
X138644286Y-135945714D01*
X138453810Y-135898095D01*
X138310952Y-135898095D01*
X138120476Y-135945714D01*
X138025238Y-135993333D01*
X137930000Y-136088571D01*
X137882381Y-136231429D01*
X137882381Y-136326667D01*
X137930000Y-136469524D01*
X137977619Y-136517143D01*
X137977619Y-136898095D02*
X137930000Y-136945714D01*
X137882381Y-137040952D01*
X137882381Y-137279048D01*
X137930000Y-137374286D01*
X137977619Y-137421905D01*
X138072857Y-137469524D01*
X138168095Y-137469524D01*
X138310952Y-137421905D01*
X138882381Y-136850476D01*
X138882381Y-137469524D01*
X137977619Y-137850476D02*
X137930000Y-137898095D01*
X137882381Y-137993333D01*
X137882381Y-138231429D01*
X137930000Y-138326667D01*
X137977619Y-138374286D01*
X138072857Y-138421905D01*
X138168095Y-138421905D01*
X138310952Y-138374286D01*
X138882381Y-137802857D01*
X138882381Y-138421905D01*
X139707857Y-127738143D02*
X139755476Y-127785762D01*
X139898333Y-127833381D01*
X139993571Y-127833381D01*
X140136429Y-127785762D01*
X140231667Y-127690524D01*
X140279286Y-127595286D01*
X140326905Y-127404810D01*
X140326905Y-127261952D01*
X140279286Y-127071476D01*
X140231667Y-126976238D01*
X140136429Y-126881000D01*
X139993571Y-126833381D01*
X139898333Y-126833381D01*
X139755476Y-126881000D01*
X139707857Y-126928619D01*
X139326905Y-126928619D02*
X139279286Y-126881000D01*
X139184048Y-126833381D01*
X138945952Y-126833381D01*
X138850714Y-126881000D01*
X138803095Y-126928619D01*
X138755476Y-127023857D01*
X138755476Y-127119095D01*
X138803095Y-127261952D01*
X139374524Y-127833381D01*
X138755476Y-127833381D01*
X138422143Y-126833381D02*
X137803095Y-126833381D01*
X138136429Y-127214333D01*
X137993571Y-127214333D01*
X137898333Y-127261952D01*
X137850714Y-127309571D01*
X137803095Y-127404810D01*
X137803095Y-127642905D01*
X137850714Y-127738143D01*
X137898333Y-127785762D01*
X137993571Y-127833381D01*
X138279286Y-127833381D01*
X138374524Y-127785762D01*
X138422143Y-127738143D01*
X163298095Y-139612381D02*
X163298095Y-138612381D01*
X163060000Y-138612381D01*
X162917142Y-138660000D01*
X162821904Y-138755238D01*
X162774285Y-138850476D01*
X162726666Y-139040952D01*
X162726666Y-139183810D01*
X162774285Y-139374286D01*
X162821904Y-139469524D01*
X162917142Y-139564762D01*
X163060000Y-139612381D01*
X163298095Y-139612381D01*
X162155238Y-139040952D02*
X162250476Y-138993333D01*
X162298095Y-138945714D01*
X162345714Y-138850476D01*
X162345714Y-138802857D01*
X162298095Y-138707619D01*
X162250476Y-138660000D01*
X162155238Y-138612381D01*
X161964761Y-138612381D01*
X161869523Y-138660000D01*
X161821904Y-138707619D01*
X161774285Y-138802857D01*
X161774285Y-138850476D01*
X161821904Y-138945714D01*
X161869523Y-138993333D01*
X161964761Y-139040952D01*
X162155238Y-139040952D01*
X162250476Y-139088571D01*
X162298095Y-139136190D01*
X162345714Y-139231429D01*
X162345714Y-139421905D01*
X162298095Y-139517143D01*
X162250476Y-139564762D01*
X162155238Y-139612381D01*
X161964761Y-139612381D01*
X161869523Y-139564762D01*
X161821904Y-139517143D01*
X161774285Y-139421905D01*
X161774285Y-139231429D01*
X161821904Y-139136190D01*
X161869523Y-139088571D01*
X161964761Y-139040952D01*
X108918333Y-128992381D02*
X108918333Y-129706667D01*
X108965953Y-129849524D01*
X109061191Y-129944762D01*
X109204048Y-129992381D01*
X109299286Y-129992381D01*
X108013571Y-129325714D02*
X108013571Y-129992381D01*
X108251667Y-128944762D02*
X108489762Y-129659048D01*
X107870714Y-129659048D01*
X139874523Y-133437381D02*
X139874523Y-134151667D01*
X139922143Y-134294524D01*
X140017381Y-134389762D01*
X140160238Y-134437381D01*
X140255476Y-134437381D01*
X139493571Y-133437381D02*
X138874523Y-133437381D01*
X139207857Y-133818333D01*
X139064999Y-133818333D01*
X138969761Y-133865952D01*
X138922142Y-133913571D01*
X138874523Y-134008810D01*
X138874523Y-134246905D01*
X138922142Y-134342143D01*
X138969761Y-134389762D01*
X139064999Y-134437381D01*
X139350714Y-134437381D01*
X139445952Y-134389762D01*
X139493571Y-134342143D01*
X138541190Y-133437381D02*
X137922142Y-133437381D01*
X138255476Y-133818333D01*
X138112618Y-133818333D01*
X138017380Y-133865952D01*
X137969761Y-133913571D01*
X137922142Y-134008810D01*
X137922142Y-134246905D01*
X137969761Y-134342143D01*
X138017380Y-134389762D01*
X138112618Y-134437381D01*
X138398333Y-134437381D01*
X138493571Y-134389762D01*
X138541190Y-134342143D01*
X104870238Y-144692619D02*
X104965476Y-144645000D01*
X105060714Y-144549762D01*
X105203571Y-144406905D01*
X105298810Y-144359286D01*
X105394048Y-144359286D01*
X105346429Y-144597381D02*
X105441667Y-144549762D01*
X105536905Y-144454524D01*
X105584524Y-144264048D01*
X105584524Y-143930714D01*
X105536905Y-143740238D01*
X105441667Y-143645000D01*
X105346429Y-143597381D01*
X105155952Y-143597381D01*
X105060714Y-143645000D01*
X104965476Y-143740238D01*
X104917857Y-143930714D01*
X104917857Y-144264048D01*
X104965476Y-144454524D01*
X105060714Y-144549762D01*
X105155952Y-144597381D01*
X105346429Y-144597381D01*
X103965476Y-144597381D02*
X104536905Y-144597381D01*
X104251191Y-144597381D02*
X104251191Y-143597381D01*
X104346429Y-143740238D01*
X104441667Y-143835476D01*
X104536905Y-143883095D01*
X106211666Y-134437381D02*
X106545000Y-133961190D01*
X106783095Y-134437381D02*
X106783095Y-133437381D01*
X106402142Y-133437381D01*
X106306904Y-133485000D01*
X106259285Y-133532619D01*
X106211666Y-133627857D01*
X106211666Y-133770714D01*
X106259285Y-133865952D01*
X106306904Y-133913571D01*
X106402142Y-133961190D01*
X106783095Y-133961190D01*
X105259285Y-134437381D02*
X105830714Y-134437381D01*
X105545000Y-134437381D02*
X105545000Y-133437381D01*
X105640238Y-133580238D01*
X105735476Y-133675476D01*
X105830714Y-133723095D01*
X115736666Y-134437381D02*
X116070000Y-133961190D01*
X116308095Y-134437381D02*
X116308095Y-133437381D01*
X115927142Y-133437381D01*
X115831904Y-133485000D01*
X115784285Y-133532619D01*
X115736666Y-133627857D01*
X115736666Y-133770714D01*
X115784285Y-133865952D01*
X115831904Y-133913571D01*
X115927142Y-133961190D01*
X116308095Y-133961190D01*
X115355714Y-133532619D02*
X115308095Y-133485000D01*
X115212857Y-133437381D01*
X114974761Y-133437381D01*
X114879523Y-133485000D01*
X114831904Y-133532619D01*
X114784285Y-133627857D01*
X114784285Y-133723095D01*
X114831904Y-133865952D01*
X115403333Y-134437381D01*
X114784285Y-134437381D01*
X108751666Y-136342381D02*
X109085000Y-135866190D01*
X109323095Y-136342381D02*
X109323095Y-135342381D01*
X108942142Y-135342381D01*
X108846904Y-135390000D01*
X108799285Y-135437619D01*
X108751666Y-135532857D01*
X108751666Y-135675714D01*
X108799285Y-135770952D01*
X108846904Y-135818571D01*
X108942142Y-135866190D01*
X109323095Y-135866190D01*
X108418333Y-135342381D02*
X107799285Y-135342381D01*
X108132619Y-135723333D01*
X107989761Y-135723333D01*
X107894523Y-135770952D01*
X107846904Y-135818571D01*
X107799285Y-135913810D01*
X107799285Y-136151905D01*
X107846904Y-136247143D01*
X107894523Y-136294762D01*
X107989761Y-136342381D01*
X108275476Y-136342381D01*
X108370714Y-136294762D01*
X108418333Y-136247143D01*
X108751666Y-140152381D02*
X109085000Y-139676190D01*
X109323095Y-140152381D02*
X109323095Y-139152381D01*
X108942142Y-139152381D01*
X108846904Y-139200000D01*
X108799285Y-139247619D01*
X108751666Y-139342857D01*
X108751666Y-139485714D01*
X108799285Y-139580952D01*
X108846904Y-139628571D01*
X108942142Y-139676190D01*
X109323095Y-139676190D01*
X107894523Y-139485714D02*
X107894523Y-140152381D01*
X108132619Y-139104762D02*
X108370714Y-139819048D01*
X107751666Y-139819048D01*
X108751666Y-138247381D02*
X109085000Y-137771190D01*
X109323095Y-138247381D02*
X109323095Y-137247381D01*
X108942142Y-137247381D01*
X108846904Y-137295000D01*
X108799285Y-137342619D01*
X108751666Y-137437857D01*
X108751666Y-137580714D01*
X108799285Y-137675952D01*
X108846904Y-137723571D01*
X108942142Y-137771190D01*
X109323095Y-137771190D01*
X107846904Y-137247381D02*
X108323095Y-137247381D01*
X108370714Y-137723571D01*
X108323095Y-137675952D01*
X108227857Y-137628333D01*
X107989761Y-137628333D01*
X107894523Y-137675952D01*
X107846904Y-137723571D01*
X107799285Y-137818810D01*
X107799285Y-138056905D01*
X107846904Y-138152143D01*
X107894523Y-138199762D01*
X107989761Y-138247381D01*
X108227857Y-138247381D01*
X108323095Y-138199762D01*
X108370714Y-138152143D01*
X156122666Y-117292381D02*
X156456000Y-116816190D01*
X156694095Y-117292381D02*
X156694095Y-116292381D01*
X156313142Y-116292381D01*
X156217904Y-116340000D01*
X156170285Y-116387619D01*
X156122666Y-116482857D01*
X156122666Y-116625714D01*
X156170285Y-116720952D01*
X156217904Y-116768571D01*
X156313142Y-116816190D01*
X156694095Y-116816190D01*
X155789333Y-116292381D02*
X155122666Y-116292381D01*
X155551238Y-117292381D01*
X166758857Y-115387381D02*
X167092191Y-114911190D01*
X167330286Y-115387381D02*
X167330286Y-114387381D01*
X166949333Y-114387381D01*
X166854095Y-114435000D01*
X166806476Y-114482619D01*
X166758857Y-114577857D01*
X166758857Y-114720714D01*
X166806476Y-114815952D01*
X166854095Y-114863571D01*
X166949333Y-114911190D01*
X167330286Y-114911190D01*
X165806476Y-115387381D02*
X166377905Y-115387381D01*
X166092191Y-115387381D02*
X166092191Y-114387381D01*
X166187429Y-114530238D01*
X166282667Y-114625476D01*
X166377905Y-114673095D01*
X164854095Y-115387381D02*
X165425524Y-115387381D01*
X165139810Y-115387381D02*
X165139810Y-114387381D01*
X165235048Y-114530238D01*
X165330286Y-114625476D01*
X165425524Y-114673095D01*
X113156905Y-141692381D02*
X113156905Y-142501905D01*
X113109286Y-142597143D01*
X113061667Y-142644762D01*
X112966429Y-142692381D01*
X112775952Y-142692381D01*
X112680714Y-142644762D01*
X112633095Y-142597143D01*
X112585476Y-142501905D01*
X112585476Y-141692381D01*
X112204524Y-141692381D02*
X111585476Y-141692381D01*
X111918810Y-142073333D01*
X111775952Y-142073333D01*
X111680714Y-142120952D01*
X111633095Y-142168571D01*
X111585476Y-142263810D01*
X111585476Y-142501905D01*
X111633095Y-142597143D01*
X111680714Y-142644762D01*
X111775952Y-142692381D01*
X112061667Y-142692381D01*
X112156905Y-142644762D01*
X112204524Y-142597143D01*
X163028381Y-121158095D02*
X163837905Y-121158095D01*
X163933143Y-121205714D01*
X163980762Y-121253333D01*
X164028381Y-121348571D01*
X164028381Y-121539048D01*
X163980762Y-121634286D01*
X163933143Y-121681905D01*
X163837905Y-121729524D01*
X163028381Y-121729524D01*
X163028381Y-122634286D02*
X163028381Y-122443809D01*
X163076000Y-122348571D01*
X163123619Y-122300952D01*
X163266476Y-122205714D01*
X163456952Y-122158095D01*
X163837905Y-122158095D01*
X163933143Y-122205714D01*
X163980762Y-122253333D01*
X164028381Y-122348571D01*
X164028381Y-122539048D01*
X163980762Y-122634286D01*
X163933143Y-122681905D01*
X163837905Y-122729524D01*
X163599810Y-122729524D01*
X163504571Y-122681905D01*
X163456952Y-122634286D01*
X163409333Y-122539048D01*
X163409333Y-122348571D01*
X163456952Y-122253333D01*
X163504571Y-122205714D01*
X163599810Y-122158095D01*
X142327381Y-136398095D02*
X143136905Y-136398095D01*
X143232143Y-136445714D01*
X143279762Y-136493333D01*
X143327381Y-136588571D01*
X143327381Y-136779048D01*
X143279762Y-136874286D01*
X143232143Y-136921905D01*
X143136905Y-136969524D01*
X142327381Y-136969524D01*
X143327381Y-137493333D02*
X143327381Y-137683809D01*
X143279762Y-137779048D01*
X143232143Y-137826667D01*
X143089286Y-137921905D01*
X142898810Y-137969524D01*
X142517857Y-137969524D01*
X142422619Y-137921905D01*
X142375000Y-137874286D01*
X142327381Y-137779048D01*
X142327381Y-137588571D01*
X142375000Y-137493333D01*
X142422619Y-137445714D01*
X142517857Y-137398095D01*
X142755952Y-137398095D01*
X142851190Y-137445714D01*
X142898810Y-137493333D01*
X142946429Y-137588571D01*
X142946429Y-137779048D01*
X142898810Y-137874286D01*
X142851190Y-137921905D01*
X142755952Y-137969524D01*
X137128095Y-130897381D02*
X137128095Y-131706905D01*
X137080476Y-131802143D01*
X137032857Y-131849762D01*
X136937619Y-131897381D01*
X136747142Y-131897381D01*
X136651904Y-131849762D01*
X136604285Y-131802143D01*
X136556666Y-131706905D01*
X136556666Y-130897381D01*
X135556666Y-131897381D02*
X136128095Y-131897381D01*
X135842381Y-131897381D02*
X135842381Y-130897381D01*
X135937619Y-131040238D01*
X136032857Y-131135476D01*
X136128095Y-131183095D01*
X134937619Y-130897381D02*
X134842380Y-130897381D01*
X134747142Y-130945000D01*
X134699523Y-130992619D01*
X134651904Y-131087857D01*
X134604285Y-131278333D01*
X134604285Y-131516429D01*
X134651904Y-131706905D01*
X134699523Y-131802143D01*
X134747142Y-131849762D01*
X134842380Y-131897381D01*
X134937619Y-131897381D01*
X135032857Y-131849762D01*
X135080476Y-131802143D01*
X135128095Y-131706905D01*
X135175714Y-131516429D01*
X135175714Y-131278333D01*
X135128095Y-131087857D01*
X135080476Y-130992619D01*
X135032857Y-130945000D01*
X134937619Y-130897381D01*
X156694095Y-119197381D02*
X156694095Y-118197381D01*
X156456000Y-118197381D01*
X156313142Y-118245000D01*
X156217904Y-118340238D01*
X156170285Y-118435476D01*
X156122666Y-118625952D01*
X156122666Y-118768810D01*
X156170285Y-118959286D01*
X156217904Y-119054524D01*
X156313142Y-119149762D01*
X156456000Y-119197381D01*
X156694095Y-119197381D01*
X155217904Y-118197381D02*
X155694095Y-118197381D01*
X155741714Y-118673571D01*
X155694095Y-118625952D01*
X155598857Y-118578333D01*
X155360761Y-118578333D01*
X155265523Y-118625952D01*
X155217904Y-118673571D01*
X155170285Y-118768810D01*
X155170285Y-119006905D01*
X155217904Y-119102143D01*
X155265523Y-119149762D01*
X155360761Y-119197381D01*
X155598857Y-119197381D01*
X155694095Y-119149762D01*
X155741714Y-119102143D01*
X166854095Y-119197381D02*
X166854095Y-118197381D01*
X166616000Y-118197381D01*
X166473142Y-118245000D01*
X166377904Y-118340238D01*
X166330285Y-118435476D01*
X166282666Y-118625952D01*
X166282666Y-118768810D01*
X166330285Y-118959286D01*
X166377904Y-119054524D01*
X166473142Y-119149762D01*
X166616000Y-119197381D01*
X166854095Y-119197381D01*
X165425523Y-118197381D02*
X165616000Y-118197381D01*
X165711238Y-118245000D01*
X165758857Y-118292619D01*
X165854095Y-118435476D01*
X165901714Y-118625952D01*
X165901714Y-119006905D01*
X165854095Y-119102143D01*
X165806476Y-119149762D01*
X165711238Y-119197381D01*
X165520761Y-119197381D01*
X165425523Y-119149762D01*
X165377904Y-119102143D01*
X165330285Y-119006905D01*
X165330285Y-118768810D01*
X165377904Y-118673571D01*
X165425523Y-118625952D01*
X165520761Y-118578333D01*
X165711238Y-118578333D01*
X165806476Y-118625952D01*
X165854095Y-118673571D01*
X165901714Y-118768810D01*
X116308095Y-136977381D02*
X116308095Y-135977381D01*
X116070000Y-135977381D01*
X115927142Y-136025000D01*
X115831904Y-136120238D01*
X115784285Y-136215476D01*
X115736666Y-136405952D01*
X115736666Y-136548810D01*
X115784285Y-136739286D01*
X115831904Y-136834524D01*
X115927142Y-136929762D01*
X116070000Y-136977381D01*
X116308095Y-136977381D01*
X115355714Y-136072619D02*
X115308095Y-136025000D01*
X115212857Y-135977381D01*
X114974761Y-135977381D01*
X114879523Y-136025000D01*
X114831904Y-136072619D01*
X114784285Y-136167857D01*
X114784285Y-136263095D01*
X114831904Y-136405952D01*
X115403333Y-136977381D01*
X114784285Y-136977381D01*
X151487143Y-74763334D02*
X151534762Y-74715715D01*
X151582381Y-74572858D01*
X151582381Y-74477620D01*
X151534762Y-74334762D01*
X151439524Y-74239524D01*
X151344286Y-74191905D01*
X151153810Y-74144286D01*
X151010952Y-74144286D01*
X150820476Y-74191905D01*
X150725238Y-74239524D01*
X150630000Y-74334762D01*
X150582381Y-74477620D01*
X150582381Y-74572858D01*
X150630000Y-74715715D01*
X150677619Y-74763334D01*
X151582381Y-75239524D02*
X151582381Y-75430000D01*
X151534762Y-75525239D01*
X151487143Y-75572858D01*
X151344286Y-75668096D01*
X151153810Y-75715715D01*
X150772857Y-75715715D01*
X150677619Y-75668096D01*
X150630000Y-75620477D01*
X150582381Y-75525239D01*
X150582381Y-75334762D01*
X150630000Y-75239524D01*
X150677619Y-75191905D01*
X150772857Y-75144286D01*
X151010952Y-75144286D01*
X151106190Y-75191905D01*
X151153810Y-75239524D01*
X151201429Y-75334762D01*
X151201429Y-75525239D01*
X151153810Y-75620477D01*
X151106190Y-75668096D01*
X151010952Y-75715715D01*
X151487143Y-77462143D02*
X151534762Y-77414524D01*
X151582381Y-77271667D01*
X151582381Y-77176429D01*
X151534762Y-77033571D01*
X151439524Y-76938333D01*
X151344286Y-76890714D01*
X151153810Y-76843095D01*
X151010952Y-76843095D01*
X150820476Y-76890714D01*
X150725238Y-76938333D01*
X150630000Y-77033571D01*
X150582381Y-77176429D01*
X150582381Y-77271667D01*
X150630000Y-77414524D01*
X150677619Y-77462143D01*
X151582381Y-78414524D02*
X151582381Y-77843095D01*
X151582381Y-78128809D02*
X150582381Y-78128809D01*
X150725238Y-78033571D01*
X150820476Y-77938333D01*
X150868095Y-77843095D01*
X150582381Y-79033571D02*
X150582381Y-79128810D01*
X150630000Y-79224048D01*
X150677619Y-79271667D01*
X150772857Y-79319286D01*
X150963333Y-79366905D01*
X151201429Y-79366905D01*
X151391905Y-79319286D01*
X151487143Y-79271667D01*
X151534762Y-79224048D01*
X151582381Y-79128810D01*
X151582381Y-79033571D01*
X151534762Y-78938333D01*
X151487143Y-78890714D01*
X151391905Y-78843095D01*
X151201429Y-78795476D01*
X150963333Y-78795476D01*
X150772857Y-78843095D01*
X150677619Y-78890714D01*
X150630000Y-78938333D01*
X150582381Y-79033571D01*
X144946666Y-71477143D02*
X144994285Y-71524762D01*
X145137142Y-71572381D01*
X145232380Y-71572381D01*
X145375238Y-71524762D01*
X145470476Y-71429524D01*
X145518095Y-71334286D01*
X145565714Y-71143810D01*
X145565714Y-71000952D01*
X145518095Y-70810476D01*
X145470476Y-70715238D01*
X145375238Y-70620000D01*
X145232380Y-70572381D01*
X145137142Y-70572381D01*
X144994285Y-70620000D01*
X144946666Y-70667619D01*
X144613333Y-70572381D02*
X143994285Y-70572381D01*
X144327619Y-70953333D01*
X144184761Y-70953333D01*
X144089523Y-71000952D01*
X144041904Y-71048571D01*
X143994285Y-71143810D01*
X143994285Y-71381905D01*
X144041904Y-71477143D01*
X144089523Y-71524762D01*
X144184761Y-71572381D01*
X144470476Y-71572381D01*
X144565714Y-71524762D01*
X144613333Y-71477143D01*
X146407143Y-73493334D02*
X146454762Y-73445715D01*
X146502381Y-73302858D01*
X146502381Y-73207620D01*
X146454762Y-73064762D01*
X146359524Y-72969524D01*
X146264286Y-72921905D01*
X146073810Y-72874286D01*
X145930952Y-72874286D01*
X145740476Y-72921905D01*
X145645238Y-72969524D01*
X145550000Y-73064762D01*
X145502381Y-73207620D01*
X145502381Y-73302858D01*
X145550000Y-73445715D01*
X145597619Y-73493334D01*
X145835714Y-74350477D02*
X146502381Y-74350477D01*
X145454762Y-74112381D02*
X146169048Y-73874286D01*
X146169048Y-74493334D01*
X144946666Y-76557143D02*
X144994285Y-76604762D01*
X145137142Y-76652381D01*
X145232380Y-76652381D01*
X145375238Y-76604762D01*
X145470476Y-76509524D01*
X145518095Y-76414286D01*
X145565714Y-76223810D01*
X145565714Y-76080952D01*
X145518095Y-75890476D01*
X145470476Y-75795238D01*
X145375238Y-75700000D01*
X145232380Y-75652381D01*
X145137142Y-75652381D01*
X144994285Y-75700000D01*
X144946666Y-75747619D01*
X144089523Y-75652381D02*
X144280000Y-75652381D01*
X144375238Y-75700000D01*
X144422857Y-75747619D01*
X144518095Y-75890476D01*
X144565714Y-76080952D01*
X144565714Y-76461905D01*
X144518095Y-76557143D01*
X144470476Y-76604762D01*
X144375238Y-76652381D01*
X144184761Y-76652381D01*
X144089523Y-76604762D01*
X144041904Y-76557143D01*
X143994285Y-76461905D01*
X143994285Y-76223810D01*
X144041904Y-76128571D01*
X144089523Y-76080952D01*
X144184761Y-76033333D01*
X144375238Y-76033333D01*
X144470476Y-76080952D01*
X144518095Y-76128571D01*
X144565714Y-76223810D01*
X146407143Y-78573334D02*
X146454762Y-78525715D01*
X146502381Y-78382858D01*
X146502381Y-78287620D01*
X146454762Y-78144762D01*
X146359524Y-78049524D01*
X146264286Y-78001905D01*
X146073810Y-77954286D01*
X145930952Y-77954286D01*
X145740476Y-78001905D01*
X145645238Y-78049524D01*
X145550000Y-78144762D01*
X145502381Y-78287620D01*
X145502381Y-78382858D01*
X145550000Y-78525715D01*
X145597619Y-78573334D01*
X145930952Y-79144762D02*
X145883333Y-79049524D01*
X145835714Y-79001905D01*
X145740476Y-78954286D01*
X145692857Y-78954286D01*
X145597619Y-79001905D01*
X145550000Y-79049524D01*
X145502381Y-79144762D01*
X145502381Y-79335239D01*
X145550000Y-79430477D01*
X145597619Y-79478096D01*
X145692857Y-79525715D01*
X145740476Y-79525715D01*
X145835714Y-79478096D01*
X145883333Y-79430477D01*
X145930952Y-79335239D01*
X145930952Y-79144762D01*
X145978571Y-79049524D01*
X146026190Y-79001905D01*
X146121429Y-78954286D01*
X146311905Y-78954286D01*
X146407143Y-79001905D01*
X146454762Y-79049524D01*
X146502381Y-79144762D01*
X146502381Y-79335239D01*
X146454762Y-79430477D01*
X146407143Y-79478096D01*
X146311905Y-79525715D01*
X146121429Y-79525715D01*
X146026190Y-79478096D01*
X145978571Y-79430477D01*
X145930952Y-79335239D01*
X143001905Y-73112381D02*
X143001905Y-73921905D01*
X142954286Y-74017143D01*
X142906667Y-74064762D01*
X142811429Y-74112381D01*
X142620952Y-74112381D01*
X142525714Y-74064762D01*
X142478095Y-74017143D01*
X142430476Y-73921905D01*
X142430476Y-73112381D01*
X141430476Y-74112381D02*
X142001905Y-74112381D01*
X141716191Y-74112381D02*
X141716191Y-73112381D01*
X141811429Y-73255238D01*
X141906667Y-73350476D01*
X142001905Y-73398095D01*
X143001905Y-78192381D02*
X143001905Y-79001905D01*
X142954286Y-79097143D01*
X142906667Y-79144762D01*
X142811429Y-79192381D01*
X142620952Y-79192381D01*
X142525714Y-79144762D01*
X142478095Y-79097143D01*
X142430476Y-79001905D01*
X142430476Y-78192381D01*
X141525714Y-78525714D02*
X141525714Y-79192381D01*
X141763810Y-78144762D02*
X142001905Y-78859048D01*
X141382857Y-78859048D01*
X147772381Y-105402143D02*
X147296190Y-105068809D01*
X147772381Y-104830714D02*
X146772381Y-104830714D01*
X146772381Y-105211667D01*
X146820000Y-105306905D01*
X146867619Y-105354524D01*
X146962857Y-105402143D01*
X147105714Y-105402143D01*
X147200952Y-105354524D01*
X147248571Y-105306905D01*
X147296190Y-105211667D01*
X147296190Y-104830714D01*
X146867619Y-105783095D02*
X146820000Y-105830714D01*
X146772381Y-105925952D01*
X146772381Y-106164048D01*
X146820000Y-106259286D01*
X146867619Y-106306905D01*
X146962857Y-106354524D01*
X147058095Y-106354524D01*
X147200952Y-106306905D01*
X147772381Y-105735476D01*
X147772381Y-106354524D01*
X147200952Y-106925952D02*
X147153333Y-106830714D01*
X147105714Y-106783095D01*
X147010476Y-106735476D01*
X146962857Y-106735476D01*
X146867619Y-106783095D01*
X146820000Y-106830714D01*
X146772381Y-106925952D01*
X146772381Y-107116429D01*
X146820000Y-107211667D01*
X146867619Y-107259286D01*
X146962857Y-107306905D01*
X147010476Y-107306905D01*
X147105714Y-107259286D01*
X147153333Y-107211667D01*
X147200952Y-107116429D01*
X147200952Y-106925952D01*
X147248571Y-106830714D01*
X147296190Y-106783095D01*
X147391429Y-106735476D01*
X147581905Y-106735476D01*
X147677143Y-106783095D01*
X147724762Y-106830714D01*
X147772381Y-106925952D01*
X147772381Y-107116429D01*
X147724762Y-107211667D01*
X147677143Y-107259286D01*
X147581905Y-107306905D01*
X147391429Y-107306905D01*
X147296190Y-107259286D01*
X147248571Y-107211667D01*
X147200952Y-107116429D01*
X109799286Y-143962381D02*
X109799286Y-142962381D01*
X109561191Y-142962381D01*
X109418333Y-143010000D01*
X109323095Y-143105238D01*
X109275476Y-143200476D01*
X109227857Y-143390952D01*
X109227857Y-143533810D01*
X109275476Y-143724286D01*
X109323095Y-143819524D01*
X109418333Y-143914762D01*
X109561191Y-143962381D01*
X109799286Y-143962381D01*
X108275476Y-143962381D02*
X108846905Y-143962381D01*
X108561191Y-143962381D02*
X108561191Y-142962381D01*
X108656429Y-143105238D01*
X108751667Y-143200476D01*
X108846905Y-143248095D01*
X107799286Y-143962381D02*
X107608810Y-143962381D01*
X107513571Y-143914762D01*
X107465952Y-143867143D01*
X107370714Y-143724286D01*
X107323095Y-143533810D01*
X107323095Y-143152857D01*
X107370714Y-143057619D01*
X107418333Y-143010000D01*
X107513571Y-142962381D01*
X107704048Y-142962381D01*
X107799286Y-143010000D01*
X107846905Y-143057619D01*
X107894524Y-143152857D01*
X107894524Y-143390952D01*
X107846905Y-143486190D01*
X107799286Y-143533810D01*
X107704048Y-143581429D01*
X107513571Y-143581429D01*
X107418333Y-143533810D01*
X107370714Y-143486190D01*
X107323095Y-143390952D01*
M02*
