G04 #@! TF.FileFunction,Legend,Top*
%FSLAX46Y46*%
G04 Gerber Fmt 4.6, Leading zero omitted, Abs format (unit mm)*
G04 Created by KiCad (PCBNEW 4.0.7) date 08/13/18 20:17:20*
%MOMM*%
%LPD*%
G01*
G04 APERTURE LIST*
%ADD10C,0.100000*%
%ADD11C,0.150000*%
%ADD12C,0.120000*%
G04 APERTURE END LIST*
D10*
X133350000Y-71755000D02*
X133350000Y-74295000D01*
X134620000Y-74295000D02*
X134620000Y-75565000D01*
X133350000Y-75565000D02*
X133350000Y-78105000D01*
D11*
X132167381Y-77025476D02*
X132167381Y-77501667D01*
X132643571Y-77549286D01*
X132595952Y-77501667D01*
X132548333Y-77406429D01*
X132548333Y-77168333D01*
X132595952Y-77073095D01*
X132643571Y-77025476D01*
X132738810Y-76977857D01*
X132976905Y-76977857D01*
X133072143Y-77025476D01*
X133119762Y-77073095D01*
X133167381Y-77168333D01*
X133167381Y-77406429D01*
X133119762Y-77501667D01*
X133072143Y-77549286D01*
X132167381Y-76692143D02*
X133167381Y-76358810D01*
X132167381Y-76025476D01*
X132167381Y-74263095D02*
X132167381Y-73644047D01*
X132548333Y-73977381D01*
X132548333Y-73834523D01*
X132595952Y-73739285D01*
X132643571Y-73691666D01*
X132738810Y-73644047D01*
X132976905Y-73644047D01*
X133072143Y-73691666D01*
X133119762Y-73739285D01*
X133167381Y-73834523D01*
X133167381Y-74120238D01*
X133119762Y-74215476D01*
X133072143Y-74263095D01*
X132167381Y-73358333D02*
X133167381Y-73025000D01*
X132167381Y-72691666D01*
X132167381Y-72453571D02*
X132167381Y-71834523D01*
X132548333Y-72167857D01*
X132548333Y-72024999D01*
X132595952Y-71929761D01*
X132643571Y-71882142D01*
X132738810Y-71834523D01*
X132976905Y-71834523D01*
X133072143Y-71882142D01*
X133119762Y-71929761D01*
X133167381Y-72024999D01*
X133167381Y-72310714D01*
X133119762Y-72405952D01*
X133072143Y-72453571D01*
D10*
X133350000Y-75565000D02*
X134620000Y-75565000D01*
X134620000Y-78105000D02*
X133350000Y-78105000D01*
X134620000Y-74295000D02*
X133350000Y-74295000D01*
X133350000Y-71755000D02*
X134620000Y-71755000D01*
D11*
X130016905Y-145978571D02*
X130159762Y-146026190D01*
X130207381Y-146073810D01*
X130255000Y-146169048D01*
X130255000Y-146311905D01*
X130207381Y-146407143D01*
X130159762Y-146454762D01*
X130064524Y-146502381D01*
X129683571Y-146502381D01*
X129683571Y-145502381D01*
X130016905Y-145502381D01*
X130112143Y-145550000D01*
X130159762Y-145597619D01*
X130207381Y-145692857D01*
X130207381Y-145788095D01*
X130159762Y-145883333D01*
X130112143Y-145930952D01*
X130016905Y-145978571D01*
X129683571Y-145978571D01*
X131112143Y-145835714D02*
X131112143Y-146502381D01*
X130683571Y-145835714D02*
X130683571Y-146359524D01*
X130731190Y-146454762D01*
X130826428Y-146502381D01*
X130969286Y-146502381D01*
X131064524Y-146454762D01*
X131112143Y-146407143D01*
X132016905Y-146454762D02*
X131921667Y-146502381D01*
X131731190Y-146502381D01*
X131635952Y-146454762D01*
X131588333Y-146407143D01*
X131540714Y-146311905D01*
X131540714Y-146026190D01*
X131588333Y-145930952D01*
X131635952Y-145883333D01*
X131731190Y-145835714D01*
X131921667Y-145835714D01*
X132016905Y-145883333D01*
X132445476Y-146502381D02*
X132445476Y-145502381D01*
X132540714Y-146121429D02*
X132826429Y-146502381D01*
X132826429Y-145835714D02*
X132445476Y-146216667D01*
X133255000Y-146121429D02*
X134016905Y-146121429D01*
X134826429Y-145978571D02*
X134969286Y-146026190D01*
X135016905Y-146073810D01*
X135064524Y-146169048D01*
X135064524Y-146311905D01*
X135016905Y-146407143D01*
X134969286Y-146454762D01*
X134874048Y-146502381D01*
X134493095Y-146502381D01*
X134493095Y-145502381D01*
X134826429Y-145502381D01*
X134921667Y-145550000D01*
X134969286Y-145597619D01*
X135016905Y-145692857D01*
X135016905Y-145788095D01*
X134969286Y-145883333D01*
X134921667Y-145930952D01*
X134826429Y-145978571D01*
X134493095Y-145978571D01*
X135635952Y-146502381D02*
X135540714Y-146454762D01*
X135493095Y-146407143D01*
X135445476Y-146311905D01*
X135445476Y-146026190D01*
X135493095Y-145930952D01*
X135540714Y-145883333D01*
X135635952Y-145835714D01*
X135778810Y-145835714D01*
X135874048Y-145883333D01*
X135921667Y-145930952D01*
X135969286Y-146026190D01*
X135969286Y-146311905D01*
X135921667Y-146407143D01*
X135874048Y-146454762D01*
X135778810Y-146502381D01*
X135635952Y-146502381D01*
X136540714Y-146502381D02*
X136445476Y-146454762D01*
X136397857Y-146407143D01*
X136350238Y-146311905D01*
X136350238Y-146026190D01*
X136397857Y-145930952D01*
X136445476Y-145883333D01*
X136540714Y-145835714D01*
X136683572Y-145835714D01*
X136778810Y-145883333D01*
X136826429Y-145930952D01*
X136874048Y-146026190D01*
X136874048Y-146311905D01*
X136826429Y-146407143D01*
X136778810Y-146454762D01*
X136683572Y-146502381D01*
X136540714Y-146502381D01*
X137255000Y-146454762D02*
X137350238Y-146502381D01*
X137540714Y-146502381D01*
X137635953Y-146454762D01*
X137683572Y-146359524D01*
X137683572Y-146311905D01*
X137635953Y-146216667D01*
X137540714Y-146169048D01*
X137397857Y-146169048D01*
X137302619Y-146121429D01*
X137255000Y-146026190D01*
X137255000Y-145978571D01*
X137302619Y-145883333D01*
X137397857Y-145835714D01*
X137540714Y-145835714D01*
X137635953Y-145883333D01*
X137969286Y-145835714D02*
X138350238Y-145835714D01*
X138112143Y-145502381D02*
X138112143Y-146359524D01*
X138159762Y-146454762D01*
X138255000Y-146502381D01*
X138350238Y-146502381D01*
X138683572Y-146121429D02*
X139445477Y-146121429D01*
X139921667Y-146502381D02*
X139921667Y-145502381D01*
X140397857Y-145835714D02*
X140397857Y-146502381D01*
X140397857Y-145930952D02*
X140445476Y-145883333D01*
X140540714Y-145835714D01*
X140683572Y-145835714D01*
X140778810Y-145883333D01*
X140826429Y-145978571D01*
X140826429Y-146502381D01*
X143415476Y-145978571D02*
X143558333Y-146026190D01*
X143605952Y-146073810D01*
X143653571Y-146169048D01*
X143653571Y-146311905D01*
X143605952Y-146407143D01*
X143558333Y-146454762D01*
X143463095Y-146502381D01*
X143082142Y-146502381D01*
X143082142Y-145502381D01*
X143415476Y-145502381D01*
X143510714Y-145550000D01*
X143558333Y-145597619D01*
X143605952Y-145692857D01*
X143605952Y-145788095D01*
X143558333Y-145883333D01*
X143510714Y-145930952D01*
X143415476Y-145978571D01*
X143082142Y-145978571D01*
X144510714Y-145835714D02*
X144510714Y-146502381D01*
X144082142Y-145835714D02*
X144082142Y-146359524D01*
X144129761Y-146454762D01*
X144224999Y-146502381D01*
X144367857Y-146502381D01*
X144463095Y-146454762D01*
X144510714Y-146407143D01*
X145415476Y-146454762D02*
X145320238Y-146502381D01*
X145129761Y-146502381D01*
X145034523Y-146454762D01*
X144986904Y-146407143D01*
X144939285Y-146311905D01*
X144939285Y-146026190D01*
X144986904Y-145930952D01*
X145034523Y-145883333D01*
X145129761Y-145835714D01*
X145320238Y-145835714D01*
X145415476Y-145883333D01*
X145844047Y-146502381D02*
X145844047Y-145502381D01*
X145939285Y-146121429D02*
X146225000Y-146502381D01*
X146225000Y-145835714D02*
X145844047Y-146216667D01*
X146653571Y-146121429D02*
X147415476Y-146121429D01*
X148225000Y-145978571D02*
X148367857Y-146026190D01*
X148415476Y-146073810D01*
X148463095Y-146169048D01*
X148463095Y-146311905D01*
X148415476Y-146407143D01*
X148367857Y-146454762D01*
X148272619Y-146502381D01*
X147891666Y-146502381D01*
X147891666Y-145502381D01*
X148225000Y-145502381D01*
X148320238Y-145550000D01*
X148367857Y-145597619D01*
X148415476Y-145692857D01*
X148415476Y-145788095D01*
X148367857Y-145883333D01*
X148320238Y-145930952D01*
X148225000Y-145978571D01*
X147891666Y-145978571D01*
X149034523Y-146502381D02*
X148939285Y-146454762D01*
X148891666Y-146407143D01*
X148844047Y-146311905D01*
X148844047Y-146026190D01*
X148891666Y-145930952D01*
X148939285Y-145883333D01*
X149034523Y-145835714D01*
X149177381Y-145835714D01*
X149272619Y-145883333D01*
X149320238Y-145930952D01*
X149367857Y-146026190D01*
X149367857Y-146311905D01*
X149320238Y-146407143D01*
X149272619Y-146454762D01*
X149177381Y-146502381D01*
X149034523Y-146502381D01*
X149939285Y-146502381D02*
X149844047Y-146454762D01*
X149796428Y-146407143D01*
X149748809Y-146311905D01*
X149748809Y-146026190D01*
X149796428Y-145930952D01*
X149844047Y-145883333D01*
X149939285Y-145835714D01*
X150082143Y-145835714D01*
X150177381Y-145883333D01*
X150225000Y-145930952D01*
X150272619Y-146026190D01*
X150272619Y-146311905D01*
X150225000Y-146407143D01*
X150177381Y-146454762D01*
X150082143Y-146502381D01*
X149939285Y-146502381D01*
X150653571Y-146454762D02*
X150748809Y-146502381D01*
X150939285Y-146502381D01*
X151034524Y-146454762D01*
X151082143Y-146359524D01*
X151082143Y-146311905D01*
X151034524Y-146216667D01*
X150939285Y-146169048D01*
X150796428Y-146169048D01*
X150701190Y-146121429D01*
X150653571Y-146026190D01*
X150653571Y-145978571D01*
X150701190Y-145883333D01*
X150796428Y-145835714D01*
X150939285Y-145835714D01*
X151034524Y-145883333D01*
X151367857Y-145835714D02*
X151748809Y-145835714D01*
X151510714Y-145502381D02*
X151510714Y-146359524D01*
X151558333Y-146454762D01*
X151653571Y-146502381D01*
X151748809Y-146502381D01*
X152082143Y-146121429D02*
X152844048Y-146121429D01*
X153510714Y-145502381D02*
X153701191Y-145502381D01*
X153796429Y-145550000D01*
X153891667Y-145645238D01*
X153939286Y-145835714D01*
X153939286Y-146169048D01*
X153891667Y-146359524D01*
X153796429Y-146454762D01*
X153701191Y-146502381D01*
X153510714Y-146502381D01*
X153415476Y-146454762D01*
X153320238Y-146359524D01*
X153272619Y-146169048D01*
X153272619Y-145835714D01*
X153320238Y-145645238D01*
X153415476Y-145550000D01*
X153510714Y-145502381D01*
X154796429Y-145835714D02*
X154796429Y-146502381D01*
X154367857Y-145835714D02*
X154367857Y-146359524D01*
X154415476Y-146454762D01*
X154510714Y-146502381D01*
X154653572Y-146502381D01*
X154748810Y-146454762D01*
X154796429Y-146407143D01*
X155129762Y-145835714D02*
X155510714Y-145835714D01*
X155272619Y-145502381D02*
X155272619Y-146359524D01*
X155320238Y-146454762D01*
X155415476Y-146502381D01*
X155510714Y-146502381D01*
D10*
X105410000Y-78740000D02*
X100330000Y-78740000D01*
X110490000Y-78740000D02*
X105410000Y-78740000D01*
X151130000Y-111125000D02*
X151130000Y-108585000D01*
X149860000Y-112395000D02*
X149860000Y-111125000D01*
X151130000Y-114935000D02*
X151130000Y-112395000D01*
X149860000Y-111125000D02*
X151130000Y-111125000D01*
X151130000Y-108585000D02*
X149860000Y-108585000D01*
X149860000Y-112395000D02*
X151130000Y-112395000D01*
X151130000Y-114935000D02*
X149860000Y-114935000D01*
D11*
X135390000Y-105227381D02*
X135390000Y-104227381D01*
X136437619Y-105227381D02*
X136104285Y-104751190D01*
X135866190Y-105227381D02*
X135866190Y-104227381D01*
X136247143Y-104227381D01*
X136342381Y-104275000D01*
X136390000Y-104322619D01*
X136437619Y-104417857D01*
X136437619Y-104560714D01*
X136390000Y-104655952D01*
X136342381Y-104703571D01*
X136247143Y-104751190D01*
X135866190Y-104751190D01*
X152312619Y-113474524D02*
X152312619Y-112998333D01*
X151836429Y-112950714D01*
X151884048Y-112998333D01*
X151931667Y-113093571D01*
X151931667Y-113331667D01*
X151884048Y-113426905D01*
X151836429Y-113474524D01*
X151741190Y-113522143D01*
X151503095Y-113522143D01*
X151407857Y-113474524D01*
X151360238Y-113426905D01*
X151312619Y-113331667D01*
X151312619Y-113093571D01*
X151360238Y-112998333D01*
X151407857Y-112950714D01*
X152312619Y-113807857D02*
X151312619Y-114141190D01*
X152312619Y-114474524D01*
D10*
X146050000Y-71755000D02*
X147320000Y-71755000D01*
X147320000Y-74295000D02*
X146050000Y-74295000D01*
X147320000Y-78105000D02*
X146050000Y-78105000D01*
X146050000Y-75565000D02*
X147320000Y-75565000D01*
D11*
X120459523Y-81494286D02*
X120459523Y-80827619D01*
X120697619Y-81875238D02*
X120935714Y-81160952D01*
X120316666Y-81160952D01*
X123523333Y-81827619D02*
X122904285Y-81827619D01*
X123237619Y-81446667D01*
X123094761Y-81446667D01*
X122999523Y-81399048D01*
X122951904Y-81351429D01*
X122904285Y-81256190D01*
X122904285Y-81018095D01*
X122951904Y-80922857D01*
X122999523Y-80875238D01*
X123094761Y-80827619D01*
X123380476Y-80827619D01*
X123475714Y-80875238D01*
X123523333Y-80922857D01*
X126015714Y-81732381D02*
X125968095Y-81780000D01*
X125872857Y-81827619D01*
X125634761Y-81827619D01*
X125539523Y-81780000D01*
X125491904Y-81732381D01*
X125444285Y-81637143D01*
X125444285Y-81541905D01*
X125491904Y-81399048D01*
X126063333Y-80827619D01*
X125444285Y-80827619D01*
X127984285Y-80827619D02*
X128555714Y-80827619D01*
X128270000Y-80827619D02*
X128270000Y-81827619D01*
X128365238Y-81684762D01*
X128460476Y-81589524D01*
X128555714Y-81541905D01*
X140025238Y-81827619D02*
X140025238Y-81018095D01*
X139977619Y-80922857D01*
X139930000Y-80875238D01*
X139834762Y-80827619D01*
X139644285Y-80827619D01*
X139549047Y-80875238D01*
X139501428Y-80922857D01*
X139453809Y-81018095D01*
X139453809Y-81827619D01*
X139025238Y-81113333D02*
X138549047Y-81113333D01*
X139120476Y-80827619D02*
X138787143Y-81827619D01*
X138453809Y-80827619D01*
X137549047Y-80827619D02*
X137882381Y-81303810D01*
X138120476Y-80827619D02*
X138120476Y-81827619D01*
X137739523Y-81827619D01*
X137644285Y-81780000D01*
X137596666Y-81732381D01*
X137549047Y-81637143D01*
X137549047Y-81494286D01*
X137596666Y-81399048D01*
X137644285Y-81351429D01*
X137739523Y-81303810D01*
X138120476Y-81303810D01*
X137263333Y-81827619D02*
X136691904Y-81827619D01*
X136977619Y-80827619D02*
X136977619Y-81827619D01*
X113728333Y-74207619D02*
X113395000Y-73207619D01*
X113061666Y-74207619D01*
X112156904Y-73302857D02*
X112204523Y-73255238D01*
X112347380Y-73207619D01*
X112442618Y-73207619D01*
X112585476Y-73255238D01*
X112680714Y-73350476D01*
X112728333Y-73445714D01*
X112775952Y-73636190D01*
X112775952Y-73779048D01*
X112728333Y-73969524D01*
X112680714Y-74064762D01*
X112585476Y-74160000D01*
X112442618Y-74207619D01*
X112347380Y-74207619D01*
X112204523Y-74160000D01*
X112156904Y-74112381D01*
X111156904Y-73302857D02*
X111204523Y-73255238D01*
X111347380Y-73207619D01*
X111442618Y-73207619D01*
X111585476Y-73255238D01*
X111680714Y-73350476D01*
X111728333Y-73445714D01*
X111775952Y-73636190D01*
X111775952Y-73779048D01*
X111728333Y-73969524D01*
X111680714Y-74064762D01*
X111585476Y-74160000D01*
X111442618Y-74207619D01*
X111347380Y-74207619D01*
X111204523Y-74160000D01*
X111156904Y-74112381D01*
X113156904Y-71620000D02*
X113252142Y-71667619D01*
X113394999Y-71667619D01*
X113537857Y-71620000D01*
X113633095Y-71524762D01*
X113680714Y-71429524D01*
X113728333Y-71239048D01*
X113728333Y-71096190D01*
X113680714Y-70905714D01*
X113633095Y-70810476D01*
X113537857Y-70715238D01*
X113394999Y-70667619D01*
X113299761Y-70667619D01*
X113156904Y-70715238D01*
X113109285Y-70762857D01*
X113109285Y-71096190D01*
X113299761Y-71096190D01*
X112680714Y-70667619D02*
X112680714Y-71667619D01*
X112109285Y-70667619D01*
X112109285Y-71667619D01*
X111633095Y-70667619D02*
X111633095Y-71667619D01*
X111395000Y-71667619D01*
X111252142Y-71620000D01*
X111156904Y-71524762D01*
X111109285Y-71429524D01*
X111061666Y-71239048D01*
X111061666Y-71096190D01*
X111109285Y-70905714D01*
X111156904Y-70810476D01*
X111252142Y-70715238D01*
X111395000Y-70667619D01*
X111633095Y-70667619D01*
X120681905Y-104941667D02*
X121158096Y-104941667D01*
X120586667Y-105227381D02*
X120920000Y-104227381D01*
X121253334Y-105227381D01*
X121586667Y-105227381D02*
X121586667Y-104227381D01*
X121824762Y-104227381D01*
X121967620Y-104275000D01*
X122062858Y-104370238D01*
X122110477Y-104465476D01*
X122158096Y-104655952D01*
X122158096Y-104798810D01*
X122110477Y-104989286D01*
X122062858Y-105084524D01*
X121967620Y-105179762D01*
X121824762Y-105227381D01*
X121586667Y-105227381D01*
X123158096Y-105132143D02*
X123110477Y-105179762D01*
X122967620Y-105227381D01*
X122872382Y-105227381D01*
X122729524Y-105179762D01*
X122634286Y-105084524D01*
X122586667Y-104989286D01*
X122539048Y-104798810D01*
X122539048Y-104655952D01*
X122586667Y-104465476D01*
X122634286Y-104370238D01*
X122729524Y-104275000D01*
X122872382Y-104227381D01*
X122967620Y-104227381D01*
X123110477Y-104275000D01*
X123158096Y-104322619D01*
D10*
X85153500Y-100520500D02*
G75*
G03X85153500Y-100520500I-635000J0D01*
G01*
X85153500Y-102171500D02*
G75*
G03X85153500Y-102171500I-635000J0D01*
G01*
X90233500Y-100520500D02*
G75*
G03X90233500Y-100520500I-635000J0D01*
G01*
X90233500Y-102171500D02*
G75*
G03X90233500Y-102171500I-635000J0D01*
G01*
X87693500Y-102171500D02*
G75*
G03X87693500Y-102171500I-635000J0D01*
G01*
X87693500Y-100520500D02*
G75*
G03X87693500Y-100520500I-635000J0D01*
G01*
X92773500Y-100520500D02*
G75*
G03X92773500Y-100520500I-635000J0D01*
G01*
X92773500Y-102171500D02*
G75*
G03X92773500Y-102171500I-635000J0D01*
G01*
X95313500Y-102171500D02*
G75*
G03X95313500Y-102171500I-635000J0D01*
G01*
X95313500Y-100520500D02*
G75*
G03X95313500Y-100520500I-635000J0D01*
G01*
D11*
X95162619Y-103949524D02*
X95162619Y-103473333D01*
X94686429Y-103425714D01*
X94734048Y-103473333D01*
X94781667Y-103568571D01*
X94781667Y-103806667D01*
X94734048Y-103901905D01*
X94686429Y-103949524D01*
X94591190Y-103997143D01*
X94353095Y-103997143D01*
X94257857Y-103949524D01*
X94210238Y-103901905D01*
X94162619Y-103806667D01*
X94162619Y-103568571D01*
X94210238Y-103473333D01*
X94257857Y-103425714D01*
X95162619Y-104282857D02*
X94162619Y-104616190D01*
X95162619Y-104949524D01*
X84002619Y-103370238D02*
X85002619Y-103370238D01*
X85002619Y-103751191D01*
X84955000Y-103846429D01*
X84907381Y-103894048D01*
X84812143Y-103941667D01*
X84669286Y-103941667D01*
X84574048Y-103894048D01*
X84526429Y-103846429D01*
X84478810Y-103751191D01*
X84478810Y-103370238D01*
X85002619Y-104275000D02*
X84002619Y-104513095D01*
X84716905Y-104703572D01*
X84002619Y-104894048D01*
X85002619Y-105132143D01*
X84002619Y-105513095D02*
X85002619Y-105513095D01*
X84288333Y-105846429D01*
X85002619Y-106179762D01*
X84002619Y-106179762D01*
X159202381Y-115871428D02*
X158202381Y-115871428D01*
X158916667Y-115538094D01*
X158202381Y-115204761D01*
X159202381Y-115204761D01*
X158202381Y-114538095D02*
X158202381Y-114347618D01*
X158250000Y-114252380D01*
X158345238Y-114157142D01*
X158535714Y-114109523D01*
X158869048Y-114109523D01*
X159059524Y-114157142D01*
X159154762Y-114252380D01*
X159202381Y-114347618D01*
X159202381Y-114538095D01*
X159154762Y-114633333D01*
X159059524Y-114728571D01*
X158869048Y-114776190D01*
X158535714Y-114776190D01*
X158345238Y-114728571D01*
X158250000Y-114633333D01*
X158202381Y-114538095D01*
X159154762Y-113728571D02*
X159202381Y-113585714D01*
X159202381Y-113347618D01*
X159154762Y-113252380D01*
X159107143Y-113204761D01*
X159011905Y-113157142D01*
X158916667Y-113157142D01*
X158821429Y-113204761D01*
X158773810Y-113252380D01*
X158726190Y-113347618D01*
X158678571Y-113538095D01*
X158630952Y-113633333D01*
X158583333Y-113680952D01*
X158488095Y-113728571D01*
X158392857Y-113728571D01*
X158297619Y-113680952D01*
X158250000Y-113633333D01*
X158202381Y-113538095D01*
X158202381Y-113299999D01*
X158250000Y-113157142D01*
X159202381Y-112728571D02*
X158202381Y-112728571D01*
X91622619Y-103513096D02*
X92622619Y-103513096D01*
X91622619Y-104084525D01*
X92622619Y-104084525D01*
X91717857Y-104560715D02*
X91670238Y-104608334D01*
X91622619Y-104560715D01*
X91670238Y-104513096D01*
X91717857Y-104560715D01*
X91622619Y-104560715D01*
X91717857Y-105608334D02*
X91670238Y-105560715D01*
X91622619Y-105417858D01*
X91622619Y-105322620D01*
X91670238Y-105179762D01*
X91765476Y-105084524D01*
X91860714Y-105036905D01*
X92051190Y-104989286D01*
X92194048Y-104989286D01*
X92384524Y-105036905D01*
X92479762Y-105084524D01*
X92575000Y-105179762D01*
X92622619Y-105322620D01*
X92622619Y-105417858D01*
X92575000Y-105560715D01*
X92527381Y-105608334D01*
X91717857Y-106036905D02*
X91670238Y-106084524D01*
X91622619Y-106036905D01*
X91670238Y-105989286D01*
X91717857Y-106036905D01*
X91622619Y-106036905D01*
X89082619Y-103513096D02*
X90082619Y-103513096D01*
X89082619Y-104084525D01*
X90082619Y-104084525D01*
X89177857Y-104560715D02*
X89130238Y-104608334D01*
X89082619Y-104560715D01*
X89130238Y-104513096D01*
X89177857Y-104560715D01*
X89082619Y-104560715D01*
X89177857Y-105608334D02*
X89130238Y-105560715D01*
X89082619Y-105417858D01*
X89082619Y-105322620D01*
X89130238Y-105179762D01*
X89225476Y-105084524D01*
X89320714Y-105036905D01*
X89511190Y-104989286D01*
X89654048Y-104989286D01*
X89844524Y-105036905D01*
X89939762Y-105084524D01*
X90035000Y-105179762D01*
X90082619Y-105322620D01*
X90082619Y-105417858D01*
X90035000Y-105560715D01*
X89987381Y-105608334D01*
X89177857Y-106036905D02*
X89130238Y-106084524D01*
X89082619Y-106036905D01*
X89130238Y-105989286D01*
X89177857Y-106036905D01*
X89082619Y-106036905D01*
X86542619Y-103513096D02*
X87542619Y-103513096D01*
X86542619Y-104084525D01*
X87542619Y-104084525D01*
X86637857Y-104560715D02*
X86590238Y-104608334D01*
X86542619Y-104560715D01*
X86590238Y-104513096D01*
X86637857Y-104560715D01*
X86542619Y-104560715D01*
X86637857Y-105608334D02*
X86590238Y-105560715D01*
X86542619Y-105417858D01*
X86542619Y-105322620D01*
X86590238Y-105179762D01*
X86685476Y-105084524D01*
X86780714Y-105036905D01*
X86971190Y-104989286D01*
X87114048Y-104989286D01*
X87304524Y-105036905D01*
X87399762Y-105084524D01*
X87495000Y-105179762D01*
X87542619Y-105322620D01*
X87542619Y-105417858D01*
X87495000Y-105560715D01*
X87447381Y-105608334D01*
X86637857Y-106036905D02*
X86590238Y-106084524D01*
X86542619Y-106036905D01*
X86590238Y-105989286D01*
X86637857Y-106036905D01*
X86542619Y-106036905D01*
X84526429Y-96861429D02*
X84526429Y-96528095D01*
X84002619Y-96528095D02*
X85002619Y-96528095D01*
X85002619Y-97004286D01*
X85002619Y-97290000D02*
X84002619Y-97528095D01*
X84716905Y-97718572D01*
X84002619Y-97909048D01*
X85002619Y-98147143D01*
X84002619Y-98528095D02*
X85002619Y-98528095D01*
X85002619Y-98766190D01*
X84955000Y-98909048D01*
X84859762Y-99004286D01*
X84764524Y-99051905D01*
X84574048Y-99099524D01*
X84431190Y-99099524D01*
X84240714Y-99051905D01*
X84145476Y-99004286D01*
X84050238Y-98909048D01*
X84002619Y-98766190D01*
X84002619Y-98528095D01*
X87066429Y-96861429D02*
X87018810Y-97004286D01*
X86971190Y-97051905D01*
X86875952Y-97099524D01*
X86733095Y-97099524D01*
X86637857Y-97051905D01*
X86590238Y-97004286D01*
X86542619Y-96909048D01*
X86542619Y-96528095D01*
X87542619Y-96528095D01*
X87542619Y-96861429D01*
X87495000Y-96956667D01*
X87447381Y-97004286D01*
X87352143Y-97051905D01*
X87256905Y-97051905D01*
X87161667Y-97004286D01*
X87114048Y-96956667D01*
X87066429Y-96861429D01*
X87066429Y-96528095D01*
X86637857Y-98099524D02*
X86590238Y-98051905D01*
X86542619Y-97909048D01*
X86542619Y-97813810D01*
X86590238Y-97670952D01*
X86685476Y-97575714D01*
X86780714Y-97528095D01*
X86971190Y-97480476D01*
X87114048Y-97480476D01*
X87304524Y-97528095D01*
X87399762Y-97575714D01*
X87495000Y-97670952D01*
X87542619Y-97813810D01*
X87542619Y-97909048D01*
X87495000Y-98051905D01*
X87447381Y-98099524D01*
X86542619Y-98528095D02*
X87542619Y-98528095D01*
X86542619Y-99099524D02*
X87114048Y-98670952D01*
X87542619Y-99099524D02*
X86971190Y-98528095D01*
X89082619Y-96766191D02*
X90082619Y-96766191D01*
X89082619Y-97242381D02*
X90082619Y-97242381D01*
X89082619Y-97813810D01*
X90082619Y-97813810D01*
X89177857Y-98861429D02*
X89130238Y-98813810D01*
X89082619Y-98670953D01*
X89082619Y-98575715D01*
X89130238Y-98432857D01*
X89225476Y-98337619D01*
X89320714Y-98290000D01*
X89511190Y-98242381D01*
X89654048Y-98242381D01*
X89844524Y-98290000D01*
X89939762Y-98337619D01*
X90035000Y-98432857D01*
X90082619Y-98575715D01*
X90082619Y-98670953D01*
X90035000Y-98813810D01*
X89987381Y-98861429D01*
X91622619Y-96575714D02*
X92622619Y-96575714D01*
X92622619Y-96813809D01*
X92575000Y-96956667D01*
X92479762Y-97051905D01*
X92384524Y-97099524D01*
X92194048Y-97147143D01*
X92051190Y-97147143D01*
X91860714Y-97099524D01*
X91765476Y-97051905D01*
X91670238Y-96956667D01*
X91622619Y-96813809D01*
X91622619Y-96575714D01*
X92146429Y-97575714D02*
X92146429Y-97909048D01*
X91622619Y-98051905D02*
X91622619Y-97575714D01*
X92622619Y-97575714D01*
X92622619Y-98051905D01*
X91717857Y-99051905D02*
X91670238Y-99004286D01*
X91622619Y-98861429D01*
X91622619Y-98766191D01*
X91670238Y-98623333D01*
X91765476Y-98528095D01*
X91860714Y-98480476D01*
X92051190Y-98432857D01*
X92194048Y-98432857D01*
X92384524Y-98480476D01*
X92479762Y-98528095D01*
X92575000Y-98623333D01*
X92622619Y-98766191D01*
X92622619Y-98861429D01*
X92575000Y-99004286D01*
X92527381Y-99051905D01*
X142366904Y-71620000D02*
X142462142Y-71667619D01*
X142604999Y-71667619D01*
X142747857Y-71620000D01*
X142843095Y-71524762D01*
X142890714Y-71429524D01*
X142938333Y-71239048D01*
X142938333Y-71096190D01*
X142890714Y-70905714D01*
X142843095Y-70810476D01*
X142747857Y-70715238D01*
X142604999Y-70667619D01*
X142509761Y-70667619D01*
X142366904Y-70715238D01*
X142319285Y-70762857D01*
X142319285Y-71096190D01*
X142509761Y-71096190D01*
X141890714Y-70667619D02*
X141890714Y-71667619D01*
X141319285Y-70667619D01*
X141319285Y-71667619D01*
X140843095Y-70667619D02*
X140843095Y-71667619D01*
X140605000Y-71667619D01*
X140462142Y-71620000D01*
X140366904Y-71524762D01*
X140319285Y-71429524D01*
X140271666Y-71239048D01*
X140271666Y-71096190D01*
X140319285Y-70905714D01*
X140366904Y-70810476D01*
X140462142Y-70715238D01*
X140605000Y-70667619D01*
X140843095Y-70667619D01*
X142366905Y-74207619D02*
X141795476Y-74207619D01*
X142081191Y-73207619D02*
X142081191Y-74207619D01*
X141557381Y-74207619D02*
X140890714Y-73207619D01*
X140890714Y-74207619D02*
X141557381Y-73207619D01*
X141771666Y-75747619D02*
X142105000Y-76223810D01*
X142343095Y-75747619D02*
X142343095Y-76747619D01*
X141962142Y-76747619D01*
X141866904Y-76700000D01*
X141819285Y-76652381D01*
X141771666Y-76557143D01*
X141771666Y-76414286D01*
X141819285Y-76319048D01*
X141866904Y-76271429D01*
X141962142Y-76223810D01*
X142343095Y-76223810D01*
X141438333Y-76747619D02*
X140771666Y-75747619D01*
X140771666Y-76747619D02*
X141438333Y-75747619D01*
X142938333Y-79287619D02*
X142605000Y-78287619D01*
X142271666Y-79287619D01*
X141366904Y-78382857D02*
X141414523Y-78335238D01*
X141557380Y-78287619D01*
X141652618Y-78287619D01*
X141795476Y-78335238D01*
X141890714Y-78430476D01*
X141938333Y-78525714D01*
X141985952Y-78716190D01*
X141985952Y-78859048D01*
X141938333Y-79049524D01*
X141890714Y-79144762D01*
X141795476Y-79240000D01*
X141652618Y-79287619D01*
X141557380Y-79287619D01*
X141414523Y-79240000D01*
X141366904Y-79192381D01*
X140366904Y-78382857D02*
X140414523Y-78335238D01*
X140557380Y-78287619D01*
X140652618Y-78287619D01*
X140795476Y-78335238D01*
X140890714Y-78430476D01*
X140938333Y-78525714D01*
X140985952Y-78716190D01*
X140985952Y-78859048D01*
X140938333Y-79049524D01*
X140890714Y-79144762D01*
X140795476Y-79240000D01*
X140652618Y-79287619D01*
X140557380Y-79287619D01*
X140414523Y-79240000D01*
X140366904Y-79192381D01*
X144867381Y-74263095D02*
X144867381Y-73644047D01*
X145248333Y-73977381D01*
X145248333Y-73834523D01*
X145295952Y-73739285D01*
X145343571Y-73691666D01*
X145438810Y-73644047D01*
X145676905Y-73644047D01*
X145772143Y-73691666D01*
X145819762Y-73739285D01*
X145867381Y-73834523D01*
X145867381Y-74120238D01*
X145819762Y-74215476D01*
X145772143Y-74263095D01*
X144867381Y-73358333D02*
X145867381Y-73025000D01*
X144867381Y-72691666D01*
X144867381Y-72453571D02*
X144867381Y-71834523D01*
X145248333Y-72167857D01*
X145248333Y-72024999D01*
X145295952Y-71929761D01*
X145343571Y-71882142D01*
X145438810Y-71834523D01*
X145676905Y-71834523D01*
X145772143Y-71882142D01*
X145819762Y-71929761D01*
X145867381Y-72024999D01*
X145867381Y-72310714D01*
X145819762Y-72405952D01*
X145772143Y-72453571D01*
X144867381Y-77025476D02*
X144867381Y-77501667D01*
X145343571Y-77549286D01*
X145295952Y-77501667D01*
X145248333Y-77406429D01*
X145248333Y-77168333D01*
X145295952Y-77073095D01*
X145343571Y-77025476D01*
X145438810Y-76977857D01*
X145676905Y-76977857D01*
X145772143Y-77025476D01*
X145819762Y-77073095D01*
X145867381Y-77168333D01*
X145867381Y-77406429D01*
X145819762Y-77501667D01*
X145772143Y-77549286D01*
X144867381Y-76692143D02*
X145867381Y-76358810D01*
X144867381Y-76025476D01*
D10*
X146050000Y-75565000D02*
X146050000Y-78105000D01*
X147320000Y-74295000D02*
X147320000Y-75565000D01*
X146050000Y-71755000D02*
X146050000Y-74295000D01*
D11*
X158876904Y-71620000D02*
X158972142Y-71667619D01*
X159114999Y-71667619D01*
X159257857Y-71620000D01*
X159353095Y-71524762D01*
X159400714Y-71429524D01*
X159448333Y-71239048D01*
X159448333Y-71096190D01*
X159400714Y-70905714D01*
X159353095Y-70810476D01*
X159257857Y-70715238D01*
X159114999Y-70667619D01*
X159019761Y-70667619D01*
X158876904Y-70715238D01*
X158829285Y-70762857D01*
X158829285Y-71096190D01*
X159019761Y-71096190D01*
X158400714Y-70667619D02*
X158400714Y-71667619D01*
X157829285Y-70667619D01*
X157829285Y-71667619D01*
X157353095Y-70667619D02*
X157353095Y-71667619D01*
X157115000Y-71667619D01*
X156972142Y-71620000D01*
X156876904Y-71524762D01*
X156829285Y-71429524D01*
X156781666Y-71239048D01*
X156781666Y-71096190D01*
X156829285Y-70905714D01*
X156876904Y-70810476D01*
X156972142Y-70715238D01*
X157115000Y-70667619D01*
X157353095Y-70667619D01*
X159305476Y-73255238D02*
X159162619Y-73207619D01*
X158924523Y-73207619D01*
X158829285Y-73255238D01*
X158781666Y-73302857D01*
X158734047Y-73398095D01*
X158734047Y-73493333D01*
X158781666Y-73588571D01*
X158829285Y-73636190D01*
X158924523Y-73683810D01*
X159115000Y-73731429D01*
X159210238Y-73779048D01*
X159257857Y-73826667D01*
X159305476Y-73921905D01*
X159305476Y-74017143D01*
X159257857Y-74112381D01*
X159210238Y-74160000D01*
X159115000Y-74207619D01*
X158876904Y-74207619D01*
X158734047Y-74160000D01*
X157734047Y-73302857D02*
X157781666Y-73255238D01*
X157924523Y-73207619D01*
X158019761Y-73207619D01*
X158162619Y-73255238D01*
X158257857Y-73350476D01*
X158305476Y-73445714D01*
X158353095Y-73636190D01*
X158353095Y-73779048D01*
X158305476Y-73969524D01*
X158257857Y-74064762D01*
X158162619Y-74160000D01*
X158019761Y-74207619D01*
X157924523Y-74207619D01*
X157781666Y-74160000D01*
X157734047Y-74112381D01*
X156829285Y-73207619D02*
X157305476Y-73207619D01*
X157305476Y-74207619D01*
X159329286Y-75795238D02*
X159186429Y-75747619D01*
X158948333Y-75747619D01*
X158853095Y-75795238D01*
X158805476Y-75842857D01*
X158757857Y-75938095D01*
X158757857Y-76033333D01*
X158805476Y-76128571D01*
X158853095Y-76176190D01*
X158948333Y-76223810D01*
X159138810Y-76271429D01*
X159234048Y-76319048D01*
X159281667Y-76366667D01*
X159329286Y-76461905D01*
X159329286Y-76557143D01*
X159281667Y-76652381D01*
X159234048Y-76700000D01*
X159138810Y-76747619D01*
X158900714Y-76747619D01*
X158757857Y-76700000D01*
X158329286Y-75747619D02*
X158329286Y-76747619D01*
X158091191Y-76747619D01*
X157948333Y-76700000D01*
X157853095Y-76604762D01*
X157805476Y-76509524D01*
X157757857Y-76319048D01*
X157757857Y-76176190D01*
X157805476Y-75985714D01*
X157853095Y-75890476D01*
X157948333Y-75795238D01*
X158091191Y-75747619D01*
X158329286Y-75747619D01*
X157376905Y-76033333D02*
X156900714Y-76033333D01*
X157472143Y-75747619D02*
X157138810Y-76747619D01*
X156805476Y-75747619D01*
X159448333Y-79287619D02*
X159115000Y-78287619D01*
X158781666Y-79287619D01*
X157876904Y-78382857D02*
X157924523Y-78335238D01*
X158067380Y-78287619D01*
X158162618Y-78287619D01*
X158305476Y-78335238D01*
X158400714Y-78430476D01*
X158448333Y-78525714D01*
X158495952Y-78716190D01*
X158495952Y-78859048D01*
X158448333Y-79049524D01*
X158400714Y-79144762D01*
X158305476Y-79240000D01*
X158162618Y-79287619D01*
X158067380Y-79287619D01*
X157924523Y-79240000D01*
X157876904Y-79192381D01*
X156876904Y-78382857D02*
X156924523Y-78335238D01*
X157067380Y-78287619D01*
X157162618Y-78287619D01*
X157305476Y-78335238D01*
X157400714Y-78430476D01*
X157448333Y-78525714D01*
X157495952Y-78716190D01*
X157495952Y-78859048D01*
X157448333Y-79049524D01*
X157400714Y-79144762D01*
X157305476Y-79240000D01*
X157162618Y-79287619D01*
X157067380Y-79287619D01*
X156924523Y-79240000D01*
X156876904Y-79192381D01*
X161099523Y-81494286D02*
X161099523Y-80827619D01*
X161337619Y-81875238D02*
X161575714Y-81160952D01*
X160956666Y-81160952D01*
X164163333Y-81827619D02*
X163544285Y-81827619D01*
X163877619Y-81446667D01*
X163734761Y-81446667D01*
X163639523Y-81399048D01*
X163591904Y-81351429D01*
X163544285Y-81256190D01*
X163544285Y-81018095D01*
X163591904Y-80922857D01*
X163639523Y-80875238D01*
X163734761Y-80827619D01*
X164020476Y-80827619D01*
X164115714Y-80875238D01*
X164163333Y-80922857D01*
X166655714Y-81732381D02*
X166608095Y-81780000D01*
X166512857Y-81827619D01*
X166274761Y-81827619D01*
X166179523Y-81780000D01*
X166131904Y-81732381D01*
X166084285Y-81637143D01*
X166084285Y-81541905D01*
X166131904Y-81399048D01*
X166703333Y-80827619D01*
X166084285Y-80827619D01*
X168624285Y-80827619D02*
X169195714Y-80827619D01*
X168910000Y-80827619D02*
X168910000Y-81827619D01*
X169005238Y-81684762D01*
X169100476Y-81589524D01*
X169195714Y-81541905D01*
X150677619Y-73953810D02*
X151677619Y-73953810D01*
X151582381Y-74382381D02*
X151630000Y-74430000D01*
X151677619Y-74525238D01*
X151677619Y-74763334D01*
X151630000Y-74858572D01*
X151582381Y-74906191D01*
X151487143Y-74953810D01*
X151391905Y-74953810D01*
X151249048Y-74906191D01*
X150677619Y-74334762D01*
X150677619Y-74953810D01*
X150772857Y-75953810D02*
X150725238Y-75906191D01*
X150677619Y-75763334D01*
X150677619Y-75668096D01*
X150725238Y-75525238D01*
X150820476Y-75430000D01*
X150915714Y-75382381D01*
X151106190Y-75334762D01*
X151249048Y-75334762D01*
X151439524Y-75382381D01*
X151534762Y-75430000D01*
X151630000Y-75525238D01*
X151677619Y-75668096D01*
X151677619Y-75763334D01*
X151630000Y-75906191D01*
X151582381Y-75953810D01*
X117601904Y-71620000D02*
X117697142Y-71667619D01*
X117839999Y-71667619D01*
X117982857Y-71620000D01*
X118078095Y-71524762D01*
X118125714Y-71429524D01*
X118173333Y-71239048D01*
X118173333Y-71096190D01*
X118125714Y-70905714D01*
X118078095Y-70810476D01*
X117982857Y-70715238D01*
X117839999Y-70667619D01*
X117744761Y-70667619D01*
X117601904Y-70715238D01*
X117554285Y-70762857D01*
X117554285Y-71096190D01*
X117744761Y-71096190D01*
X117125714Y-70667619D02*
X117125714Y-71667619D01*
X116554285Y-70667619D01*
X116554285Y-71667619D01*
X116078095Y-70667619D02*
X116078095Y-71667619D01*
X115840000Y-71667619D01*
X115697142Y-71620000D01*
X115601904Y-71524762D01*
X115554285Y-71429524D01*
X115506666Y-71239048D01*
X115506666Y-71096190D01*
X115554285Y-70905714D01*
X115601904Y-70810476D01*
X115697142Y-70715238D01*
X115840000Y-70667619D01*
X116078095Y-70667619D01*
X118601905Y-73731429D02*
X118268571Y-73731429D01*
X118125714Y-73207619D02*
X118601905Y-73207619D01*
X118601905Y-74207619D01*
X118125714Y-74207619D01*
X117125714Y-73302857D02*
X117173333Y-73255238D01*
X117316190Y-73207619D01*
X117411428Y-73207619D01*
X117554286Y-73255238D01*
X117649524Y-73350476D01*
X117697143Y-73445714D01*
X117744762Y-73636190D01*
X117744762Y-73779048D01*
X117697143Y-73969524D01*
X117649524Y-74064762D01*
X117554286Y-74160000D01*
X117411428Y-74207619D01*
X117316190Y-74207619D01*
X117173333Y-74160000D01*
X117125714Y-74112381D01*
X116697143Y-73207619D02*
X116697143Y-74207619D01*
X116697143Y-73731429D02*
X116125714Y-73731429D01*
X116125714Y-73207619D02*
X116125714Y-74207619D01*
X115459048Y-74207619D02*
X115268571Y-74207619D01*
X115173333Y-74160000D01*
X115078095Y-74064762D01*
X115030476Y-73874286D01*
X115030476Y-73540952D01*
X115078095Y-73350476D01*
X115173333Y-73255238D01*
X115268571Y-73207619D01*
X115459048Y-73207619D01*
X115554286Y-73255238D01*
X115649524Y-73350476D01*
X115697143Y-73540952D01*
X115697143Y-73874286D01*
X115649524Y-74064762D01*
X115554286Y-74160000D01*
X115459048Y-74207619D01*
X118363809Y-76747619D02*
X117792380Y-76747619D01*
X118078095Y-75747619D02*
X118078095Y-76747619D01*
X116887618Y-75747619D02*
X117220952Y-76223810D01*
X117459047Y-75747619D02*
X117459047Y-76747619D01*
X117078094Y-76747619D01*
X116982856Y-76700000D01*
X116935237Y-76652381D01*
X116887618Y-76557143D01*
X116887618Y-76414286D01*
X116935237Y-76319048D01*
X116982856Y-76271429D01*
X117078094Y-76223810D01*
X117459047Y-76223810D01*
X116459047Y-75747619D02*
X116459047Y-76747619D01*
X115459047Y-76700000D02*
X115554285Y-76747619D01*
X115697142Y-76747619D01*
X115840000Y-76700000D01*
X115935238Y-76604762D01*
X115982857Y-76509524D01*
X116030476Y-76319048D01*
X116030476Y-76176190D01*
X115982857Y-75985714D01*
X115935238Y-75890476D01*
X115840000Y-75795238D01*
X115697142Y-75747619D01*
X115601904Y-75747619D01*
X115459047Y-75795238D01*
X115411428Y-75842857D01*
X115411428Y-76176190D01*
X115601904Y-76176190D01*
X117030476Y-79287619D02*
X117506667Y-79287619D01*
X117554286Y-78811429D01*
X117506667Y-78859048D01*
X117411429Y-78906667D01*
X117173333Y-78906667D01*
X117078095Y-78859048D01*
X117030476Y-78811429D01*
X116982857Y-78716190D01*
X116982857Y-78478095D01*
X117030476Y-78382857D01*
X117078095Y-78335238D01*
X117173333Y-78287619D01*
X117411429Y-78287619D01*
X117506667Y-78335238D01*
X117554286Y-78382857D01*
X116697143Y-79287619D02*
X116363810Y-78287619D01*
X116030476Y-79287619D01*
X120935715Y-76652381D02*
X120364286Y-76652381D01*
X120650000Y-76652381D02*
X120650000Y-75652381D01*
X120554762Y-75795238D01*
X120459524Y-75890476D01*
X120364286Y-75938095D01*
X122904286Y-75747619D02*
X122951905Y-75700000D01*
X123047143Y-75652381D01*
X123285239Y-75652381D01*
X123380477Y-75700000D01*
X123428096Y-75747619D01*
X123475715Y-75842857D01*
X123475715Y-75938095D01*
X123428096Y-76080952D01*
X122856667Y-76652381D01*
X123475715Y-76652381D01*
X125396667Y-75652381D02*
X126015715Y-75652381D01*
X125682381Y-76033333D01*
X125825239Y-76033333D01*
X125920477Y-76080952D01*
X125968096Y-76128571D01*
X126015715Y-76223810D01*
X126015715Y-76461905D01*
X125968096Y-76557143D01*
X125920477Y-76604762D01*
X125825239Y-76652381D01*
X125539524Y-76652381D01*
X125444286Y-76604762D01*
X125396667Y-76557143D01*
X128460477Y-75985714D02*
X128460477Y-76652381D01*
X128222381Y-75604762D02*
X127984286Y-76319048D01*
X128603334Y-76319048D01*
X169362381Y-115871428D02*
X168362381Y-115871428D01*
X169076667Y-115538094D01*
X168362381Y-115204761D01*
X169362381Y-115204761D01*
X169362381Y-114728571D02*
X168362381Y-114728571D01*
X169314762Y-114300000D02*
X169362381Y-114157143D01*
X169362381Y-113919047D01*
X169314762Y-113823809D01*
X169267143Y-113776190D01*
X169171905Y-113728571D01*
X169076667Y-113728571D01*
X168981429Y-113776190D01*
X168933810Y-113823809D01*
X168886190Y-113919047D01*
X168838571Y-114109524D01*
X168790952Y-114204762D01*
X168743333Y-114252381D01*
X168648095Y-114300000D01*
X168552857Y-114300000D01*
X168457619Y-114252381D01*
X168410000Y-114204762D01*
X168362381Y-114109524D01*
X168362381Y-113871428D01*
X168410000Y-113728571D01*
X168362381Y-113109524D02*
X168362381Y-112919047D01*
X168410000Y-112823809D01*
X168505238Y-112728571D01*
X168695714Y-112680952D01*
X169029048Y-112680952D01*
X169219524Y-112728571D01*
X169314762Y-112823809D01*
X169362381Y-112919047D01*
X169362381Y-113109524D01*
X169314762Y-113204762D01*
X169219524Y-113300000D01*
X169029048Y-113347619D01*
X168695714Y-113347619D01*
X168505238Y-113300000D01*
X168410000Y-113204762D01*
X168362381Y-113109524D01*
X166774762Y-115585714D02*
X166822381Y-115442857D01*
X166822381Y-115204761D01*
X166774762Y-115109523D01*
X166727143Y-115061904D01*
X166631905Y-115014285D01*
X166536667Y-115014285D01*
X166441429Y-115061904D01*
X166393810Y-115109523D01*
X166346190Y-115204761D01*
X166298571Y-115395238D01*
X166250952Y-115490476D01*
X166203333Y-115538095D01*
X166108095Y-115585714D01*
X166012857Y-115585714D01*
X165917619Y-115538095D01*
X165870000Y-115490476D01*
X165822381Y-115395238D01*
X165822381Y-115157142D01*
X165870000Y-115014285D01*
X166727143Y-114014285D02*
X166774762Y-114061904D01*
X166822381Y-114204761D01*
X166822381Y-114299999D01*
X166774762Y-114442857D01*
X166679524Y-114538095D01*
X166584286Y-114585714D01*
X166393810Y-114633333D01*
X166250952Y-114633333D01*
X166060476Y-114585714D01*
X165965238Y-114538095D01*
X165870000Y-114442857D01*
X165822381Y-114299999D01*
X165822381Y-114204761D01*
X165870000Y-114061904D01*
X165917619Y-114014285D01*
X166822381Y-113585714D02*
X165822381Y-113585714D01*
X166822381Y-113014285D02*
X166250952Y-113442857D01*
X165822381Y-113014285D02*
X166393810Y-113585714D01*
X164282381Y-114847619D02*
X163806190Y-115180953D01*
X164282381Y-115419048D02*
X163282381Y-115419048D01*
X163282381Y-115038095D01*
X163330000Y-114942857D01*
X163377619Y-114895238D01*
X163472857Y-114847619D01*
X163615714Y-114847619D01*
X163710952Y-114895238D01*
X163758571Y-114942857D01*
X163806190Y-115038095D01*
X163806190Y-115419048D01*
X164234762Y-114466667D02*
X164282381Y-114323810D01*
X164282381Y-114085714D01*
X164234762Y-113990476D01*
X164187143Y-113942857D01*
X164091905Y-113895238D01*
X163996667Y-113895238D01*
X163901429Y-113942857D01*
X163853810Y-113990476D01*
X163806190Y-114085714D01*
X163758571Y-114276191D01*
X163710952Y-114371429D01*
X163663333Y-114419048D01*
X163568095Y-114466667D01*
X163472857Y-114466667D01*
X163377619Y-114419048D01*
X163330000Y-114371429D01*
X163282381Y-114276191D01*
X163282381Y-114038095D01*
X163330000Y-113895238D01*
X163282381Y-113609524D02*
X163282381Y-113038095D01*
X164282381Y-113323810D02*
X163282381Y-113323810D01*
X161694762Y-115061905D02*
X161742381Y-114919048D01*
X161742381Y-114680952D01*
X161694762Y-114585714D01*
X161647143Y-114538095D01*
X161551905Y-114490476D01*
X161456667Y-114490476D01*
X161361429Y-114538095D01*
X161313810Y-114585714D01*
X161266190Y-114680952D01*
X161218571Y-114871429D01*
X161170952Y-114966667D01*
X161123333Y-115014286D01*
X161028095Y-115061905D01*
X160932857Y-115061905D01*
X160837619Y-115014286D01*
X160790000Y-114966667D01*
X160742381Y-114871429D01*
X160742381Y-114633333D01*
X160790000Y-114490476D01*
X161694762Y-114109524D02*
X161742381Y-113966667D01*
X161742381Y-113728571D01*
X161694762Y-113633333D01*
X161647143Y-113585714D01*
X161551905Y-113538095D01*
X161456667Y-113538095D01*
X161361429Y-113585714D01*
X161313810Y-113633333D01*
X161266190Y-113728571D01*
X161218571Y-113919048D01*
X161170952Y-114014286D01*
X161123333Y-114061905D01*
X161028095Y-114109524D01*
X160932857Y-114109524D01*
X160837619Y-114061905D01*
X160790000Y-114014286D01*
X160742381Y-113919048D01*
X160742381Y-113680952D01*
X160790000Y-113538095D01*
X95115000Y-97028096D02*
X95162619Y-96932858D01*
X95162619Y-96790001D01*
X95115000Y-96647143D01*
X95019762Y-96551905D01*
X94924524Y-96504286D01*
X94734048Y-96456667D01*
X94591190Y-96456667D01*
X94400714Y-96504286D01*
X94305476Y-96551905D01*
X94210238Y-96647143D01*
X94162619Y-96790001D01*
X94162619Y-96885239D01*
X94210238Y-97028096D01*
X94257857Y-97075715D01*
X94591190Y-97075715D01*
X94591190Y-96885239D01*
X94162619Y-97504286D02*
X95162619Y-97504286D01*
X94162619Y-98075715D01*
X95162619Y-98075715D01*
X94162619Y-98551905D02*
X95162619Y-98551905D01*
X95162619Y-98790000D01*
X95115000Y-98932858D01*
X95019762Y-99028096D01*
X94924524Y-99075715D01*
X94734048Y-99123334D01*
X94591190Y-99123334D01*
X94400714Y-99075715D01*
X94305476Y-99028096D01*
X94210238Y-98932858D01*
X94162619Y-98790000D01*
X94162619Y-98551905D01*
X158202381Y-104965476D02*
X158202381Y-105441667D01*
X158678571Y-105489286D01*
X158630952Y-105441667D01*
X158583333Y-105346429D01*
X158583333Y-105108333D01*
X158630952Y-105013095D01*
X158678571Y-104965476D01*
X158773810Y-104917857D01*
X159011905Y-104917857D01*
X159107143Y-104965476D01*
X159154762Y-105013095D01*
X159202381Y-105108333D01*
X159202381Y-105346429D01*
X159154762Y-105441667D01*
X159107143Y-105489286D01*
X158202381Y-104632143D02*
X159202381Y-104298810D01*
X158202381Y-103965476D01*
X160790000Y-105536904D02*
X160742381Y-105632142D01*
X160742381Y-105774999D01*
X160790000Y-105917857D01*
X160885238Y-106013095D01*
X160980476Y-106060714D01*
X161170952Y-106108333D01*
X161313810Y-106108333D01*
X161504286Y-106060714D01*
X161599524Y-106013095D01*
X161694762Y-105917857D01*
X161742381Y-105774999D01*
X161742381Y-105679761D01*
X161694762Y-105536904D01*
X161647143Y-105489285D01*
X161313810Y-105489285D01*
X161313810Y-105679761D01*
X161742381Y-105060714D02*
X160742381Y-105060714D01*
X161742381Y-104489285D01*
X160742381Y-104489285D01*
X161742381Y-104013095D02*
X160742381Y-104013095D01*
X160742381Y-103775000D01*
X160790000Y-103632142D01*
X160885238Y-103536904D01*
X160980476Y-103489285D01*
X161170952Y-103441666D01*
X161313810Y-103441666D01*
X161504286Y-103489285D01*
X161599524Y-103536904D01*
X161694762Y-103632142D01*
X161742381Y-103775000D01*
X161742381Y-104013095D01*
X163330000Y-105536904D02*
X163282381Y-105632142D01*
X163282381Y-105774999D01*
X163330000Y-105917857D01*
X163425238Y-106013095D01*
X163520476Y-106060714D01*
X163710952Y-106108333D01*
X163853810Y-106108333D01*
X164044286Y-106060714D01*
X164139524Y-106013095D01*
X164234762Y-105917857D01*
X164282381Y-105774999D01*
X164282381Y-105679761D01*
X164234762Y-105536904D01*
X164187143Y-105489285D01*
X163853810Y-105489285D01*
X163853810Y-105679761D01*
X164282381Y-105060714D02*
X163282381Y-105060714D01*
X164282381Y-104489285D01*
X163282381Y-104489285D01*
X164282381Y-104013095D02*
X163282381Y-104013095D01*
X163282381Y-103775000D01*
X163330000Y-103632142D01*
X163425238Y-103536904D01*
X163520476Y-103489285D01*
X163710952Y-103441666D01*
X163853810Y-103441666D01*
X164044286Y-103489285D01*
X164139524Y-103536904D01*
X164234762Y-103632142D01*
X164282381Y-103775000D01*
X164282381Y-104013095D01*
X168410000Y-105536904D02*
X168362381Y-105632142D01*
X168362381Y-105774999D01*
X168410000Y-105917857D01*
X168505238Y-106013095D01*
X168600476Y-106060714D01*
X168790952Y-106108333D01*
X168933810Y-106108333D01*
X169124286Y-106060714D01*
X169219524Y-106013095D01*
X169314762Y-105917857D01*
X169362381Y-105774999D01*
X169362381Y-105679761D01*
X169314762Y-105536904D01*
X169267143Y-105489285D01*
X168933810Y-105489285D01*
X168933810Y-105679761D01*
X169362381Y-105060714D02*
X168362381Y-105060714D01*
X169362381Y-104489285D01*
X168362381Y-104489285D01*
X169362381Y-104013095D02*
X168362381Y-104013095D01*
X168362381Y-103775000D01*
X168410000Y-103632142D01*
X168505238Y-103536904D01*
X168600476Y-103489285D01*
X168790952Y-103441666D01*
X168933810Y-103441666D01*
X169124286Y-103489285D01*
X169219524Y-103536904D01*
X169314762Y-103632142D01*
X169362381Y-103775000D01*
X169362381Y-104013095D01*
X165870000Y-105536904D02*
X165822381Y-105632142D01*
X165822381Y-105774999D01*
X165870000Y-105917857D01*
X165965238Y-106013095D01*
X166060476Y-106060714D01*
X166250952Y-106108333D01*
X166393810Y-106108333D01*
X166584286Y-106060714D01*
X166679524Y-106013095D01*
X166774762Y-105917857D01*
X166822381Y-105774999D01*
X166822381Y-105679761D01*
X166774762Y-105536904D01*
X166727143Y-105489285D01*
X166393810Y-105489285D01*
X166393810Y-105679761D01*
X166822381Y-105060714D02*
X165822381Y-105060714D01*
X166822381Y-104489285D01*
X165822381Y-104489285D01*
X166822381Y-104013095D02*
X165822381Y-104013095D01*
X165822381Y-103775000D01*
X165870000Y-103632142D01*
X165965238Y-103536904D01*
X166060476Y-103489285D01*
X166250952Y-103441666D01*
X166393810Y-103441666D01*
X166584286Y-103489285D01*
X166679524Y-103536904D01*
X166774762Y-103632142D01*
X166822381Y-103775000D01*
X166822381Y-104013095D01*
X126174524Y-108672381D02*
X125698333Y-108672381D01*
X125650714Y-109148571D01*
X125698333Y-109100952D01*
X125793571Y-109053333D01*
X126031667Y-109053333D01*
X126126905Y-109100952D01*
X126174524Y-109148571D01*
X126222143Y-109243810D01*
X126222143Y-109481905D01*
X126174524Y-109577143D01*
X126126905Y-109624762D01*
X126031667Y-109672381D01*
X125793571Y-109672381D01*
X125698333Y-109624762D01*
X125650714Y-109577143D01*
X126507857Y-108672381D02*
X126841190Y-109672381D01*
X127174524Y-108672381D01*
X125341191Y-112164762D02*
X125484048Y-112212381D01*
X125722144Y-112212381D01*
X125817382Y-112164762D01*
X125865001Y-112117143D01*
X125912620Y-112021905D01*
X125912620Y-111926667D01*
X125865001Y-111831429D01*
X125817382Y-111783810D01*
X125722144Y-111736190D01*
X125531667Y-111688571D01*
X125436429Y-111640952D01*
X125388810Y-111593333D01*
X125341191Y-111498095D01*
X125341191Y-111402857D01*
X125388810Y-111307619D01*
X125436429Y-111260000D01*
X125531667Y-111212381D01*
X125769763Y-111212381D01*
X125912620Y-111260000D01*
X126341191Y-112212381D02*
X126341191Y-111212381D01*
X127341191Y-111260000D02*
X127245953Y-111212381D01*
X127103096Y-111212381D01*
X126960238Y-111260000D01*
X126865000Y-111355238D01*
X126817381Y-111450476D01*
X126769762Y-111640952D01*
X126769762Y-111783810D01*
X126817381Y-111974286D01*
X126865000Y-112069524D01*
X126960238Y-112164762D01*
X127103096Y-112212381D01*
X127198334Y-112212381D01*
X127341191Y-112164762D01*
X127388810Y-112117143D01*
X127388810Y-111783810D01*
X127198334Y-111783810D01*
X125603096Y-113800000D02*
X125507858Y-113752381D01*
X125365001Y-113752381D01*
X125222143Y-113800000D01*
X125126905Y-113895238D01*
X125079286Y-113990476D01*
X125031667Y-114180952D01*
X125031667Y-114323810D01*
X125079286Y-114514286D01*
X125126905Y-114609524D01*
X125222143Y-114704762D01*
X125365001Y-114752381D01*
X125460239Y-114752381D01*
X125603096Y-114704762D01*
X125650715Y-114657143D01*
X125650715Y-114323810D01*
X125460239Y-114323810D01*
X126079286Y-114752381D02*
X126079286Y-113752381D01*
X126650715Y-114752381D01*
X126650715Y-113752381D01*
X127126905Y-114752381D02*
X127126905Y-113752381D01*
X127365000Y-113752381D01*
X127507858Y-113800000D01*
X127603096Y-113895238D01*
X127650715Y-113990476D01*
X127698334Y-114180952D01*
X127698334Y-114323810D01*
X127650715Y-114514286D01*
X127603096Y-114609524D01*
X127507858Y-114704762D01*
X127365000Y-114752381D01*
X127126905Y-114752381D01*
X144081667Y-108672381D02*
X144415000Y-109672381D01*
X144748334Y-108672381D01*
X145653096Y-109577143D02*
X145605477Y-109624762D01*
X145462620Y-109672381D01*
X145367382Y-109672381D01*
X145224524Y-109624762D01*
X145129286Y-109529524D01*
X145081667Y-109434286D01*
X145034048Y-109243810D01*
X145034048Y-109100952D01*
X145081667Y-108910476D01*
X145129286Y-108815238D01*
X145224524Y-108720000D01*
X145367382Y-108672381D01*
X145462620Y-108672381D01*
X145605477Y-108720000D01*
X145653096Y-108767619D01*
X146653096Y-109577143D02*
X146605477Y-109624762D01*
X146462620Y-109672381D01*
X146367382Y-109672381D01*
X146224524Y-109624762D01*
X146129286Y-109529524D01*
X146081667Y-109434286D01*
X146034048Y-109243810D01*
X146034048Y-109100952D01*
X146081667Y-108910476D01*
X146129286Y-108815238D01*
X146224524Y-108720000D01*
X146367382Y-108672381D01*
X146462620Y-108672381D01*
X146605477Y-108720000D01*
X146653096Y-108767619D01*
X144391191Y-112164762D02*
X144534048Y-112212381D01*
X144772144Y-112212381D01*
X144867382Y-112164762D01*
X144915001Y-112117143D01*
X144962620Y-112021905D01*
X144962620Y-111926667D01*
X144915001Y-111831429D01*
X144867382Y-111783810D01*
X144772144Y-111736190D01*
X144581667Y-111688571D01*
X144486429Y-111640952D01*
X144438810Y-111593333D01*
X144391191Y-111498095D01*
X144391191Y-111402857D01*
X144438810Y-111307619D01*
X144486429Y-111260000D01*
X144581667Y-111212381D01*
X144819763Y-111212381D01*
X144962620Y-111260000D01*
X145391191Y-112212381D02*
X145391191Y-111212381D01*
X146391191Y-111260000D02*
X146295953Y-111212381D01*
X146153096Y-111212381D01*
X146010238Y-111260000D01*
X145915000Y-111355238D01*
X145867381Y-111450476D01*
X145819762Y-111640952D01*
X145819762Y-111783810D01*
X145867381Y-111974286D01*
X145915000Y-112069524D01*
X146010238Y-112164762D01*
X146153096Y-112212381D01*
X146248334Y-112212381D01*
X146391191Y-112164762D01*
X146438810Y-112117143D01*
X146438810Y-111783810D01*
X146248334Y-111783810D01*
X144653096Y-113800000D02*
X144557858Y-113752381D01*
X144415001Y-113752381D01*
X144272143Y-113800000D01*
X144176905Y-113895238D01*
X144129286Y-113990476D01*
X144081667Y-114180952D01*
X144081667Y-114323810D01*
X144129286Y-114514286D01*
X144176905Y-114609524D01*
X144272143Y-114704762D01*
X144415001Y-114752381D01*
X144510239Y-114752381D01*
X144653096Y-114704762D01*
X144700715Y-114657143D01*
X144700715Y-114323810D01*
X144510239Y-114323810D01*
X145129286Y-114752381D02*
X145129286Y-113752381D01*
X145700715Y-114752381D01*
X145700715Y-113752381D01*
X146176905Y-114752381D02*
X146176905Y-113752381D01*
X146415000Y-113752381D01*
X146557858Y-113800000D01*
X146653096Y-113895238D01*
X146700715Y-113990476D01*
X146748334Y-114180952D01*
X146748334Y-114323810D01*
X146700715Y-114514286D01*
X146653096Y-114609524D01*
X146557858Y-114704762D01*
X146415000Y-114752381D01*
X146176905Y-114752381D01*
X152312619Y-108616905D02*
X152312619Y-109235953D01*
X151931667Y-108902619D01*
X151931667Y-109045477D01*
X151884048Y-109140715D01*
X151836429Y-109188334D01*
X151741190Y-109235953D01*
X151503095Y-109235953D01*
X151407857Y-109188334D01*
X151360238Y-109140715D01*
X151312619Y-109045477D01*
X151312619Y-108759762D01*
X151360238Y-108664524D01*
X151407857Y-108616905D01*
X152312619Y-109521667D02*
X151312619Y-109855000D01*
X152312619Y-110188334D01*
X152312619Y-110426429D02*
X152312619Y-111045477D01*
X151931667Y-110712143D01*
X151931667Y-110855001D01*
X151884048Y-110950239D01*
X151836429Y-110997858D01*
X151741190Y-111045477D01*
X151503095Y-111045477D01*
X151407857Y-110997858D01*
X151360238Y-110950239D01*
X151312619Y-110855001D01*
X151312619Y-110569286D01*
X151360238Y-110474048D01*
X151407857Y-110426429D01*
X129206667Y-106132381D02*
X129825715Y-106132381D01*
X129492381Y-106513333D01*
X129635239Y-106513333D01*
X129730477Y-106560952D01*
X129778096Y-106608571D01*
X129825715Y-106703810D01*
X129825715Y-106941905D01*
X129778096Y-107037143D01*
X129730477Y-107084762D01*
X129635239Y-107132381D01*
X129349524Y-107132381D01*
X129254286Y-107084762D01*
X129206667Y-107037143D01*
X135604286Y-106227619D02*
X135651905Y-106180000D01*
X135747143Y-106132381D01*
X135985239Y-106132381D01*
X136080477Y-106180000D01*
X136128096Y-106227619D01*
X136175715Y-106322857D01*
X136175715Y-106418095D01*
X136128096Y-106560952D01*
X135556667Y-107132381D01*
X136175715Y-107132381D01*
X142525715Y-107132381D02*
X141954286Y-107132381D01*
X142240000Y-107132381D02*
X142240000Y-106132381D01*
X142144762Y-106275238D01*
X142049524Y-106370476D01*
X141954286Y-106418095D01*
X155979762Y-110243809D02*
X156027381Y-110100952D01*
X156027381Y-109862856D01*
X155979762Y-109767618D01*
X155932143Y-109719999D01*
X155836905Y-109672380D01*
X155741667Y-109672380D01*
X155646429Y-109719999D01*
X155598810Y-109767618D01*
X155551190Y-109862856D01*
X155503571Y-110053333D01*
X155455952Y-110148571D01*
X155408333Y-110196190D01*
X155313095Y-110243809D01*
X155217857Y-110243809D01*
X155122619Y-110196190D01*
X155075000Y-110148571D01*
X155027381Y-110053333D01*
X155027381Y-109815237D01*
X155075000Y-109672380D01*
X156027381Y-109243809D02*
X155027381Y-109243809D01*
X155027381Y-108862856D01*
X155075000Y-108767618D01*
X155122619Y-108719999D01*
X155217857Y-108672380D01*
X155360714Y-108672380D01*
X155455952Y-108719999D01*
X155503571Y-108767618D01*
X155551190Y-108862856D01*
X155551190Y-109243809D01*
X156027381Y-108243809D02*
X155027381Y-108243809D01*
X96702619Y-92178333D02*
X97702619Y-92178333D01*
X96988333Y-92511667D01*
X97702619Y-92845000D01*
X96702619Y-92845000D01*
X96702619Y-93797381D02*
X96702619Y-93321190D01*
X97702619Y-93321190D01*
X96750238Y-94511667D02*
X96702619Y-94416429D01*
X96702619Y-94225952D01*
X96750238Y-94130714D01*
X96845476Y-94083095D01*
X97226429Y-94083095D01*
X97321667Y-94130714D01*
X97369286Y-94225952D01*
X97369286Y-94416429D01*
X97321667Y-94511667D01*
X97226429Y-94559286D01*
X97131190Y-94559286D01*
X97035952Y-94083095D01*
X96702619Y-108148572D02*
X97702619Y-108148572D01*
X96988333Y-108481906D01*
X97702619Y-108815239D01*
X96702619Y-108815239D01*
X96702619Y-109862858D02*
X97178810Y-109529524D01*
X96702619Y-109291429D02*
X97702619Y-109291429D01*
X97702619Y-109672382D01*
X97655000Y-109767620D01*
X97607381Y-109815239D01*
X97512143Y-109862858D01*
X97369286Y-109862858D01*
X97274048Y-109815239D01*
X97226429Y-109767620D01*
X97178810Y-109672382D01*
X97178810Y-109291429D01*
X96702619Y-110291429D02*
X97369286Y-110291429D01*
X97702619Y-110291429D02*
X97655000Y-110243810D01*
X97607381Y-110291429D01*
X97655000Y-110339048D01*
X97702619Y-110291429D01*
X97607381Y-110291429D01*
X120364286Y-106227619D02*
X120411905Y-106180000D01*
X120507143Y-106132381D01*
X120745239Y-106132381D01*
X120840477Y-106180000D01*
X120888096Y-106227619D01*
X120935715Y-106322857D01*
X120935715Y-106418095D01*
X120888096Y-106560952D01*
X120316667Y-107132381D01*
X120935715Y-107132381D01*
X123475715Y-107132381D02*
X122904286Y-107132381D01*
X123190000Y-107132381D02*
X123190000Y-106132381D01*
X123094762Y-106275238D01*
X122999524Y-106370476D01*
X122904286Y-106418095D01*
X157408571Y-146938809D02*
X157456190Y-146795952D01*
X157503810Y-146748333D01*
X157599048Y-146700714D01*
X157741905Y-146700714D01*
X157837143Y-146748333D01*
X157884762Y-146795952D01*
X157932381Y-146891190D01*
X157932381Y-147272143D01*
X156932381Y-147272143D01*
X156932381Y-146938809D01*
X156980000Y-146843571D01*
X157027619Y-146795952D01*
X157122857Y-146748333D01*
X157218095Y-146748333D01*
X157313333Y-146795952D01*
X157360952Y-146843571D01*
X157408571Y-146938809D01*
X157408571Y-147272143D01*
X157932381Y-146129286D02*
X157884762Y-146224524D01*
X157837143Y-146272143D01*
X157741905Y-146319762D01*
X157456190Y-146319762D01*
X157360952Y-146272143D01*
X157313333Y-146224524D01*
X157265714Y-146129286D01*
X157265714Y-145986428D01*
X157313333Y-145891190D01*
X157360952Y-145843571D01*
X157456190Y-145795952D01*
X157741905Y-145795952D01*
X157837143Y-145843571D01*
X157884762Y-145891190D01*
X157932381Y-145986428D01*
X157932381Y-146129286D01*
X157932381Y-145224524D02*
X157884762Y-145319762D01*
X157837143Y-145367381D01*
X157741905Y-145415000D01*
X157456190Y-145415000D01*
X157360952Y-145367381D01*
X157313333Y-145319762D01*
X157265714Y-145224524D01*
X157265714Y-145081666D01*
X157313333Y-144986428D01*
X157360952Y-144938809D01*
X157456190Y-144891190D01*
X157741905Y-144891190D01*
X157837143Y-144938809D01*
X157884762Y-144986428D01*
X157932381Y-145081666D01*
X157932381Y-145224524D01*
X157884762Y-144510238D02*
X157932381Y-144415000D01*
X157932381Y-144224524D01*
X157884762Y-144129285D01*
X157789524Y-144081666D01*
X157741905Y-144081666D01*
X157646667Y-144129285D01*
X157599048Y-144224524D01*
X157599048Y-144367381D01*
X157551429Y-144462619D01*
X157456190Y-144510238D01*
X157408571Y-144510238D01*
X157313333Y-144462619D01*
X157265714Y-144367381D01*
X157265714Y-144224524D01*
X157313333Y-144129285D01*
X157265714Y-143795952D02*
X157265714Y-143415000D01*
X156932381Y-143653095D02*
X157789524Y-143653095D01*
X157884762Y-143605476D01*
X157932381Y-143510238D01*
X157932381Y-143415000D01*
X157281571Y-130301809D02*
X157329190Y-130158952D01*
X157376810Y-130111333D01*
X157472048Y-130063714D01*
X157614905Y-130063714D01*
X157710143Y-130111333D01*
X157757762Y-130158952D01*
X157805381Y-130254190D01*
X157805381Y-130635143D01*
X156805381Y-130635143D01*
X156805381Y-130301809D01*
X156853000Y-130206571D01*
X156900619Y-130158952D01*
X156995857Y-130111333D01*
X157091095Y-130111333D01*
X157186333Y-130158952D01*
X157233952Y-130206571D01*
X157281571Y-130301809D01*
X157281571Y-130635143D01*
X157805381Y-129492286D02*
X157757762Y-129587524D01*
X157710143Y-129635143D01*
X157614905Y-129682762D01*
X157329190Y-129682762D01*
X157233952Y-129635143D01*
X157186333Y-129587524D01*
X157138714Y-129492286D01*
X157138714Y-129349428D01*
X157186333Y-129254190D01*
X157233952Y-129206571D01*
X157329190Y-129158952D01*
X157614905Y-129158952D01*
X157710143Y-129206571D01*
X157757762Y-129254190D01*
X157805381Y-129349428D01*
X157805381Y-129492286D01*
X157805381Y-128587524D02*
X157757762Y-128682762D01*
X157710143Y-128730381D01*
X157614905Y-128778000D01*
X157329190Y-128778000D01*
X157233952Y-128730381D01*
X157186333Y-128682762D01*
X157138714Y-128587524D01*
X157138714Y-128444666D01*
X157186333Y-128349428D01*
X157233952Y-128301809D01*
X157329190Y-128254190D01*
X157614905Y-128254190D01*
X157710143Y-128301809D01*
X157757762Y-128349428D01*
X157805381Y-128444666D01*
X157805381Y-128587524D01*
X157757762Y-127873238D02*
X157805381Y-127778000D01*
X157805381Y-127587524D01*
X157757762Y-127492285D01*
X157662524Y-127444666D01*
X157614905Y-127444666D01*
X157519667Y-127492285D01*
X157472048Y-127587524D01*
X157472048Y-127730381D01*
X157424429Y-127825619D01*
X157329190Y-127873238D01*
X157281571Y-127873238D01*
X157186333Y-127825619D01*
X157138714Y-127730381D01*
X157138714Y-127587524D01*
X157186333Y-127492285D01*
X157138714Y-127158952D02*
X157138714Y-126778000D01*
X156805381Y-127016095D02*
X157662524Y-127016095D01*
X157757762Y-126968476D01*
X157805381Y-126873238D01*
X157805381Y-126778000D01*
X88916191Y-145978571D02*
X89059048Y-146026190D01*
X89106667Y-146073810D01*
X89154286Y-146169048D01*
X89154286Y-146311905D01*
X89106667Y-146407143D01*
X89059048Y-146454762D01*
X88963810Y-146502381D01*
X88582857Y-146502381D01*
X88582857Y-145502381D01*
X88916191Y-145502381D01*
X89011429Y-145550000D01*
X89059048Y-145597619D01*
X89106667Y-145692857D01*
X89106667Y-145788095D01*
X89059048Y-145883333D01*
X89011429Y-145930952D01*
X88916191Y-145978571D01*
X88582857Y-145978571D01*
X90011429Y-145835714D02*
X90011429Y-146502381D01*
X89582857Y-145835714D02*
X89582857Y-146359524D01*
X89630476Y-146454762D01*
X89725714Y-146502381D01*
X89868572Y-146502381D01*
X89963810Y-146454762D01*
X90011429Y-146407143D01*
X90916191Y-146454762D02*
X90820953Y-146502381D01*
X90630476Y-146502381D01*
X90535238Y-146454762D01*
X90487619Y-146407143D01*
X90440000Y-146311905D01*
X90440000Y-146026190D01*
X90487619Y-145930952D01*
X90535238Y-145883333D01*
X90630476Y-145835714D01*
X90820953Y-145835714D01*
X90916191Y-145883333D01*
X91344762Y-146502381D02*
X91344762Y-145502381D01*
X91440000Y-146121429D02*
X91725715Y-146502381D01*
X91725715Y-145835714D02*
X91344762Y-146216667D01*
X92154286Y-146121429D02*
X92916191Y-146121429D01*
X93392381Y-146502381D02*
X93392381Y-145502381D01*
X93868571Y-145835714D02*
X93868571Y-146502381D01*
X93868571Y-145930952D02*
X93916190Y-145883333D01*
X94011428Y-145835714D01*
X94154286Y-145835714D01*
X94249524Y-145883333D01*
X94297143Y-145978571D01*
X94297143Y-146502381D01*
X102314762Y-145978571D02*
X102457619Y-146026190D01*
X102505238Y-146073810D01*
X102552857Y-146169048D01*
X102552857Y-146311905D01*
X102505238Y-146407143D01*
X102457619Y-146454762D01*
X102362381Y-146502381D01*
X101981428Y-146502381D01*
X101981428Y-145502381D01*
X102314762Y-145502381D01*
X102410000Y-145550000D01*
X102457619Y-145597619D01*
X102505238Y-145692857D01*
X102505238Y-145788095D01*
X102457619Y-145883333D01*
X102410000Y-145930952D01*
X102314762Y-145978571D01*
X101981428Y-145978571D01*
X103410000Y-145835714D02*
X103410000Y-146502381D01*
X102981428Y-145835714D02*
X102981428Y-146359524D01*
X103029047Y-146454762D01*
X103124285Y-146502381D01*
X103267143Y-146502381D01*
X103362381Y-146454762D01*
X103410000Y-146407143D01*
X104314762Y-146454762D02*
X104219524Y-146502381D01*
X104029047Y-146502381D01*
X103933809Y-146454762D01*
X103886190Y-146407143D01*
X103838571Y-146311905D01*
X103838571Y-146026190D01*
X103886190Y-145930952D01*
X103933809Y-145883333D01*
X104029047Y-145835714D01*
X104219524Y-145835714D01*
X104314762Y-145883333D01*
X104743333Y-146502381D02*
X104743333Y-145502381D01*
X104838571Y-146121429D02*
X105124286Y-146502381D01*
X105124286Y-145835714D02*
X104743333Y-146216667D01*
X105552857Y-146121429D02*
X106314762Y-146121429D01*
X106981428Y-145502381D02*
X107171905Y-145502381D01*
X107267143Y-145550000D01*
X107362381Y-145645238D01*
X107410000Y-145835714D01*
X107410000Y-146169048D01*
X107362381Y-146359524D01*
X107267143Y-146454762D01*
X107171905Y-146502381D01*
X106981428Y-146502381D01*
X106886190Y-146454762D01*
X106790952Y-146359524D01*
X106743333Y-146169048D01*
X106743333Y-145835714D01*
X106790952Y-145645238D01*
X106886190Y-145550000D01*
X106981428Y-145502381D01*
X108267143Y-145835714D02*
X108267143Y-146502381D01*
X107838571Y-145835714D02*
X107838571Y-146359524D01*
X107886190Y-146454762D01*
X107981428Y-146502381D01*
X108124286Y-146502381D01*
X108219524Y-146454762D01*
X108267143Y-146407143D01*
X108600476Y-145835714D02*
X108981428Y-145835714D01*
X108743333Y-145502381D02*
X108743333Y-146359524D01*
X108790952Y-146454762D01*
X108886190Y-146502381D01*
X108981428Y-146502381D01*
X115419762Y-146502381D02*
X115419762Y-145502381D01*
X115753096Y-146216667D01*
X116086429Y-145502381D01*
X116086429Y-146502381D01*
X116705476Y-146502381D02*
X116610238Y-146454762D01*
X116562619Y-146407143D01*
X116515000Y-146311905D01*
X116515000Y-146026190D01*
X116562619Y-145930952D01*
X116610238Y-145883333D01*
X116705476Y-145835714D01*
X116848334Y-145835714D01*
X116943572Y-145883333D01*
X116991191Y-145930952D01*
X117038810Y-146026190D01*
X117038810Y-146311905D01*
X116991191Y-146407143D01*
X116943572Y-146454762D01*
X116848334Y-146502381D01*
X116705476Y-146502381D01*
X117467381Y-145835714D02*
X117467381Y-146502381D01*
X117467381Y-145930952D02*
X117515000Y-145883333D01*
X117610238Y-145835714D01*
X117753096Y-145835714D01*
X117848334Y-145883333D01*
X117895953Y-145978571D01*
X117895953Y-146502381D01*
X118372143Y-146502381D02*
X118372143Y-145835714D01*
X118372143Y-145502381D02*
X118324524Y-145550000D01*
X118372143Y-145597619D01*
X118419762Y-145550000D01*
X118372143Y-145502381D01*
X118372143Y-145597619D01*
X118705476Y-145835714D02*
X119086428Y-145835714D01*
X118848333Y-145502381D02*
X118848333Y-146359524D01*
X118895952Y-146454762D01*
X118991190Y-146502381D01*
X119086428Y-146502381D01*
X119562619Y-146502381D02*
X119467381Y-146454762D01*
X119419762Y-146407143D01*
X119372143Y-146311905D01*
X119372143Y-146026190D01*
X119419762Y-145930952D01*
X119467381Y-145883333D01*
X119562619Y-145835714D01*
X119705477Y-145835714D01*
X119800715Y-145883333D01*
X119848334Y-145930952D01*
X119895953Y-146026190D01*
X119895953Y-146311905D01*
X119848334Y-146407143D01*
X119800715Y-146454762D01*
X119705477Y-146502381D01*
X119562619Y-146502381D01*
X120324524Y-146502381D02*
X120324524Y-145835714D01*
X120324524Y-146026190D02*
X120372143Y-145930952D01*
X120419762Y-145883333D01*
X120515000Y-145835714D01*
X120610239Y-145835714D01*
X121657858Y-145454762D02*
X120800715Y-146740476D01*
X121943572Y-146216667D02*
X122419763Y-146216667D01*
X121848334Y-146502381D02*
X122181667Y-145502381D01*
X122515001Y-146502381D01*
X122848334Y-146502381D02*
X122848334Y-145835714D01*
X122848334Y-145930952D02*
X122895953Y-145883333D01*
X122991191Y-145835714D01*
X123134049Y-145835714D01*
X123229287Y-145883333D01*
X123276906Y-145978571D01*
X123276906Y-146502381D01*
X123276906Y-145978571D02*
X123324525Y-145883333D01*
X123419763Y-145835714D01*
X123562620Y-145835714D01*
X123657858Y-145883333D01*
X123705477Y-145978571D01*
X123705477Y-146502381D01*
X124181667Y-145835714D02*
X124181667Y-146835714D01*
X124181667Y-145883333D02*
X124276905Y-145835714D01*
X124467382Y-145835714D01*
X124562620Y-145883333D01*
X124610239Y-145930952D01*
X124657858Y-146026190D01*
X124657858Y-146311905D01*
X124610239Y-146407143D01*
X124562620Y-146454762D01*
X124467382Y-146502381D01*
X124276905Y-146502381D01*
X124181667Y-146454762D01*
X95432619Y-116785000D02*
X96432619Y-116785000D01*
X95718333Y-117118334D01*
X96432619Y-117451667D01*
X95432619Y-117451667D01*
X95432619Y-118356429D02*
X95956429Y-118356429D01*
X96051667Y-118308810D01*
X96099286Y-118213572D01*
X96099286Y-118023095D01*
X96051667Y-117927857D01*
X95480238Y-118356429D02*
X95432619Y-118261191D01*
X95432619Y-118023095D01*
X95480238Y-117927857D01*
X95575476Y-117880238D01*
X95670714Y-117880238D01*
X95765952Y-117927857D01*
X95813571Y-118023095D01*
X95813571Y-118261191D01*
X95861190Y-118356429D01*
X95432619Y-118832619D02*
X96099286Y-118832619D01*
X96432619Y-118832619D02*
X96385000Y-118785000D01*
X96337381Y-118832619D01*
X96385000Y-118880238D01*
X96432619Y-118832619D01*
X96337381Y-118832619D01*
X96099286Y-119308809D02*
X95432619Y-119308809D01*
X96004048Y-119308809D02*
X96051667Y-119356428D01*
X96099286Y-119451666D01*
X96099286Y-119594524D01*
X96051667Y-119689762D01*
X95956429Y-119737381D01*
X95432619Y-119737381D01*
X95813571Y-120213571D02*
X95813571Y-120975476D01*
X95480238Y-121404047D02*
X95432619Y-121546904D01*
X95432619Y-121785000D01*
X95480238Y-121880238D01*
X95527857Y-121927857D01*
X95623095Y-121975476D01*
X95718333Y-121975476D01*
X95813571Y-121927857D01*
X95861190Y-121880238D01*
X95908810Y-121785000D01*
X95956429Y-121594523D01*
X96004048Y-121499285D01*
X96051667Y-121451666D01*
X96146905Y-121404047D01*
X96242143Y-121404047D01*
X96337381Y-121451666D01*
X96385000Y-121499285D01*
X96432619Y-121594523D01*
X96432619Y-121832619D01*
X96385000Y-121975476D01*
X96099286Y-122308809D02*
X95432619Y-122499285D01*
X95908810Y-122689762D01*
X95432619Y-122880238D01*
X96099286Y-123070714D01*
X95432619Y-123451666D02*
X96099286Y-123451666D01*
X96432619Y-123451666D02*
X96385000Y-123404047D01*
X96337381Y-123451666D01*
X96385000Y-123499285D01*
X96432619Y-123451666D01*
X96337381Y-123451666D01*
X96099286Y-123784999D02*
X96099286Y-124165951D01*
X96432619Y-123927856D02*
X95575476Y-123927856D01*
X95480238Y-123975475D01*
X95432619Y-124070713D01*
X95432619Y-124165951D01*
X95480238Y-124927857D02*
X95432619Y-124832619D01*
X95432619Y-124642142D01*
X95480238Y-124546904D01*
X95527857Y-124499285D01*
X95623095Y-124451666D01*
X95908810Y-124451666D01*
X96004048Y-124499285D01*
X96051667Y-124546904D01*
X96099286Y-124642142D01*
X96099286Y-124832619D01*
X96051667Y-124927857D01*
X95432619Y-125356428D02*
X96432619Y-125356428D01*
X95432619Y-125785000D02*
X95956429Y-125785000D01*
X96051667Y-125737381D01*
X96099286Y-125642143D01*
X96099286Y-125499285D01*
X96051667Y-125404047D01*
X96004048Y-125356428D01*
X95432619Y-134612381D02*
X95432619Y-134040952D01*
X95432619Y-134326666D02*
X96432619Y-134326666D01*
X96289762Y-134231428D01*
X96194524Y-134136190D01*
X96146905Y-134040952D01*
X96337381Y-134993333D02*
X96385000Y-135040952D01*
X96432619Y-135136190D01*
X96432619Y-135374286D01*
X96385000Y-135469524D01*
X96337381Y-135517143D01*
X96242143Y-135564762D01*
X96146905Y-135564762D01*
X96004048Y-135517143D01*
X95432619Y-134945714D01*
X95432619Y-135564762D01*
X96432619Y-135850476D02*
X95432619Y-136183809D01*
X96432619Y-136517143D01*
X95813571Y-136850476D02*
X95813571Y-137612381D01*
X95956429Y-138421905D02*
X95908810Y-138564762D01*
X95861190Y-138612381D01*
X95765952Y-138660000D01*
X95623095Y-138660000D01*
X95527857Y-138612381D01*
X95480238Y-138564762D01*
X95432619Y-138469524D01*
X95432619Y-138088571D01*
X96432619Y-138088571D01*
X96432619Y-138421905D01*
X96385000Y-138517143D01*
X96337381Y-138564762D01*
X96242143Y-138612381D01*
X96146905Y-138612381D01*
X96051667Y-138564762D01*
X96004048Y-138517143D01*
X95956429Y-138421905D01*
X95956429Y-138088571D01*
X95718333Y-139040952D02*
X95718333Y-139517143D01*
X95432619Y-138945714D02*
X96432619Y-139279047D01*
X95432619Y-139612381D01*
X96432619Y-139802857D02*
X96432619Y-140374286D01*
X95432619Y-140088571D02*
X96432619Y-140088571D01*
D10*
X110490000Y-75565000D02*
X110490000Y-78740000D01*
X105410000Y-78740000D02*
X105410000Y-75565000D01*
D11*
X109188095Y-77382619D02*
X108569047Y-77382619D01*
X108902381Y-77001667D01*
X108759523Y-77001667D01*
X108664285Y-76954048D01*
X108616666Y-76906429D01*
X108569047Y-76811190D01*
X108569047Y-76573095D01*
X108616666Y-76477857D01*
X108664285Y-76430238D01*
X108759523Y-76382619D01*
X109045238Y-76382619D01*
X109140476Y-76430238D01*
X109188095Y-76477857D01*
X108283333Y-77382619D02*
X107950000Y-76382619D01*
X107616666Y-77382619D01*
X107378571Y-77382619D02*
X106759523Y-77382619D01*
X107092857Y-77001667D01*
X106949999Y-77001667D01*
X106854761Y-76954048D01*
X106807142Y-76906429D01*
X106759523Y-76811190D01*
X106759523Y-76573095D01*
X106807142Y-76477857D01*
X106854761Y-76430238D01*
X106949999Y-76382619D01*
X107235714Y-76382619D01*
X107330952Y-76430238D01*
X107378571Y-76477857D01*
D10*
X100330000Y-78740000D02*
X100330000Y-75565000D01*
D11*
X103060476Y-77382619D02*
X103536667Y-77382619D01*
X103584286Y-76906429D01*
X103536667Y-76954048D01*
X103441429Y-77001667D01*
X103203333Y-77001667D01*
X103108095Y-76954048D01*
X103060476Y-76906429D01*
X103012857Y-76811190D01*
X103012857Y-76573095D01*
X103060476Y-76477857D01*
X103108095Y-76430238D01*
X103203333Y-76382619D01*
X103441429Y-76382619D01*
X103536667Y-76430238D01*
X103584286Y-76477857D01*
X102727143Y-77382619D02*
X102393810Y-76382619D01*
X102060476Y-77382619D01*
D12*
X141860000Y-127255000D02*
X141860000Y-125335000D01*
X141860000Y-120395000D02*
X141860000Y-122315000D01*
X150240000Y-128015000D02*
X150240000Y-125335000D01*
X150240000Y-119635000D02*
X150240000Y-122315000D01*
X150240000Y-128015000D02*
X142620000Y-128015000D01*
X142620000Y-128015000D02*
X141860000Y-127255000D01*
X141860000Y-120395000D02*
X142620000Y-119635000D01*
X142620000Y-119635000D02*
X150240000Y-119635000D01*
X115065000Y-127765000D02*
X115065000Y-126215000D01*
X115065000Y-122425000D02*
X115065000Y-123975000D01*
X109725000Y-123185000D02*
X109725000Y-123975000D01*
X109725000Y-127005000D02*
X109725000Y-126215000D01*
X115065000Y-122425000D02*
X110485000Y-122425000D01*
X110485000Y-122425000D02*
X109725000Y-123185000D01*
X109725000Y-127005000D02*
X110485000Y-127765000D01*
X110485000Y-127765000D02*
X115065000Y-127765000D01*
X98935000Y-127760000D02*
X98935000Y-125580000D01*
X98935000Y-121160000D02*
X98935000Y-123340000D01*
X105535000Y-121920000D02*
X105535000Y-123340000D01*
X105535000Y-127000000D02*
X105535000Y-125580000D01*
X98935000Y-121160000D02*
X104775000Y-121160000D01*
X104775000Y-121160000D02*
X105535000Y-121920000D01*
X105535000Y-127000000D02*
X104775000Y-127760000D01*
X104775000Y-127760000D02*
X98935000Y-127760000D01*
X119100309Y-125099296D02*
G75*
G02X119060000Y-122790000I-40309J1154296D01*
G01*
X119039879Y-122790948D02*
G75*
G02X120189000Y-124185000I20121J-1154052D01*
G01*
X127380000Y-127565000D02*
X117730000Y-127565000D01*
X127380000Y-122614000D02*
X117730000Y-122614000D01*
X127380000Y-127565000D02*
X127380000Y-122614000D01*
X117730000Y-127565000D02*
X117730000Y-122614000D01*
X118184000Y-124679000D02*
X119795000Y-123069000D01*
X118324000Y-124820000D02*
X119936000Y-123210000D01*
X83125000Y-90745000D02*
X83125000Y-95945000D01*
X93345000Y-90745000D02*
X83125000Y-90745000D01*
X95945000Y-95945000D02*
X83125000Y-95945000D01*
X93345000Y-90745000D02*
X93345000Y-93345000D01*
X93345000Y-93345000D02*
X95945000Y-93345000D01*
X95945000Y-93345000D02*
X95945000Y-95945000D01*
X94615000Y-90745000D02*
X95945000Y-90745000D01*
X95945000Y-90745000D02*
X95945000Y-92075000D01*
X94425000Y-136915000D02*
X94425000Y-129915000D01*
X94425000Y-129915000D02*
X84525000Y-129915000D01*
X84525000Y-129915000D02*
X84525000Y-135115000D01*
X84525000Y-135115000D02*
X83125000Y-135115000D01*
X83125000Y-135115000D02*
X83125000Y-136915000D01*
X94425000Y-136915000D02*
X94425000Y-143915000D01*
X94425000Y-143915000D02*
X84525000Y-143915000D01*
X84525000Y-143915000D02*
X84525000Y-138715000D01*
X84525000Y-138715000D02*
X83125000Y-138715000D01*
X83125000Y-138715000D02*
X83125000Y-136915000D01*
X94675000Y-132515000D02*
X94675000Y-129665000D01*
X94675000Y-129665000D02*
X91825000Y-129665000D01*
X94425000Y-121675000D02*
X94425000Y-114675000D01*
X94425000Y-114675000D02*
X84525000Y-114675000D01*
X84525000Y-114675000D02*
X84525000Y-119875000D01*
X84525000Y-119875000D02*
X83125000Y-119875000D01*
X83125000Y-119875000D02*
X83125000Y-121675000D01*
X94425000Y-121675000D02*
X94425000Y-128675000D01*
X94425000Y-128675000D02*
X84525000Y-128675000D01*
X84525000Y-128675000D02*
X84525000Y-123475000D01*
X84525000Y-123475000D02*
X83125000Y-123475000D01*
X83125000Y-123475000D02*
X83125000Y-121675000D01*
X94675000Y-117275000D02*
X94675000Y-114425000D01*
X94675000Y-114425000D02*
X91825000Y-114425000D01*
X83125000Y-106620000D02*
X83125000Y-111820000D01*
X93345000Y-106620000D02*
X83125000Y-106620000D01*
X95945000Y-111820000D02*
X83125000Y-111820000D01*
X93345000Y-106620000D02*
X93345000Y-109220000D01*
X93345000Y-109220000D02*
X95945000Y-109220000D01*
X95945000Y-109220000D02*
X95945000Y-111820000D01*
X94615000Y-106620000D02*
X95945000Y-106620000D01*
X95945000Y-106620000D02*
X95945000Y-107950000D01*
X103055000Y-135950000D02*
X105595000Y-137220000D01*
X104325000Y-139760000D02*
X104325000Y-141030000D01*
X104325000Y-141030000D02*
X103055000Y-141030000D01*
X103055000Y-133410000D02*
X104325000Y-133410000D01*
X104325000Y-133410000D02*
X104325000Y-134680000D01*
X104325000Y-134680000D02*
X105595000Y-134680000D01*
X105595000Y-134680000D02*
X105595000Y-139760000D01*
X105595000Y-139760000D02*
X103055000Y-139760000D01*
X103055000Y-139760000D02*
X103055000Y-134680000D01*
X103055000Y-134680000D02*
X104325000Y-134680000D01*
X127725000Y-143510000D02*
X98425000Y-143510000D01*
X127725000Y-130810000D02*
X127725000Y-143510000D01*
X98425000Y-130810000D02*
X127725000Y-130810000D01*
X98425000Y-143510000D02*
X98425000Y-130810000D01*
D11*
X96550000Y-71120000D02*
X96550000Y-86820000D01*
X96550000Y-86820000D02*
X82550000Y-86820000D01*
X82550000Y-71120000D02*
X96550000Y-71120000D01*
X82550000Y-71120000D02*
X82550000Y-86820000D01*
X162560000Y-88900000D02*
X162560000Y-96520000D01*
X171450000Y-96520000D02*
X171450000Y-88900000D01*
X162560000Y-96520000D02*
X171450000Y-96520000D01*
X162560000Y-88900000D02*
X171450000Y-88900000D01*
X158750000Y-87630000D02*
X154940000Y-87630000D01*
X154940000Y-87630000D02*
X154940000Y-88900000D01*
X154940000Y-88900000D02*
X154940000Y-90170000D01*
X154940000Y-90170000D02*
X158750000Y-90170000D01*
X158750000Y-90170000D02*
X158750000Y-87630000D01*
X121920000Y-90170000D02*
X125730000Y-90170000D01*
X125730000Y-90170000D02*
X125730000Y-95250000D01*
X125730000Y-95250000D02*
X121920000Y-95250000D01*
X121920000Y-95250000D02*
X121920000Y-90170000D01*
X144780000Y-86360000D02*
X151130000Y-92710000D01*
X151130000Y-92710000D02*
X144780000Y-99060000D01*
X144780000Y-99060000D02*
X138430000Y-92710000D01*
X138430000Y-92710000D02*
X144780000Y-86360000D01*
X170180000Y-101600000D02*
X119380000Y-101600000D01*
X119380000Y-101600000D02*
X119380000Y-83820000D01*
X119380000Y-83820000D02*
X170180000Y-83820000D01*
X170180000Y-83820000D02*
X170180000Y-101600000D01*
D12*
X100730000Y-114940000D02*
X101990000Y-114940000D01*
X107550000Y-114940000D02*
X106290000Y-114940000D01*
X100730000Y-111180000D02*
X100730000Y-114940000D01*
X107550000Y-108930000D02*
X107550000Y-114940000D01*
X148770000Y-142360000D02*
X150270000Y-142360000D01*
X150270000Y-142360000D02*
X150270000Y-140550000D01*
X150270000Y-140550000D02*
X155395000Y-140550000D01*
X148770000Y-131960000D02*
X150270000Y-131960000D01*
X150270000Y-131960000D02*
X150270000Y-133770000D01*
X150270000Y-133770000D02*
X151370000Y-133770000D01*
X149920000Y-71060000D02*
X147260000Y-71060000D01*
X149920000Y-76200000D02*
X149920000Y-71060000D01*
X147260000Y-76200000D02*
X147260000Y-71060000D01*
X149920000Y-76200000D02*
X147260000Y-76200000D01*
X149920000Y-77470000D02*
X149920000Y-78800000D01*
X149920000Y-78800000D02*
X148590000Y-78800000D01*
X147260000Y-115630000D02*
X149920000Y-115630000D01*
X147260000Y-110490000D02*
X147260000Y-115630000D01*
X149920000Y-110490000D02*
X149920000Y-115630000D01*
X147260000Y-110490000D02*
X149920000Y-110490000D01*
X147260000Y-109220000D02*
X147260000Y-107890000D01*
X147260000Y-107890000D02*
X148590000Y-107890000D01*
X116208500Y-95754500D02*
X118868500Y-95754500D01*
X116208500Y-93154500D02*
X116208500Y-95754500D01*
X118868500Y-93154500D02*
X118868500Y-95754500D01*
X116208500Y-93154500D02*
X118868500Y-93154500D01*
X116208500Y-91884500D02*
X116208500Y-90554500D01*
X116208500Y-90554500D02*
X117538500Y-90554500D01*
X102460000Y-154900000D02*
G75*
G03X102460000Y-154900000I-1750000J0D01*
G01*
X111860000Y-154900000D02*
G75*
G03X111860000Y-154900000I-1750000J0D01*
G01*
X105410000Y-147510000D02*
X102610000Y-147510000D01*
X102610000Y-147510000D02*
X102610000Y-157410000D01*
X102610000Y-157410000D02*
X103610000Y-157410000D01*
X103610000Y-157410000D02*
X103610000Y-158810000D01*
X103610000Y-158810000D02*
X105410000Y-158810000D01*
X105410000Y-147510000D02*
X108210000Y-147510000D01*
X108210000Y-147510000D02*
X108210000Y-157410000D01*
X108210000Y-157410000D02*
X107210000Y-157410000D01*
X107210000Y-157410000D02*
X107210000Y-158810000D01*
X107210000Y-158810000D02*
X105410000Y-158810000D01*
X105210000Y-147260000D02*
X102360000Y-147260000D01*
X102360000Y-147260000D02*
X102360000Y-150110000D01*
X88490000Y-154900000D02*
G75*
G03X88490000Y-154900000I-1750000J0D01*
G01*
X97890000Y-154900000D02*
G75*
G03X97890000Y-154900000I-1750000J0D01*
G01*
X91440000Y-147510000D02*
X88640000Y-147510000D01*
X88640000Y-147510000D02*
X88640000Y-157410000D01*
X88640000Y-157410000D02*
X89640000Y-157410000D01*
X89640000Y-157410000D02*
X89640000Y-158810000D01*
X89640000Y-158810000D02*
X91440000Y-158810000D01*
X91440000Y-147510000D02*
X94240000Y-147510000D01*
X94240000Y-147510000D02*
X94240000Y-157410000D01*
X94240000Y-157410000D02*
X93240000Y-157410000D01*
X93240000Y-157410000D02*
X93240000Y-158810000D01*
X93240000Y-158810000D02*
X91440000Y-158810000D01*
X91240000Y-147260000D02*
X88390000Y-147260000D01*
X88390000Y-147260000D02*
X88390000Y-150110000D01*
X170240000Y-111820000D02*
X170240000Y-106620000D01*
X160020000Y-111820000D02*
X170240000Y-111820000D01*
X157420000Y-106620000D02*
X170240000Y-106620000D01*
X160020000Y-111820000D02*
X160020000Y-109220000D01*
X160020000Y-109220000D02*
X157420000Y-109220000D01*
X157420000Y-109220000D02*
X157420000Y-106620000D01*
X158750000Y-111820000D02*
X157420000Y-111820000D01*
X157420000Y-111820000D02*
X157420000Y-110490000D01*
X170240000Y-69790000D02*
X167580000Y-69790000D01*
X170240000Y-77470000D02*
X170240000Y-69790000D01*
X167580000Y-77470000D02*
X167580000Y-69790000D01*
X170240000Y-77470000D02*
X167580000Y-77470000D01*
X170240000Y-78740000D02*
X170240000Y-80070000D01*
X170240000Y-80070000D02*
X168910000Y-80070000D01*
X140910000Y-115630000D02*
X143570000Y-115630000D01*
X140910000Y-110490000D02*
X140910000Y-115630000D01*
X143570000Y-110490000D02*
X143570000Y-115630000D01*
X140910000Y-110490000D02*
X143570000Y-110490000D01*
X140910000Y-109220000D02*
X140910000Y-107890000D01*
X140910000Y-107890000D02*
X142240000Y-107890000D01*
X134560000Y-115630000D02*
X137220000Y-115630000D01*
X134560000Y-110490000D02*
X134560000Y-115630000D01*
X137220000Y-110490000D02*
X137220000Y-115630000D01*
X134560000Y-110490000D02*
X137220000Y-110490000D01*
X134560000Y-109220000D02*
X134560000Y-107890000D01*
X134560000Y-107890000D02*
X135890000Y-107890000D01*
X128210000Y-115630000D02*
X130870000Y-115630000D01*
X128210000Y-110490000D02*
X128210000Y-115630000D01*
X130870000Y-110490000D02*
X130870000Y-115630000D01*
X128210000Y-110490000D02*
X130870000Y-110490000D01*
X128210000Y-109220000D02*
X128210000Y-107890000D01*
X128210000Y-107890000D02*
X129540000Y-107890000D01*
X121860000Y-115630000D02*
X124520000Y-115630000D01*
X121860000Y-110490000D02*
X121860000Y-115630000D01*
X124520000Y-110490000D02*
X124520000Y-115630000D01*
X121860000Y-110490000D02*
X124520000Y-110490000D01*
X121860000Y-109220000D02*
X121860000Y-107890000D01*
X121860000Y-107890000D02*
X123190000Y-107890000D01*
X120405000Y-147510000D02*
X113405000Y-147510000D01*
X113405000Y-147510000D02*
X113405000Y-157410000D01*
X113405000Y-157410000D02*
X118605000Y-157410000D01*
X118605000Y-157410000D02*
X118605000Y-158810000D01*
X118605000Y-158810000D02*
X120405000Y-158810000D01*
X120405000Y-147510000D02*
X127405000Y-147510000D01*
X127405000Y-147510000D02*
X127405000Y-157410000D01*
X127405000Y-157410000D02*
X122205000Y-157410000D01*
X122205000Y-157410000D02*
X122205000Y-158810000D01*
X122205000Y-158810000D02*
X120405000Y-158810000D01*
X116005000Y-147260000D02*
X113155000Y-147260000D01*
X113155000Y-147260000D02*
X113155000Y-150110000D01*
X168080000Y-133605000D02*
G75*
G03X168080000Y-133605000I-1750000J0D01*
G01*
X168080000Y-124205000D02*
G75*
G03X168080000Y-124205000I-1750000J0D01*
G01*
X158940000Y-128905000D02*
X158940000Y-131705000D01*
X158940000Y-131705000D02*
X168840000Y-131705000D01*
X168840000Y-131705000D02*
X168840000Y-130705000D01*
X168840000Y-130705000D02*
X170240000Y-130705000D01*
X170240000Y-130705000D02*
X170240000Y-128905000D01*
X158940000Y-128905000D02*
X158940000Y-126105000D01*
X158940000Y-126105000D02*
X168840000Y-126105000D01*
X168840000Y-126105000D02*
X168840000Y-127105000D01*
X168840000Y-127105000D02*
X170240000Y-127105000D01*
X170240000Y-127105000D02*
X170240000Y-128905000D01*
X158690000Y-129105000D02*
X158690000Y-131955000D01*
X158690000Y-131955000D02*
X161540000Y-131955000D01*
X168080000Y-150115000D02*
G75*
G03X168080000Y-150115000I-1750000J0D01*
G01*
X168080000Y-140715000D02*
G75*
G03X168080000Y-140715000I-1750000J0D01*
G01*
X158940000Y-145415000D02*
X158940000Y-148215000D01*
X158940000Y-148215000D02*
X168840000Y-148215000D01*
X168840000Y-148215000D02*
X168840000Y-147215000D01*
X168840000Y-147215000D02*
X170240000Y-147215000D01*
X170240000Y-147215000D02*
X170240000Y-145415000D01*
X158940000Y-145415000D02*
X158940000Y-142615000D01*
X158940000Y-142615000D02*
X168840000Y-142615000D01*
X168840000Y-142615000D02*
X168840000Y-143615000D01*
X168840000Y-143615000D02*
X170240000Y-143615000D01*
X170240000Y-143615000D02*
X170240000Y-145415000D01*
X158690000Y-145615000D02*
X158690000Y-148465000D01*
X158690000Y-148465000D02*
X161540000Y-148465000D01*
X105470000Y-74990000D02*
X105470000Y-69790000D01*
X105410000Y-74990000D02*
X105470000Y-74990000D01*
X102810000Y-69790000D02*
X105470000Y-69790000D01*
X105410000Y-74990000D02*
X105410000Y-72390000D01*
X105410000Y-72390000D02*
X102810000Y-72390000D01*
X102810000Y-72390000D02*
X102810000Y-69790000D01*
X104140000Y-74990000D02*
X102810000Y-74990000D01*
X102810000Y-74990000D02*
X102810000Y-73660000D01*
X102930000Y-74990000D02*
X102930000Y-69790000D01*
X102870000Y-74990000D02*
X102930000Y-74990000D01*
X100270000Y-69790000D02*
X102930000Y-69790000D01*
X102870000Y-74990000D02*
X102870000Y-72390000D01*
X102870000Y-72390000D02*
X100270000Y-72390000D01*
X100270000Y-72390000D02*
X100270000Y-69790000D01*
X101600000Y-74990000D02*
X100270000Y-74990000D01*
X100270000Y-74990000D02*
X100270000Y-73660000D01*
X135259296Y-140614691D02*
G75*
G02X132950000Y-140655000I-1154296J-40309D01*
G01*
X132950948Y-140675121D02*
G75*
G02X134345000Y-139526000I1154052J20121D01*
G01*
X137725000Y-132335000D02*
X137725000Y-141985000D01*
X132774000Y-132335000D02*
X132774000Y-141985000D01*
X137725000Y-132335000D02*
X132774000Y-132335000D01*
X137725000Y-141985000D02*
X132774000Y-141985000D01*
X134839000Y-141531000D02*
X133229000Y-139920000D01*
X134980000Y-141391000D02*
X133370000Y-139779000D01*
X130875000Y-134090000D02*
X129475000Y-134090000D01*
X129475000Y-134090000D02*
X129475000Y-136890000D01*
X130875000Y-134090000D02*
X130875000Y-136890000D01*
X167535000Y-137860000D02*
X167535000Y-136460000D01*
X167535000Y-136460000D02*
X164735000Y-136460000D01*
X167535000Y-137860000D02*
X164735000Y-137860000D01*
X131055000Y-139100000D02*
X131055000Y-140300000D01*
X129295000Y-140300000D02*
X129295000Y-139100000D01*
X161325000Y-136280000D02*
X162525000Y-136280000D01*
X162525000Y-138040000D02*
X161325000Y-138040000D01*
X121980000Y-69790000D02*
X119320000Y-69790000D01*
X121980000Y-77470000D02*
X121980000Y-69790000D01*
X119320000Y-77470000D02*
X119320000Y-69790000D01*
X121980000Y-77470000D02*
X119320000Y-77470000D01*
X121980000Y-78740000D02*
X121980000Y-80070000D01*
X121980000Y-80070000D02*
X120650000Y-80070000D01*
X124520000Y-69790000D02*
X121860000Y-69790000D01*
X124520000Y-77470000D02*
X124520000Y-69790000D01*
X121860000Y-77470000D02*
X121860000Y-69790000D01*
X124520000Y-77470000D02*
X121860000Y-77470000D01*
X124520000Y-78740000D02*
X124520000Y-80070000D01*
X124520000Y-80070000D02*
X123190000Y-80070000D01*
X127060000Y-69790000D02*
X124400000Y-69790000D01*
X127060000Y-77470000D02*
X127060000Y-69790000D01*
X124400000Y-77470000D02*
X124400000Y-69790000D01*
X127060000Y-77470000D02*
X124400000Y-77470000D01*
X127060000Y-78740000D02*
X127060000Y-80070000D01*
X127060000Y-80070000D02*
X125730000Y-80070000D01*
X129600000Y-69790000D02*
X126940000Y-69790000D01*
X129600000Y-77470000D02*
X129600000Y-69790000D01*
X126940000Y-77470000D02*
X126940000Y-69790000D01*
X129600000Y-77470000D02*
X126940000Y-77470000D01*
X129600000Y-78740000D02*
X129600000Y-80070000D01*
X129600000Y-80070000D02*
X128270000Y-80070000D01*
X167700000Y-69790000D02*
X165040000Y-69790000D01*
X167700000Y-77470000D02*
X167700000Y-69790000D01*
X165040000Y-77470000D02*
X165040000Y-69790000D01*
X167700000Y-77470000D02*
X165040000Y-77470000D01*
X167700000Y-78740000D02*
X167700000Y-80070000D01*
X167700000Y-80070000D02*
X166370000Y-80070000D01*
X165160000Y-69790000D02*
X162500000Y-69790000D01*
X165160000Y-77470000D02*
X165160000Y-69790000D01*
X162500000Y-77470000D02*
X162500000Y-69790000D01*
X165160000Y-77470000D02*
X162500000Y-77470000D01*
X165160000Y-78740000D02*
X165160000Y-80070000D01*
X165160000Y-80070000D02*
X163830000Y-80070000D01*
X162620000Y-69790000D02*
X159960000Y-69790000D01*
X162620000Y-77470000D02*
X162620000Y-69790000D01*
X159960000Y-77470000D02*
X159960000Y-69790000D01*
X162620000Y-77470000D02*
X159960000Y-77470000D01*
X162620000Y-78740000D02*
X162620000Y-80070000D01*
X162620000Y-80070000D02*
X161290000Y-80070000D01*
X119320000Y-115630000D02*
X121980000Y-115630000D01*
X119320000Y-110490000D02*
X119320000Y-115630000D01*
X121980000Y-110490000D02*
X121980000Y-115630000D01*
X119320000Y-110490000D02*
X121980000Y-110490000D01*
X119320000Y-109220000D02*
X119320000Y-107890000D01*
X119320000Y-107890000D02*
X120650000Y-107890000D01*
X110550000Y-74990000D02*
X110550000Y-69790000D01*
X110490000Y-74990000D02*
X110550000Y-74990000D01*
X107890000Y-69790000D02*
X110550000Y-69790000D01*
X110490000Y-74990000D02*
X110490000Y-72390000D01*
X110490000Y-72390000D02*
X107890000Y-72390000D01*
X107890000Y-72390000D02*
X107890000Y-69790000D01*
X109220000Y-74990000D02*
X107890000Y-74990000D01*
X107890000Y-74990000D02*
X107890000Y-73660000D01*
X108010000Y-74990000D02*
X108010000Y-69790000D01*
X107950000Y-74990000D02*
X108010000Y-74990000D01*
X105350000Y-69790000D02*
X108010000Y-69790000D01*
X107950000Y-74990000D02*
X107950000Y-72390000D01*
X107950000Y-72390000D02*
X105350000Y-72390000D01*
X105350000Y-72390000D02*
X105350000Y-69790000D01*
X106680000Y-74990000D02*
X105350000Y-74990000D01*
X105350000Y-74990000D02*
X105350000Y-73660000D01*
X108517500Y-115002500D02*
X109687500Y-115002500D01*
X113097500Y-115002500D02*
X111927500Y-115002500D01*
X112327500Y-110422500D02*
X111927500Y-110422500D01*
X109287500Y-110422500D02*
X109687500Y-110422500D01*
X108517500Y-111192500D02*
X108517500Y-115002500D01*
X108517500Y-111192500D02*
X109287500Y-110422500D01*
X113097500Y-111192500D02*
X113097500Y-115002500D01*
X113097500Y-111192500D02*
X112327500Y-110422500D01*
X131955000Y-121160000D02*
X131955000Y-123340000D01*
X131955000Y-127760000D02*
X131955000Y-125580000D01*
X138555000Y-121920000D02*
X138555000Y-123340000D01*
X138555000Y-127000000D02*
X138555000Y-125580000D01*
X131955000Y-121160000D02*
X137795000Y-121160000D01*
X137795000Y-121160000D02*
X138555000Y-121920000D01*
X138555000Y-127000000D02*
X137795000Y-127760000D01*
X137795000Y-127760000D02*
X131955000Y-127760000D01*
X144840000Y-104835000D02*
X144840000Y-102175000D01*
X142240000Y-104835000D02*
X144840000Y-104835000D01*
X142240000Y-102175000D02*
X144840000Y-102175000D01*
X142240000Y-104835000D02*
X142240000Y-102175000D01*
X140970000Y-104835000D02*
X139640000Y-104835000D01*
X139640000Y-104835000D02*
X139640000Y-103505000D01*
X146275000Y-154900000D02*
G75*
G03X146275000Y-154900000I-1750000J0D01*
G01*
X155675000Y-154900000D02*
G75*
G03X155675000Y-154900000I-1750000J0D01*
G01*
X149225000Y-147510000D02*
X146425000Y-147510000D01*
X146425000Y-147510000D02*
X146425000Y-157410000D01*
X146425000Y-157410000D02*
X147425000Y-157410000D01*
X147425000Y-157410000D02*
X147425000Y-158810000D01*
X147425000Y-158810000D02*
X149225000Y-158810000D01*
X149225000Y-147510000D02*
X152025000Y-147510000D01*
X152025000Y-147510000D02*
X152025000Y-157410000D01*
X152025000Y-157410000D02*
X151025000Y-157410000D01*
X151025000Y-157410000D02*
X151025000Y-158810000D01*
X151025000Y-158810000D02*
X149225000Y-158810000D01*
X149025000Y-147260000D02*
X146175000Y-147260000D01*
X146175000Y-147260000D02*
X146175000Y-150110000D01*
X132305000Y-154900000D02*
G75*
G03X132305000Y-154900000I-1750000J0D01*
G01*
X141705000Y-154900000D02*
G75*
G03X141705000Y-154900000I-1750000J0D01*
G01*
X135255000Y-147510000D02*
X132455000Y-147510000D01*
X132455000Y-147510000D02*
X132455000Y-157410000D01*
X132455000Y-157410000D02*
X133455000Y-157410000D01*
X133455000Y-157410000D02*
X133455000Y-158810000D01*
X133455000Y-158810000D02*
X135255000Y-158810000D01*
X135255000Y-147510000D02*
X138055000Y-147510000D01*
X138055000Y-147510000D02*
X138055000Y-157410000D01*
X138055000Y-157410000D02*
X137055000Y-157410000D01*
X137055000Y-157410000D02*
X137055000Y-158810000D01*
X137055000Y-158810000D02*
X135255000Y-158810000D01*
X135055000Y-147260000D02*
X132205000Y-147260000D01*
X132205000Y-147260000D02*
X132205000Y-150110000D01*
X139760000Y-69790000D02*
X137100000Y-69790000D01*
X139760000Y-77470000D02*
X139760000Y-69790000D01*
X137100000Y-77470000D02*
X137100000Y-69790000D01*
X139760000Y-77470000D02*
X137100000Y-77470000D01*
X139760000Y-78740000D02*
X139760000Y-80070000D01*
X139760000Y-80070000D02*
X138430000Y-80070000D01*
X134560000Y-78800000D02*
X137220000Y-78800000D01*
X134560000Y-73660000D02*
X134560000Y-78800000D01*
X137220000Y-73660000D02*
X137220000Y-78800000D01*
X134560000Y-73660000D02*
X137220000Y-73660000D01*
X134560000Y-72390000D02*
X134560000Y-71060000D01*
X134560000Y-71060000D02*
X135890000Y-71060000D01*
D11*
X148264643Y-119419643D02*
X148217024Y-119467262D01*
X148074167Y-119514881D01*
X147978929Y-119514881D01*
X147836071Y-119467262D01*
X147740833Y-119372024D01*
X147693214Y-119276786D01*
X147645595Y-119086310D01*
X147645595Y-118943452D01*
X147693214Y-118752976D01*
X147740833Y-118657738D01*
X147836071Y-118562500D01*
X147978929Y-118514881D01*
X148074167Y-118514881D01*
X148217024Y-118562500D01*
X148264643Y-118610119D01*
X149217024Y-119514881D02*
X148645595Y-119514881D01*
X148931309Y-119514881D02*
X148931309Y-118514881D01*
X148836071Y-118657738D01*
X148740833Y-118752976D01*
X148645595Y-118800595D01*
X149788452Y-118943452D02*
X149693214Y-118895833D01*
X149645595Y-118848214D01*
X149597976Y-118752976D01*
X149597976Y-118705357D01*
X149645595Y-118610119D01*
X149693214Y-118562500D01*
X149788452Y-118514881D01*
X149978929Y-118514881D01*
X150074167Y-118562500D01*
X150121786Y-118610119D01*
X150169405Y-118705357D01*
X150169405Y-118752976D01*
X150121786Y-118848214D01*
X150074167Y-118895833D01*
X149978929Y-118943452D01*
X149788452Y-118943452D01*
X149693214Y-118991071D01*
X149645595Y-119038690D01*
X149597976Y-119133929D01*
X149597976Y-119324405D01*
X149645595Y-119419643D01*
X149693214Y-119467262D01*
X149788452Y-119514881D01*
X149978929Y-119514881D01*
X150074167Y-119467262D01*
X150121786Y-119419643D01*
X150169405Y-119324405D01*
X150169405Y-119133929D01*
X150121786Y-119038690D01*
X150074167Y-118991071D01*
X149978929Y-118943452D01*
X140889048Y-127806429D02*
X141650953Y-127806429D01*
X141270001Y-128187381D02*
X141270001Y-127425476D01*
X114133334Y-122277143D02*
X114085715Y-122324762D01*
X113942858Y-122372381D01*
X113847620Y-122372381D01*
X113704762Y-122324762D01*
X113609524Y-122229524D01*
X113561905Y-122134286D01*
X113514286Y-121943810D01*
X113514286Y-121800952D01*
X113561905Y-121610476D01*
X113609524Y-121515238D01*
X113704762Y-121420000D01*
X113847620Y-121372381D01*
X113942858Y-121372381D01*
X114085715Y-121420000D01*
X114133334Y-121467619D01*
X114466667Y-121372381D02*
X115133334Y-121372381D01*
X114704762Y-122372381D01*
X108634048Y-127526429D02*
X109395953Y-127526429D01*
X109015001Y-127907381D02*
X109015001Y-127145476D01*
X99528334Y-121007143D02*
X99480715Y-121054762D01*
X99337858Y-121102381D01*
X99242620Y-121102381D01*
X99099762Y-121054762D01*
X99004524Y-120959524D01*
X98956905Y-120864286D01*
X98909286Y-120673810D01*
X98909286Y-120530952D01*
X98956905Y-120340476D01*
X99004524Y-120245238D01*
X99099762Y-120150000D01*
X99242620Y-120102381D01*
X99337858Y-120102381D01*
X99480715Y-120150000D01*
X99528334Y-120197619D01*
X100433096Y-120102381D02*
X99956905Y-120102381D01*
X99909286Y-120578571D01*
X99956905Y-120530952D01*
X100052143Y-120483333D01*
X100290239Y-120483333D01*
X100385477Y-120530952D01*
X100433096Y-120578571D01*
X100480715Y-120673810D01*
X100480715Y-120911905D01*
X100433096Y-121007143D01*
X100385477Y-121054762D01*
X100290239Y-121102381D01*
X100052143Y-121102381D01*
X99956905Y-121054762D01*
X99909286Y-121007143D01*
X106134048Y-121521429D02*
X106895953Y-121521429D01*
X106515001Y-121902381D02*
X106515001Y-121140476D01*
X118149762Y-122372381D02*
X117816428Y-121896190D01*
X117578333Y-122372381D02*
X117578333Y-121372381D01*
X117959286Y-121372381D01*
X118054524Y-121420000D01*
X118102143Y-121467619D01*
X118149762Y-121562857D01*
X118149762Y-121705714D01*
X118102143Y-121800952D01*
X118054524Y-121848571D01*
X117959286Y-121896190D01*
X117578333Y-121896190D01*
X118435476Y-121372381D02*
X118768809Y-122372381D01*
X119102143Y-121372381D01*
X119959286Y-122372381D02*
X119387857Y-122372381D01*
X119673571Y-122372381D02*
X119673571Y-121372381D01*
X119578333Y-121515238D01*
X119483095Y-121610476D01*
X119387857Y-121658095D01*
X112326905Y-133972381D02*
X112326905Y-132972381D01*
X112898334Y-133972381D02*
X112469762Y-133400952D01*
X112898334Y-132972381D02*
X112326905Y-133543810D01*
X113850715Y-133972381D02*
X113279286Y-133972381D01*
X113565000Y-133972381D02*
X113565000Y-132972381D01*
X113469762Y-133115238D01*
X113374524Y-133210476D01*
X113279286Y-133258095D01*
X97202381Y-79939523D02*
X97916667Y-79939523D01*
X98059524Y-79987143D01*
X98154762Y-80082381D01*
X98202381Y-80225238D01*
X98202381Y-80320476D01*
X98202381Y-78939523D02*
X98202381Y-79510952D01*
X98202381Y-79225238D02*
X97202381Y-79225238D01*
X97345238Y-79320476D01*
X97440476Y-79415714D01*
X97488095Y-79510952D01*
X97202381Y-78606190D02*
X97202381Y-77939523D01*
X98202381Y-78368095D01*
X117562381Y-101091905D02*
X118371905Y-101091905D01*
X118467143Y-101044286D01*
X118514762Y-100996667D01*
X118562381Y-100901429D01*
X118562381Y-100710952D01*
X118514762Y-100615714D01*
X118467143Y-100568095D01*
X118371905Y-100520476D01*
X117562381Y-100520476D01*
X117657619Y-100091905D02*
X117610000Y-100044286D01*
X117562381Y-99949048D01*
X117562381Y-99710952D01*
X117610000Y-99615714D01*
X117657619Y-99568095D01*
X117752857Y-99520476D01*
X117848095Y-99520476D01*
X117990952Y-99568095D01*
X118562381Y-100139524D01*
X118562381Y-99520476D01*
X103592381Y-113791905D02*
X104401905Y-113791905D01*
X104497143Y-113744286D01*
X104544762Y-113696667D01*
X104592381Y-113601429D01*
X104592381Y-113410952D01*
X104544762Y-113315714D01*
X104497143Y-113268095D01*
X104401905Y-113220476D01*
X103592381Y-113220476D01*
X103592381Y-112839524D02*
X103592381Y-112172857D01*
X104592381Y-112601429D01*
X153582619Y-137255238D02*
X153535000Y-137350476D01*
X153439762Y-137445714D01*
X153296905Y-137588571D01*
X153249286Y-137683810D01*
X153249286Y-137779048D01*
X153487381Y-137731429D02*
X153439762Y-137826667D01*
X153344524Y-137921905D01*
X153154048Y-137969524D01*
X152820714Y-137969524D01*
X152630238Y-137921905D01*
X152535000Y-137826667D01*
X152487381Y-137731429D01*
X152487381Y-137540952D01*
X152535000Y-137445714D01*
X152630238Y-137350476D01*
X152820714Y-137302857D01*
X153154048Y-137302857D01*
X153344524Y-137350476D01*
X153439762Y-137445714D01*
X153487381Y-137540952D01*
X153487381Y-137731429D01*
X152487381Y-136969524D02*
X152487381Y-136350476D01*
X152868333Y-136683810D01*
X152868333Y-136540952D01*
X152915952Y-136445714D01*
X152963571Y-136398095D01*
X153058810Y-136350476D01*
X153296905Y-136350476D01*
X153392143Y-136398095D01*
X153439762Y-136445714D01*
X153487381Y-136540952D01*
X153487381Y-136826667D01*
X153439762Y-136921905D01*
X153392143Y-136969524D01*
X147756667Y-106132381D02*
X147756667Y-106846667D01*
X147709047Y-106989524D01*
X147613809Y-107084762D01*
X147470952Y-107132381D01*
X147375714Y-107132381D01*
X148232857Y-107132381D02*
X148232857Y-106132381D01*
X148613810Y-106132381D01*
X148709048Y-106180000D01*
X148756667Y-106227619D01*
X148804286Y-106322857D01*
X148804286Y-106465714D01*
X148756667Y-106560952D01*
X148709048Y-106608571D01*
X148613810Y-106656190D01*
X148232857Y-106656190D01*
X149709048Y-106132381D02*
X149232857Y-106132381D01*
X149185238Y-106608571D01*
X149232857Y-106560952D01*
X149328095Y-106513333D01*
X149566191Y-106513333D01*
X149661429Y-106560952D01*
X149709048Y-106608571D01*
X149756667Y-106703810D01*
X149756667Y-106941905D01*
X149709048Y-107037143D01*
X149661429Y-107084762D01*
X149566191Y-107132381D01*
X149328095Y-107132381D01*
X149232857Y-107084762D01*
X149185238Y-107037143D01*
X114387381Y-94178333D02*
X115101667Y-94178333D01*
X115244524Y-94225953D01*
X115339762Y-94321191D01*
X115387381Y-94464048D01*
X115387381Y-94559286D01*
X115387381Y-93702143D02*
X114387381Y-93702143D01*
X114387381Y-93321190D01*
X114435000Y-93225952D01*
X114482619Y-93178333D01*
X114577857Y-93130714D01*
X114720714Y-93130714D01*
X114815952Y-93178333D01*
X114863571Y-93225952D01*
X114911190Y-93321190D01*
X114911190Y-93702143D01*
X115387381Y-92178333D02*
X115387381Y-92749762D01*
X115387381Y-92464048D02*
X114387381Y-92464048D01*
X114530238Y-92559286D01*
X114625476Y-92654524D01*
X114673095Y-92749762D01*
X133389762Y-131897381D02*
X133056428Y-131421190D01*
X132818333Y-131897381D02*
X132818333Y-130897381D01*
X133199286Y-130897381D01*
X133294524Y-130945000D01*
X133342143Y-130992619D01*
X133389762Y-131087857D01*
X133389762Y-131230714D01*
X133342143Y-131325952D01*
X133294524Y-131373571D01*
X133199286Y-131421190D01*
X132818333Y-131421190D01*
X133675476Y-130897381D02*
X134008809Y-131897381D01*
X134342143Y-130897381D01*
X134627857Y-130992619D02*
X134675476Y-130945000D01*
X134770714Y-130897381D01*
X135008810Y-130897381D01*
X135104048Y-130945000D01*
X135151667Y-130992619D01*
X135199286Y-131087857D01*
X135199286Y-131183095D01*
X135151667Y-131325952D01*
X134580238Y-131897381D01*
X135199286Y-131897381D01*
X130627381Y-133453095D02*
X129627381Y-133453095D01*
X129627381Y-133215000D01*
X129675000Y-133072142D01*
X129770238Y-132976904D01*
X129865476Y-132929285D01*
X130055952Y-132881666D01*
X130198810Y-132881666D01*
X130389286Y-132929285D01*
X130484524Y-132976904D01*
X130579762Y-133072142D01*
X130627381Y-133215000D01*
X130627381Y-133453095D01*
X129960714Y-132024523D02*
X130627381Y-132024523D01*
X129579762Y-132262619D02*
X130294048Y-132500714D01*
X130294048Y-131881666D01*
X168552905Y-137612381D02*
X168552905Y-136612381D01*
X168791000Y-136612381D01*
X168933858Y-136660000D01*
X169029096Y-136755238D01*
X169076715Y-136850476D01*
X169124334Y-137040952D01*
X169124334Y-137183810D01*
X169076715Y-137374286D01*
X169029096Y-137469524D01*
X168933858Y-137564762D01*
X168791000Y-137612381D01*
X168552905Y-137612381D01*
X169457667Y-136612381D02*
X170124334Y-136612381D01*
X169695762Y-137612381D01*
X130627381Y-142406666D02*
X130151190Y-142740000D01*
X130627381Y-142978095D02*
X129627381Y-142978095D01*
X129627381Y-142597142D01*
X129675000Y-142501904D01*
X129722619Y-142454285D01*
X129817857Y-142406666D01*
X129960714Y-142406666D01*
X130055952Y-142454285D01*
X130103571Y-142501904D01*
X130151190Y-142597142D01*
X130151190Y-142978095D01*
X129627381Y-141549523D02*
X129627381Y-141740000D01*
X129675000Y-141835238D01*
X129722619Y-141882857D01*
X129865476Y-141978095D01*
X130055952Y-142025714D01*
X130436905Y-142025714D01*
X130532143Y-141978095D01*
X130579762Y-141930476D01*
X130627381Y-141835238D01*
X130627381Y-141644761D01*
X130579762Y-141549523D01*
X130532143Y-141501904D01*
X130436905Y-141454285D01*
X130198810Y-141454285D01*
X130103571Y-141501904D01*
X130055952Y-141549523D01*
X130008333Y-141644761D01*
X130008333Y-141835238D01*
X130055952Y-141930476D01*
X130103571Y-141978095D01*
X130198810Y-142025714D01*
X158234143Y-137612381D02*
X157900809Y-137136190D01*
X157662714Y-137612381D02*
X157662714Y-136612381D01*
X158043667Y-136612381D01*
X158138905Y-136660000D01*
X158186524Y-136707619D01*
X158234143Y-136802857D01*
X158234143Y-136945714D01*
X158186524Y-137040952D01*
X158138905Y-137088571D01*
X158043667Y-137136190D01*
X157662714Y-137136190D01*
X159186524Y-137612381D02*
X158615095Y-137612381D01*
X158900809Y-137612381D02*
X158900809Y-136612381D01*
X158805571Y-136755238D01*
X158710333Y-136850476D01*
X158615095Y-136898095D01*
X159757952Y-137040952D02*
X159662714Y-136993333D01*
X159615095Y-136945714D01*
X159567476Y-136850476D01*
X159567476Y-136802857D01*
X159615095Y-136707619D01*
X159662714Y-136660000D01*
X159757952Y-136612381D01*
X159948429Y-136612381D01*
X160043667Y-136660000D01*
X160091286Y-136707619D01*
X160138905Y-136802857D01*
X160138905Y-136850476D01*
X160091286Y-136945714D01*
X160043667Y-136993333D01*
X159948429Y-137040952D01*
X159757952Y-137040952D01*
X159662714Y-137088571D01*
X159615095Y-137136190D01*
X159567476Y-137231429D01*
X159567476Y-137421905D01*
X159615095Y-137517143D01*
X159662714Y-137564762D01*
X159757952Y-137612381D01*
X159948429Y-137612381D01*
X160043667Y-137564762D01*
X160091286Y-137517143D01*
X160138905Y-137421905D01*
X160138905Y-137231429D01*
X160091286Y-137136190D01*
X160043667Y-137088571D01*
X159948429Y-137040952D01*
X111164643Y-108910357D02*
X111212262Y-108957976D01*
X111259881Y-109100833D01*
X111259881Y-109196071D01*
X111212262Y-109338929D01*
X111117024Y-109434167D01*
X111021786Y-109481786D01*
X110831310Y-109529405D01*
X110688452Y-109529405D01*
X110497976Y-109481786D01*
X110402738Y-109434167D01*
X110307500Y-109338929D01*
X110259881Y-109196071D01*
X110259881Y-109100833D01*
X110307500Y-108957976D01*
X110355119Y-108910357D01*
X111259881Y-107957976D02*
X111259881Y-108529405D01*
X111259881Y-108243691D02*
X110259881Y-108243691D01*
X110402738Y-108338929D01*
X110497976Y-108434167D01*
X110545595Y-108529405D01*
X110259881Y-107053214D02*
X110259881Y-107529405D01*
X110736071Y-107577024D01*
X110688452Y-107529405D01*
X110640833Y-107434167D01*
X110640833Y-107196071D01*
X110688452Y-107100833D01*
X110736071Y-107053214D01*
X110831310Y-107005595D01*
X111069405Y-107005595D01*
X111164643Y-107053214D01*
X111212262Y-107100833D01*
X111259881Y-107196071D01*
X111259881Y-107434167D01*
X111212262Y-107529405D01*
X111164643Y-107577024D01*
X108868929Y-110323452D02*
X108868929Y-109561547D01*
X109249881Y-109942499D02*
X108487976Y-109942499D01*
X132707143Y-121007143D02*
X132659524Y-121054762D01*
X132516667Y-121102381D01*
X132421429Y-121102381D01*
X132278571Y-121054762D01*
X132183333Y-120959524D01*
X132135714Y-120864286D01*
X132088095Y-120673810D01*
X132088095Y-120530952D01*
X132135714Y-120340476D01*
X132183333Y-120245238D01*
X132278571Y-120150000D01*
X132421429Y-120102381D01*
X132516667Y-120102381D01*
X132659524Y-120150000D01*
X132707143Y-120197619D01*
X133659524Y-121102381D02*
X133088095Y-121102381D01*
X133373809Y-121102381D02*
X133373809Y-120102381D01*
X133278571Y-120245238D01*
X133183333Y-120340476D01*
X133088095Y-120388095D01*
X133992857Y-120102381D02*
X134659524Y-120102381D01*
X134230952Y-121102381D01*
X139154048Y-121521429D02*
X139915953Y-121521429D01*
X139535001Y-121902381D02*
X139535001Y-121140476D01*
X145851667Y-102957381D02*
X145851667Y-103671667D01*
X145804047Y-103814524D01*
X145708809Y-103909762D01*
X145565952Y-103957381D01*
X145470714Y-103957381D01*
X146327857Y-103957381D02*
X146327857Y-102957381D01*
X146708810Y-102957381D01*
X146804048Y-103005000D01*
X146851667Y-103052619D01*
X146899286Y-103147857D01*
X146899286Y-103290714D01*
X146851667Y-103385952D01*
X146804048Y-103433571D01*
X146708810Y-103481190D01*
X146327857Y-103481190D01*
X147756429Y-103290714D02*
X147756429Y-103957381D01*
X147518333Y-102909762D02*
X147280238Y-103624048D01*
X147899286Y-103624048D01*
M02*
