M48
;DRILL file {KiCad 4.0.7} date 08/13/18 20:17:26
;FORMAT={-:-/ absolute / inch / decimal}
FMAT,2
INCH,TZ
T1C0.016
T2C0.031
T3C0.038
T4C0.039
T5C0.043
T6C0.051
T7C0.055
%
G90
G05
M72
T1
X3.3Y-4.8
X3.3Y-5.225
X3.3Y-5.4
X3.3Y-5.575
X3.6Y-6.2
X3.675Y-2.975
X3.8Y-3.625
X3.8Y-4.25
X3.85Y-3.245
X3.89Y-3.515
X3.915Y-4.82
X4.02Y-4.42
X4.085Y-4.41
X4.1Y-4.325
X4.11Y-3.875
X4.15Y-6.2
X4.175Y-5.275
X4.175Y-5.575
X4.195Y-3.815
X4.225Y-3.775
X4.235Y-3.875
X4.285Y-3.555
X4.325Y-3.775
X4.325Y-5.
X4.33Y-3.555
X4.35Y-5.46
X4.375Y-5.325
X4.385Y-3.555
X4.44Y-4.51
X4.51Y-4.84
X4.575Y-5.175
X4.575Y-6.2
X4.58Y-3.255
X4.59Y-3.41
X4.65Y-5.1
X4.65Y-5.3
X4.685Y-4.235
X4.685Y-4.33
X4.75Y-6.2
X4.85Y-4.575
X4.895Y-4.66
X4.925Y-6.2
X4.95Y-4.775
X4.975Y-4.225
X5.005Y-4.66
X5.1Y-4.575
X5.12Y-2.8
X5.125Y-5.15
X5.14Y-3.05
X5.14Y-3.15
X5.16Y-4.225
X5.16Y-4.315
X5.195Y-2.955
X5.195Y-3.15
X5.2Y-5.3
X5.22Y-3.44
X5.225Y-5.2
X5.24Y-3.05
X5.24Y-3.15
X5.325Y-6.225
X5.35Y-4.575
X5.41Y-4.225
X5.41Y-4.315
X5.4317Y-5.1376
X5.45Y-5.175
X5.52Y-2.8
X5.52Y-2.89
X5.52Y-2.98
X5.52Y-3.035
X5.52Y-3.115
X5.6Y-4.575
X5.625Y-4.875
X5.625Y-5.15
X5.635Y-3.055
X5.65Y-4.775
X5.66Y-4.225
X5.66Y-4.315
X5.68Y-2.98
X5.685Y-2.8
X5.725Y-2.97
X5.7394Y-5.2124
X5.75Y-4.0455
X5.875Y-6.225
X5.935Y-4.29
X5.975Y-4.175
X6.Y-2.875
X6.025Y-5.3
X6.0274Y-5.5
X6.05Y-3.025
X6.05Y-4.175
X6.145Y-4.755
X6.15Y-4.175
X6.23Y-4.68
X6.23Y-4.81
X6.335Y-5.4
X6.345Y-4.165
X6.45Y-5.325
X6.5Y-4.52
X6.625Y-5.4
X6.65Y-2.725
X6.65Y-3.28
X6.65Y-4.175
X6.65Y-5.075
X6.65Y-5.725
T2
X4.725Y-4.925
X4.825Y-4.925
X4.925Y-4.925
X5.325Y-5.3
X5.325Y-5.4
X5.325Y-5.5
T3
X3.7618Y-2.9713
X3.7618Y-3.0697
X3.7618Y-3.1484
X3.7618Y-3.2469
T4
X3.325Y-3.625
X3.325Y-3.725
X3.325Y-4.25
X3.325Y-4.35
X3.425Y-3.625
X3.425Y-3.725
X3.425Y-4.25
X3.425Y-4.35
X3.525Y-3.625
X3.525Y-3.725
X3.525Y-4.25
X3.525Y-4.35
X3.625Y-3.625
X3.625Y-3.725
X3.625Y-4.25
X3.625Y-4.35
X3.725Y-3.625
X3.725Y-3.725
X3.725Y-4.25
X3.725Y-4.35
X4.Y-2.8
X4.Y-2.9
X4.1Y-2.8
X4.1Y-2.9
X4.2Y-2.8
X4.2Y-2.9
X4.3Y-2.8
X4.3Y-2.9
X4.6275Y-3.6175
X4.6275Y-3.7175
X4.75Y-2.8
X4.75Y-2.9
X4.75Y-3.
X4.75Y-3.1
X4.75Y-4.3
X4.75Y-4.4
X4.75Y-4.5
X4.85Y-2.8
X4.85Y-2.9
X4.85Y-3.
X4.85Y-3.1
X4.85Y-4.3
X4.85Y-4.4
X4.85Y-4.5
X4.95Y-2.8
X4.95Y-2.9
X4.95Y-3.
X4.95Y-3.1
X5.05Y-2.8
X5.05Y-2.9
X5.05Y-3.
X5.05Y-3.1
X5.1Y-4.3
X5.1Y-4.4
X5.1Y-4.5
X5.35Y-2.85
X5.35Y-2.95
X5.35Y-3.05
X5.35Y-4.3
X5.35Y-4.4
X5.35Y-4.5
X5.45Y-2.8
X5.45Y-2.9
X5.45Y-3.
X5.45Y-3.1
X5.55Y-4.075
X5.6Y-4.3
X5.6Y-4.4
X5.6Y-4.5
X5.65Y-4.075
X5.85Y-2.85
X5.85Y-2.95
X5.85Y-3.05
X5.85Y-4.3
X5.85Y-4.4
X5.85Y-4.5
X6.25Y-4.25
X6.25Y-4.35
X6.35Y-2.8
X6.35Y-2.9
X6.35Y-3.
X6.35Y-3.1
X6.35Y-4.25
X6.35Y-4.35
X6.45Y-2.8
X6.45Y-2.9
X6.45Y-3.
X6.45Y-3.1
X6.45Y-4.25
X6.45Y-4.35
X6.55Y-2.8
X6.55Y-2.9
X6.55Y-3.
X6.55Y-3.1
X6.55Y-4.25
X6.55Y-4.35
X6.65Y-2.8
X6.65Y-2.9
X6.65Y-3.
X6.65Y-3.1
X6.65Y-4.25
X6.65Y-4.35
T5
X4.75Y-3.35
X4.75Y-3.55
X4.75Y-3.65
X4.75Y-3.75
X4.75Y-3.95
X4.85Y-3.35
X4.85Y-3.95
X4.95Y-3.35
X4.95Y-3.95
X5.05Y-3.35
X5.05Y-3.55
X5.05Y-3.65
X5.05Y-3.75
X5.05Y-3.95
X5.15Y-3.35
X5.15Y-3.65
X5.15Y-3.75
X5.15Y-3.95
X5.25Y-3.35
X5.25Y-3.65
X5.25Y-3.75
X5.25Y-3.95
X5.35Y-3.35
X5.35Y-3.65
X5.35Y-3.75
X5.35Y-3.95
X5.45Y-3.35
X5.45Y-3.95
X5.55Y-3.35
X5.55Y-3.95
X5.65Y-3.35
X5.65Y-3.95
X5.75Y-3.35
X5.75Y-3.95
X5.85Y-3.35
X5.85Y-3.95
X5.95Y-3.35
X5.95Y-3.95
X6.05Y-3.35
X6.05Y-3.95
X6.15Y-3.35
X6.15Y-3.95
X6.25Y-3.35
X6.25Y-3.95
X6.35Y-3.35
X6.35Y-3.95
X6.45Y-3.35
X6.45Y-3.95
X6.55Y-3.35
X6.55Y-3.95
X6.65Y-3.35
X6.65Y-3.95
T6
X3.9675Y-5.2531
X3.9675Y-5.5484
X4.7667Y-5.5484
X4.9652Y-5.2531
T7
X3.4085Y-4.625
X3.4085Y-4.7904
X3.4085Y-4.9557
X3.4085Y-5.225
X3.4085Y-5.3904
X3.4085Y-5.5557
X3.6Y-5.9
X3.6Y-6.1165
X3.625Y-4.625
X3.625Y-4.7904
X3.625Y-4.9557
X3.625Y-5.225
X3.625Y-5.3904
X3.625Y-5.5557
X4.15Y-5.9
X4.15Y-6.1165
X4.575Y-5.9
X4.575Y-6.1165
X4.7404Y-5.9
X4.7404Y-6.1165
X4.9057Y-5.9
X4.9057Y-6.1165
X5.325Y-5.9
X5.325Y-6.1165
X5.875Y-5.9
X5.875Y-6.1165
X6.35Y-5.075
X6.35Y-5.725
X6.5665Y-5.075
X6.5665Y-5.725
T0
M30
